<?xml version="1.0" encoding="utf-8"?>
<!-- Generator: Adobe Illustrator 24.2.1, SVG Export Plug-In . SVG Version: 6.00 Build 0)  -->
<svg version="1.1" id="Capa_1" xmlns="http://www.w3.org/2000/svg" xmlns:xlink="http://www.w3.org/1999/xlink" x="0px" y="0px"
	 viewBox="0 0 473.9 473.9" style="enable-background:new 0 0 473.9 473.9;" xml:space="preserve">
<path d="M3.2,318.2c8.9,0,17.8,0,27.2,0c0,20.3,0,40.3,0,60.7c27.8,0,55.1,0,82.6,0c0.1,1.3,0.3,2.1,0.3,3c0,28.3,0,56.5,0,84.8
	c0,0.7-0.1,1.5-0.2,2.2c-9.1,0-18.2,0-27.2,0c0-20.8,0-41.6,0-62.4c-18.7,0-36.9,0-55.4,0c0,21,0,41.7,0,62.4c-9.1,0-18.2,0-27.2,0
	C3.2,418.7,3.2,368.4,3.2,318.2z"/>
<path d="M358.2,468.9c-0.1-15-0.2-29.9-0.2-44.9c0-14.8,0-29.6,0-45c27.6,0,55,0,82.7,0c0-20.5,0-40.3,0-60.9c9.4,0,18.4,0,27.4,0
	c0,50.2,0,100.5,0,150.7c-9.1,0-18.2,0-27.2,0c0-20.8,0-41.6,0-62.4c-18.8,0-37.1,0-55.4,0c0,21,0,41.7,0,62.4
	C376.4,468.9,367.3,468.9,358.2,468.9z"/>
<path d="M464.3,194.5c-12.9-63.9-45.8-114.8-100-151.4c-33.6-22.7-71-35.3-111.5-38.3c-1.2-0.1-2.3-0.5-3.5-0.7
	c-9.1,0-18.2,0-27.2,0c-8.5,1.1-17.1,2-25.5,3.5C102.8,23.7,29.4,94,8.4,186.8c-1.8,8.1-0.9,12.7,6.5,17.1
	c7.4,4.3,13.8,10.5,22.4,12.5c14.6,3.4,28.6,1.8,40.3-7.9c14.3-11.8,23.3-10.9,36.9-0.1c17,13.4,38.9,12.9,56.4,0
	c2-1.4,3.9-2.9,5.8-4.4c7.6-5.7,16.6-5.7,24.4-0.3c6.5,4.5,13.2,8.8,20.6,13.7c0,28,0,57.3,0,87c-39.7,0-79.2,0-119.2,0
	c0,9.2,0,18,0,27.5c6.2,0,12.3-0.1,18.4,0.1c1.9,0.1,4,0.4,5.5,1.5c28,19.9,55.8,39.9,83.7,59.9c0.5,0.3,0.9,0.8,1.7,1.5
	c-5.8,4.2-11.3,8.2-16.9,12.2c-17.5,12.5-34.9,25-52.4,37.4c-2.4,1.7-3.3,3.4-3.2,6.3c0.2,6,0,12.1,0,18.1c9.1,0,18.2,0,27.2,0
	c-1.2-6.4,2.2-9.9,7.2-13.4c14.9-10.2,29.5-21,44.2-31.5c1.1-0.8,2.2-1.5,4-2.6c0,16.3,0,31.9,0,47.5c9.1,0,18.2,0,27.2,0
	c0-15.5,0-31.1,0-47.6c1.7,1.1,2.8,1.9,4,2.7c14.7,10.5,29.3,21.3,44.2,31.5c5,3.4,8.4,7,7.2,13.4c9.1,0,18.2,0,27.2,0
	c0-5.7-0.3-11.5,0-17.2c0.2-3.6-1-5.7-4-7.8c-21.5-15.2-42.8-30.6-64.2-45.9c-1.3-1-2.7-2-4.3-3.2c1-0.8,1.9-1.7,2.8-2.3
	c27.3-19.6,54.5-39.2,81.9-58.6c1.7-1.2,4.1-1.8,6.2-1.9c6-0.3,12.1-0.1,18.4-0.1c0-9.2,0-18,0-27.2c-39.8,0-79.3,0-119.2,0
	c-0.1-1.7-0.2-3-0.2-4.4c0-26.6,0-53.3-0.1-79.9c0-3.2,1-4.4,3.9-5.9c5.6-2.8,10.9-6.4,16.1-10.1c8.6-6.2,17.4-6.5,25.8,0.1
	c8.1,6.3,16.4,11.8,27,13c14,1.6,26.3-2,37.3-10.7c3.5-2.7,7.5-5.3,11.7-6.5c6.8-1.9,13,0.5,18.4,5.2c11,9.5,23.6,13.8,38.2,12.1
	c7.7-0.9,14.6-3.6,20.9-8.1c4.7-3.3,9.5-6.5,13.9-10.2C463.6,198.3,464.6,195.9,464.3,194.5z M250.2,332.1c16.1,0,32.3,0,49.8,0
	c-17,12.2-33.1,23.7-49.8,35.7C250.2,355.6,250.2,344,250.2,332.1z M133.2,186.4c-2.4-1.8-4.4-3.3-6.4-4.8
	c-17.4-13-38.8-13-56.2-0.1c-2.6,1.9-5,4-7.6,5.8c-7.3,5-16.7,4.4-23.4-1.6C58,105.5,124.5,49.8,182.7,35.5
	C154,81.4,142.4,133.2,133.2,186.4z M222.3,367.9c-16.7-12-32.9-23.6-50-35.8c17.4,0,33.6,0,50,0
	C222.3,344.1,222.3,355.7,222.3,367.9z M222.3,185c-20.2-15.9-40.9-17.1-62.8-2.3c1.4-7.2,2.5-13.8,3.9-20.3
	c6.8-31.8,15.4-63.1,30.7-92.1c6-11.4,12.9-22.2,22.9-30.7c1.4-1.2,3-2.3,5.3-3.9C222.3,85.9,222.3,135,222.3,185z M312.4,182.4
	c-21.3-14.3-41.9-13.5-62.2,2.5c0-49.8,0-99.1,0-148.4c0.4-0.3,0.8-0.6,1.2-0.9C256.4,41,262,46,266.5,51.9
	c13.9,18.4,22.9,39.5,29.3,61.4c6.4,22.2,11.2,44.8,16.6,67.2C312.5,181,312.4,181.5,312.4,182.4z M433.3,188.4
	c-7.7,3.5-15,3.1-21.7-2.2c-6.7-5.2-13.5-10.4-22-12.3c-14.4-3.3-27.9-1.3-40,7.7c-2,1.5-4.1,3-6.6,4.9c-9.3-51.8-20.7-102-49.5-147
	c1.3,0.2,2.3,0.1,3.1,0.4c70.9,23.3,117.5,70.5,139.4,142C437,185.2,436.3,187,433.3,188.4z"/>
</svg>
