<?xml version="1.0" encoding="utf-8"?>
<!-- Generator: Adobe Illustrator 24.2.1, SVG Export Plug-In . SVG Version: 6.00 Build 0)  -->
<svg version="1.1" id="Capa_1" xmlns="http://www.w3.org/2000/svg" xmlns:xlink="http://www.w3.org/1999/xlink" x="0px" y="0px"
	 viewBox="0 0 473.9 473.9" style="enable-background:new 0 0 473.9 473.9;" xml:space="preserve">
<path d="M409.5,145c-11.5-33.6-37.2-48.9-72.1-49.6c-6.5-52.1-51.3-86.9-95.8-89c-21.4-1-41.4,3.9-59.5,15.4
	C155,39,139.5,64,134.7,95.4c-33.5,0.5-58.6,14.6-70.9,45.7c-13.1,33.1-3.2,61.4,22.9,84.5c-34.7,42.1-26.1,96.9,2.6,127.6
	c14.5,15.5,32,25.7,52.8,29.6c29.5,5.5,56.1-1.6,80.3-20.6c0,2.5,0,4.1,0,5.7c0,27.9,0.2,55.9-0.1,83.8c-0.1,8.4,2.2,14.6,10.1,18.2
	c2.4,0,4.8,0,7.2,0c7.8-3.6,10.2-9.8,10.1-18.2c-0.3-28.1-0.1-56.2-0.1-84.2c0-1.5,0-3.1,0-5.2c41.7,33.1,95.4,27.1,128.6-4.5
	c32.4-30.8,43.2-88.4,7-132.2C410.1,203.8,420.4,176.8,409.5,145z M355.1,234.7c12.9,10.7,21,24.2,24.3,40.7
	c9,44.8-29.4,86.7-74.8,81.7c-18.4-2-33.5-10.1-45.8-23.9c-2.4-2.7-5.5-4.9-9.3-8.1c0-24.8,0-50.6,0.1-76.4c0-1.6,1.4-3.6,2.6-4.8
	c12-12.1,24.1-24.1,36.1-36.3c8.1-8.3,4.8-20.9-6-23.4c-5.2-1.2-9.5,0.6-13.2,4.2c-6.2,6.2-12.4,12.3-18.7,18.5
	c-0.1,0.1-0.3,0.1-1,0.2c0-1.7,0-3.2,0-4.8c0-28.2,0.1-56.5,0-84.7c0-11.3-11.3-18-20.5-12.3c-4.6,2.8-6.6,7.2-6.6,12.6
	c0,21.4,0,42.9,0,64.3c0,23.8,0,47.7,0,71.5c0,1.6,0,3.2,0,5.7c-1.6-1.5-2.6-2.3-3.5-3.2c-9.6-9.6-19.2-19.2-28.8-28.8
	c-6.2-6.2-14.6-6.6-20.2-1.2c-5.7,5.6-5.3,14.1,1.1,20.5c16.7,16.6,33.4,33.1,50.1,49.8c0.8,0.8,1.3,2.3,1.3,3.5
	c0.1,7.8,0.2,15.7-0.1,23.5c0,1.3-1.4,2.8-2.5,3.8c-2.3,2.3-5.1,4.2-7.3,6.6c-18.6,20-41.5,27.9-68.1,21.5
	c-26.5-6.4-44.1-23.6-50.7-50.1c-7.1-28.2,1.5-52.1,23.6-70.9c9.7-8.3,8.2-19.7-3.4-24.8c-0.6-0.2-1.1-0.4-1.7-0.7
	c-23.1-10.4-33.2-38.3-21.9-61.1c9.3-18.8,30.8-28.7,51.4-23.6c12.7,3.1,19.5-2.1,19.7-15.2c0.7-37.6,24.6-66.8,60.6-74.3
	c43-8.9,85.7,23.7,88.5,67.6c0.2,2.6,0.3,5.1,0.3,7.7c0.3,11.7,7.6,17.3,18.9,14.5c14-3.6,27-1.3,38.6,7.3
	c26.4,19.4,23.5,59.7-5.3,75.5c-1.3,0.7-2.7,1.3-4.1,2C346.3,214.9,344.7,225.9,355.1,234.7z"/>
</svg>
