<?xml version="1.0" encoding="utf-8"?>
<!-- Generator: Adobe Illustrator 24.2.1, SVG Export Plug-In . SVG Version: 6.00 Build 0)  -->
<svg version="1.1" id="Capa_1" xmlns="http://www.w3.org/2000/svg" xmlns:xlink="http://www.w3.org/1999/xlink" x="0px" y="0px"
	 viewBox="0 0 122 122" style="enable-background:new 0 0 122 122;" xml:space="preserve">
<path d="M90.5,0.7c2.9,1.4,3.5,3,2,5.9C88.7,14.3,84.8,22,81,29.7c-0.2,0.3-0.3,0.7-0.6,1.3c0.5,0,0.9,0,1.3,0c5,0,9.9,0,14.9,0
	c1.6,0,2.9,0.4,3.7,1.9c0.8,1.5,0.3,2.8-0.6,4.2C87.9,54.3,76,71.6,64,88.8c-0.6,0.8-0.8,1.6-0.8,2.6c0,7,0,14,0,21
	c0,0.4,0,0.8,0,1.4c0.5,0,1,0,1.4,0c7,0,14.1,0,21.1,0c2.8,0,4.5,2.5,3.5,4.8c-0.6,1.5-1.9,2.2-3.5,2.2c-4.1,0-8.3,0-12.4,0
	c-13.1,0-26.1,0-39.2,0c-0.8,0-1.7-0.2-2.5-0.5c-1.4-0.7-2-2.4-1.6-3.8c0.5-1.6,1.8-2.6,3.6-2.6c5.7,0,11.3,0,17,0
	c1.8,0,3.6,0,5.6,0c0-0.5,0-0.9,0-1.3c0-7.1,0-14.2,0-21.4c0-0.7-0.3-1.5-0.7-2.1c-11.9-17.3-23.9-34.6-35.8-52
	c-0.8-1.1-1.3-2.3-0.8-3.7c0.5-1.5,1.8-2.4,3.5-2.4c3.1,0,6.3,0,9.4,0c13.2,0,26.4,0,39.5,0c0.9,0,1.4-0.3,1.8-1.1
	c4.3-8.8,8.7-17.6,13.1-26.3c0.7-1.3,1.5-2.4,2.9-2.9C89.5,0.7,90,0.7,90.5,0.7z M59.7,82.8c5.8-8.4,11.5-16.7,17.3-25.1
	c-1.3-0.8-2.5-1.8-3.8-2.1c-1.3-0.4-2.8-0.3-4.1-0.1c-0.5,0.1-1.2,0.7-1.5,1.2c-1.6,3-3.1,6.1-4.6,9.1c-1,2.1-3,2.8-4.8,1.9
	c-1.8-0.9-2.4-3-1.4-5c0.7-1.4,1.3-2.7,2-4.1c-1.1-0.3-2.2-0.4-3.2-0.8c-1-0.4-2.1-0.8-3-1.4c-3.6-2.4-6.9-1.5-10.1,1.4
	C48.2,66.1,53.9,74.3,59.7,82.8z M38.4,51.8c0.2,0,0.3,0,0.3-0.1c0.3-0.2,0.6-0.4,0.9-0.6c5.5-3.9,11-4.3,16.8-0.6
	c1.6,1,3.4,1.2,5.2,0.6c0.6-0.2,1.2-0.7,1.4-1.2c1.7-3.3,3.4-6.7,5-10c0.3-0.6,0.6-1.2,0.9-1.8c-13.4,0-26.6,0-40.1,0
	C32.2,42.7,35.3,47.3,38.4,51.8z M81,52c3.2-4.7,6.4-9.2,9.6-14c-3.8,0-7.3,0.2-10.8-0.1c-2.3-0.2-3.5,0.5-4.4,2.7
	c-1,2.5-2.4,4.9-3.6,7.5C75.4,48.3,78.2,49.9,81,52z"/>
</svg>
