<?xml version="1.0" encoding="utf-8"?>
<!-- Generator: Adobe Illustrator 24.2.1, SVG Export Plug-In . SVG Version: 6.00 Build 0)  -->
<svg version="1.1" id="Capa_1" xmlns="http://www.w3.org/2000/svg" xmlns:xlink="http://www.w3.org/1999/xlink" x="0px" y="0px"
	 viewBox="0 0 153 153" style="enable-background:new 0 0 153 153;" xml:space="preserve">
<path d="M108.4,35.9c3.5,0,6.7,0,9.9,0c8.7,0,14.9,5.6,15.5,14.2c0.6,7.9,0.8,15.8,1.2,23.7c0.8,16.8,1.6,33.7,2.4,50.5
	c0.2,4.1,0.4,8.1,0.5,12.2c0.2,8.8-6.3,15.6-15.2,15.6c-29.5,0-59.1,0-88.6,0c-8.9,0-15.5-6.8-15.2-15.7c0.6-15.5,1.4-31.1,2.2-46.6
	c0.6-12,1.1-24.1,1.7-36.1c0.1-2.4,0.3-4.9,0.9-7.2c1.7-6.1,7.5-10.3,13.9-10.4c3.5-0.1,7.1,0,10.9,0c-0.7-11.5,3.1-21.1,12.5-28
	c5.8-4.3,12.5-6.1,19.7-5.5c8.5,0.7,15.5,4.3,20.9,10.8C107,19.6,108.9,27.3,108.4,35.9z M78.4,142c14.6,0,29.3,0,43.9,0
	c3.7,0,5.7-2.1,5.5-5.8c-0.1-1.6-0.1-3.2-0.2-4.8c-0.8-16.9-1.6-33.8-2.4-50.6c-0.5-9.9-0.9-19.8-1.4-29.8c-0.2-3.6-2.2-5.4-5.7-5.3
	c-7.8,0-15.6,0.1-23.4,0.1c-18.7,0.1-37.4,0.1-56.1,0.1c-3.5,0-5.4,1.7-5.6,5.3c-0.3,4-0.4,8.1-0.6,12.2
	c-1.1,24.2-2.3,48.4-3.4,72.6c-0.2,4.1,1.7,6.1,5.8,6.1C49.4,142,63.9,142,78.4,142z M58.5,35.8c13.3,0,26.6,0,39.8,0
	c0.7-8.6-1.8-15.8-9.3-20.5c-6.8-4.3-14.1-4.4-21-0.2C60.4,19.7,57.8,27,58.5,35.8z"/>
<path d="M80.9,86.1c-16.6,0-28.5-9.4-31.8-23c-1-4.2,1.8-7.4,5.8-6.6c2.4,0.5,3.5,2.1,4.1,4.4c1.9,7.3,6.4,12.2,13.6,14.6
	c10.5,3.4,22.1-2.9,25.1-13.6c0.2-0.6,0.3-1.2,0.5-1.8c0.8-2.8,3.5-4.2,6.2-3.5c2.5,0.6,4.2,3.2,3.5,5.9c-0.5,2.1-1.1,4.1-2,6
	C100.4,80,91,85.6,80.9,86.1z"/>
</svg>
