<?xml version="1.0" encoding="utf-8"?>
<!-- Generator: Adobe Illustrator 24.2.1, SVG Export Plug-In . SVG Version: 6.00 Build 0)  -->
<svg version="1.1" id="Capa_1" xmlns="http://www.w3.org/2000/svg" xmlns:xlink="http://www.w3.org/1999/xlink" x="0px" y="0px"
	 viewBox="0 0 153 153" style="enable-background:new 0 0 153 153;" xml:space="preserve">
<path d="M62.4,127.7c-14.7,0-29.3,0-44,0c-4,0-6.1-2.1-6.1-6.1c0-23,0-46,0-69c0-0.3,0-0.7,0-1.2c38.7,0,77.3,0,116,0
	c0,0.5,0,1,0,1.4c0,3.4,0,6.8,0,10.1c0.6,0.3,1.3,0.6,1.9,1c3,1.6,5.7,3.4,8.1,5.4c0-14.5,0-29.1,0-43.6c-0.6-2.8-1.4-5.5-3.3-7.8
	c-3.2-4.1-7.3-6.2-12.4-6.4c-2.2-0.1-4.4,0-6.9,0c0-3.7,0-7.2,0-10.8c-3.6,0-7.1,0-10.7,0c0,3.5,0,7.1,0,10.7c-23.6,0-47.2,0-70.9,0
	c0-3.6,0-7.1,0-10.7c-3.6,0-7.1,0-10.7,0c0,3.5,0,7.1,0,10.8c-2.2,0-4.3,0-6.5,0c-7.7,0.1-14,5.2-15.7,12.6c-0.3,1.3-0.4,2.7-0.4,4
	c0,31.2,0,62.5,0,93.7c0,8.6,5.3,14.9,13.8,16.5c0.2,0,0.3,0.1,0.5,0.2c17.9,0,35.9,0,53.8,0C66.3,135.2,64.1,131.7,62.4,127.7z
	 M12.3,27.3c0-2.8,2.3-4.9,5-5c1.7-0.1,3.4,0,5.1,0c0.5,0,1,0,1.6,0c0,3.6,0,7.1,0,10.7c3.7,0,7.1,0,10.8,0c0-3.5,0-7,0-10.6
	c23.7,0,47.2,0,70.9,0c0,3.5,0,7,0,10.6c3.6,0,7.1,0,10.8,0c0-3.5,0-7,0-10.6c2.6,0,5-0.1,7.3,0c2.5,0.2,4.4,2.4,4.4,4.8
	c0.1,4.4,0,8.8,0,13.3c-38.6,0-77.2,0-116,0C12.3,36,12.2,31.7,12.3,27.3z"/>
<path d="M150.7,99.7c-2.6-14-10.3-24.5-22.8-31.3c-5.4-3-11.3-4.6-17.5-5.1c-0.2,0-0.5-0.1-0.6-0.1c-1.7,0-3.5,0-5.2,0
	c-1.7,0.2-3.4,0.4-5.1,0.7c-14,2.6-24.5,10.3-31.3,22.8c-2.9,5.4-4.6,11.2-5.1,17.4c0,0.2-0.1,0.5-0.1,0.8c0,1.7,0,3.5,0,5.2
	c0.2,1.7,0.4,3.4,0.7,5.1c2.7,14,10.3,24.5,22.8,31.3c5.4,3,11.3,4.6,17.5,5.1c0.2,0,0.5,0.1,0.6,0.1c1.7,0,3.5,0,5.2,0
	c1.7-0.2,3.4-0.4,5.1-0.7c14-2.7,24.5-10.3,31.3-22.8c3-5.4,4.6-11.2,5.1-17.4c0-0.2,0.1-0.5,0.1-0.8c0-1.7,0-3.5,0-5.2
	C151.1,103.1,151,101.4,150.7,99.7z M107.1,144.8c-20.6-0.1-37.3-16.7-37.3-37.3s16.8-37.3,37.3-37.3c20.6,0.1,37.3,16.7,37.3,37.3
	C144.5,128,127.7,144.8,107.1,144.8z"/>
<path d="M101.3,114.3c0.2-0.4,0.4-0.7,0.6-0.9c6.5-6.5,13.1-13.1,19.6-19.6c0.8-0.8,1.6-1.4,2.8-1.4c1.4,0,2.5,0.6,3.1,1.8
	c0.6,1.2,0.5,2.5-0.2,3.6c-0.2,0.4-0.5,0.6-0.9,0.9c-7.4,7.4-14.8,14.8-22.2,22.2c-2.1,2.1-3.9,2.1-5.9,0
	c-3.4-3.4-6.9-6.9-10.3-10.3c-0.9-0.9-1.5-2-1.2-3.4c0.5-2.6,3.6-3.6,5.6-1.9c1.2,1,2.2,2.2,3.4,3.2
	C97.4,110.4,99.2,112.3,101.3,114.3z"/>
</svg>
