<?xml version="1.0" encoding="utf-8"?>
<!-- Generator: Adobe Illustrator 24.2.1, SVG Export Plug-In . SVG Version: 6.00 Build 0)  -->
<svg version="1.1" id="Capa_1" xmlns="http://www.w3.org/2000/svg" xmlns:xlink="http://www.w3.org/1999/xlink" x="0px" y="0px"
	 viewBox="0 0 300 300" style="enable-background:new 0 0 300 300;" xml:space="preserve">
<path d="M48.8,130.8c0,7.4,0,14.7,0,22c7.4,0,14.7,0,21.9,0c0-7.4,0-14.7,0-22C63.3,130.8,56.1,130.8,48.8,130.8z"/>
<path d="M93.3,152.7c7.5,0,14.7,0,21.9,0c0-7.5,0-14.7,0-21.9c-7.4,0-14.6,0-21.9,0C93.3,138.1,93.3,145.3,93.3,152.7z"/>
<path d="M137.8,130.8c0,7.5,0,14.8,0,21.9c7.4,0,14.7,0,21.9,0c0-7.4,0-14.6,0-21.9C152.4,130.8,145.2,130.8,137.8,130.8z"/>
<path d="M204.2,130.8c-7.5,0-14.7,0-21.9,0c0,7.5,0,14.7,0,21.9c7.4,0,14.6,0,21.9,0C204.2,145.4,204.2,138.2,204.2,130.8z"/>
<path d="M226.7,152.8c7.4,0,14.6,0,21.9,0c0-7.4,0-14.7,0-21.9c-7.4,0-14.7,0-21.9,0C226.7,138.3,226.7,145.4,226.7,152.8z"/>
<path d="M70.7,197.4c0-7.5,0-14.8,0-21.9c-7.4,0-14.7,0-21.9,0c0,7.4,0,14.6,0,21.9C56.2,197.4,63.3,197.4,70.7,197.4z"/>
<path d="M93.4,175.3c0,7.5,0,14.7,0,21.9c7.4,0,14.7,0,21.9,0c0-7.4,0-14.6,0-21.9C107.9,175.3,100.7,175.3,93.4,175.3z"/>
<path d="M137.9,175.3c0,7.3,0,14.7,0,22c7.3,0,14.6,0,21.8,0c0-7.5,0-14.7,0-22C152.3,175.3,145.2,175.3,137.9,175.3z"/>
<path d="M204.2,197.4c0-7.6,0-14.8,0-22c-7.4,0-14.6,0-21.9,0c0,7.4,0,14.7,0,22C189.7,197.4,196.8,197.4,204.2,197.4z"/>
<path d="M248.7,197.4c0-7.5,0-14.7,0-22c-7.4,0-14.6,0-21.9,0c0,7.4,0,14.7,0,22C234.2,197.4,241.3,197.4,248.7,197.4z"/>
<path d="M48.9,219.8c0,7.3,0,14.7,0,22c7.3,0,14.6,0,21.8,0c0-7.5,0-14.7,0-22C63.4,219.8,56.3,219.8,48.9,219.8z"/>
<path d="M93.4,219.9c0,7.5,0,14.7,0,21.9c7.4,0,14.7,0,21.9,0c0-7.4,0-14.6,0-21.9C107.9,219.9,100.7,219.9,93.4,219.9z"/>
<path d="M159.8,219.9c-7.5,0-14.7,0-22,0c0,7.4,0,14.7,0,22c7.4,0,14.7,0,22,0C159.8,234.5,159.8,227.3,159.8,219.9z"/>
<path d="M204.3,219.9c-7.5,0-14.7,0-22,0c0,7.4,0,14.7,0,22c7.4,0,14.7,0,22,0C204.3,234.5,204.3,227.3,204.3,219.9z"/>
<path d="M48.8,130.8c7.3,0,14.5,0,21.9,0c0,7.3,0,14.5,0,22c-7.2,0-14.5,0-21.9,0C48.8,145.4,48.8,138.2,48.8,130.8z"/>
<path d="M93.3,152.7c0-7.4,0-14.6,0-21.9c7.3,0,14.5,0,21.9,0c0,7.2,0,14.5,0,21.9C108,152.7,100.8,152.7,93.3,152.7z"/>
<path d="M137.8,130.8c7.4,0,14.6,0,21.9,0c0,7.3,0,14.5,0,21.9c-7.2,0-14.4,0-21.9,0C137.8,145.5,137.8,138.3,137.8,130.8z"/>
<path d="M204.2,130.8c0,7.4,0,14.6,0,21.9c-7.3,0-14.5,0-21.9,0c0-7.2,0-14.5,0-21.9C189.5,130.8,196.8,130.8,204.2,130.8z"/>
<path d="M226.7,152.8c0-7.3,0-14.5,0-21.9c7.2,0,14.5,0,21.9,0c0,7.2,0,14.5,0,21.9C241.4,152.8,234.1,152.8,226.7,152.8z"/>
<path d="M70.7,197.4c-7.4,0-14.6,0-21.9,0c0-7.3,0-14.5,0-21.9c7.2,0,14.4,0,21.9,0C70.7,182.6,70.7,189.9,70.7,197.4z"/>
<path d="M93.4,175.3c7.4,0,14.6,0,21.9,0c0,7.3,0,14.5,0,21.9c-7.2,0-14.5,0-21.9,0C93.4,190.1,93.4,182.8,93.4,175.3z"/>
<path d="M137.9,175.3c7.4,0,14.5,0,21.8,0c0,7.3,0,14.6,0,22c-7.2,0-14.5,0-21.8,0C137.9,189.9,137.9,182.6,137.9,175.3z"/>
<path d="M204.2,197.4c-7.3,0-14.5,0-21.9,0c0-7.4,0-14.6,0-22c7.3,0,14.4,0,21.9,0C204.2,182.6,204.2,189.8,204.2,197.4z"/>
<path d="M248.7,197.4c-7.4,0-14.6,0-21.9,0c0-7.3,0-14.6,0-22c7.3,0,14.5,0,21.9,0C248.7,182.7,248.7,189.9,248.7,197.4z"/>
<path d="M48.9,219.8c7.4,0,14.5,0,21.8,0c0,7.3,0,14.6,0,22c-7.2,0-14.5,0-21.8,0C48.9,234.5,48.9,227.2,48.9,219.8z"/>
<path d="M93.4,219.9c7.4,0,14.6,0,21.9,0c0,7.3,0,14.5,0,21.9c-7.2,0-14.5,0-21.9,0C93.4,234.7,93.4,227.4,93.4,219.9z"/>
<path d="M159.8,219.9c0,7.4,0,14.6,0,22c-7.3,0-14.5,0-22,0c0-7.3,0-14.5,0-22C145.1,219.9,152.3,219.9,159.8,219.9z"/>
<path d="M204.3,219.9c0,7.4,0,14.6,0,22c-7.3,0-14.6,0-22,0c0-7.3,0-14.6,0-22C189.6,219.9,196.8,219.9,204.3,219.9z"/>
<path d="M284.3,43c-6.6-8.4-15.1-12.9-25.7-13.3c-4.6-0.2-9.2,0-14.2,0c0-7.6,0-14.9,0-22.3c-7.4,0-14.8,0-22.2,0
	c0,7.3,0,14.6,0,22.1c-48.9,0-97.7,0-146.8,0c0-7.4,0-14.7,0-22.1c-7.4,0-14.8,0-22.2,0c0,7.3,0,14.6,0,22.3c-4.6,0-9-0.1-13.4,0
	C23.9,29.9,10.8,40.4,7.3,55.8c-0.6,2.7-0.8,5.5-0.8,8.3c0,64.7,0,129.3,0,194c0,17.8,11,30.9,28.5,34.1c0.4,0.1,0.7,0.3,1,0.4
	c75.2,0,150.5,0,225.7,0c1.9-0.5,3.9-0.9,5.8-1.5c12.7-4.3,20.4-13,23.1-26.2c0.1-0.6,0.4-1.2,0.5-1.8c0-68,0-135.9,0-203.9
	C289.9,53.4,288.1,47.8,284.3,43z M30.2,62.4c0.1-5.7,4.7-10.1,10.4-10.4c3.5-0.2,7-0.1,10.6-0.1c1,0,2,0,3.3,0c0,7.4,0,14.7,0,22.1
	c7.6,0,14.8,0,22.3,0c0-7.3,0-14.5,0-21.9c49,0,97.7,0,146.7,0c0,7.2,0,14.4,0,21.9c7.5,0,14.7,0,22.3,0c0-7.2,0-14.5,0-21.9
	c5.3,0,10.3-0.3,15.2,0.1c5.1,0.5,9.1,4.9,9.2,10c0.2,9.1,0.1,18.2,0.1,27.5c-80,0-159.9,0-240.1,0C30.1,80.4,29.9,71.4,30.2,62.4z
	 M270.3,115.2c0,47.4,0,94.9,0,142.3c0,8.5-4.4,12.8-12.9,12.8c-71.5,0-143.1,0-214.6,0c-8.3,0-12.7-4.4-12.7-12.7
	c0-47.6,0-95.3,0-142.9c0-0.7,0-1.5,0-2.5c80.1,0,160,0,240.2,0C270.3,113.2,270.3,114.2,270.3,115.2z"/>
</svg>
