<?xml version="1.0" encoding="utf-8"?>
<!-- Generator: Adobe Illustrator 24.2.1, SVG Export Plug-In . SVG Version: 6.00 Build 0)  -->
<svg version="1.1" id="Capa_1" xmlns="http://www.w3.org/2000/svg" xmlns:xlink="http://www.w3.org/1999/xlink" x="0px" y="0px"
	 viewBox="0 0 300 300" style="enable-background:new 0 0 300 300;" xml:space="preserve">
<path d="M282.7,295.7c-0.1-1.2-0.3-2.4-0.3-3.6c0-40.7-0.2-81.5,0.1-122.2c0.1-16.7-5.7-30-19.6-39.6c-0.8-0.6-1.2-2.2-1.2-3.4
	c-0.1-24.2,0-48.4-0.1-72.5c-0.1-23.3-15.6-42.2-38.4-46.8c-3-0.6-6.2-0.9-9.3-0.9c-44.8-0.1-89.6-0.1-134.4,0
	C52.8,6.6,32,27.4,32,54.2c-0.1,24.4,0,48.7,0,73.1c0,2.1-0.5,3.3-2.3,4.7c-11.8,9-17.3,21.1-17.3,35.9c0.1,41.4,0,82.8,0,124.2
	c0,1.2-0.2,2.4-0.2,3.6c18.7,0,37.4,0,56,0c0-11.5,0.1-22.9,0.1-34.4c0-1.1,0-2.2,0-3.6c52.7,0,105.3,0,158.3,0c0,12.7,0,25.3,0,38
	C245.3,295.7,264,295.7,282.7,295.7z M265.2,278.6c-7.2,0-14.2,0-21.4,0c0-6.9,0-13.8,0-20.9c7.2,0,14.2,0,21.4,0
	C265.2,264.7,265.2,271.6,265.2,278.6z M49.7,55.2c0-18.6,13-31.6,31.6-31.6c44.1,0,88.3,0,132.4,0c18.6,0,31.7,13,31.7,31.6
	c0,21.8,0,43.7,0,65.5c0,0.8,0,1.7,0,2.7c-7,0-13.7,0-20.4,0c-0.3-4.3-0.2-8.5-0.9-12.5c-3.3-18.3-18.4-31-37-31.1
	c-26-0.1-52.1-0.2-78.1,0c-21,0.1-37.1,16.4-37.4,37.3c0,2,0,3.9,0,6.2c-7.4,0-14.5,0-21.9,0c0-0.7,0-1.7,0-2.7
	C49.7,98.8,49.7,77,49.7,55.2z M207,117.9c0,1.7,0,3.3,0,5.1c-39.8,0-79.3,0-118.7,0c-3.1-14.3,6.6-26.5,21.1-26.5
	c25.4,0,50.7,0,76.1,0C198.2,96.5,206.9,105.1,207,117.9z M29.8,163.3c0.5-11.8,11.7-21.9,23.7-22.5c0.9,0,1.9-0.1,2.8-0.1
	c60.7,0,121.4,0,182.2,0c13.3,0,23.5,7.9,26.3,20.4c0.1,0.6,0.3,1.3,0.3,1.9c0.1,1.6,0.2,3.2,0.2,4.8c0,11.4,0,22.8,0,34.4
	c-78.6,0-157.1,0-235.7,0C29.7,189,29.3,176.1,29.8,163.3z M51.2,278.5c-7.1,0-14.1,0-21.5,0c0-6.8,0-13.7,0-20.9
	c7.3,0,14.3,0,21.5,0C51.2,264.7,51.2,271.5,51.2,278.5z M29.7,240.3c0-7,0-13.9,0-20.9c78.6,0,157,0,235.6,0c0,7,0,13.9,0,20.9
	C186.8,240.3,108.3,240.3,29.7,240.3z"/>
</svg>
