<?xml version="1.0" encoding="utf-8"?>
<!-- Generator: Adobe Illustrator 24.2.1, SVG Export Plug-In . SVG Version: 6.00 Build 0)  -->
<svg version="1.1" id="Capa_1" xmlns="http://www.w3.org/2000/svg" xmlns:xlink="http://www.w3.org/1999/xlink" x="0px" y="0px"
	 viewBox="0 0 200 200" style="enable-background:new 0 0 200 200;" xml:space="preserve">
<path d="M199,138.7c0-2.5-1.2-3.6-3.6-3.7c-0.8,0-1.7,0-2.7,0c0-0.9,0-1.6,0-2.3c0-7.2,0-14.3,0-21.5c0-8.6-4-13.3-12.7-14.5
	c0-0.9,0-1.6,0-2.3c0-16.9,0-33.8,0-50.7c0-8.3-5.3-13.7-13.7-13.7c-43.9,0-87.7,0-131.6,0c-8.5,0-13.8,5.3-13.8,13.8
	c0,16.9,0,33.8,0,50.7c0,0.8,0,1.5,0,2.2c-8.3,1-12.7,5.9-12.7,14c0,7.4,0,14.7,0,22.1c0,0.7,0,1.4,0,2.2c-1.1,0-2,0-2.8,0
	c-2.3,0.1-3.5,1.2-3.5,3.4c-0.1,4.1-0.1,8.2,0,12.3c0,2.1,1.3,3.2,3.4,3.3c1,0,1.9,0,2.9,0c0,4.3,0,8.3,0,12.2
	c0,2.3,1.1,3.6,3.3,3.6c3.1,0.1,6.2,0,9.3,0c1.8,0,2.8-1,3.2-2.7c0.2-0.8,0.3-1.6,0.5-2.3c0.7-3.6,1.5-7.2,2.2-10.9c1,0,1.8,0,2.6,0
	c26.1,0,52.2,0,78.3,0c21.5,0,43.1,0,64.6,0c1.4,0,2.1,0.3,2.3,1.8c0.6,3.7,1.5,7.4,2.2,11.1c0.4,2,1.6,3,3.6,3c3,0,6,0,8.9,0
	c2.1,0,3.3-1.2,3.4-3.4c0-0.8,0-1.6,0-2.4c0-3.4,0-6.7,0-10.1c1,0,1.7,0,2.4,0c2.7,0,3.9-1.1,3.9-3.8C199,146.4,199,142.6,199,138.7
	z M27.2,94.6c0-16.9,0-33.8,0-50.7c0-5.1,2.4-7.5,7.6-7.5c43.7,0,87.4,0,131.2,0c5.1,0,7.6,2.4,7.6,7.5c0,16.9,0,33.8,0,50.7
	c0,0.7,0,1.3,0,2.2c-2.2,0-4.2,0-6.4,0c0-4.2,0-8.4,0-12.5c-0.1-6.5-4.3-11.5-10.7-12.7c-0.9-0.2-1.8-0.2-2.8-0.2
	c-12.2,0-24.4,0-36.6,0c-8.2,0-13.6,5.3-13.6,13.5c0,3.9,0,7.8,0,11.8c-2.1,0-4.1,0-6.2,0c0-0.5-0.1-1.1-0.1-1.6c0-3.7,0-7.4,0-11.1
	c-0.1-7-5.6-12.5-12.6-12.5c-12.8-0.1-25.6-0.1-38.4,0c-7.1,0-12.6,5.6-12.7,12.6c-0.1,4.2,0,8.3,0,12.6c-2.1,0-4.1,0-6.4,0
	C27.2,96,27.2,95.3,27.2,94.6z M160.8,96.5c-17,0-33.8,0-50.8,0c0-4.7-0.2-9.3,0.1-13.9c0.2-2.9,3-5.1,6-5.1c12.8,0,25.7-0.1,38.5,0
	c3.3,0,6,2.6,6.1,5.9C160.9,87.7,160.8,92,160.8,96.5z M90.8,96.5c-16.9,0-33.8,0-50.9,0c0-4.4-0.1-8.7,0-13
	c0.1-3.2,2.8-5.9,6.1-5.9c12.8-0.1,25.7-0.1,38.5,0c3.3,0,6,2.6,6.1,5.9C90.9,87.8,90.8,92.1,90.8,96.5z M14.6,109
	c0-3.2,2.8-5.7,5.9-5.9c0.6,0,1.2,0,1.8,0c52.1,0,104.1,0,156.2,0c5.4,0,7.8,2.3,7.8,7.7c0,7.9,0,15.9,0,24c-57.2,0-114.4,0-171.7,0
	C14.5,126.1,14.5,117.5,14.6,109z M18.3,163.5c-1.2,0-2.4,0-3.7,0c0-3.1,0-6.1,0-9.3c1.8,0,3.6,0,5.5,0
	C19.5,157.4,18.9,160.4,18.3,163.5z M186.7,163.6c-1.2,0-2.3,0-3.6,0c-0.6-3.1-1.2-6.2-1.9-9.4c1.9,0,3.7,0,5.5,0
	C186.7,157.3,186.7,160.3,186.7,163.6z M192.5,147.6c-61.5,0-122.8,0-184.3,0c0-2.1,0-4,0-6.1c61.4,0,122.7,0,184.3,0
	C192.5,143.6,192.5,145.6,192.5,147.6z"/>
</svg>
