<?xml version="1.0" encoding="utf-8"?>
<!-- Generator: Adobe Illustrator 24.2.1, SVG Export Plug-In . SVG Version: 6.00 Build 0)  -->
<svg version="1.1" id="Capa_1" xmlns="http://www.w3.org/2000/svg" xmlns:xlink="http://www.w3.org/1999/xlink" x="0px" y="0px"
	 viewBox="0 0 153 153" style="enable-background:new 0 0 153 153;" xml:space="preserve">
<path d="M79,1.6c2.7,0.6,5.6,0.9,8.2,1.7c11.1,3.5,18.9,10.8,23.5,21.4c1.9,4.3,2.7,8.8,2.9,13.4c0.2,4.4-2.8,8-7,8.3
	c-4.2,0.2-7.6-2.8-7.8-7.3c-0.3-5.6-1.8-10.6-5.5-14.8c-5.8-6.5-13.2-9.2-21.6-7.5c-8.5,1.7-13.8,7.4-16.4,15.5
	c-0.8,2.4-1.1,4.9-1.2,7.4C53.9,46.7,54,53.5,54,60.4c0,0.3,0,0.6,0.1,1c0.7,0,1.3,0,1.9,0c21.3,0,42.6,0,63.8,0
	c0.8,0,1.7,0,2.5,0.1c3.7,0.5,5.9,2.9,6.2,6.6c0.1,0.6,0,1.3,0,1.9c0,24,0,48.1,0,72.1c0,5.8-2.9,8.7-8.7,8.7c-29,0-58,0-87,0
	c-5.4,0-8.7-3.3-8.7-8.7c0-24,0-48.1,0-72.1c0-5.6,3-8.6,8.6-8.6c2,0,4.1,0,6.3,0c0-0.7,0-1.3,0-1.8c0.1-7.4-0.2-14.8,0.2-22.1
	C40.2,22,50.7,8.3,65.4,3.4c2.7-0.9,5.6-1.2,8.4-1.8C75.5,1.6,77.2,1.6,79,1.6z M69,116.7c0,1.8-0.1,3.7,0,5.5
	c0.3,3.8,3.2,6.2,7.3,6.3c4.1,0,7.1-2.4,7.3-6.3c0.2-3,0.2-6,0.1-9c0-1.2,0.3-2,1.4-2.7c4-2.9,6.4-6.8,6.4-11.8
	c0-4.6-2.3-8-5.6-10.9c-5.9-5.1-15-4.7-20.4,1c-5.4,5.6-5.5,14.4,0.3,19.9C68.4,111,69.5,113.3,69,116.7z"/>
</svg>
