<?xml version="1.0" encoding="utf-8"?>
<!-- Generator: Adobe Illustrator 24.2.1, SVG Export Plug-In . SVG Version: 6.00 Build 0)  -->
<svg version="1.1" id="Capa_1" xmlns="http://www.w3.org/2000/svg" xmlns:xlink="http://www.w3.org/1999/xlink" x="0px" y="0px"
	 viewBox="0 0 122 122" style="enable-background:new 0 0 122 122;" xml:space="preserve">
<path d="M31.2,23.6c0.9,0.2,1.9,0.3,2.8,0.6c6.3,1.5,11.7,7.5,12.5,13.9c0.6,4.2-0.1,8.2-2.4,11.8c-3.2,4.7-7.6,7.5-13.4,7.9
	c-7.6,0.5-13.9-4-16.7-10c-2.7-5.7-1.6-13.3,2.6-18c2.6-2.9,5.7-4.9,9.5-5.7c0.7-0.1,1.3-0.2,2-0.4C29.1,23.6,30.2,23.6,31.2,23.6z"
	/>
<path d="M30.1,94.6c-5.6,0-11.3,0-16.9,0c-2.9,0-5.5-0.6-7.9-2.3c-2.7-1.9-4.3-4.6-4.6-7.9C0.1,78.6,0.8,72.8,3,67.3
	c1.3-3.3,3.3-6.1,6.6-7.9c2-1.1,4.2-1.6,6.5-1.5c0.7,0,1.4,0.4,2.1,0.7c1.1,0.6,2.1,1.3,3.1,2c5.9,3.6,11.8,3.6,17.7,0
	c0.7-0.4,1.4-0.8,2.1-1.4c1.8-1.5,3.8-1.5,6-1c4.1,0.9,7.1,3.3,9.1,7c2,3.6,2.9,7.5,3.3,11.6c0.2,2.1,0.3,4.2,0.3,6.4
	c-0.1,6.1-4.4,10.8-10.5,11.4c-0.9,0.1-1.7,0.1-2.6,0.1C41,94.6,35.5,94.6,30.1,94.6z"/>
<path d="M92.2,23.6c0.9,0.2,1.9,0.3,2.8,0.6c6.3,1.5,11.7,7.5,12.5,13.9c0.6,4.2-0.1,8.2-2.4,11.8c-3.2,4.7-7.6,7.5-13.4,7.9
	c-7.6,0.5-13.9-4-16.7-10c-2.7-5.7-1.6-13.3,2.6-18c2.6-2.9,5.7-4.9,9.5-5.7c0.7-0.1,1.3-0.2,2-0.4C90.1,23.6,91.1,23.6,92.2,23.6z"
	/>
<path d="M91,94.6c-5.6,0-11.3,0-16.9,0c-2.9,0-5.5-0.6-7.9-2.3c-2.7-1.9-4.3-4.6-4.6-7.9c-0.5-5.9,0.2-11.6,2.4-17.1
	c1.3-3.3,3.3-6.1,6.6-7.9c2-1.1,4.2-1.6,6.5-1.5c0.7,0,1.4,0.4,2.1,0.7c1.1,0.6,2.1,1.3,3.1,2c5.9,3.6,11.8,3.6,17.7,0
	c0.7-0.4,1.4-0.8,2.1-1.4c1.8-1.5,3.8-1.5,6-1c4.1,0.9,7.1,3.3,9.1,7c2,3.6,2.9,7.5,3.3,11.6c0.2,2.1,0.3,4.2,0.3,6.4
	c-0.1,6.1-4.4,10.8-10.5,11.4c-0.9,0.1-1.7,0.1-2.6,0.1C102,94.6,96.5,94.6,91,94.6z"/>
</svg>
