<?xml version="1.0" encoding="utf-8"?>
<!-- Generator: Adobe Illustrator 24.2.1, SVG Export Plug-In . SVG Version: 6.00 Build 0)  -->
<svg version="1.1" id="Capa_1" xmlns="http://www.w3.org/2000/svg" xmlns:xlink="http://www.w3.org/1999/xlink" x="0px" y="0px"
	 viewBox="0 0 200 200" style="enable-background:new 0 0 200 200;" xml:space="preserve">
<path d="M197.9,105.2c-0.1-9.8-4.1-17.8-11.6-24c-3-2.5-6.2-5-9.3-7.4c-0.4-0.3-0.8-0.7-1.3-1.2c3.6-0.7,6.9-1.4,10.2-2.1
	c1.8-0.4,2.8-1.5,2.8-3.4c0-2.9,0-5.7,0-8.6c0-2.1-1.2-3.3-3.4-3.3c-4.9,0-9.8,0-14.8,0c-2.1,0-3.3,1.2-3.3,3.4c0,1.4,0,2.9,0,4.3
	c-1.1-0.9-2.1-1.9-2.6-3.1c-2.6-5.2-5.1-10.4-7.7-15.6c-4.3-8.7-11.4-13.4-21-13.5c-24.1-0.2-48.2-0.2-72.2,0
	c-9.7,0.1-16.7,4.8-21,13.5c-1.9,3.8-3.5,7.8-5.4,11.6c-1.3,2.5-2.9,4.8-4.4,7.3c-0.2-0.1-0.4-0.1-0.5-0.2c0-1.4,0-2.8,0-4.1
	c0-2.4-1.2-3.5-3.5-3.5c-4.8,0-9.6,0-14.4,0c-2.4,0-3.5,1.2-3.5,3.5c0,2.7,0,5.4,0,8c0,2.4,0.8,3.3,3.2,3.8c3.2,0.7,6.4,1.3,10,2.1
	c-3.7,3-7,5.7-10.5,8.4c-4.8,3.7-8,8.4-10,14c-0.8,2.1-1.3,4.4-1.9,6.6c0,18.9,0,37.8,0,56.7c1.9,5.6,6,7.5,11.7,7.3
	c7.1-0.3,14.3,0,21.5-0.1c5.9,0,9.7-3.9,9.7-9.7c0-1.8,0-3.7,0-5.5c36.9,0,73.6,0,110.4,0c0,1.8,0,3.5,0,5.1c0,6.3,3.8,10,10,10.1
	c7.5,0,15.1,0,22.6,0c6.6,0,10.3-3.7,10.3-10.3C198,138.5,198.1,121.9,197.9,105.2z M181.3,85.7c0.7-0.2,1.9-0.2,2.3,0.3
	c1.9,1.8,3.7,3.7,5.3,5.7c1.6,2.1,0.9,4.7-1.5,5.8c-1,0.5-2.2,0.8-3.3,0.8c-7.3,0.1-14.7,0.2-22-0.1c-1.5-0.1-2.9-1.6-4.3-2.5
	c0.1-0.3,0.2-0.5,0.2-0.8c4.4-1.8,8.8-3.6,13.3-5.4C174.7,88.2,178,86.9,181.3,85.7z M173.5,61.7c3,0,5.9,0,8.9,0
	c0,0.1,0.2,0.2,0.2,0.3c0.2,3.2,0.2,3.2-2.9,3.8c-1.9,0.4-3.7,0.7-5.6,1.1c-0.1,0-0.3,0-0.6,0C173.5,65.1,173.5,63.4,173.5,61.7z
	 M41.7,60.7c2.2-4.6,4.3-9.3,6.5-13.8c3.2-6.5,8.5-10,15.7-10c23.9-0.1,47.9-0.1,71.8,0c7.3,0,12.6,3.6,15.8,10.1
	c2.2,4.6,4.3,9.4,6.6,14.3c-38.9,0-77.6,0-116.4,0C41.7,61.1,41.7,60.9,41.7,60.7z M17.2,65.2c0-1.2,0-2.3,0-3.5c3.1,0,6,0,9,0
	c0,1.8,0,3.5,0,5.3C23.2,66.3,20.3,65.8,17.2,65.2z M33,71.9c2.6-3.6,5.6-4.3,9.8-4.3c39.1,0.2,78.1,0.1,117.2,0.1
	c1.4,0,2.2,0.5,3.2,1.5c3.3,3.5,6.7,6.8,10.1,10.1c0.4,0.4,1,0.8,1.6,1.4c-1,0.4-1.8,0.8-2.6,1.1c-5.5,2.2-11,4.5-16.5,6.6
	c-2.1,0.8-3.9,2-5.5,3.6c-2.1,2.2-3.9,5-6.5,6.1c-2.5,1.1-5.8,0.3-8.7,0.3c-8.4,0-16.9,0-25.3,0c-1.9,0-3.3,0.5-4.5,1.9
	c-1.8,2-3.8,3.9-6,6.2c-2.2-2.3-4.3-4.3-6.2-6.4c-1.1-1.2-2.4-1.7-4.1-1.7c-10.9,0.1-21.8,0.1-32.7,0c-0.9,0-2.2-0.4-2.8-1.1
	c-4.8-5.8-10.8-9.5-17.9-11.7c-4-1.3-7.8-3.1-11.6-4.6C27.1,77.8,30.6,75.2,33,71.9z M12.2,91.7c0.4-0.7,0.9-1.4,1.4-2
	c3.8-4.7,4.4-4.9,10-2.6c5.9,2.4,11.8,4.7,17.8,7.1c0.6,0.3,1.2,0.6,2,0.9c-1.6,2.4-3.4,3.5-6.2,3.4c-6.6-0.2-13.2,0-19.7-0.1
	c-1.4,0-2.9-0.4-4.1-1.2C11.2,95.8,10.9,93.7,12.2,91.7z M38.5,156.8c-0.1,1.7-1.3,2.7-2.9,2.7c-8.2,0-16.5,0.1-24.7,0
	c-1.8,0-2.9-1.2-2.9-2.9c-0.1-3,0-6,0-9.4c4.8,3.8,10.3,3.2,15.6,3.2c5,0,9.9,0,15,0C38.5,152.6,38.6,154.7,38.5,156.8z M48.3,144.2
	c3.1-3.8,6.7-6,11.5-6c22.2,0,44.3,0,66.5,0c4,0,7.9,0.1,11.9,0c5.3-0.2,9.4,1.8,12.9,6.1C116.6,144.2,82.6,144.2,48.3,144.2z
	 M191.7,157.1c-0.1,1.5-1.4,2.4-3,2.4c-8.1,0-16.2,0-24.3,0c-1.5,0-2.8-0.7-3-2.2c-0.3-2.3-0.1-4.6-0.1-7c6.4,0,12.5,0,18.7,0
	c5.8,0,6.5-0.2,11.7-2.9C191.8,150.8,191.9,154,191.7,157.1z M191.6,136.5c-0.3,4.5-4.3,7.7-8.8,7.7c-7.4,0.1-14.8,0-22.2,0
	c-0.7,0-1.5-0.4-2-0.8c-1.9-1.8-3.7-3.7-5.6-5.5c-4-3.9-8.7-5.9-14.3-5.9c-26.4,0-52.9,0-79.3,0c-5.5,0-10.2,2-14.1,5.8
	c-0.1,0.1-0.3,0.3-0.4,0.4c-2.1,2-3.8,4.8-6.2,5.8c-2.5,1-5.7,0.3-8.5,0.3c-4.2,0-8.4,0-12.6,0c-5.6,0-9.5-3.9-9.5-9.5
	c0-4.9,0-9.8,0-14.9c1,0,1.9,0,2.9,0c0.2,1.8,0.1,3.7,0.5,5.5c1.1,5.6,5.9,9.5,11.5,9.7c3.1,0.1,6.1,0,9.2,0c2.1,0,3.4-1.2,3.5-3
	c0-1.8-1.3-3-3.4-3.1c-2.6,0-5.1,0-7.7,0c-5.1,0-7.3-2.3-7.3-7.4c0-0.5,0-1,0-1.6c5.2-0.4,10.1-0.4,14.3,3.2
	c1.6,1.4,3.4,1.3,4.6-0.1c1.1-1.4,0.9-3.2-0.7-4.5c-3.6-3-7.7-4.7-12.4-4.8c-4.9-0.1-9.8,0-14.8,0c0-4.1,0-8.2,0-12.8
	c4.3,4.3,9.3,3.6,14.2,3.6c5.8,0,11.6-0.1,17.4,0c2.2,0,4-0.5,5.4-2.2c0.7-0.9,1.6-1.8,2.4-2.8c0.7,0.7,1.3,1.1,1.6,1.6
	c2,2.8,4.7,3.5,8.1,3.5c10.1-0.2,20.2-0.1,30.3-0.1c1.2,0,2.1,0.3,3,1.2c2.1,2.3,4.4,4.5,6.6,6.7c1.9,1.9,3.4,1.8,5.3,0
	c2.2-2.2,4.4-4.5,6.7-6.6c0.7-0.6,1.8-1.2,2.8-1.2c10.5-0.1,21.1-0.1,31.6,0c2.5,0,4.5-0.5,6-2.5c0.6-0.8,1.3-1.5,2.2-2.5
	c1.3,1.3,2.3,2.5,3.6,3.4c1,0.7,2.3,1.4,3.5,1.5c7.9,0.1,15.7,0.1,23.6,0.1c3.3,0,6.3-1,9.1-3.5c0,4.4,0,8.4,0,12.7
	c-0.5,0-1.3,0-2,0c-5.4,0.1-10.7,0-16.1,0.4c-3.4,0.3-6.4,2-9,4.3c-1.7,1.4-1.9,3.3-0.7,4.7c1.2,1.4,3,1.4,4.6,0
	c4.1-3.6,9.1-3.5,14.3-3.2c0,1.2,0.1,2.3,0,3.5c-0.2,3.1-2.8,5.5-6,5.6c-2.9,0.1-5.9,0-8.8,0c-2.2,0-3.6,1.3-3.6,3.1
	c0,1.8,1.4,3,3.5,3c2.9,0,5.7,0,8.6,0c7-0.1,12.3-5.4,12.4-12.4c0-0.9,0-1.8,0-2.8c1.1,0,2,0,3,0C191.7,125.5,192,131,191.6,136.5z"
	/>
</svg>
