<?xml version="1.0" encoding="utf-8"?>
<!-- Generator: Adobe Illustrator 24.2.1, SVG Export Plug-In . SVG Version: 6.00 Build 0)  -->
<svg version="1.1" id="Capa_1" xmlns="http://www.w3.org/2000/svg" xmlns:xlink="http://www.w3.org/1999/xlink" x="0px" y="0px"
	 viewBox="0 0 153 153" style="enable-background:new 0 0 153 153;" xml:space="preserve">
<path d="M149.7,89.2c0,14.6,0,29.1,0,43.7c0,9.8-7,16.8-16.8,16.8c-14.5,0-29,0-43.4,0c-3.2,0-5.2-2.7-4.2-5.4
	c0.6-1.6,2.1-2.6,4.1-2.6c5.5,0,10.9,0,16.4,0c9,0,18.1,0,27.1,0c5.3,0,8.7-3.4,8.7-8.7c0-29.3,0-58.5,0-87.8c0-5.3-3.4-8.7-8.7-8.7
	c-14.5,0-29,0-43.4,0c-3.2,0-5.2-2.7-4.2-5.5c0.6-1.6,2.1-2.6,4.1-2.6c6.6,0,13.3,0,19.9,0c7.9,0,15.8,0,23.7,0
	c9.6,0,16.6,7.1,16.6,16.7C149.7,59.9,149.7,74.5,149.7,89.2z"/>
<path d="M71.7,96.6c0,3.1,1.6,4.7,4.6,4.7c3.8,0,7.6,0,11.5,0c0,4,0,7.9,0,11.8c0,1.9,0.7,3.3,2.4,4.1c1.6,0.7,3.3,0.4,4.7-1.1
	c7.9-7.9,15.8-15.8,23.7-23.8c2-2,1.9-4.3,0-6.2c-7.9-7.9-15.8-15.8-23.7-23.8c-1.3-1.3-2.8-1.8-4.6-1.1c-1.6,0.6-2.5,2.1-2.5,4.1
	c0,3.5,0,6.9,0,10.4c0,0.4,0,0.9,0,1.4c-4,0-7.7,0-11.5,0c-3.1,0-4.6,1.6-4.6,4.7C71.7,86.6,71.7,91.6,71.7,96.6z M80.9,85.1
	c3.8,0,7.6,0,11.4,0c3.1,0,4.7-1.5,4.7-4.6c0-1.8,0-3.7,0-5.4c4.8,4.8,9.5,9.5,14,14.1c-4.6,4.6-9.3,9.3-14,14.1c0-1.6,0-3.4,0-5.1
	c0-3.3-1.5-4.8-4.9-4.8c-3.7,0-7.4,0-11.2,0C80.9,90.5,80.9,87.9,80.9,85.1z"/>
<g>
	<path d="M63.5,16.4C58.4,9.9,51.9,5.7,43.9,4c-10-2.1-19.2,0-27.4,6.1C10.1,15.1,5.9,21.7,4.1,29.8c-0.2,1-0.3,2-0.5,2.9
		c-0.1,0.4-0.1,0.9-0.2,1.3c0,0.1,0,0.3-0.1,0.4l-0.1,4.2l0,0.2c0.1,0.4,0.1,0.8,0.1,1.1c0.1,0.8,0.2,1.7,0.4,2.6
		c1.9,10,7.2,17.7,15.9,23c4.4,2.7,9.3,4.2,14.6,4.6c0,0,0.1,0,0.1,0l4.3,0.1l0.1,0c0.4-0.1,0.8-0.1,1.1-0.1
		c0.9-0.1,1.7-0.2,2.6-0.4c7.7-1.4,14.2-5,19.4-10.9c4.8-5.4,7.5-11.7,8.2-18.8C71.1,31.4,68.8,23.4,63.5,16.4z M63,36.8
		c0,7-2.7,13.5-7.7,18.5c-4.9,4.9-11.5,7.6-18.4,7.6c-14.4-0.1-26.1-11.8-26-26.1c0-14.4,11.7-26,26-26c0,0,0,0,0,0
		C51.3,10.8,63,22.5,63,36.8z"/>
	<path d="M48.7,41.4l-2.6-1.9c-1.8-1.4-3.6-2.7-5.5-4.1c-0.3-0.2-0.3-0.3-0.3-0.6c0-3.3,0-6.6,0-9.9l0-2.6c0-1.8-0.9-3.2-2.4-3.8
		c-1.2-0.5-2.4-0.3-3.4,0.4c-1,0.7-1.7,1.9-1.7,3.2c0,1.7,0,3.4,0,5.1l0,4.3c0,1.6,0,3.2,0,4.9c0,1.7,0.6,3,2,4
		c1.6,1.2,3.2,2.4,4.8,3.6l2.8,2.1c0.7,0.5,1.3,1,2,1.5c0.7,0.5,1.4,0.7,2.2,0.7c0.4,0,0.9-0.1,1.3-0.2c1.1-0.4,2-1.4,2.3-2.6
		C50.6,43.9,50.1,42.4,48.7,41.4z"/>
</g>
</svg>
