<?xml version="1.0" encoding="utf-8"?>
<!-- Generator: Adobe Illustrator 24.2.1, SVG Export Plug-In . SVG Version: 6.00 Build 0)  -->
<svg version="1.1" id="Capa_1" xmlns="http://www.w3.org/2000/svg" xmlns:xlink="http://www.w3.org/1999/xlink" x="0px" y="0px"
	 viewBox="0 0 153 153" style="enable-background:new 0 0 153 153;" xml:space="preserve">
<path d="M136.7,18.7c0.1-6.2-1.9-11.2-9.1-13.1c-34.1,0-68.1,0-102.2,0c-1.3,0.5-2.7,0.8-3.8,1.5c-3.6,2.1-5.3,5.4-5.3,9.5
	c0,13.9,0,27.8,0,41.7c0,23.4,0,46.9,0,70.3c0,5.1,0,10.2,0,15.4c0,2.4,0.9,3.4,3.3,3.4c37.9,0,75.8,0,113.7,0
	c2.5,0,3.3-0.9,3.3-3.8c0-31.2,0-62.5,0-93.7C136.6,39.5,136.5,29.1,136.7,18.7z M131.3,32.6c-2.1,0-4.1,0-6.1,0c-0.6,0-1.1,0-1.7,0
	c-1.8,0.1-2.9,1.2-2.9,2.7c0,1.5,1.2,2.6,2.9,2.7c2.2,0,4.4,0,6.6,0c0.3,0,0.6,0,1,0.1c0,30.2,0,60.3,0,90.6c-2.6,0-5.2,0-7.7,0
	c-2.1,0-3.4,1.7-2.8,3.5c0.4,1.3,1.5,1.9,2.8,1.9c2,0,4.1,0,6.1,0c0.5,0,1,0,1.6,0c0,2.7,0,5.3,0,8c-36.5,0-72.9,0-109.4,0
	c0-2.6,0-5.2,0-8c0.7,0,1.3,0,2,0c29.1,0,58.1,0,87.2,0c0.6,0,1.3,0,1.9-0.1c1.4-0.2,2.3-1.2,2.3-2.5c0.1-1.3-0.9-2.5-2.3-2.7
	c-0.5-0.1-1.1-0.1-1.7-0.1c-29.2,0-58.4,0-87.6,0c-0.6,0-1.2,0-1.9,0c0-30.2,0-60.3,0-90.6c0.6,0,1.1-0.1,1.7-0.1
	c29.3,0,58.5,0,87.8,0c0.7,0,1.4,0,2.1-0.2c1.3-0.3,1.9-1.3,1.9-2.6c0-1.3-0.7-2.2-2-2.5c-0.6-0.1-1.3-0.1-1.9-0.1
	c-29.2,0-58.4,0-87.6,0c-0.6,0-1.2,0-2,0c0-0.6,0-1,0-1.5c0-4.7,0-9.4,0-14.1c0-3.8,2.2-6,6-6c32.6,0,65.2,0,97.7,0
	c3.7,0,5.9,2.2,5.9,5.8c0,4.8,0,9.7,0,14.5C131.3,31.7,131.3,32,131.3,32.6z"/>
<path d="M32.4,53.3c0.1-4.1,3.6-7.5,7.8-7.6c6.2,0,12.5,0,18.7,0c17.9,0,35.7,0,53.6,0c4.4,0,7.8,3,8.2,7.4c0.2,1.7-0.8,3-2.3,3.2
	c-1.6,0.2-2.7-0.7-3-2.5c-0.4-2.2-1.2-2.8-3.5-2.8c-16.1,0-32.2,0-48.3,0c-7.4,0-14.9,0-22.3,0c-2.5,0-3.1,0.6-3.6,3
	c-0.3,1.5-1.5,2.4-3,2.3C33.2,56.2,32.3,55.1,32.4,53.3z"/>
<path d="M93.7,21.7c0,2.9-2.3,5.3-5.2,5.3c-3,0-5.4-2.3-5.4-5.3c0-2.9,2.3-5.3,5.2-5.3C91.3,16.3,93.7,18.7,93.7,21.7z"/>
<path d="M64.4,27c-3,0-5.4-2.4-5.3-5.4c0-2.9,2.4-5.2,5.3-5.2c3,0,5.4,2.4,5.3,5.4C69.7,24.6,67.3,27,64.4,27z"/>
<path d="M112.6,16.4c2.9,0,5.3,2.3,5.3,5.3c0,3-2.4,5.3-5.4,5.3c-2.9,0-5.3-2.4-5.3-5.3C107.2,18.8,109.6,16.4,112.6,16.4z"/>
<path d="M40.5,16.4c2.9,0,5.3,2.4,5.3,5.3c0,2.9-2.4,5.3-5.4,5.3c-2.9,0-5.2-2.4-5.2-5.3C35.1,18.7,37.5,16.3,40.5,16.4z"/>
<path d="M110.6,59.2c-11.4,0-22.8,0-34.2,0c-11.3,0-22.7,0-34,0c-3.1,0-3.9,0.8-3.9,3.8c0,17,0,34,0,51.1c0,3,0.8,3.9,3.9,3.9
	c22.7,0,45.5,0,68.2,0c3.1,0,3.8-0.8,3.8-3.8c0-17,0-34,0-51.1C114.5,59.9,113.7,59.2,110.6,59.2z M109,111.7
	c-0.5-0.4-0.8-0.8-1.2-1.1C99,101.8,90.2,93,81.4,84.2c-1.8-1.8-3.2-2-4.5-0.8c-1.3,1.3-1.1,2.8,0.8,4.6
	c7.7,7.7,15.4,15.4,23.1,23.1c0.4,0.4,0.9,0.7,1.3,1c-0.1,0.1-0.2,0.2-0.2,0.3c-19.2,0-38.5,0-57.8,0c0-15.9,0-31.7,0-47.9
	c1.6,0,3.3,0.2,4.9,0c3.9-0.6,6.7,0.8,9.2,3.8c2.4,2.9,5.2,5.4,7.9,8c1.6,1.5,3.8,1.1,4.5-0.8c0.5-1.2,0-2.2-0.8-3.1
	c-2.2-2.1-4.3-4.3-6.5-6.5c-0.4-0.4-0.8-0.6-1.2-0.9c0.1-0.1,0.2-0.2,0.2-0.4c15.6,0,31.1,0,46.8,0C109,80.2,109,95.9,109,111.7z"/>
</svg>
