<?xml version="1.0" encoding="utf-8"?>
<!-- Generator: Adobe Illustrator 24.2.1, SVG Export Plug-In . SVG Version: 6.00 Build 0)  -->
<svg version="1.1" id="Capa_1" xmlns="http://www.w3.org/2000/svg" xmlns:xlink="http://www.w3.org/1999/xlink" x="0px" y="0px"
	 viewBox="0 0 153 153" style="enable-background:new 0 0 153 153;" xml:space="preserve">
<path d="M19.7,150.5c-1.6-0.5-3.3-0.8-4.8-1.4c-7.3-3.2-11.3-8.8-11.9-16.7c-0.2-2.6,1-3.7,3.6-3.7c5.8,0,11.5,0,17.3,0
	c0.5,0,0.9,0,1.7,0c-2-1.9-3.8-3.5-5.4-5.2C8.8,111.7,3.2,97.6,3,81.3c-0.1-8,0-15.9,0-23.9c0-2.7,1.1-3.7,3.7-3.7
	c6.8,0,13.6,0,20.4,0c0.6,0,1.2,0.1,1.7,0.2c1.2,0.3,2.1,1.6,2,2.8c-0.1,1.3-1,2.4-2.3,2.6c-0.6,0.1-1.1,0.1-1.7,0.1
	c-5.5,0-10.9,0-16.4,0c-0.5,0-1,0-1.6,0c0,0.5-0.1,1-0.1,1.4c0,6.9-0.1,13.7,0,20.6c0.5,20.1,9.2,35.7,26.1,46.7
	c0.6,0.4,1.4,0.6,2.1,0.6c17.6,0,35.2,0,52.8,0c0.8,0,1.6-0.2,2.3-0.6c14.8-9.4,23.3-22.8,25.6-40.1c0.3-2.3,0.4-4.6,0.4-6.9
	c0-6.7,0-13.3,0-20c0-0.5,0-0.9,0-1.6c-0.7,0-1.3,0-1.9,0c-18.6,0-37.3,0-55.9,0c-0.6,0-1.3,0-1.9-0.1C57,59.2,56,58,56,56.7
	c0-1.2,0.8-2.5,2.1-2.8c0.6-0.2,1.3-0.2,2-0.2c19.9,0,39.8,0,59.7,0c3.2,0,4.1,0.9,4.1,4.1c0,1.6,0,3.1,0,4.9c0.7,0,1.2,0,1.8,0
	c6.9,0,13.8,0,20.7,0c1.8,0,3.2,0.4,4,2.2c0,8.1,0,16.1,0,24.2c-0.1,0.4-0.3,0.8-0.3,1.2c-1.8,12-11.3,21.6-23.3,23.2
	c-3.6,0.5-7.3,0.3-10.9,0.4c-0.9,0-1.5,0.3-2,1c-3.2,4.9-7.1,9.2-11.5,12.9c-0.3,0.2-0.6,0.4-0.9,0.5c0.1,0.1,0.2,0.3,0.3,0.4
	c0.5,0,1,0,1.5,0c8,0,16,0,24,0c2.6,0,3.7,1.1,3.5,3.7c-0.6,7.9-4.6,13.5-11.9,16.7c-1.5,0.7-3.2,1-4.8,1.4
	C82.6,150.5,51.1,150.5,19.7,150.5z M9.2,134.5c1.3,6.1,6.6,10.3,13.1,10.3c29.7,0,59.4,0,89.1-0.1c2.1,0,4.4-0.6,6.3-1.5
	c3.6-1.7,5.9-4.7,6.8-8.7C86,134.5,47.7,134.5,9.2,134.5z M123.9,68.5c0,1.9,0,3.7,0,5.6c0.2,0,0.3,0.1,0.4,0.1c3.6,0,7.3,0,10.9,0
	c2.5,0,3.6,1.1,3.6,3.6c0,2.9,0.1,5.8,0,8.8c-0.2,5.6-2.7,10-7.4,13.1c-3,2-6.4,2.7-10,2.6c-0.5,0-1.3,0.2-1.4,0.5
	c-0.8,1.6-1.5,3.4-2.2,5.2c1.9,0,3.7,0.1,5.5,0c11.8-0.4,21-9.7,21.2-21.4c0.1-5.8,0-11.6,0-17.4c0-0.2-0.1-0.5-0.1-0.7
	C137.5,68.5,130.8,68.5,123.9,68.5z M124.2,80c-0.6,5.5-1.2,11-1.9,16.5c3.1,0.1,5.8-1,8-3.4c3.6-3.8,2.6-8.5,2.7-13.1
	C129.9,80,126.9,80,124.2,80z"/>
<path d="M81.3,12.8c-0.2,0.5-0.5,1.2-0.9,1.9c-2,3.4-1.9,6.3,0.5,9.4c1.8,2.2,3.4,4.5,4.1,7.3c1.3,5.2,0.1,9.9-3.2,14
	c-0.7,0.9-1.7,1.8-2.7,2.4c-1.1,0.6-2.1,0-2.9-0.9c-0.8-0.9-0.9-2-0.3-3.1c0.4-0.7,0.9-1.3,1.3-1.9c3.4-4.4,3.5-9-0.1-13.4
	c-2-2.5-3.5-5.1-3.8-8.3C73,16.9,73.9,13.8,76,11c0.8-1.1,2-1.5,3.3-1.1C80.5,10.4,81.1,11.4,81.3,12.8z"/>
<path d="M65.2,6.6c-0.2,0.4-0.4,1-0.8,1.6c-2,3.3-1.9,6.4,0.5,9.4c1.6,2.1,3.2,4.2,3.9,6.8c1.5,5.3,0.4,10-2.9,14.3
	c-0.5,0.6-1,1.3-1.5,1.9c-1,1.1-2.7,1.2-3.8,0.3c-1.2-0.9-1.5-2.4-0.7-3.7c0.4-0.6,0.8-1.2,1.3-1.7c3.4-4.4,3.4-9-0.1-13.4
	c-1-1.3-2-2.7-2.7-4.2C56.4,13.3,57,8.8,60,4.7c0.9-1.2,2.1-1.7,3.4-1.2C64.6,4,65.2,4.9,65.2,6.6z"/>
<path d="M46.4,9.6c2.2,0.3,3.5,2.4,2.6,4.2c-0.1,0.3-0.3,0.6-0.5,0.9c-2.1,3.4-2,6.4,0.6,9.5c2.4,2.9,4.2,6.1,4.5,9.9
	c0.4,5.3-1.7,9.5-5.2,13.2c-0.9,1-2.5,0.9-3.6,0.2c-1.1-0.9-1.5-2.3-0.8-3.6c0.4-0.7,0.9-1.3,1.4-2c3.3-4.3,3.4-8.9-0.1-13.1
	c-2.1-2.6-3.7-5.3-4-8.7c-0.2-3.4,0.7-6.5,2.8-9.1C44.7,10.3,45.7,10,46.4,9.6z"/>
<path d="M109.9,84c-0.8,11.5-5.1,21.5-13,29.9c-1.4,1.5-3,1.7-4.3,0.6c-1.3-1.1-1.3-2.8,0-4.3c0.4-0.5,0.9-1,1.3-1.5
	c5-5.6,8.2-12.2,9.6-19.6c0.4-2.3,0.6-4.7,0.7-7c0.2-2.1,1.3-3.4,3-3.4c1.8,0,2.9,1.5,2.8,3.6C110,82.9,109.9,83.4,109.9,84z"/>
<path d="M85.1,116.7c1.5,0,2.8,1.3,2.8,2.8c0,1.6-1.3,2.9-2.9,2.9c-1.6,0-2.8-1.2-2.8-2.8C82.1,118,83.5,116.6,85.1,116.7z"/>
<path d="M47,56.6c0,1.6-1.3,2.8-2.8,2.8c-1.5,0-2.9-1.3-2.9-2.8c0-1.5,1.3-2.8,2.8-2.9C45.7,53.7,47,55,47,56.6z"/>
</svg>
