<?xml version="1.0" encoding="utf-8"?>
<!-- Generator: Adobe Illustrator 24.2.1, SVG Export Plug-In . SVG Version: 6.00 Build 0)  -->
<svg version="1.1" id="Capa_1" xmlns="http://www.w3.org/2000/svg" xmlns:xlink="http://www.w3.org/1999/xlink" x="0px" y="0px"
	 viewBox="0 0 122 122" style="enable-background:new 0 0 122 122;" xml:space="preserve">
<style type="text/css">
	.st0{fill:#FFFFFF;}
</style>
<path class="st0" d="M69.8,34.6c0,2,0.8,3.2,2.1,3.9c1.3,0.7,2.7,0.5,3.8-0.4c1.5-1.2,2.4-2.8,2.8-4.6c1-4.5-0.5-8.3-3.3-11.8
	c-1-1.2-1.1-2.3-0.4-3.6c0.7-1.4,1.4-2.8,2-4.3c0.7-1.9-0.2-3.9-2-4.8c-1.6-0.8-3.8-0.2-4.7,1.5c-1,1.9-2,3.8-2.8,5.8
	c-1.3,3.5-0.8,6.8,1.8,9.7c0.8,0.9,1.4,2,2,3.1c0.6,1.2,0.5,2.4-0.4,3.6C70.2,33.3,69.9,34.2,69.8,34.6z"/>
<path class="st0" d="M59.7,22.9c0-2.8-1.2-5.8-3.3-8.4c-1.2-1.5-1.1-2.7-0.3-4.2c0.7-1.3,1.5-2.7,2-4.1c0.7-1.9-0.2-4-2-4.8
	c-1.7-0.8-3.9-0.1-4.8,1.7c-1.1,2.5-2.2,5-3,7.6c-0.8,2.7-0.3,5.3,1.8,7.5c1,1,1.5,2.6,2.1,3.9c0.5,1.1,0.2,2.1-0.6,3
	c-1.5,1.8-1.3,3.9,0.3,5.3c1.6,1.4,3.8,1.2,5.3-0.5C59,28.1,59.7,25.9,59.7,22.9z"/>
<path class="st0" d="M35.2,8.8c-0.8,0-2.1,0.5-2.8,1.8c-1.1,2.1-2.2,4.2-3,6.4c-1.2,3.4-0.6,6.6,1.8,9.4c0.7,0.8,1.3,1.8,1.7,2.7
	c0.6,1.3,0.5,2.5-0.5,3.7c-1.4,1.7-1.2,3.8,0.4,5.2c1.5,1.3,3.6,1.2,5.1-0.3c1.3-1.4,2.2-3,2.5-4.9c0.6-4.1-0.7-7.6-3.2-10.7
	c-1.3-1.6-1.2-2.9-0.4-4.5c0.7-1.4,1.4-2.7,2-4.1C39.7,11.2,38.1,8.8,35.2,8.8z"/>
<path d="M69.8,34.6c0.2-0.4,0.4-1.2,1-1.9c1-1.1,1.1-2.3,0.4-3.6c-0.6-1.1-1.2-2.2-2-3.1c-2.6-2.9-3.1-6.2-1.8-9.7
	c0.7-2,1.7-3.9,2.8-5.8C71,8.8,73.2,8.2,74.8,9c1.8,0.9,2.7,2.9,2,4.8c-0.6,1.5-1.3,2.9-2,4.3c-0.6,1.3-0.5,2.4,0.4,3.6
	c2.8,3.4,4.3,7.3,3.3,11.8c-0.4,1.8-1.3,3.4-2.8,4.6c-1.2,0.9-2.5,1.1-3.8,0.4C70.5,37.7,69.8,36.6,69.8,34.6z"/>
<path d="M59.7,22.9c0,3-0.8,5.2-2.4,7c-1.5,1.7-3.7,1.9-5.3,0.5c-1.6-1.4-1.8-3.5-0.3-5.3c0.8-0.9,1-1.9,0.6-3
	c-0.6-1.4-1.1-2.9-2.1-3.9c-2.1-2.2-2.6-4.8-1.8-7.5c0.7-2.6,1.8-5.1,3-7.6c0.8-1.8,3.1-2.5,4.8-1.7c1.8,0.8,2.7,2.9,2,4.8
	c-0.5,1.4-1.3,2.8-2,4.1c-0.8,1.5-0.9,2.7,0.3,4.2C58.5,17.1,59.7,20.1,59.7,22.9z"/>
<path d="M35.2,8.8c2.9,0,4.5,2.4,3.6,4.5c-0.6,1.4-1.2,2.8-2,4.1C36.1,19,36,20.4,37.3,22c2.5,3.1,3.9,6.6,3.2,10.7
	c-0.3,1.9-1.1,3.5-2.5,4.9c-1.5,1.5-3.6,1.7-5.1,0.3c-1.6-1.4-1.8-3.5-0.4-5.2c1-1.2,1.1-2.4,0.5-3.7c-0.5-1-1-1.9-1.7-2.7
	c-2.5-2.8-3-6-1.8-9.4c0.8-2.2,1.9-4.3,3-6.4C33.1,9.2,34.4,8.8,35.2,8.8z"/>
<path d="M88.2,99.1c0.2-0.4,0.8-0.8,1.3-0.9c12.4-2.3,23.4-13.1,24.4-27.2c0.4-6-1.5-10.9-6.5-14.5c-2.9-2.1-6.3-2.8-9.9-2.7
	c-2,0.1-3.9,0-6,0c0-2.3,0-4.5,0-6.7c0-3.1-1.3-4.5-4.4-4.5c-22,0-44,0-66,0c-3.2,0-4.4,1.2-4.4,4.4c0,12.2,0,24.5,0,36.7
	c0,8.1,2.3,15.6,7.2,22.1c2.2,2.9,4.8,5.4,7.2,8c-0.8,0-1.8,0-2.8,0c-5.5,0-10.9,0-16.4,0c-2.3,0-3.7,1.4-3.8,3.6
	c-0.1,2.6,1.4,3.9,4.3,3.9c32.3,0,64.5,0,96.8,0c0.4,0,0.7,0,1.1,0c1.8-0.2,3-1.4,3.2-3.1c0.2-1.9-0.6-3.5-2.3-4.1
	c-0.7-0.2-1.5-0.3-2.2-0.3c-10.3,0-20.5,0-30.8,0c-0.4,0-0.8,0-1.3,0c0-0.1-0.1-0.2-0.1-0.3c0.2-0.1,0.4-0.2,0.5-0.3
	C82,109.3,85.6,104.6,88.2,99.1z M91.5,61.4c2.8,0,5.3-0.1,7.9,0c3.8,0.2,7,3.5,7.2,7.2c0.6,9.1-5.7,18.5-14.3,21.3
	C92,90,91.7,90,91.5,90.1C91.5,80.5,91.5,71,91.5,61.4z M52.4,106.3c-4.5-0.1-8.7-1.3-12.3-4c-6.8-4.9-10-11.6-9.8-20c0-1-0.1-2,0-3
	c0.1-2.2,1.6-3.5,3.8-3.4c2.2,0,3.5,1.4,3.7,3.5c0.1,2.6,0,5.4,0.5,7.9c1.3,6.2,6.7,10.7,13.1,11.3c0.5,0,0.9,0.1,1.4,0.1
	c2.5,0.2,3.8,1.5,3.7,3.9C56.3,105,54.8,106.4,52.4,106.3z"/>
</svg>
