<?xml version="1.0" encoding="utf-8"?>
<!-- Generator: Adobe Illustrator 24.2.1, SVG Export Plug-In . SVG Version: 6.00 Build 0)  -->
<svg version="1.1" id="Capa_1" xmlns="http://www.w3.org/2000/svg" xmlns:xlink="http://www.w3.org/1999/xlink" x="0px" y="0px"
	 viewBox="0 0 122 122" style="enable-background:new 0 0 122 122;" xml:space="preserve">
<style type="text/css">
	.st0{fill:none;}
</style>
<rect class="st0" width="122" height="122"/>
<path d="M119.5,36.2c-3.6-24.3-31.9-37-52.3-23.4c-2.3,1.5-4.4,3.4-6.6,5.1c-0.2-0.2-0.5-0.4-0.7-0.7c-6.3-6.1-13.8-9.5-22.5-9.9
	C21.3,6.5,6.8,17.3,2.8,33c-0.5,1.9-0.7,3.8-1.1,5.8c0,1.8,0,3.5,0,5.3c0.1,0.3,0.2,0.6,0.2,0.9c0.4,3.9,1.5,7.7,3,11.4
	c3.4,8.3,8.7,15.4,14.7,22c11.2,12.4,24.3,22.5,38.4,31.5c2.1,1.4,3.9,1.3,6.1-0.1c11.9-7.7,23.1-16.2,33.2-26.2
	c6.9-6.8,13-14.2,17.5-22.8C118.7,53,120.8,45,119.5,36.2z M107.1,59.3c-4.9,8.4-11.4,15.5-18.5,22.1c-8.4,7.8-17.5,14.6-27,20.9
	c-0.5,0.3-0.8,0.6-1.4,0.1c-13.7-9-26.5-19-37.3-31.5c-5-5.7-9.3-11.9-11.9-19.1c-4.1-11.2-1.5-22.7,6.9-30.3
	c11.7-10.6,30-8.8,39.5,3.9c0.6,0.8,1.5,1.6,2.5,1.9c1.5,0.6,3-0.1,4.2-1.7c4.1-5.5,9.5-9.1,16.1-10.6c15.2-3.4,30.6,7.6,32.2,23.2
	c0.1,1,0.2,2,0.2,2.6C112.5,47.9,110.3,53.8,107.1,59.3z"/>
</svg>
