<?xml version="1.0" encoding="utf-8"?>
<!-- Generator: Adobe Illustrator 24.2.1, SVG Export Plug-In . SVG Version: 6.00 Build 0)  -->
<svg version="1.1" id="Capa_1" xmlns="http://www.w3.org/2000/svg" xmlns:xlink="http://www.w3.org/1999/xlink" x="0px" y="0px"
	 viewBox="0 0 122 122" style="enable-background:new 0 0 122 122;" xml:space="preserve">
<path d="M44.5,1.5c2.2,0.6,4.2,1.3,6,2.8c5.9,5,5.7,14.1-0.6,18.6c-1,0.7-1.2,1.3-1,2.3c0.8,4.5,1.4,9.1,2.1,13.7
	c0,0.2,0.1,0.4,0.2,0.7c2.3,0,4.7,0,7,0c4.5,0,8.9,0,13.4,0c2,0,3.5,1.1,4.2,2.9c0.7,1.8,0.4,3.5-0.9,5c-1.1,1.2-2.5,1.6-4.1,1.6
	c-5.6,0-11.3,0-16.9,0c-0.4,0-0.8,0-1.4,0c0.5,3.2,1,6.3,1.5,9.5c0.5,0,0.9,0,1.4,0c10.6,0,21.2,0,31.8,0c3.3,0,4.7,1,5.7,4.2
	c3.2,10.4,6.5,20.7,9.7,31.1c0.1,0.4,0.3,0.8,0.4,1.3c2.2-0.9,4.4-1.9,6.6-2.6c1.1-0.4,2.3-0.5,3.4-0.4c2,0.3,3.4,2,3.6,3.9
	c0.3,2.1-0.6,4-2.5,4.8c-4.2,1.8-8.4,3.5-12.7,5.1c-2.6,0.9-5.1-0.5-6-3.3c-1.5-4.6-2.9-9.3-4.4-14c-2-6.5-4.1-12.9-6-19.4
	c-0.3-0.9-0.6-1.2-1.6-1.2c-10.8,0-21.7,0-32.5,0c-3.7,0-5.3-1.5-5.9-5c-1.8-11.8-3.7-23.5-5.4-35.3c-0.3-2.1-0.9-3.4-2.9-4.5
	c-4.3-2.3-6.5-7.3-5.7-11.8c0.9-5.1,4.6-8.9,9.5-10c0.2,0,0.4-0.1,0.6-0.2C42.4,1.5,43.5,1.5,44.5,1.5z"/>
<path d="M7.2,78.3c0.1-9.3,4.1-19.2,12.3-27.1c2.2-2.1,4.7-3.9,7.2-5.6c2.8-1.9,5.7-1.4,7.2,1.1c1.2,1.9,1.1,5.1-2.2,7.1
	c-6.3,3.7-10.6,9.2-13.2,16c-4.6,12.3-0.2,27,10.3,35c6.2,4.7,13.1,7,20.8,6.4c11.6-0.9,20.2-6.6,25.7-16.8c0.3-0.6,0.6-1.2,0.9-1.8
	c1.3-2.5,4-3.4,6.4-2.2c2.3,1.1,3.3,3.8,2.2,6.3c-2,4.5-4.7,8.7-8.3,12.1c-9.2,9-20.3,13.1-33.2,11.7c-12.9-1.4-22.9-7.9-30-18.8
	C9.2,95.2,7.2,88,7.2,78.3z"/>
</svg>
