<?xml version="1.0" encoding="utf-8"?>
<!-- Generator: Adobe Illustrator 24.2.1, SVG Export Plug-In . SVG Version: 6.00 Build 0)  -->
<svg version="1.1" id="Capa_1" xmlns="http://www.w3.org/2000/svg" xmlns:xlink="http://www.w3.org/1999/xlink" x="0px" y="0px"
	 viewBox="0 0 512 512" style="enable-background:new 0 0 512 512;" xml:space="preserve">
<path d="M222.7,499.2c-4.2,0-8.3,0-12.5,0c-1-0.3-2-0.8-3.1-1c-15.6-3.6-26.6-12.5-30.6-28.2c-2.4-9.4-4-19.1-4.5-28.7
	c-1.4-30.5,3.8-60.4,9.1-90.3c1.4-8.1,3.1-16.1,4.8-24.6c-2.7,0-4.6,0-6.5,0c-29.1,0-58.1,0-87.2,0c-6.2,0-12.5,0-18.7-0.5
	c-23-1.9-43.2-22.8-44.7-45.9c-0.8-11.9,2-22.7,8.4-32.6C5.3,227,4.4,181,37.2,159.8c-8.2-12.7-10.7-26.5-7-41.1
	c3.8-14.9,13.2-25.5,26.7-32.9c-6.8-11.7-9.1-23.9-6.4-36.7c5-23.7,25.4-40.3,49.8-40.4c40.1-0.1,80.2-0.2,120.2,0.1
	C271,9.1,320.2,17.6,368,33.7c3.2,1.1,4,2.5,4,5.7c-0.1,84.6-0.1,169.2,0,253.9c0,3.1-1,4.9-3.3,6.8c-19,14.6-37.3,30.1-53.3,48
	c-13.5,15.1-24.8,31.4-31.8,50.7c-8.2,22.8-17,45.4-26,67.9c-2.4,6.1-6.1,11.9-10,17.3C241.7,492.4,232.3,496.3,222.7,499.2z"/>
<path d="M503.4,272.2c-3.4,8.7-9.8,11.8-19.1,11.7c-25.7-0.4-51.4-0.1-77.1-0.1c-1.7,0-3.5,0-5.7,0c0-80.7,0-161.1,0-242.2
	c2,0,3.8,0,5.7,0c25.7,0,51.4,0.2,77.1-0.1c9.4-0.1,16.1,3,19,12.3C503.4,126.5,503.4,199.3,503.4,272.2z"/>
</svg>
