<?xml version="1.0" encoding="utf-8"?>
<!-- Generator: Adobe Illustrator 24.2.1, SVG Export Plug-In . SVG Version: 6.00 Build 0)  -->
<svg version="1.1" id="Capa_1" xmlns="http://www.w3.org/2000/svg" xmlns:xlink="http://www.w3.org/1999/xlink" x="0px" y="0px"
	 viewBox="0 0 300 300" style="enable-background:new 0 0 300 300;" xml:space="preserve">
<path d="M144.8,228.6c-0.1-0.6-0.2-1.3-0.2-1.9c0-21.4-0.1-42.9,0.1-64.3c0.1-8.8-3-15.8-10.3-20.8c-0.4-0.3-0.6-1.2-0.6-1.8
	c-0.1-12.7,0-25.5-0.1-38.2c-0.1-12.3-8.2-22.2-20.2-24.6c-1.6-0.3-3.3-0.5-4.9-0.5c-23.6-0.1-47.2-0.1-70.8,0
	c-14.1-0.1-25,10.9-25,25c-0.1,12.8,0,25.6,0,38.5c0,1.1-0.3,1.7-1.2,2.5c-6.2,4.7-9.1,11.1-9.1,18.9c0.1,21.8,0,43.6,0,65.4
	c0,0.6-0.1,1.3-0.1,1.9c9.8,0,19.7,0,29.5,0c0-6.1,0.1-12.1,0.1-18.1c0-0.6,0-1.2,0-1.9c27.7,0,55.4,0,83.3,0c0,6.7,0,13.3,0,20
	C125.1,228.6,134.9,228.6,144.8,228.6z M135.5,219.6c-3.8,0-7.5,0-11.3,0c0-3.6,0-7.3,0-11c3.8,0,7.5,0,11.3,0
	C135.5,212.2,135.5,215.9,135.5,219.6z M22.1,101.9c0-9.8,6.8-16.6,16.6-16.6c23.2,0,46.5,0,69.7,0c9.8,0,16.7,6.8,16.7,16.6
	c0,11.5,0,23,0,34.5c0,0.4,0,0.9,0,1.4c-3.7,0-7.2,0-10.7,0c-0.2-2.3-0.1-4.5-0.5-6.6c-1.7-9.6-9.7-16.3-19.5-16.4
	c-13.7-0.1-27.4-0.1-41.1,0c-11.1,0.1-19.5,8.6-19.7,19.6c0,1.1,0,2.1,0,3.3c-3.9,0-7.6,0-11.5,0c0-0.4,0-0.9,0-1.4
	C22.1,124.9,22.1,113.4,22.1,101.9z M104.9,135c0,0.9,0,1.7,0,2.7c-21,0-41.8,0-62.5,0c-1.6-7.5,3.5-14,11.1-14
	c13.4,0,26.7,0,40.1,0C100.3,123.7,104.8,128.2,104.9,135z M11.6,158.9c0.3-6.2,6.2-11.5,12.5-11.8c0.5,0,1-0.1,1.5-0.1
	c32,0,63.9,0,95.9,0c7,0,12.4,4.2,13.8,10.7c0.1,0.3,0.2,0.7,0.2,1c0.1,0.8,0.1,1.7,0.1,2.5c0,6,0,12,0,18.1c-41.4,0-82.7,0-124.1,0
	C11.5,172.4,11.3,165.6,11.6,158.9z M22.9,219.5c-3.7,0-7.4,0-11.3,0c0-3.6,0-7.2,0-11c3.8,0,7.5,0,11.3,0
	C22.9,212.2,22.9,215.8,22.9,219.5z M11.5,199.4c0-3.7,0-7.3,0-11c41.4,0,82.7,0,124,0c0,3.7,0,7.3,0,11
	C94.3,199.4,52.9,199.4,11.5,199.4z"/>
<path d="M296.3,228.6c-0.1-0.6-0.2-1.3-0.2-1.9c0-21.4-0.1-42.9,0.1-64.3c0.1-8.8-3-15.8-10.3-20.8c-0.4-0.3-0.6-1.2-0.6-1.8
	c-0.1-12.7,0-25.5-0.1-38.2c-0.1-12.3-8.2-22.2-20.2-24.6c-1.6-0.3-3.3-0.5-4.9-0.5c-23.6-0.1-47.2-0.1-70.8,0
	c-14.1-0.1-25,10.9-25,25c-0.1,12.8,0,25.6,0,38.5c0,1.1-0.3,1.7-1.2,2.5c-6.2,4.7-9.1,11.1-9.1,18.9c0.1,21.8,0,43.6,0,65.4
	c0,0.6-0.1,1.3-0.1,1.9c9.8,0,19.7,0,29.5,0c0-6.1,0.1-12.1,0.1-18.1c0-0.6,0-1.2,0-1.9c27.7,0,55.4,0,83.3,0c0,6.7,0,13.3,0,20
	C276.6,228.6,286.5,228.6,296.3,228.6z M287.1,219.6c-3.8,0-7.5,0-11.3,0c0-3.6,0-7.3,0-11c3.8,0,7.5,0,11.3,0
	C287.1,212.2,287.1,215.9,287.1,219.6z M173.7,101.9c0-9.8,6.8-16.6,16.6-16.6c23.2,0,46.5,0,69.7,0c9.8,0,16.7,6.8,16.7,16.6
	c0,11.5,0,23,0,34.5c0,0.4,0,0.9,0,1.4c-3.7,0-7.2,0-10.7,0c-0.2-2.3-0.1-4.5-0.5-6.6c-1.7-9.6-9.7-16.3-19.5-16.4
	c-13.7-0.1-27.4-0.1-41.1,0c-11.1,0.1-19.5,8.6-19.7,19.6c0,1.1,0,2.1,0,3.3c-3.9,0-7.6,0-11.5,0c0-0.4,0-0.9,0-1.4
	C173.7,124.9,173.7,113.4,173.7,101.9z M256.5,135c0,0.9,0,1.7,0,2.7c-21,0-41.8,0-62.5,0c-1.6-7.5,3.5-14,11.1-14
	c13.4,0,26.7,0,40.1,0C251.8,123.7,256.4,128.2,256.5,135z M163.2,158.9c0.3-6.2,6.2-11.5,12.5-11.8c0.5,0,1-0.1,1.5-0.1
	c32,0,63.9,0,95.9,0c7,0,12.4,4.2,13.8,10.7c0.1,0.3,0.2,0.7,0.2,1c0.1,0.8,0.1,1.7,0.1,2.5c0,6,0,12,0,18.1c-41.4,0-82.7,0-124.1,0
	C163.1,172.4,162.9,165.6,163.2,158.9z M174.4,219.5c-3.7,0-7.4,0-11.3,0c0-3.6,0-7.2,0-11c3.8,0,7.5,0,11.3,0
	C174.4,212.2,174.4,215.8,174.4,219.5z M163.1,199.4c0-3.7,0-7.3,0-11c41.4,0,82.7,0,124,0c0,3.7,0,7.3,0,11
	C245.8,199.4,204.5,199.4,163.1,199.4z"/>
</svg>
