<?xml version="1.0" encoding="utf-8"?>
<!-- Generator: Adobe Illustrator 24.2.1, SVG Export Plug-In . SVG Version: 6.00 Build 0)  -->
<svg version="1.1" id="Capa_1" xmlns="http://www.w3.org/2000/svg" xmlns:xlink="http://www.w3.org/1999/xlink" x="0px" y="0px"
	 viewBox="0 0 153 153" style="enable-background:new 0 0 153 153;" xml:space="preserve">
<path d="M147.8,20.9c2.8,0,3.4-0.7,3.4-3.5c0-4.1,0-8.1,0-12.2c0-2.9-0.7-3.6-3.7-3.6c-47.4,0-94.9,0-142.3,0c-0.4,0-0.8,0-1.2,0
	C2.6,1.7,1.7,2.5,1.7,4c0,4.8,0,9.6,0,14.5c0,1.4,1,2.3,2.4,2.4c0.8,0,1.6,0,2.3,0c0,42,0,83.7,0,125.5c-1.6,0-3.1,0-4.6,0
	c0,1.6,0,3.2,0,4.7c49.9,0,99.6,0,149.4,0c0-1.6,0-3.1,0-4.7c-1.6,0-3,0-4.7,0c0-42,0-83.7,0-125.5C147,20.9,147.4,20.9,147.8,20.9z
	 M16,146.3c-1.6,0-3.1,0-4.6,0c0-41.8,0-83.5,0-125.3c1.6,0,3,0,4.6,0C16,62.7,16,104.4,16,146.3z M64.3,71.4c0-0.5,0-1.1,0-1.6
	c0-9.7,0-19.4,0-29.1c0-2.3-0.5-2.9-2.7-3.5c-10.6-2.9-21.3-5.8-31.9-8.8c-2.8-0.8-4,0.1-4,3c0,34.8,0,69.6,0,104.3
	c0,2.8,1.2,3.7,3.9,3c10.7-2.9,21.5-5.9,32.2-8.8c2-0.6,2.5-1.2,2.5-3.3c0-9.7,0-19.4,0-29.1c0-0.5,0-1.1,0-1.7c1.6,0,3.1,0,4.7,0
	c0,12.2,0,24.4,0,36.7c-16,4.4-32,8.7-48.1,13.1c0-41.4,0-82.6,0-124c16.1,4.4,32.1,8.8,48.1,13.1c0,12.3,0,24.4,0,36.7
	C67.6,71.4,66,71.4,64.3,71.4z M69.1,76.5c0,4.7,0,9.4,0,14.3c-2.4,0-4.7,0-7.1,0c0-4.8,0-9.5,0-14.3C64.3,76.5,66.6,76.5,69.1,76.5
	z M37.5,146.2c0-0.1,0-0.1-0.1-0.2c2.2-0.6,4.4-1.2,6.6-1.8c9.1-2.5,18.1-4.9,27.2-7.4c2.3-0.6,2.7-1.2,2.7-3.6c0-33,0-66,0-99.1
	c0-2.8-0.4-3.2-3-4c-10.7-2.9-21.5-5.9-32.2-8.8c-0.4-0.1-0.7-0.2-1.1-0.3c0-0.1,0-0.1,0-0.2c25.9,0,51.8,0,77.8,0
	c0,0.1,0,0.1,0,0.2c-3.7,1-7.5,2.1-11.2,3.1c-7.6,2.1-15.3,4.2-22.9,6.3c-2,0.5-2.4,1.1-2.4,3.2c0,33.3,0,66.6,0,100
	c0,2,0.5,2.6,2.5,3.2c10.9,3,21.9,6,32.8,9c0.4,0.1,0.9,0.2,1.3,0.5C89.4,146.2,63.4,146.2,37.5,146.2z M83.7,76.5
	c2.3,0,4.6,0,7.1,0c0,4.7,0,9.5,0,14.3c-2.3,0-4.7,0-7.1,0C83.7,86,83.7,81.3,83.7,76.5z M131.8,145.5c-16-4.4-32-8.7-48.1-13.1
	c0-12.2,0-24.4,0-36.7c1.6,0,3,0,4.8,0c0,0.5,0,1.1,0,1.6c0,9.7,0,19.4,0,29.1c0,2.4,0.4,2.9,2.8,3.6c10.5,2.9,21.1,5.8,31.6,8.7
	c3.1,0.9,4.2,0,4.2-3.2c0-34.6,0-69.2,0-103.8c0-0.4,0-0.7,0-1.1c-0.1-1.9-1.4-2.9-3.3-2.4c-11.1,3-22.2,6.1-33.2,9.1
	c-1.6,0.4-2.1,1.5-2.1,3c0,9.8,0,19.5,0,29.3c0,0.5,0,1.1,0,1.8c-1.7,0-3.2,0-4.7,0c0-12.2,0-24.4,0-36.7c15.9-4.3,31.9-8.7,48-13.1
	C131.8,63,131.8,104.1,131.8,145.5z M141.4,146.3c-1.6,0-3.1,0-4.6,0c0-41.8,0-83.5,0-125.3c1.5,0,3,0,4.6,0
	C141.4,62.7,141.4,104.4,141.4,146.3z M146.3,16c-46.6,0-93.1,0-139.7,0c0-3.1,0-6.2,0-9.5c46.5,0,93.1,0,139.7,0
	C146.3,9.7,146.3,12.8,146.3,16z"/>
</svg>
