<?xml version="1.0" encoding="utf-8"?>
<!-- Generator: Adobe Illustrator 24.2.1, SVG Export Plug-In . SVG Version: 6.00 Build 0)  -->
<svg version="1.1" id="Capa_1" xmlns="http://www.w3.org/2000/svg" xmlns:xlink="http://www.w3.org/1999/xlink" x="0px" y="0px"
	 viewBox="0 0 153 153" style="enable-background:new 0 0 153 153;" xml:space="preserve">
<g>
	<path d="M138.9,44.2c0-5.1,0-10.2,0-15.4c0-2.3-1-3.7-3.1-4.5c-7.1-2.6-14.3-5.3-21.4-7.9c-12-4.4-24-8.9-36-13.3
		c-1.1-0.4-2.6-0.4-3.7,0c-10.9,4-21.8,8-32.6,12c-8.2,3-16.5,6.1-24.7,9.1c-2.2,0.8-3.2,2.3-3.2,4.6c0.1,5.2,0,10.5,0,15.7l0,5.8
		l0,2.4c0,1.9,0,3.8,0,5.7c0,1.2,0,2.5,0,3.7C14.1,69,14,75.9,15.4,82.7c6.8,33.4,26.4,56.1,58.3,67.4c1,0.3,1.9,0.5,2.8,0.5
		c0.9,0,1.8-0.1,2.7-0.4c34.6-11,59.1-43.9,59.6-80.1C138.9,61.5,138.9,52.7,138.9,44.2z M131.9,72.9c-0.6,16.7-6.7,32.2-18.1,46
		c-9.6,11.6-21.7,19.8-36,24.5c-0.6,0.2-1.5,0.2-2.1,0c-30.1-10.9-48.1-32.2-53.4-63.4c-1-6.1-1.2-12.4-1.3-18.6
		c0-2.4-0.1-4.8-0.2-7.2l0.4,0l0-6.8c0-5.5,0-11,0-16.5c0-0.4,0.1-0.5,0.1-0.5s0.1-0.1,0.5-0.2c8.1-3,16.2-6,24.3-9
		c10-3.7,19.9-7.4,29.9-11c0.5-0.2,1.3-0.2,1.8,0c12.2,4.5,24.4,9,36.7,13.5l17.4,6.4c0.2,0.1,0.5,0.2,0.5,0.1c0,0,0,0.1,0,0.2
		c0,4.7,0,9.4,0,14.2C132.2,53.9,132.3,63.5,131.9,72.9z"/>
	<path d="M99.1,54.5c-2,0-4.1,0-6.2,0h-1.4l0-1.3c0-2,0-4,0-6c0-4.9-2.2-7.2-7-7.2c-5.4,0-10.7,0-16.1,0c-4.7,0-7,2.3-7,7
		c0,2,0,4,0,6.1v1.4l-1.4,0c-2.2,0-4.2,0-6.3,0c-4.4,0-6.7,2.3-6.7,6.7c0,5.2,0,10.3,0,15.5l0,0.8c0,4.9,2.2,7.1,7.2,7.2
		c2,0,3.9,0,5.9,0h1.3l0,2.5c0,1.7,0,3.4,0,5.2c0,4.4,2.5,6.8,6.8,6.8c2.4,0,4.8,0,7.3,0c2.9,0,5.9,0,8.8,0c4.9,0,7.2-2.3,7.2-7.2
		c0-2,0-4,0-6l0-1.3l1.5,0c2.1,0,4.1,0,6.2,0c4.5,0,6.8-2.4,6.8-6.8c0-5.5,0-11,0-16.4C106,56.7,103.8,54.5,99.1,54.5z M99.2,77.4
		c0,0.1,0,0.3,0,0.3c-0.1,0-0.2,0-0.3,0c-2.8-0.1-5.5-0.1-8.2,0l-1.6,0c-3.2,0-4.4,1.2-4.4,4.4l0,1.3c0,2.8,0,5.7,0,8.6
		c0,0.2,0,0.3,0,0.3c-0.1,0-0.2,0-0.3,0c-2.5,0-5.1,0-7.8,0c-2.6,0-5.3,0-8.1,0c-0.1,0-0.2,0-0.2,0c0-0.1,0-0.1,0-0.2
		c0.1-3.5,0-7,0-10.2c0-2.8-1.2-4.1-4.1-4.1c-3.1,0-6.7-0.1-10.2,0c-0.1,0-0.1,0-0.2,0c0-0.1,0-0.1,0-0.2c0.1-5.7,0.1-10.9,0-15.9
		c0-0.1,0-0.2,0-0.3c0.1,0,0.2,0,0.4,0c2.7,0.1,5.4,0,8,0l1.8,0c3.2,0,4.3-1.1,4.3-4.2c0-3.3,0-6.7,0-10c0-0.1,0-0.2,0-0.2
		c0.1,0,0.1,0,0.2,0c1.9,0.1,3.8,0.1,5.7,0c0.8,0,1.5,0,2.3,0l2.4,0c1.9,0,3.9,0,5.8,0c0,0,0.1,0,0.1,0c0,0,0,0.1,0,0.1
		c-0.1,3.5,0,7,0,10.2c0,3,1.2,4.1,4.2,4.1l1.6,0c2.7,0,5.5,0,8.2,0c0.2,0,0.4,0,0.5,0c0,0.1,0,0.2,0,0.3
		C99.2,66.3,99.2,71.3,99.2,77.4z"/>
</g>
</svg>
