<?xml version="1.0" encoding="utf-8"?>
<!-- Generator: Adobe Illustrator 24.2.1, SVG Export Plug-In . SVG Version: 6.00 Build 0)  -->
<svg version="1.1" id="Capa_1" xmlns="http://www.w3.org/2000/svg" xmlns:xlink="http://www.w3.org/1999/xlink" x="0px" y="0px"
	 viewBox="0 0 153 153" style="enable-background:new 0 0 153 153;" xml:space="preserve">
<g>
	<g>
		<g>
			<path d="M143.2,3.3H85.7c-1.4,0-2.7,0.6-3.7,1.5L3.7,83.2c-2.1,2.1-2.1,5.4,0,7.4l57.5,57.5c2.1,2.1,5.4,2.1,7.4,0l78.4-78.4
				c1-1,1.5-2.3,1.5-3.7V8.5C148.4,5.7,146.1,3.3,143.2,3.3z M138,63.8L64.8,137L14.7,86.9l73.2-73.2H138V63.8z"/>
		</g>
	</g>
	<g>
		<g>
			<path d="M114.8,17.8c-8.9,0-16.1,7.2-16.1,16.1S105.9,50,114.8,50s16.1-7.2,16.1-16.1S123.7,17.8,114.8,17.8z M114.8,39.3
				c-3,0-5.4-2.4-5.4-5.4c0-3,2.4-5.4,5.4-5.4s5.4,2.4,5.4,5.4C120.2,36.9,117.8,39.3,114.8,39.3z"/>
		</g>
	</g>
</g>
</svg>
