<?xml version="1.0" encoding="utf-8"?>
<!-- Generator: Adobe Illustrator 24.2.1, SVG Export Plug-In . SVG Version: 6.00 Build 0)  -->
<svg version="1.1" id="Capa_1" xmlns="http://www.w3.org/2000/svg" xmlns:xlink="http://www.w3.org/1999/xlink" x="0px" y="0px"
	 viewBox="0 0 122 122" style="enable-background:new 0 0 122 122;" xml:space="preserve">
<path d="M112.1,43.9c-0.5,1-1.2,1.5-2.3,1.7c-2.8,0.7-5.6,1.5-8.3,2.3c-1.5,0.4-2.7-0.1-3.1-1.4c-0.4-1.3,0.4-2.4,1.9-2.8
	c2.7-0.8,5.5-1.5,8.2-2.3c1.9-0.5,2.4-0.3,3.5,1.2C112.1,43,112.1,43.4,112.1,43.9z"/>
<path d="M84.9,30.5c0-1.6,0-3.1,0-4.7c0-1.4,0.9-2.3,2.2-2.4c1.3,0,2.2,0.9,2.2,2.3c0,3.1,0,6.2,0,9.3c0,1.5-1,2.5-2.3,2.4
	c-1.3,0-2.1-1-2.1-2.4C84.8,33.6,84.9,32,84.9,30.5C84.9,30.5,84.9,30.5,84.9,30.5z"/>
<path d="M101.8,33.3c-0.1,0.2-0.3,0.7-0.5,1.1c-1.7,2.2-3.3,4.4-5,6.6c-0.9,1.1-2.2,1.3-3.2,0.5c-1-0.8-1.1-2-0.3-3.1
	c1.7-2.3,3.4-4.6,5.2-6.8c0.7-0.9,1.6-1.1,2.6-0.7C101.3,31.4,101.8,32.1,101.8,33.3z"/>
<path d="M81.5,45.7c-10-7.7-20.1-15.5-30.2-23.2c-0.5-0.4-1-0.7-1.6-0.9C34.7,15.9,19.6,10.3,4.6,4.8C2.6,4,2,4.2,0.9,5.9
	c0,5.9,0,11.7,0,17.6c0.1,0.2,0.2,0.3,0.2,0.5C2.1,31,5.8,36.3,12,39.7c0.5,0.3,0.9,0.6,1.3,1c4.6,4.9,9.2,9.8,13.8,14.7
	c2.8,3,7.1,3.5,10.4,1.2c3.3-2.3,4.4-6.4,2.6-10.1c-0.9-1.8-1.8-3.6-2.6-5.4c-0.3-0.5-0.5-1.1-0.9-1.8c2.8,0.5,5.4,1,7.9,1.4
	c0.8,0.1,1.1,0.5,1.3,1.3c1.1,4.8,2.2,9.7,3.4,14.5c0.9,3.8,5.1,6.2,8.9,5.2c3.9-1,6.2-4.8,5.2-8.7c-0.1-0.6-0.3-1.1-0.4-1.8
	c0.5,0.3,0.8,0.4,1.1,0.6c3.3,2,6.6,4,10,5.9c4.2,2.4,9,0.5,10.3-4C85.2,50.8,84.1,47.7,81.5,45.7z M56.9,57.5
	c-1.6,0.4-3.3-0.4-3.7-2c-0.9-3.6-1.7-7.2-2.5-10.8c0-0.1,0-0.2,0.1-0.5c2.1,1.2,4,2.4,5.9,3.6c0.2,0.2,0.5,0.5,0.5,0.8
	c0.5,1.8,1,3.6,1.5,5.5C59.1,55.7,58.4,57.1,56.9,57.5z M76.2,54c-3.1-1.8-6.2-3.6-9.2-5.5c-6.2-3.7-12.5-7.4-18.8-11.1
	c-0.6-0.4-1.4-0.6-2.1-0.8c-4.2-0.8-8.3-1.5-12.5-2.3c-1-0.2-1.9-0.1-2.6,0.7c-0.7,0.9-0.6,1.8-0.1,2.8c1.8,3.5,3.5,7.1,5.2,10.6
	c1.2,2.4-0.3,5-2.8,5.2c-1.4,0.1-2.4-0.5-3.3-1.5c-4.6-4.9-9.2-9.8-13.8-14.6c-0.6-0.6-1.4-1.2-2.2-1.6C8.6,32.8,5.6,28,5.3,21.7
	c-0.1-3.9,0-7.8,0-12c2.1,0.8,4,1.5,5.9,2.2c12.1,4.5,24.2,9,36.2,13.5c0.6,0.2,1.2,0.5,1.7,0.9c9.9,7.6,19.8,15.2,29.6,22.8
	c0.8,0.6,1.3,1.3,1.4,2.4C80.3,53.9,78.3,55.2,76.2,54z"/>
<path d="M120.7,108.1c-0.5-3.3-3.4-5.8-6.8-5.8c-2.2,0-4.4,0-6.7,0c0-1.5,0-2.9,0-4.4c0.5,0,0.9,0,1.3,0c3.3,0,6.5,0,9.8,0
	c1.8,0,2.7-0.8,2.6-2.6c-0.2-2-0.3-4.1-0.8-6.1C117,78.3,107.5,71,96.3,70.8c-1.1,0-2.2,0-3.4,0c0-1.3,0-2.4,0-3.7
	c0.8,0,1.5,0,2.1,0c1.3-0.1,2.2-1,2.2-2.2c0-1.2-0.9-2.2-2.1-2.2c-3-0.1-5.9-0.1-8.9,0c-1.3,0-2.2,1-2.2,2.3c0,1.2,0.9,2,2.2,2.1
	c0.7,0,1.4,0,2.1,0c0,1.3,0,2.4,0,3.6c-2.2,0.1-4.4,0.1-6.5,0.4c-11.9,1.4-21.4,12.2-21.4,24.2c0,1.7,0.9,2.6,2.6,2.6
	c3.1,0,6.3,0,9.4,0c0.5,0,1.1,0,1.7,0c0,1.5,0,2.9,0,4.4c-0.8,0-1.6,0-2.3,0c-1.9,0-3.8-0.1-5.6,0.1c-3.6,0.6-6.1,3.9-5.7,7.4
	c0.4,3.8,3.3,6.5,7,6.5c15.4,0,30.8,0,46.2,0c0.8,0,1.5-0.1,2.3-0.4C119.3,114.9,121.2,111.6,120.7,108.1z M65,93.4
	c0.8-5.8,3.4-10.5,7.9-14c3.5-2.7,7.5-4.1,11.9-4.1c4.1,0,8.2-0.2,12.3,0c6.8,0.3,12.1,3.5,16.1,9.3c-0.5,0-0.9,0.1-1.2,0.1
	c-2.2,0-4.5,0-6.7,0c-1.6,0-2.6,0.8-2.6,2.2c0,1.4,1,2.2,2.6,2.2c3,0,6,0,9,0c0.9,0,1.3,0.3,1.4,1.1c0.2,1.1,0.4,2.1,0.7,3.3
	C99.2,93.4,82.1,93.4,65,93.4z M102.6,97.9c0,1.5,0,2.8,0,4.2c-8,0-15.9,0-24,0c0-1.4,0-2.8,0-4.2C86.6,97.9,94.6,97.9,102.6,97.9z
	 M114.1,111.9c-0.3,0-0.6,0-0.9,0c-15.1,0-30.1,0-45.2,0c-1.6,0-2.6-0.6-3-1.8c-0.6-1.7,0.6-3.4,2.4-3.5c1.4-0.1,2.9,0,4.3,0
	c6.4,0,12.7,0,19.1,0c7.5,0,15.1,0,22.6,0c1.8,0,2.9,1,3,2.5C116.4,110.5,115.5,111.7,114.1,111.9z"/>
<path d="M96.1,84.6c1.2,0,2.2,0.9,2.2,2.1c0,1.2-1,2.3-2.2,2.2c-1.2,0-2.1-1-2.1-2.2C94,85.6,94.9,84.7,96.1,84.6z"/>
</svg>
