<?xml version="1.0" encoding="utf-8"?>
<!-- Generator: Adobe Illustrator 24.2.1, SVG Export Plug-In . SVG Version: 6.00 Build 0)  -->
<svg version="1.1" id="Capa_1" xmlns="http://www.w3.org/2000/svg" xmlns:xlink="http://www.w3.org/1999/xlink" x="0px" y="0px"
	 viewBox="0 0 153 153" style="enable-background:new 0 0 153 153;" xml:space="preserve">
<path d="M151.3,88.2c-0.2,0.4-0.4,0.7-0.6,1.1c-1.1,1.9-3.2,2.9-5.3,2.5c-2.2-0.4-3.7-2.1-4-4.3c-0.1-0.5,0-1.1,0-1.6
	c-0.1-11.4-0.1-22.8-0.2-34.3c0-0.4,0.1-0.9-0.1-1.3c-0.2-0.4-0.6-0.8-1-0.8c-0.3,0-0.8,0.4-0.9,0.7c-0.2,0.5-0.1,1.1-0.1,1.6
	c0,26.8,0.1,53.6,0.1,80.4c0,0.7,0,1.4-0.1,2c-0.4,3.4-3,5.7-6.2,5.5c-3.2-0.1-5.6-2.7-5.6-6.1c0-5.6,0-11.1,0-16.7
	c0-9.7,0-19.3,0-29c0-0.6,0-1.1,0-1.8c-0.9,0-1.7,0-2.6,0c0,0.6,0,1.1,0,1.7c0,15.1,0,30.3,0,45.4c0,3.3-1.6,5.5-4.4,6.3
	c-3.2,0.9-6.6-1-7.3-4.3c-0.2-0.9-0.2-1.8-0.2-2.8c0-26.7,0-53.4,0-80.1c0-0.7-0.4-1.5-0.6-2.2c-0.5,0.6-1.2,1-1.6,1.7
	c-2.1,3.7-4.1,7.5-6.2,11.3c-1.6-0.5-3.3-1-4.6-1.4c0.6-2.1,1.5-4.2,1.8-6.4c0.2-1.8-0.3-3.6-0.5-5.5c-0.1-0.7-0.1-1.4,0.2-2
	c1.9-4,4.5-7.3,9-8.6c1.5-0.4,3.2-0.7,4.7-0.7c7.9-0.1,15.8-0.1,23.7,0c6.2,0,10.8,3.5,12.1,9.2c0.4,2.1,0.3,4.3,0.4,6.4
	c0.1,1.1,0.1,2.1,0.2,3.2C151.3,67.7,151.3,78,151.3,88.2z"/>
<path d="M70.4,82c0-2.7-0.2-5.4,0-8c0.4-4.2,3.7-7.3,7.9-7.4c6.7-0.1,13.5-0.1,20.2,0c4.4,0.1,7.9,3.6,8,8
	c0.2,8.8,0.2,17.6,0.2,26.4c0,2.1-1.1,3.5-2.7,3.9c-1.5,0.4-3.3-0.3-4-1.8c-0.4-0.9-0.5-1.9-0.5-2.8c-0.1-7.8-0.1-15.6-0.1-23.4
	c0-0.3,0.1-0.7,0-1c-0.2-0.5-0.5-1-0.8-1.5c-0.2,0.5-0.6,0.9-0.7,1.4c-0.1,2.3,0,4.6,0,6.9c0,17.1,0,34.3,0.1,51.4
	c0,0.5,0,1.1,0,1.6c-0.2,2.3-2,4-4.2,4.1c-2.2,0.1-4.1-1.6-4.3-3.9c-0.1-0.6-0.1-1.2-0.1-1.8c0-10.4,0-20.8,0-31.2
	c0-0.6,0-1.1,0-1.8c-0.7,0-1.2,0-1.9,0c0,0.6,0,1.2,0,1.7c0,10.7,0,21.5,0,32.2c0,3.4-2.9,5.6-5.9,4.4c-1.6-0.6-2.5-1.8-2.7-3.5
	c-0.1-0.6,0-1.3,0-1.9c0-19.1,0-38.2,0-57.2c0-0.7-0.5-2.1-0.6-2.1c-1.2,0.2-0.7,1.3-0.7,2c-0.1,3,0,6-0.1,8.9
	c0,3.5-1.8,4.9-5.2,4.2c-3.7-0.8-7.3-1.6-11-2.2c-2.5-0.4-4-1.9-4.9-4.2c-2.8-7.9-5.6-15.7-8.5-23.5c-0.2-0.6-0.5-1.1-0.9-1.6
	c0.5,2.9,1.1,5.8,1.6,8.7c1.7,8.8,3.4,17.5,5.1,26.3c0.5,2.7-0.6,4.1-3.4,4.1c-1,0-1.9,0-3,0c0,0.7,0,1.3,0,1.9
	c0,11.3,0,22.5,0,33.8c0,3.4-1.5,5.7-4.3,6.5c-3.6,1.1-7.3-1.4-7.6-5.1c-0.1-0.7-0.1-1.4-0.1-2c0-11.1,0-22.2,0-33.2
	c0-0.6,0-1.1,0-1.8c-0.9,0-1.6,0-2.6,0c0,0.6,0,1.1,0,1.7c0,11.3,0,22.5,0,33.8c0,3.6-1.5,5.8-4.4,6.7c-3.5,1-7.1-1.2-7.6-4.8
	c-0.1-0.8-0.1-1.6-0.1-2.3c0-11,0-22,0-32.9c0-0.6,0-1.3,0-2.1c-1.1,0-2.2,0-3.3,0c-2.5,0-3.7-1.5-3.2-3.9
	c2.2-11.2,4.3-22.4,6.5-33.6c0.1-0.5,0.1-0.9-0.1-1.5c-0.5,1.4-1,2.8-1.5,4.2c-2.6,7.1-5.1,14.2-7.7,21.3c-0.7,2.1-2.1,3.4-4.3,3.7
	c-1.8,0.2-3.4-0.4-4.5-1.9c-1.3-1.6-1.3-3.4-0.6-5.2c2.2-6.1,4.4-12.3,6.6-18.4c1.9-5.3,3.8-10.7,5.8-15.9c1.3-3.3,3.2-6.2,6.6-7.6
	c1.2-0.5,2.6-0.9,3.9-0.9c6-0.1,12.1-0.1,18.1,0c4.5,0.1,7.7,2.5,9.5,6.4c1.8,3.8,3.1,7.9,4.6,11.8c2.8,7.8,5.7,15.7,8.4,23.5
	c0.5,1.5,1.2,2.4,2.9,2.5C69,81.7,69.6,81.9,70.4,82z"/>
<path d="M34.2,13.2c5.7,0.1,10.3,4.9,10.2,10.5c-0.1,5.8-4.9,10.4-10.6,10.3c-5.8-0.1-10.4-4.9-10.2-10.6
	C23.7,17.6,28.4,13.1,34.2,13.2z"/>
<path d="M125.8,34.1c-5.6-0.1-10.2-4.8-10.1-10.4c0.1-5.8,4.9-10.3,10.6-10.2c5.6,0.1,10.2,4.9,10,10.4
	C136.2,29.7,131.5,34.2,125.8,34.1z"/>
<path d="M88.3,63.4c-5.2-0.1-9.3-4.3-9.2-9.4c0.1-5.2,4.4-9.4,9.5-9.2c5.3,0.2,9.3,4.4,9.1,9.6C97.7,59.5,93.4,63.5,88.3,63.4z"/>
</svg>
