<?xml version="1.0" encoding="utf-8"?>
<!-- Generator: Adobe Illustrator 24.2.1, SVG Export Plug-In . SVG Version: 6.00 Build 0)  -->
<svg version="1.1" id="Capa_1" xmlns="http://www.w3.org/2000/svg" xmlns:xlink="http://www.w3.org/1999/xlink" x="0px" y="0px"
	 viewBox="0 0 153 153" style="enable-background:new 0 0 153 153;" xml:space="preserve">
<path d="M142.1,41.8c-1.3-1.9-3.1-3.2-5.2-4.2c-3.1-1.5-6.4-2.1-9.8-2.2c-2.2-0.1-4.4,0-6.6,0c0.9-0.7,1.9-1.5,2.9-2.3
	c4.1-3.5,7.3-7.6,8.7-12.9c1.1-4.3,0-7.6-3-9.8c-4.2-3-9.2-1.4-12.1,0.7c-0.9,0.7-0.9,1.7-0.4,2.6c0.6,1,1.4,1.3,2.5,0.9
	c0.8-0.4,1.6-0.9,2.5-1.2c4.3-1.5,7.4,1.1,6.6,5.6c-0.6,3.4-2.5,6-4.8,8.4c-3.7,3.8-8.2,6.6-12.8,9.2c-1.3,0.7-1.6-0.5-2.3-0.9
	c-0.3-0.2-0.6-0.9-0.5-1.3c1.2-4.4,2.7-8.6,5-12.6c1-1.8,0.9-2.8-0.3-3.6c-1.2-0.7-2.2-0.3-3.2,1.4c-0.9,1.5-1.7,3.1-2.4,4.5
	c-0.8-3.1-1.5-6.5-2.5-9.7c-1.2-3.8-3.3-7.2-6.9-9.3c-5.5-3.2-11.3-1-13.2,5c-0.4,1.3-0.6,2.6-0.6,3.9c0,3.8,1.2,7.4,3,10.7
	c1.1,2,2.3,3.9,3.5,5.9c-1.2-0.5-2.3-0.9-3.5-1.3c-4.8-1.7-9.6-2.8-14.7-1.6c-5.1,1.3-8.4,5.2-7.9,9.8c0.4,3.7,2.6,6.2,5.7,7.9
	c4.8,2.7,10,3,15.4,2.7c0.7,0,1.4-0.1,2.3-0.2c-1.7,1.5-3.3,2.8-4.7,4.1c-3.1,3-5.8,6.4-7.1,10.6c-0.9,2.9-0.7,5.7,1.1,8.2
	c0.7,1,0.5,1.5,0,2.4c-5.4,8.7-9.7,17.9-12.8,27.6c-1.3,4.1-2.4,8.2-3.6,12.5c-4.6-8.1-9.2-16.2-14-24.5c0.7,0.4,1.1,0.6,1.5,0.8
	c2.8,1.6,5.8,2.7,9.1,2.4c5-0.4,8.2-4.5,6.9-9.3c-0.5-1.8-1.5-3.6-2.8-5c-2.5-2.9-6-4.4-9.5-5.7c-0.5-0.2-0.9-0.3-1.7-0.6
	c0.8-0.3,1.2-0.4,1.7-0.6c3.6-1.3,6.9-2.9,9.6-5.7c2-2.1,3.2-4.6,3-7.5c-0.2-4.2-4-7.2-8.8-6.9c-3.8,0.2-7,1.9-10,4.1
	c-1.1,0.8-2.1,1.7-3.4,2.7c0.2-0.9,0.3-1.5,0.4-2.2c0.7-4.3,0.9-8.6-1.1-12.6c-1.5-3-3.8-5.1-7.3-5c-3.5,0.1-5.7,2.1-7.2,5.1
	c-1.7,3.5-1.7,7.1-1.3,10.9c0.1,1.2,0.4,2.5,0.6,4c-0.6-0.5-1-0.9-1.5-1.3c-2.6-2.2-5.3-4.2-8.7-5c-1.9-0.5-4-0.7-5.9-0.3
	C4.1,52.5,2,58.2,5.3,63.4c1.8,2.9,4.6,4.8,7.6,6.3c1.6,0.7,3.2,1.3,5,2.1c-0.6,0.2-1.1,0.3-1.5,0.5c-2.3,1.1-4.7,2.1-6.9,3.4
	c-2.4,1.4-4.2,3.5-5.2,6.2c-1.8,4.9,0.7,9.4,5.9,10.3c1.4,0.2,2.9,0.2,4.3-0.1c3.9-0.7,7.1-3,10.1-5.5c0.4-0.3,0.8-0.7,1.3-1.1
	c-0.3,1.6-0.5,2.9-0.7,4.1c-0.3,1.7,0.4,2.7,1.8,2.9c1.3,0.2,2.1-0.6,2.4-2.3c0.5-3.9,1.7-7.6,3.3-11.1c0.2-0.4,0.7-0.7,1-0.8
	c0.4,0,1.2,0.2,1.4,0.5c2.2,5,3.9,10.2,3.4,15.8c-0.2,1.6-0.8,3.4-1.6,4.8c-1.5,2.5-4.1,2.4-5.8,0.1c-0.3-0.4-0.5-0.9-0.8-1.3
	c-0.7-0.9-1.6-1-2.6-0.5c-1,0.5-1.4,1.4-1,2.5c1.6,3.8,6.5,7,11.1,4.1c2.4-1.5,3.8-3.8,4.4-6.5c0.4-1.9,0.6-4,0.8-6
	c0.1,0.1,0.2,0.2,0.3,0.4c5.2,9,10.4,18.1,15.5,27.1c0.3,0.5,0.4,1.3,0.3,1.8c-1.2,7.3-1.7,14.6-1.9,22c0,1.2,0.3,2.1,1.4,2.8
	c0.6,0,1.1,0,1.7,0c0.9-0.8,1.1-1.7,1.2-2.9c0.1-18.9,3.9-37,11.9-54.2c2.3-4.9,5-9.6,7.5-14.4c5.5,1.7,9.5-0.5,13-4.1
	c2.9-2.9,5-6.3,6.8-9.9c0.2-0.3,0.4-0.7,0.7-1.2c0.5,4.4,1.3,8.3,3.1,12c1.5,3.1,3.5,5.9,6.7,7.6c4.9,2.6,10.3,0.7,12.3-4.5
	c0.9-2.4,1-4.8,0.6-7.2c-0.7-4.7-2.8-8.8-5.4-12.6c-0.3-0.4-0.6-0.9-1-1.6c4.4,1.9,8.6,3.3,13.1,3.5c3.6,0.1,6.9-0.5,9.8-2.8
	C144.2,50.5,144.9,45.8,142.1,41.8z M14.2,65.7c-2.1-1.1-4.1-2.4-5.3-4.5c-0.8-1.3-1.4-2.7-0.5-4.2c0.8-1.5,2.3-1.8,3.8-1.7
	c2.5,0,4.7,1.1,6.7,2.4c4,2.6,7,6.1,9.8,9.9c-0.4,1.6-1.3,1.7-2.6,1.5C22,68.4,18,67.6,14.2,65.7z M17.7,86.5
	c-1.9,1.1-3.9,1.8-6.1,1.7C8.6,88,7,85.6,8.6,83c1-1.6,2.4-3.2,4-4.2c4.4-2.9,9.4-3.9,14.6-4.4c0.5-0.1,1.1,0.8,1.8,1.2
	C25.6,80,22.3,83.9,17.7,86.5z M33.9,74.1c-1.3,0-2.4-1.1-2.4-2.4c0-1.3,1.1-2.4,2.4-2.4c1.3,0,2.4,1.1,2.4,2.4
	C36.3,73,35.2,74.1,33.9,74.1z M38.4,53.5c-0.8,3.6-2,7.2-3.1,10.8c-0.2,0.7-0.7,1.2-1.4,0.9c-0.5-0.2-1.1-0.5-1.3-0.9
	c-1.9-4.3-3.3-8.6-3.4-13.4c-0.1,0-0.2-0.1-0.4-0.1c0.5-2,0.9-4.1,1.7-6.1c0.5-1.4,1.7-2.5,3.4-2.4c1.6,0,2.6,1.1,3.3,2.4
	C38.8,47.4,39,50.5,38.4,53.5z M50.2,56.9c1.9-1.1,4-1.8,6.2-1.6c2.8,0.2,4.2,2.4,3,5c-0.8,1.9-2.4,3.3-4.1,4.4
	c-4.5,2.9-9.5,3.9-14.7,4.5c-0.5,0.1-1.1-0.8-1.7-1.3C42.2,63.4,45.6,59.5,50.2,56.9z M39.3,75.8c0.3-1.7,1.4-1.7,2.6-1.5
	c4,0.6,8,1.5,11.7,3.3c2.1,1.1,4,2.4,5.3,4.4c0.9,1.4,1.5,2.8,0.6,4.4c-0.9,1.5-2.4,1.8-4,1.7c-2.7-0.1-5-1.3-7.1-2.8
	C45.3,83.3,41.3,79.1,39.3,75.8z M75.7,43.3c-2-0.6-4-1.6-5.6-2.9c-3.1-2.5-2.4-6.3,1.2-7.9c3.7-1.6,7.4-1.1,11.1-0.2
	c5.1,1.4,9.8,3.9,14.2,6.8c0,0.2,0.1,0.2,0.1,0.3c0,2.1-1.1,2.9-3.1,3.3C87.7,44,81.7,45,75.7,43.3z M99.6,51.2
	c-1.8,5.2-3.7,10.4-7.4,14.7c-2,2.3-4.2,4.3-7.4,4.9c-2.9,0.5-5.2-1.4-5.3-4.4c-0.1-2.5,0.9-4.7,2.3-6.7c2.8-4.2,6.7-7.2,10.9-9.9
	c1.7-1,3.4-2,5.2-3c0.2,0.1,0.3,0.1,0.3,0.1C100.2,47.8,100.3,49.2,99.6,51.2z M99.6,34.9c-4.5-4.6-8.7-9.4-10.7-15.7
	c-0.7-2.1-0.8-4.4-0.8-6.7c0-1.9,0.9-3.6,2.8-4.5C92.8,7.3,94.5,8,96,9.3c3,2.4,4.5,5.7,5.3,9.3c0.8,3.8,1.2,7.6,1.8,11.5
	c-0.1,0-0.3,0-0.4,0.1c0,0.7,0,1.4,0,2.1c-0.1,2.2-0.1,2.2-2.2,2.9C100.2,35.2,99.7,35.1,99.6,34.9z M103.9,45.1
	c-1.8,0-3.3-1.5-3.3-3.2c0-1.8,1.5-3.4,3.4-3.4c1.8,0,3.3,1.6,3.3,3.4C107.2,43.7,105.8,45.1,103.9,45.1z M119.3,65.1
	c0.7,2.2,1,4.5,0.4,6.8c-0.9,3.7-4.1,4.9-7.3,2.8c-2.9-2-4.4-5-5.5-8.3c-1.8-5.6-1.9-11.3-1.7-17.2c0.7-0.3,1.4-0.6,2.1-0.8
	c0.3-0.1,0.8,0,0.9,0.2C113,53.5,117.3,58.6,119.3,65.1z M137.2,50.7c-2.6,1.5-5.5,1.6-8.4,1.2c-6.3-0.9-11.8-3.7-17.1-7.1
	c-0.3-0.2-0.6-0.8-0.4-1.1c0.3-0.7-0.4-1.9,1-2.3c4.3-1.1,8.7-1.9,13.1-1.9c3.2,0,6.4,0.3,9.3,1.7c1.3,0.6,2.6,1.5,3.6,2.5
	C140.5,46.1,140,49,137.2,50.7z"/>
</svg>
