<?xml version="1.0" encoding="utf-8"?>
<!-- Generator: Adobe Illustrator 24.2.1, SVG Export Plug-In . SVG Version: 6.00 Build 0)  -->
<svg version="1.1" id="Capa_1" xmlns="http://www.w3.org/2000/svg" xmlns:xlink="http://www.w3.org/1999/xlink" x="0px" y="0px"
	 viewBox="0 0 153 153" style="enable-background:new 0 0 153 153;" xml:space="preserve">
<path d="M30.1,76.9c-1.4-1.6-2.9-3.5-4.5-5.4c-6.8-7.8-10.5-17.1-12.8-27c-1.2-5.3-1.1-5.4,4.1-7c10-3.1,20.1-4.5,30.4-2.3
	c2.1,0.5,4.2,1.2,6.4,1.8c0.2-1.1,0.4-2.2,0.7-3.3C56.6,24,62,16.1,68.8,9c1.9-2,3.9-3.7,5.9-5.6c1.1-1,2.3-1.1,3.5-0.1
	c9.4,8,17,17.3,20.3,29.6c0.4,1.3,0.5,2.7,0.8,4.2c0.2,0,0.5,0,0.7-0.1c7.7-3.1,15.6-3.5,23.6-2.2c5,0.8,9.9,2.2,14.8,3.6
	c2.3,0.6,2.7,1.6,2.2,4c-1.8,9.2-4.8,17.9-10.4,25.6c-2.3,3.2-5.2,6-8,9.1c-0.1-0.3-0.1-0.2,0-0.1c9,7.2,13.8,17,16.9,27.8
	c0.7,2.2,1.1,4.5,1.6,6.8c0.3,1.7-0.2,2.8-1.9,3.4c-9.6,3.4-19.4,5.1-29.5,3.8c-2.9-0.4-5.7-1.4-8.6-2.1c-0.5-0.1-0.9-0.3-1.5-0.5
	c-0.8,5.7-2.7,10.9-5.5,15.7c-4,6.9-9.1,12.7-15.2,17.9c-1.2,1-2.5,1.3-3.7,0.2c-8.9-7.6-16.2-16.5-19.8-27.9
	c-0.3-1-0.5-1.9-0.8-2.9c-0.2-0.9-0.3-1.9-0.5-2.8c-2.7,0.7-5.3,1.6-8,2.1c-7.3,1.4-14.6,0.8-21.8-0.7c-3.3-0.7-6.5-1.8-9.8-2.8
	c-1.7-0.5-2.3-1.6-2-3.3c1.7-9.2,4.7-18,10.2-25.7C24.8,82.5,27.8,79.5,30.1,76.9z M83.2,62.6c1.6,1.2,3,2.2,4.2,3.4
	c0.8,0.8,1.3,0.7,2.1,0.2c4.5-2.7,9.1-5.3,13.6-7.9c2-1.1,3.4-1,4.3,0.5c0.8,1.4,0.3,2.7-1.7,3.8c-2,1.1-3.9,2.3-5.9,3.4
	c-2.1,1.2-4.3,2.5-6.4,3.7c0.4,0.2,0.7,0.2,1,0.2c7.4-0.6,14.5,0.3,21.3,3.1c1.1,0.5,1.8,0.4,2.7-0.3c3.7-2.7,6.7-6.2,9.1-10.1
	c3.8-6.2,6.2-12.9,7.8-20.1c-1.9-0.5-3.6-1-5.3-1.5c-7.6-1.8-15.3-2.6-23-1C94.5,42.8,87.9,51.7,83.2,62.6z M69.8,90.6
	c-1.5-1.2-2.9-2.2-4.2-3.3c-0.8-0.7-1.2-0.8-2.1-0.3c-4.6,2.7-9.3,5.4-13.9,8c-1.8,1-3.2,0.8-4-0.6c-0.8-1.4-0.3-2.7,1.5-3.8
	c3.8-2.2,7.7-4.5,11.6-6.7c0.4-0.2,0.7-0.5,1.4-0.9c-7.9,0.8-15.3,0.3-22.2-2.7c-1.6-0.7-2.7-0.5-4,0.5
	c-9.5,7.7-13.5,18.3-16.3,29.7c5.1,1.7,10.2,2.8,15.4,3.2c6.2,0.5,12.3,0.2,18.1-2.2C60.7,107.6,65.9,99.6,69.8,90.6z M73.9,61.3
	c0-0.2,0.1-0.5,0.1-0.8c0-5.6,0-11.1,0-16.7c0-1.8,1-2.9,2.5-2.9c1.5,0,2.5,1.1,2.6,2.8c0,1.4,0,2.9,0,4.3c0,3.5,0,7,0,10.8
	c0.3-0.3,0.3-0.4,0.4-0.5c3.2-7.2,7.9-13.2,14.1-17.9c0.4-0.3,0.7-1.1,0.6-1.6c-0.4-2.3-0.7-4.6-1.4-6.8c-2.9-9-8.6-16.2-15.4-22.6
	c-0.3-0.3-0.6-0.5-1-0.8C71,13.6,66.5,19,63,25.3c-3.6,6.7-5.4,13.8-3.7,21.4c1.4,6.4,4.6,12,8.5,17C69.9,62.9,71.8,62.1,73.9,61.3z
	 M74,94.6c-3.2,6.5-7.1,12.3-12.8,16.6c-2.3,1.7-2.7,3.5-2,5.9c0,0.1,0,0.1,0,0.2c1.3,6.8,4.5,12.8,8.8,18.1
	c2.6,3.3,5.5,6.2,8.3,9.3c5.4-4.2,11.8-12.5,14.9-19c5.7-12.1,3.8-24.1-6-36.2c-2,0.8-4,1.6-6.1,2.4c0,1.9,0,3.9,0,6
	c0,3.9,0,7.9,0,11.8c0,1.6-1.2,2.7-2.6,2.6c-1.4,0-2.4-1.1-2.5-2.6c0-0.5,0-1.1,0-1.6C74,103.6,74,99.1,74,94.6z M91,82
	c4.9,2.8,9.9,5.7,14.9,8.6c1.8,1,2.3,2.4,1.4,3.8c-0.8,1.4-2.3,1.6-4,0.6c-3.8-2.2-7.5-4.3-11.3-6.5c-0.4-0.2-0.9-0.5-1.7-0.9
	c4.7,6.3,7.6,12.8,8.6,20.1c0.3,2.3,1.3,3.2,3.3,4c6.9,2.5,13.9,2.7,21,1.7c4.1-0.6,8.1-1.6,12.2-2.5c-1.6-7.4-4-14-7.7-20.1
	c-7.8-12.9-19.6-17.6-35.8-15.2C91.7,77.6,91.4,79.7,91,82z M62,71.2c-0.4-0.3-1-0.6-1.5-0.9c-4.5-2.6-9-5.2-13.5-7.8
	c-1.7-1-2.1-2.3-1.3-3.7c0.8-1.4,2.2-1.7,3.9-0.7c3.7,2.1,7.4,4.3,11.2,6.4c0.4,0.3,0.9,0.5,1.4,0.7c0-0.2,0.1-0.4,0-0.4
	c-0.1-0.2-0.3-0.4-0.4-0.7c-3.9-5.5-6.6-11.5-7.5-18.2c-0.4-2.8-1.7-3.8-4-4.6c-7.4-2.5-14.9-2.5-22.5-1.1c-3.4,0.6-6.7,1.5-10,2.3
	c1.5,7,3.7,13.3,7.1,19.2C30.2,71.1,38.1,77,49.3,78c4,0.4,7.9,0.3,11.7-0.3C61.3,75.5,61.6,73.4,62,71.2z M86.7,76.5
	c0-5.6-4.7-10.2-10.3-10.1c-5.5,0-10.1,4.6-10.1,10.2c0,5.6,4.6,10.2,10.2,10.2C82.2,86.8,86.7,82.2,86.7,76.5z"/>
</svg>
