<?xml version="1.0" encoding="utf-8"?>
<!-- Generator: Adobe Illustrator 24.2.1, SVG Export Plug-In . SVG Version: 6.00 Build 0)  -->
<svg version="1.1" id="Capa_1" xmlns="http://www.w3.org/2000/svg" xmlns:xlink="http://www.w3.org/1999/xlink" x="0px" y="0px"
	 viewBox="0 0 153 153" style="enable-background:new 0 0 153 153;" xml:space="preserve">
<path d="M145.2,4.5c-1.6-0.2-2.7,0.8-3.2,2.9c-4.7,17.4-9.3,34.8-14,52.2c-1,3.6-2,7.3-3,11.1c-2.8-0.7-5.4-1.5-8.1-2.2
	c0.1-0.4,0.1-0.6,0.1-0.8c3.4-12.8,6.8-25.5,10.3-38.3c1.9-7,3.8-14,5.6-21.1c0.5-1.9-0.3-3.5-2-3.9c-1.6-0.4-2.9,0.6-3.5,2.7
	c-5.3,19.7-10.6,39.4-15.8,59.1c-0.2,0.8-0.4,1.4-1.4,1.6c-3.6,0.9-5.9,3.2-6.9,6.8c-0.9,3.3-1.8,6.7-2.7,10
	c-1.6,5.7-6.3,8-11.7,5.5c-16.3-7.3-32.5-14.7-48.8-21.9c-12.6-5.6-26.8,1.1-30.6,14.3c-1.9,6.7-3.7,13.4-5.6,20
	c-1,3.7-1.3,7.5-0.8,11.2c1.9,14,13.4,24.2,27.6,24.5c0.6,0,1.3,0.4,1.7,0.8c3.2,3.7,6.9,6.6,11.5,8.3c2.6,1,5.4,1.5,8.2,2.2
	c1.8,0,3.6,0,5.4,0c0.2-0.1,0.4-0.2,0.7-0.2c7.7-1,14-4.5,19-10.4c0.3-0.4,1.1-0.7,1.7-0.7c6.9,0,13.8,0,20.7,0
	c11.2-0.1,21.2-7.6,24.3-18.3c3.5-12.5,6.8-25,10.1-37.5c0.9-3.4,0-6.5-2.6-8.9c-0.8-0.7-0.8-1.3-0.6-2.2
	c4.6-17.1,9.2-34.2,13.8-51.3c1-3.9,2.1-7.7,3.1-11.6C148.1,6.4,147.1,4.7,145.2,4.5z M123,103.4c-1.3,4.9-2.6,9.9-4,14.8
	c-2.6,8.9-10.1,14.5-19.4,14.6c-5.9,0-11.8,0-17.8,0c0.5-1.7,1.1-3.3,1.5-4.9c3.2-12.5-2.5-25.7-13.7-32.1c-1.8-1-3.4-0.8-4.3,0.7
	c-0.9,1.5-0.4,3.1,1.5,4.2c12.8,7.6,15.7,24.2,6.1,35.4c-6,7-15.8,9.8-24.6,7c-9-2.9-15.4-10.8-16.1-20.1
	c-0.7-9.6,3.2-16.9,11.3-22.1c0.3-0.2,0.6-0.3,0.8-0.5c1.3-0.9,1.7-2.5,0.9-3.9c-0.8-1.3-2.4-1.8-3.8-1c-2.9,1.6-5.6,3.6-7.7,6.1
	c-7.3,8.7-9.2,18.5-5.6,29.3c0.2,0.5,0.4,1,0.6,1.7c-0.6-0.1-1.1-0.1-1.6-0.2c-13-2.7-20.7-15.3-17.2-28.2
	c1.8-6.6,3.6-13.1,5.5-19.6c2.9-10.3,13.4-15.3,23.2-10.9C54.8,80.8,70.9,88,87,95.3c7.2,3.2,13.6,1.4,18.1-5.1
	c0.2-0.3,0.8-0.6,1.1-0.5c6.3,1.7,12.7,3.4,19.1,5.1C124.5,97.7,123.7,100.5,123,103.4z M128.9,81.1c-0.6,2.7-1.4,5.4-2.2,8.2
	c-6.6-1.8-13-3.5-19.5-5.2c0.8-3,1.5-5.8,2.4-8.6c0.6-1.7,2.3-2.5,4.2-2c4.2,1.1,8.4,2.2,12.6,3.4C128.4,77.4,129.4,79,128.9,81.1z"
	/>
<path d="M58,96.2c0,1.6-1.2,2.8-2.7,2.8c-1.6,0-2.9-1.3-2.9-2.9c0-1.5,1.3-2.8,2.9-2.8C56.8,93.4,58,94.7,58,96.2z"/>
</svg>
