<?xml version="1.0" encoding="utf-8"?>
<!-- Generator: Adobe Illustrator 24.2.1, SVG Export Plug-In . SVG Version: 6.00 Build 0)  -->
<svg version="1.1" id="Capa_1" xmlns="http://www.w3.org/2000/svg" xmlns:xlink="http://www.w3.org/1999/xlink" x="0px" y="0px"
	 viewBox="0 0 153 153" style="enable-background:new 0 0 153 153;" xml:space="preserve">
<g>
	<path d="M107.2,3.9c1.3,0.7,2.8,1.3,3.9,2.2c1.8,1.5,2.5,3.7,2.5,6c0,1.2,0,2.5,0,3.8c2.3,0,4.5,0,6.7,0c7,0,11.5,4.5,11.5,11.5
		c0,1.9,0,3.7,0,5.7c2.5,0,4.9,0,7.2,0c2.2,0,4.3,0,6.5,0c2.7,0,4.4,1.8,4.4,4.4c0,8.6,0,17.2,0,25.8c0,2.7-1.7,4.4-4.4,4.4
		c-1.2,0-2.5,0-3.7,0c-3.1,0-4.8-1.6-4.8-4.8c0-8,0-16,0-24c0-0.5,0-1,0-1.6c-1.7,0-3.3,0-5.2,0c0,0.6,0,1.2,0,1.8
		c0,28.6,0,57.2,0,85.8c0,5.4-2.2,9.3-7.3,11.4c-0.3,0.1-0.7,0.7-0.7,1.1c-0.1,1.8,0,3.6,0,5.4c-0.1,4.3-3.5,7.7-7.8,7.7
		c-4.9,0.1-9.8,0.1-14.6,0c-4.3-0.1-7.7-3.4-7.8-7.8c0-1.9,0-3.9,0-5.9c-11.5,0-22.8,0-34.3,0c0,1.7,0,3.3,0,5
		c0,5.6-3.2,8.7-8.7,8.7c-4.4,0-8.8,0-13.2,0c-5.1,0-8.3-3.3-8.3-8.4c0-1.6,0-3.2,0-4.7c0-0.7-0.2-1.1-0.9-1.4
		c-4.6-1.9-7.1-5.5-7.1-10.6c0-19.9,0-39.9,0-59.8c0-0.4,0-0.8,0-1.1c0.2-1.1,0.9-1.8,2.1-1.8c1.2,0,1.9,0.6,2.1,1.7
		c0.1,0.5,0.1,1,0.1,1.4c0,12.8,0,25.5,0,38.3c0,0.6,0,1.1,0,1.9c0.6,0,1.1,0,1.6,0c4.1,0,8.1,0,12.2,0c2.4,0,4.1,0.9,5,3.2
		c1.3,3.1,2.7,6.2,4,9.4c1.1,2.5-0.1,4.3-2.8,4.3c-6.1,0-12.1,0-18.2,0c-0.5,0-1,0-1.6,0c-0.2,2.5-0.4,4.9,1.3,7
		c1.4,1.7,3.2,2.5,5.4,2.4c9.6,0,19.1,0,28.7,0c19.5,0,39.1-0.1,58.6,0.1c4.9,0,8.4-2.7,7.9-8.1c0-0.4,0-0.8,0-1.4
		c-0.6,0-1.1,0-1.6,0c-6.1,0-12.1,0-18.2,0c-2.8,0-4-1.7-2.9-4.3c1.4-3.2,2.8-6.4,4.1-9.6c0.8-2,2.3-2.9,4.5-2.9c4.2,0,8.3,0,12.5,0
		c0.5,0,1,0,1.7,0c0-0.6,0-1.1,0-1.7c0-25.7,0-51.4,0-77.2c0-4.7-2.6-7.3-7.2-7.3c-29.2,0-58.4,0-87.6,0c-4.7,0-7.2,2.6-7.2,7.3
		c0,8.7,0,17.5,0,26.2c0,0.3,0,0.7,0,1c-0.1,1.4-0.9,2.4-2.1,2.4c-1.3,0-2.2-1-2.2-2.5c0-5.2,0-10.3,0-15.5c0-0.5,0-1,0-1.7
		c-1.7,0-3.3,0-5.2,0c0,0.5,0,1,0,1.5c0,7.9,0,15.9,0,23.8c0,3.4-1.6,5-5,5c-0.9,0-1.7-0.1-2.6,0c-2.6,0.2-4.3-0.8-5.3-3.2
		c0-9.5,0-18.9,0-28.4c1-2.4,2.8-3.3,5.3-3.2c3.5,0.1,7,0,10.5,0c0.7,0,1.5,0,2.3,0c0-1,0.1-1.8,0-2.6C20.2,20.2,25.6,15,35.7,15.9
		c1.2,0.1,2.4,0,3.7,0c0-1.4,0-2.7,0-4c0-2.4,0.8-4.5,2.6-6c1.1-0.9,2.5-1.4,3.8-2.1C66.3,3.9,86.7,3.9,107.2,3.9z M109.3,15.9
		c0-1,0-2,0-3c0-3.5-1.2-4.7-4.6-4.7c-18.8,0-37.6,0-56.5,0c-0.5,0-1,0-1.4,0c-1.5,0.2-2.8,1.2-3,2.7c-0.2,1.6,0,3.3,0,5
		C65.6,15.9,87.4,15.9,109.3,15.9z M33.5,137c0,0.2-0.1,0.4-0.1,0.6c0,1.8,0,3.5,0,5.3c0.1,2,1.5,3.4,3.5,3.5c4.9,0.1,9.8,0,14.6,0
		c1.8,0,3.3-1.3,3.4-2.9c0.1-2.1,0-4.3,0-6.5C47.8,137,40.7,137,33.5,137z M98,137c0,2.2-0.1,4.2,0,6.3c0.1,1.7,1.5,3.1,3.4,3.1
		c4.9,0.1,9.8,0.1,14.8,0c1.6,0,3.2-1.2,3.3-2.7c0.2-2.2,0-4.4,0-6.7C112.3,137,105.2,137,98,137z M25.5,110.6c0,2.8,0,5.5,0,8.2
		c6,0,11.9,0,18,0c-1.1-2.6-2.2-5.1-3.3-7.6c-0.1-0.3-0.6-0.6-1-0.6C34.7,110.6,30.2,110.6,25.5,110.6z M109.5,118.8
		c6.1,0,12,0,18,0c0-2.7,0-5.4,0-8.2c-4.7,0-9.2,0-13.8,0c-0.3,0-0.7,0.3-0.9,0.5C111.7,113.7,110.6,116.2,109.5,118.8z M11.6,63.4
		c0-8.7,0-17.3,0-25.9c-1.5,0-2.8,0-4.1,0c0,8.7,0,17.3,0,25.9C8.8,63.4,10.2,63.4,11.6,63.4z M145.5,63.5c0-8.7,0-17.3,0-25.9
		c-1.5,0-2.8,0-4.1,0c0,8.7,0,17.3,0,25.9C142.8,63.5,144.1,63.5,145.5,63.5z"/>
	<path d="M76.5,90.8c-13.7,0-27.3,0-41,0c-3.8,0-5.7-2-5.7-5.7c0-15.4,0-30.8,0-46.2c0-3.8,2-5.7,5.7-5.7c27.3,0,54.7,0,82,0
		c3.8,0,5.7,2,5.7,5.7c0,15.4,0,30.8,0,46.2c0,3.8-2,5.7-5.7,5.7C103.9,90.8,90.2,90.8,76.5,90.8z M76.4,86.5c13.6,0,27.2,0,40.9,0
		c1.3,0,1.8-0.3,1.8-1.7c0-15.2,0-30.5,0-45.7c0-1.4-0.5-1.7-1.8-1.7c-27.1,0-54.3,0-81.4,0c-1.4,0-1.8,0.5-1.8,1.8
		c0,15.2,0,30.3,0,45.5c0,1.5,0.5,1.8,1.9,1.8C49.4,86.4,62.9,86.5,76.4,86.5z"/>
	<path d="M98.4,103.7c-2.7,0-5.2,0-7.7,0c-1.7,0-2.7-0.8-2.7-2.1c0-1.3,1-2.1,2.7-2.2c2.8,0,5.5,0,8.3,0c3.1,0,4.9,2.7,3.7,5.5
		c-2.3,5.3-4.6,10.6-7,15.9c-0.7,1.6-2,2.4-3.7,2.4c-10.3,0-20.6,0-31,0c-1.8,0-3-0.8-3.7-2.4c-2.3-5.3-4.7-10.5-7-15.9
		c-1.2-2.8,0.6-5.5,3.6-5.5c8.7,0,17.3,0,26,0c1.5,0,2.4,0.9,2.4,2.1c0,1.3-0.9,2.2-2.5,2.2c-7.8,0-15.7,0-23.5,0c-0.5,0-1,0-1.7,0
		c0.1,0.4,0.2,0.7,0.3,1c1.9,4.4,3.9,8.8,5.8,13.2c0.3,0.7,0.7,1,1.5,1c9.6,0,19.1,0,28.7-0.1c0.4,0,1.1-0.3,1.3-0.7
		c2.1-4.6,4.1-9.2,6.1-13.9C98.4,104.1,98.4,104,98.4,103.7z"/>
	<path d="M76.5,28.8c-7.3,0-14.6,0-21.9,0c-0.4,0-0.9,0-1.3,0c-1.1-0.2-1.8-0.9-1.8-2.1c0-1.2,0.7-1.9,1.8-2.1c0.4-0.1,0.9,0,1.3,0
		c14.6,0,29.2,0,43.9,0c0.4,0,0.9,0,1.3,0c1.1,0.2,1.8,0.9,1.8,2.1c0,1.2-0.7,1.9-1.8,2.1c-0.4,0.1-0.9,0-1.3,0
		C91.2,28.8,83.9,28.8,76.5,28.8z"/>
	<path d="M76.5,109.1c3.1,0,6.3,0,9.4,0c1.7,0,2.6,0.8,2.6,2.1c0,1.4-0.9,2.2-2.6,2.2c-6.3,0-12.6,0-18.9,0c-1.7,0-2.6-0.8-2.6-2.1
		c0-1.4,0.9-2.2,2.6-2.2C70.2,109.1,73.4,109.1,76.5,109.1z"/>
	<path d="M41.6,28.8c-1.1,0-2.1-0.9-2.1-2c-0.1-1.2,0.9-2.2,2.1-2.2c1.1,0,2.1,0.9,2.1,2C43.7,27.8,42.8,28.8,41.6,28.8z"/>
	<path d="M111.6,28.8c-1.1,0-2.1-0.9-2.1-2c-0.1-1.2,0.9-2.2,2.1-2.2c1.1,0,2.1,0.9,2.1,2C113.7,27.8,112.8,28.8,111.6,28.8z"/>
</g>
</svg>
