<?xml version="1.0" encoding="utf-8"?>
<!-- Generator: Adobe Illustrator 24.2.1, SVG Export Plug-In . SVG Version: 6.00 Build 0)  -->
<svg version="1.1" id="Capa_1" xmlns="http://www.w3.org/2000/svg" xmlns:xlink="http://www.w3.org/1999/xlink" x="0px" y="0px"
	 viewBox="0 0 153 153" style="enable-background:new 0 0 153 153;" xml:space="preserve">
<g>
	<path d="M146.9,135.8c-1.4-7.8-2.3-15.7-4.2-23.3C139,97.7,129,88.9,114.5,84.9c-0.4-0.1-0.7-0.2-1.1-0.3c-0.5-3.6-1.4-4.7-4.7-5.3
		c0-0.2,0-0.5-0.1-0.7c-0.3-1.6,0.4-2.5,1.8-3.3c7.8-4.6,12.3-11.6,13.4-20.6c0.1-0.7,0.2-1,1-1.1c4.2-0.3,6.7-2.2,7.3-5.6
		c0.7-3.6-1.2-6.8-4.5-8.1c0,0-0.1-0.1-0.2-0.2c0.9-3.1,1.2-6.3,0.2-9.4c-0.7-2.2-2-4.2-3-6.3c-0.4-0.8-0.7-1.6-0.8-2.5
		c-0.2-2.4,0.1-4.9-0.3-7.3c-1-6.2-5.4-10.6-11.5-11.8c-0.2,0-0.4-0.2-0.6-0.3c-9.9,0-19.7,0-29.6,0c-0.3,0.1-0.6,0.2-0.9,0.3
		c-5.9,1.5-9.7,5.1-11,11c-0.6,2.7-0.3,5.6-0.5,8.4c-0.1,0.8-0.4,1.7-0.9,2.2c-4.2,4.7-6.4,9.9-4,16.3c-1.9,1.3-3.2,2.9-3.4,5.2
		c-0.5,4.5,2.5,7.8,7.2,8c0.9,0,1.3,0.1,1.5,1.2c1.1,8.9,5.5,15.8,13.2,20.4c1.6,1,2.2,2,1.9,3.7c0,0.1-0.1,0.3-0.1,0.4
		c-3.1,0.7-4,1.6-4.5,4.7c-0.1,0.3-0.6,0.8-1,0.9c-3.9,1-7.7,2.2-11,4.5c-3.3,2.4-6.6,3.5-10.6,3c-1.4-0.2-2,0.5-2,2
		c0,1.2,0,2.5,0,3.7c-0.2,0.1-0.3,0.2-0.5,0.2c-0.3-0.4-0.7-0.7-0.8-1.1c-0.8-1.9-1.5-3.9-2.3-5.9c-1.3-3.1-3.6-4.8-7-4.8
		c-4.5,0-8.9,0-13.4,0c-3.4,0-5.8,1.6-7.1,4.8c-0.7,1.9-1.5,3.7-2.1,5.6c-0.4,1.2-1,1.5-2.2,1c0-1.2,0-2.5,0-3.7c0-1.3-0.6-2-1.9-2
		c-3.8,0-7.6,0-11.4,0c-1.2,0-1.8,0.7-1.9,1.9c0,1.1,0,2.3,0,3.4c0,0.4-0.3,0.9-0.6,1.1c-2,1.2-2.9,2.9-2.9,5.2
		c0,13.2,0,26.4,0,39.6c0,3.5,2.1,5.6,5.6,5.6c46.4,0,92.8,0,139.2,0c0.8,0,1.5-0.5,2.3-0.8c0-0.6,0-1.1,0-1.7
		C148.3,143,147.6,139.4,146.9,135.8z M110.4,84.3c0.2,3-0.7,5.4-3,7.4c-2.5,2.2-5.2,3.6-8.7,3.9c0-3.7,0-7.3,0-10.6
		c3.3-0.8,6.4-1.6,9.5-2.4C109.7,82.2,110.3,82.8,110.4,84.3z M90.7,80.8c-2.4-0.6-2.3,0.1-2.1-3.2c5.7,1.8,11.4,1.8,17,0.1
		c0.7,2.2,0.5,2.6-1.6,3.1C99.5,81.8,95.1,81.9,90.7,80.8z M129,44.3c1,1.4,1.1,2.8,0.3,4.3c-1,1.8-2.8,2.2-4.9,2c0-2.7,0-5.2,0-7.9
		C126.2,42.4,127.9,42.7,129,44.3z M122.7,26c2.5,3.4,3.4,7.2,2.5,11.4c-0.2,1-0.5,1.9-1.7,2.1c-1.1,0.2-1.8-0.5-2.3-1.4
		c-3-5.4-7-9.8-12.5-12.7c0-0.1,0.1-0.3,0.1-0.4c0.7,0,1.5,0,2.2,0c3.3,0,6.5-0.1,9.8,0C121.5,25.1,122.3,25.5,122.7,26z M83.4,5.2
		c6.5-0.1,12.9-0.1,19.4-0.1c2.7,0,5.4-0.1,8,0.1c4.8,0.2,9.3,4.2,10.1,9c0,0.2,0,0.4,0,0.7c-15.9,0-31.8,0-47.7,0
		C73.4,9.9,78.2,5.4,83.4,5.2z M73,18.1c16,0,32.1,0,48.1,0c0,1.2,0,2.4,0,3.7c-16,0-32,0-48.1,0C73,20.5,73,19.4,73,18.1z
		 M69.9,50.5c-2,0.3-3.6-0.1-4.7-1.8c-0.9-1.4-0.9-2.8-0.1-4.2c1.1-1.8,2.8-2.1,4.8-1.9C69.9,45.3,69.9,47.9,69.9,50.5z M68.5,39.4
		c-0.5-0.1-1-0.8-1.2-1.4c-0.7-2.4-0.6-4.9,0.6-7.1c1-1.7,2.2-3.4,3.4-4.9c0.4-0.5,1.3-0.9,2-0.9c5.3-0.1,10.5,0,16.1,0
		c-2.2,3.2-4.6,5.8-7.3,8.1c-3.1,2.6-6.6,4.7-10.5,6.1C70.8,39.6,69.6,39.5,68.5,39.4z M73.3,54.4c-0.3-3.8-0.2-7.7-0.2-11.6
		c0-0.4,0.4-0.9,0.8-1.1c7.9-3.5,14.3-8.8,19-16.1c0.2-0.3,0.8-0.6,1.3-0.6c2.3-0.1,4.7,0,7,0c0.5,0,1,0.1,1.4,0.4
		c2.3,1.3,4.5,2.5,6.7,3.8c3.5,2.1,6,5,8.1,8.4c1,1.6,2.4,3,3.6,4.6c0.2,0.3,0.3,0.8,0.3,1.2c0,1.8,0,3.6,0,6.2
		c0.1,3.1,0,6.9-1.4,10.6c-3.9,10.8-14.5,17.3-26.1,15.8C83.1,74.6,74.3,65.5,73.3,54.4z M83.8,84.1c0.1-1.3,0.7-1.9,1.9-1.6
		c3.2,0.8,6.5,1.5,9.8,2.3c0,3.4,0,6.9,0,10.6c-3.3-0.2-6-1.5-8.4-3.6C84.7,89.9,83.5,87.4,83.8,84.1z M59.2,95.6c2.9,0,5.8,0,8.8,0
		c0,0.8,0,1.6,0,2.5c-2.9,0-5.8,0-8.8,0C59.2,97.2,59.2,96.4,59.2,95.6z M28.2,91.9c0.7-1.5,2-2.3,3.7-2.3c4.6,0,9.2-0.1,13.8,0
		c1.9,0,3.2,1,3.9,2.8c0.7,1.9,1.4,3.7,2.2,5.8c-1,0-1.8,0.1-2.6,0c-0.4-0.1-0.8-0.5-1-0.8c-0.6-1.4-1.2-2.9-1.7-4.4
		c-0.4-1-1-1.4-2.1-1.4c-3.8,0-7.6,0-11.3,0c-1,0-1.7,0.4-2.1,1.4c-0.5,1.3-1.1,2.5-1.4,3.8c-0.4,1.2-1,1.7-2.3,1.5
		c-0.5-0.1-0.9,0-1.7,0C26.6,95.9,27.3,93.9,28.2,91.9z M45.2,98.1c-4.4,0-8.6,0-12.9,0c0.5-1.2,0.9-2.3,1.3-3.5c3.2,0,6.3,0,9.5,0
		c0.3,0,0.7,0.3,0.9,0.5C44.4,96,44.8,97,45.2,98.1z M19.1,111.4c1.6,1.3,2.3,2.8,2,4.8c-0.1,1.2,0,2.5-0.1,3.7c0,0.4-0.6,0.9-1,1
		c-3,0.4-3,0.3-3-2.7c0-0.7,0.1-1.3,0-2C16.8,114.2,17.5,112.6,19.1,111.4z M8.7,95.5c3,0,5.8,0,8.8,0c0,0.9,0,1.6,0,2.6
		c-2.9,0-5.8,0-8.8,0C8.7,97.2,8.7,96.4,8.7,95.5z M68.6,146.1c-20.2,0-40.3,0-60.5,0c-2.6,0-3.1-0.5-3.1-3.1c0-12.9,0-25.9,0-38.8
		c0-2.5,0.5-3,3-3c3.1,0,6.2,0,9.5,0c0,2.3,0.1,4.3,0,6.4c0,0.6-0.5,1.4-1,1.8c-2,2-2.9,4.3-2.5,7.1c0.1,1.3,0,2.6,0,3.9
		c0.1,2,1.4,3.4,3.4,3.5c1.1,0.1,2.2,0.1,3.3,0c1.9-0.1,3.3-1.4,3.3-3.3c0.1-2.3,0.2-4.7-0.1-7c-0.1-1.1-0.9-2.3-1.7-3.2
		c-1.4-1.5-2-3-1.8-5c0.1-1.3,0-2.7,0-4.1c0.6,0,1.1-0.1,1.5-0.1c15.5,0,31,0,46.6,0c2.5,0,3,0.6,3,3.1c0,12.9,0,25.8,0,38.6
		C71.7,145.6,71.2,146.1,68.6,146.1z M81.6,144.4c0,0.5,0,1,0,1.7c-2.4,0-4.6,0-6.8,0c0-14.1,0-28.2,0-42.3c0-2.2-0.9-3.9-2.8-5
		c-0.4-0.2-0.7-0.8-0.7-1.3c-0.1-0.9,0.1-1.8-0.1-2.7c-0.1-0.9-0.5-1.8-0.8-2.6c-0.1-0.1-0.3-0.2-0.4-0.3c3.6-1.4,7.1-2.9,10.7-4.3
		c2.1,6.5,6.9,9.4,13.1,11.2c-1.4,1.3-2.6,2.4-3.8,3.6c-1.9,1.8-3.7,3.8-5.6,5.6c-2,1.9-2.9,4.2-2.9,6.9
		C81.6,124.5,81.6,134.4,81.6,144.4z M84.7,146.1c0-0.5-0.1-1-0.1-1.5c0-9.9,0-19.8,0-29.7c0-2.1,0.6-3.7,2.1-5.1
		c3.4-3.3,6.8-6.8,10.2-10.1c0.5-0.5,1.3-0.8,1.9-0.9c4.3-0.5,8.1-2.1,11-5.3c1.5-1.6,2.5-3.5,3.9-5.6c4.9,1.1,9.7,3.4,14.2,6.9
		c-3.4,4.1-5.5,8.6-5.7,13.8c-0.2,3.4,0,6.9,0.3,10.3c0.8,9.1,1.7,18.1,2.6,27.3C111.6,146.1,98.3,146.1,84.7,146.1z M128.4,146.1
		c-0.3-2.6-0.6-5.2-0.8-7.8c-0.7-7.4-1.5-14.8-2.2-22.1c-0.4-4.5-0.5-9,1.3-13.3c0.9-2.1,2.2-4.1,3.5-6.5c1.5,1.8,2.8,3.1,4,4.5
		c4,5.1,5.8,11.1,6.8,17.4c1.4,9,3,17.9,4.6,26.9c0,0.2,0,0.5,0.1,0.9C139.9,146.1,134.3,146.1,128.4,146.1z"/>
	<path d="M96.4,67.1c-2.1,0-4.5-0.9-6.6-2.5c-0.9-0.7-1.3-1.5-0.6-2.4c0.7-0.9,1.6-0.7,2.4-0.1c3.8,2.7,7.2,2.7,11,0
		c0.9-0.6,1.8-0.9,2.5,0.1c0.7,1,0.2,1.7-0.6,2.3C102.4,66.2,99.9,67.1,96.4,67.1z"/>
	<path d="M107.2,40.9c-0.8,0-1.6,0-2.4,0c-0.9,0-1.6-0.5-1.6-1.5c0-1,0.6-1.5,1.5-1.6c1.7-0.1,3.4,0,5.2,0c1,0,1.6,0.6,1.5,1.5
		c0,0.9-0.6,1.5-1.6,1.5C108.9,40.9,108.1,40.9,107.2,40.9z"/>
	<path d="M87,40.9c-0.9,0-1.9,0.2-2.7-0.1c-0.6-0.2-1.4-0.9-1.4-1.4c0-0.5,0.8-1.4,1.3-1.5c1.8-0.2,3.6-0.2,5.4,0
		c0.5,0.1,1.3,1,1.3,1.5c0,0.5-0.8,1.3-1.4,1.4C88.8,41.1,87.9,40.9,87,40.9z"/>
	<path d="M108.9,46c0,1.2-0.3,2.1-1.5,2.1c-1.3,0-1.6-1-1.6-2.1c0-1.1,0.3-2.1,1.6-2C108.7,44.1,108.9,45.1,108.9,46z"/>
	<path d="M88.5,46c0.1,1.1-0.2,2.1-1.5,2.1c-1.4,0-1.5-1-1.5-2.1c0-1,0.2-2,1.5-2C88.3,44,88.5,44.9,88.5,46z"/>
	<path d="M69.9,134.9c0-1.5-0.5-2-2-2c-1.9,0-3.8,0-5.7,0c-2,0-3.9,0-5.9,0c-1.3,0-2,0.6-2,1.9c0,1.9,0,3.8,0,5.7
		c0,1.2,0.6,1.9,1.8,1.9c4,0,8,0,12,0c1.2,0,1.7-0.6,1.7-1.8C69.9,138.8,69.9,136.8,69.9,134.9z M66.7,139.3c-3,0-6,0-9.2,0
		c0-1,0-2.1,0-3.2c3.1,0,6.1,0,9.2,0C66.7,137.1,66.7,138.2,66.7,139.3z"/>
	<path d="M117.8,111.3c-3.8,0-7.6,0-11.3,0c-1.3,0-1.9,0.7-1.9,2c0,1.8,0,3.5,0,5.3c0,1.3,0.6,1.9,1.9,1.9c1.9,0,3.7,0,5.6,0
		c1.9,0,3.7,0,5.6,0c1.3,0,2-0.5,2-1.9c0-1.8,0-3.6,0-5.4C119.6,112,119,111.3,117.8,111.3z M116.6,117.4c-2.9,0-5.8,0-8.7,0
		c0-1,0-1.8,0-2.8c2.9,0,5.8,0,8.7,0C116.6,115.4,116.6,116.4,116.6,117.4z"/>
	<path d="M93.2,121.9c-2.6,0-4.8,2.1-4.8,4.7c0,2.7,2.1,4.8,4.8,4.8c2.6,0,4.7-2.1,4.7-4.8C98,124,95.8,121.9,93.2,121.9z
		 M94.9,126.7c-0.1,0.7-0.8,1.2-1.1,1.7c-1.5-0.2-2.2-0.7-2.1-1.8c0-1,0.6-1.6,1.7-1.6C94.4,125,95.1,125.7,94.9,126.7z"/>
	<path d="M93.3,109.8c-2.7,0-4.8,2-4.8,4.7c0,2.7,2.1,4.9,4.8,4.8c2.6,0,4.7-2.1,4.7-4.8C98,111.9,95.9,109.8,93.3,109.8z
		 M94.9,114.7c-0.1,0.7-0.8,1.2-1.2,1.6c-1.5-0.2-2.2-0.7-2.1-1.8c0-1,0.7-1.6,1.7-1.6C94.4,112.9,95.1,113.6,94.9,114.7z"/>
	<path d="M93.2,134c-2.6,0-4.7,2.2-4.7,4.8c0,2.7,2.2,4.8,4.9,4.7c2.6,0,4.7-2.1,4.6-4.8C98,136.1,95.8,134,93.2,134z M93.4,140.4
		c-1,0.2-1.7-0.5-1.7-1.6c0-1,0.6-1.6,1.6-1.7c1.1,0,1.6,0.6,1.8,2.1C94.6,139.6,94.1,140.3,93.4,140.4z"/>
</g>
</svg>
