<?xml version="1.0" encoding="utf-8"?>
<!-- Generator: Adobe Illustrator 24.2.1, SVG Export Plug-In . SVG Version: 6.00 Build 0)  -->
<svg version="1.1" id="Capa_1" xmlns="http://www.w3.org/2000/svg" xmlns:xlink="http://www.w3.org/1999/xlink" x="0px" y="0px"
	 viewBox="0 0 300 300" style="enable-background:new 0 0 300 300;" xml:space="preserve">
<g>
	<path d="M46.6,46.5v10.6v51.5v20.3c0,5.7,4.4,10.5,10.1,10.6c5.8,0.1,10.5-4.6,10.5-10.3h206v134.2c0,5.5-4.5,10-10,10h-196l0,0
		c0-5.7-4.6-10.3-10.3-10.3l0,0c-5.7,0-10.3,4.6-10.3,10.3l0,0l0,0c0,11.4,9.2,20.6,20.6,20.6l0,0h195.7h0.9c16.6,0,30-13.5,30-30
		V129.2v-20.6V57.1V46.5c0-5.5-4.5-10-10-10h-10.6h-20.6V15.9c0-5.8-4.7-10.4-10.5-10.3c-5.7,0.1-10.1,5-10.1,10.6v20.3H108.4V15.9
		c0-5.8-4.7-10.4-10.5-10.3c-5.7,0.1-10.1,5-10.1,10.6v20.3H67.2H56.6C51.1,36.5,46.6,41,46.6,46.5z M67.2,57.1h20.6v20.6
		c0,5.7,4.6,10.3,10.3,10.3s10.3-4.6,10.3-10.3V57.1H232v20.6c0,5.7,4.6,10.3,10.3,10.3s10.3-4.6,10.3-10.3V57.1h20.6v51.5h-206
		V57.1z"/>
	<path d="M166.7,208.1l-42.2,32c-4.5,3.4-10.9,2.5-14.2-2c-1.7-2.2-2.3-5-1.9-7.5c0.6-4.1,3.4-6.3,3.9-6.7
		c5.6-4.2,11.2-8.4,16.8-12.6H15.6c-5.7,0-10.3-4.6-10.3-10.3s4.6-10.3,10.3-10.3h112.9c-5.4-4.1-10.9-8.2-16.3-12.3
		c-0.5-0.4-3.4-2.6-3.9-6.7c-0.4-2.6,0.3-5.3,1.9-7.5c3.4-4.5,9.8-5.4,14.2-2l42.2,31.7C171.4,197.4,171.4,204.5,166.7,208.1z"/>
</g>
</svg>
