<?xml version="1.0" encoding="utf-8"?>
<!-- Generator: Adobe Illustrator 24.2.1, SVG Export Plug-In . SVG Version: 6.00 Build 0)  -->
<svg version="1.1" id="Capa_1" xmlns="http://www.w3.org/2000/svg" xmlns:xlink="http://www.w3.org/1999/xlink" x="0px" y="0px"
	 viewBox="0 0 122 122" style="enable-background:new 0 0 122 122;" xml:space="preserve">
<path d="M93.7,17.5c-2.8-1.3-4.9-3.1-6-6c-0.1-0.2-0.2-0.4-0.3-0.5c-0.5-0.3-0.9-0.6-1.7-1.1c-0.7,0.7-1.5,1.1-1.8,1.9
	c-1.1,2.7-2.9,4.5-5.6,5.6c0,0-0.1,0-0.1,0.1c-0.9,0.4-1.6,1-1.4,2c0.2,0.7,0.8,1.7,1.4,1.9c2.7,1.2,4.7,3,5.7,5.8
	c0,0.1,0.1,0.1,0.1,0.2c1,1.6,2.9,1.7,3.7-0.1c1.2-2.8,3.2-4.8,6-6C95.5,20.4,95.5,18.3,93.7,17.5z M85.8,21.9
	c-0.8-0.8-1.7-1.7-2.5-2.6c0.8-0.8,1.7-1.7,2.5-2.6c0.8,0.8,1.7,1.7,2.6,2.6C87.6,20.1,86.7,21,85.8,21.9z"/>
<path d="M57.8,19.8c-2.8-1.3-4.9-3.1-6-6c-0.1-0.2-0.2-0.5-0.4-0.6c-0.4-0.3-0.9-0.5-1.6-1c-0.6,0.6-1.5,1.1-1.7,1.7
	c-1.2,2.7-3,4.7-5.8,5.7c-0.9,0.3-1.6,1-1.4,2c0.2,0.7,0.8,1.7,1.4,1.9c2.8,1.2,4.5,3.1,5.8,5.8c0.9,2,3,2,3.8,0.1
	c1.2-2.8,3-4.8,5.9-5.8c0,0,0.1,0,0.1-0.1C59.6,22.5,59.7,20.6,57.8,19.8z M49.9,24.2c-0.8-0.8-1.7-1.7-2.5-2.6
	c0.8-0.8,1.7-1.7,2.6-2.6c0.8,0.8,1.7,1.7,2.6,2.6C51.7,22.4,50.8,23.4,49.9,24.2z"/>
<path d="M79.1,41.3c-2.8-1.2-4.8-3-5.8-5.9c0,0,0-0.1-0.1-0.1c-1-1.7-2.9-1.8-3.8,0c-1.2,2.8-3.2,4.8-6,6c-1.8,0.8-1.8,2.9-0.1,3.7
	c2.9,1.3,5,3.2,6.1,6.1c0,0,0,0.1,0.1,0.1c1,1.5,2.9,1.6,3.6,0c1.3-3,3.3-5,6.3-6.3c0.6-0.2,0.9-1.1,1.5-1.8
	C80.2,42.3,79.8,41.5,79.1,41.3z M71.4,45.7c-0.9-0.9-1.8-1.8-2.6-2.6c0.8-0.8,1.7-1.8,2.5-2.6c0.8,0.8,1.8,1.8,2.6,2.6
	C73.1,44,72.1,44.9,71.4,45.7z"/>
<path d="M120.6,87c0-3.2-2.2-5.8-5.3-6.6c-0.4-0.1-0.8-0.2-1.1-0.3c0.2-1,0.4-1.8,0.5-2.7c0.1-3.4,0.1-6.9,0-10.3
	c-0.1-3.7-3.1-6.7-6.8-6.8c-1,0-2.1,0-3.1,0c-1.3-3.3-2.3-4-5.8-4c-20.3,0-40.6,0-60.9,0c-0.4,0-0.7,0-1.1,0
	c-1.3,0.1-2.1,0.8-2.1,2.1c0,0.6,0,1.2,0,1.8c-1.8,0-3.5,0-5,0c0.1-1.5,0.3-3,0.2-4.4c-0.8-7.1-1.8-14.2-2.7-21.4
	c-0.5-3.5-3.3-6-6.8-6c-1.8,0-3.7,0.2-5.6,0.3c-0.1-0.2-0.1-0.7-0.3-1.1c-0.8-2.9-3.4-5-6.3-5.1c-1.7-0.1-3.5,0-5.2,0
	c-1.4,0-2.1,0.8-2.1,2.2c0,2.2,0,4.3,0,6.5c0,1.1,0,2.1,0,3.2c1.4,0,2.7,0,4,0c0-2.7,0-5.2,0-7.9c0.7,0,1.2,0,1.8,0
	c3.2,0,4.1,0.9,4.1,4.2c0,21.3,0,42.7,0,64c0,0.5,0,1,0,1.5c-2,0-4,0-6,0c0-19.3,0-38.5,0-57.7c-1.4,0-2.6,0-3.9,0c0,0.5,0,1,0,1.4
	c0,13.1,0,26.2,0,39.2c0,10.1,0,20.2,0,30.3c0,2.2,0.6,2.8,2.8,2.8c1.4,0,2.7,0,4.1,0c5-0.1,9.3-3.1,11-7.8c0.4-0.9,0.8-1.9,0.9-2.8
	c0.2-1.2,0.9-1.4,2-1.4c21.8,0,43.6,0,65.4,0c0.5,0,1,0,1.5,0c0-1.4,0-2.7,0-4c-24.6,0-49.1,0-73.7,0c0-4,0-7.9,0-11.9
	c0.5,0,0.9,0,1.3,0c32.2,0,64.4,0,96.6,0c0.4,0,0.8,0,1.1,0c1.4,0.1,2.7,1.2,2.7,2.6c0.1,3.1,0,6.1,0,9.3c-8,0-15.9,0-23.8,0
	c0,1.4,0,2.7,0,4c2.6,0,5.1,0,7.6,0c0.6,0,1,0.2,1.2,0.8c0.3,1.1,0.7,2.2,1.1,3.3c1.7,4.2,4.7,6.9,9.2,7.6c2.1,0.3,4.3,0.2,6.5,0.2
	c1.6,0,2.3-0.7,2.3-2.3C120.7,102.2,120.7,94.6,120.6,87z M50.8,60.3c0.4,0,0.9,0,1.3,0c15.6,0,31.3,0,46.9,0c1.6,0,1.6,0,1.6,1.7
	c0,3.4,0,6.8,0,10.2c-16.7,0-33.2,0-49.8,0C50.8,68.3,50.8,64.4,50.8,60.3z M38.9,60.4c2.6,0,5.2,0,7.8,0c0,3.9,0,7.8,0,11.8
	c-2.6,0-5.2,0-7.8,0C38.9,68.3,38.9,64.4,38.9,60.4z M15.4,100.1c-0.8,4.9-3.8,8.7-10.9,7.9c0-2.6,0-5.2,0-7.9
	C8.2,100.1,11.8,100.1,15.4,100.1z M14.8,60.3c0-0.5,0-0.9,0-1.2c0-7.7,0-15.3,0-23c0-2.6,1.1-3.7,3.7-3.7c0.5,0,0.9,0,1.4,0
	c2.1,0,3.2,0.8,3.5,2.9c0.9,7,1.8,14.1,2.7,21.1c0.3,2.6-0.9,3.9-3.5,3.9C20,60.3,17.5,60.3,14.8,60.3z M110.6,77.3
	c0,1.7-1.2,2.8-2.9,3c-0.3,0-0.7,0-1,0c-30.2,0-60.3,0-90.5,0c-0.4,0-0.8,0-1.3,0c0-5.3,0-10.5,0-15.9c6.6,0,13.2,0,19.9,0
	c0,3,0,6,0,9c0,2.4,0.6,2.9,2.9,2.9c21.3,0,42.7,0,64,0c2.4,0,2.9-0.6,2.9-2.9c0-2.9,0-5.9,0-9c1.2,0,2.3-0.1,3.3,0
	c1.5,0.1,2.6,1.3,2.6,2.9C110.7,70.6,110.7,73.9,110.6,77.3z M116.3,107.9c-6.4,0.5-9.7-1.8-11-7.9c1.8,0,3.6,0,5.4,0
	c1.8,0,3.6,0,5.6,0C116.3,102.7,116.3,105.3,116.3,107.9z"/>
</svg>
