<?xml version="1.0" encoding="utf-8"?>
<!-- Generator: Adobe Illustrator 24.2.1, SVG Export Plug-In . SVG Version: 6.00 Build 0)  -->
<svg version="1.1" id="Capa_1" xmlns="http://www.w3.org/2000/svg" xmlns:xlink="http://www.w3.org/1999/xlink" x="0px" y="0px"
	 viewBox="0 0 122 122" style="enable-background:new 0 0 122 122;" xml:space="preserve">
<style type="text/css">
	.st0{fill:none;}
</style>
<rect class="st0" width="122" height="122"/>
<path d="M107.8,1.1H14.1c-7.2,0-13,5.8-13,13v93.7c0,7.2,5.8,13,13,13h93.7c7.2,0,13-5.8,13-13V14C120.8,6.9,115,1.1,107.8,1.1z
	 M34,101.8c-0.4,0-0.7,0-1.1,0c-5,0-10,0-15,0c-1.8,0-3.1-0.6-3.7-2.4c0-14.2,0-28.3,0-42.5c0.7-1.7,1.9-2.3,3.7-2.3
	c5,0.1,10,0,15,0c0.3,0,0.7,0,1.1,0C34,70.4,34,86,34,101.8z M104.8,78.7c3.2,5,1.7,11.5-3.8,14.5c0.1,0.2,0.2,0.5,0.4,0.7
	c2.1,4.1,1,9-2.5,12c-1.4,1.2-3.1,1.8-4.9,2.3c-9.4,0-18.8,0-28.1,0c-0.3-0.1-0.5-0.1-0.8-0.2c-8.4-0.4-16.5-2-24.5-4.7
	c-0.7-0.2-0.8-0.6-0.8-1.2c0-16.4,0-32.8,0-49.3c0-0.6,0.2-1,0.7-1.4c3.7-2.8,7.2-5.9,10.4-9.3c2.6-2.9,4.8-6.1,6.1-9.8
	c1.5-4.3,3.2-8.5,4.8-12.7c0.5-1.2,1-2.4,1.7-3.4c1.9-2.6,4.4-3.9,7.7-3.4c3.4,0.5,5.8,2.2,6.7,5.6c0.5,1.8,0.8,3.7,0.9,5.6
	c0.3,5.9-0.7,11.7-1.8,17.5c-0.3,1.6-0.6,3.1-1,4.8c0.5,0,0.8,0,1.1,0c3.4,0,6.8,0,10.2,0c3.4,0,6.8-0.1,10.2,0.1
	c6.7,0.4,10.9,7.3,8.4,13.4c-0.3,0.7-0.6,1.3-0.9,1.9c3,2,4.7,4.8,4.7,8.4C109.6,73.9,107.9,76.7,104.8,78.7z"/>
</svg>
