<?xml version="1.0" encoding="utf-8"?>
<!-- Generator: Adobe Illustrator 24.2.1, SVG Export Plug-In . SVG Version: 6.00 Build 0)  -->
<svg version="1.1" id="Capa_1" xmlns="http://www.w3.org/2000/svg" xmlns:xlink="http://www.w3.org/1999/xlink" x="0px" y="0px"
	 viewBox="0 0 153 153" style="enable-background:new 0 0 153 153;" xml:space="preserve">
<path d="M147.5,68.1c-2.1-0.4-4.2-0.7-6.3-0.9c-1.7-0.2-3.5-0.3-5.3-0.4c0.2-0.7,0.5-1.2,0.7-1.7c2.9-6.6,4.5-13.5,4.7-20.7
	c0.1-1.9-0.9-2.9-2.7-2.5c-3.4,0.7-6.9,1.4-10.2,2.4c-3,0.9-5.7,2.2-8.7,3.4c0-0.3,0-0.5,0-0.8c0.4-6.5-0.5-12.8-2.4-19
	c-0.6-2-1.5-2.5-3.4-1.9c-3.5,1.2-7,2.3-10.4,3.8c-2.6,1.2-5.1,2.8-7.6,4.2c-0.1-0.2-0.2-0.3-0.3-0.5c-3.9-8.5-10-15.1-17.4-20.7
	c-1-0.8-2.1-1.1-3.2-0.2c-7.2,5.3-13.2,11.7-17.2,19.8c-0.2,0.6-0.5,1.1-0.8,1.7c-0.3-0.2-0.6-0.4-0.9-0.6c-5.3-3.6-11-6-17.1-7.6
	c-1.8-0.5-2.8,0-3.2,1.8c-0.7,3.2-1.6,6.4-2,9.6c-0.4,3.4-0.4,6.9-0.6,10.4c-0.1,0-0.4-0.1-0.6-0.2C27,44.7,21.2,42.9,15,42
	c-2.3-0.3-3.3,0.4-3.2,2.7c0.1,5.3,1,10.4,2.7,15.4c0.8,2.3,1.7,4.5,2.6,6.8c-1.9,0.1-3.8,0.2-5.6,0.4c-1.9,0.2-3.7,0.5-5.6,0.8
	c-2.2,0.4-2.8,1.5-2,3.6c6.1,15.2,16.9,25.8,32,32c2.9,1.2,6.1,2.1,9.2,3.1c-0.4,0.3-0.8,0.7-1.2,1.1c-4.9,4.4-8.4,9.9-10.4,16.2
	c-0.7,2,0,3.1,2,3.5c8.8,1.7,17.2,0.5,25.1-3.8c1.2-0.6,2.4-1.4,3.6-2.1c3.6,8,5.6,11,10.4,15.2c1.3,1.2,2.3,1.2,3.6,0
	c4.6-4,8-8.8,10.1-14.6c0.1-0.2,0.2-0.4,0.3-0.7c0.3,0.3,0.6,0.4,0.9,0.6c8.5,5.5,17.7,7.3,27.6,5.5c2.3-0.4,2.9-1.4,2.2-3.6
	c-1.4-4.2-3.4-8.2-6.2-11.6c-1.6-2-3.5-3.8-5.3-5.8c0.4-0.1,0.9-0.2,1.3-0.3c14.3-3.6,25.8-11.3,34-23.5c2.5-3.7,4.2-7.9,6.3-11.8
	c0-0.4,0-0.9,0.1-1.6C148.9,69,148.2,68.3,147.5,68.1z M118.8,53.9c0.1-0.2,0.3-0.5,0.5-0.6c5.4-3.2,11.1-5.4,17.7-6.6
	c-0.5,2.8-0.7,5.5-1.4,8c-1.2,3.8-2.7,7.6-4.1,11.3c-0.4,1.2-1.2,1.7-2.6,1.5c0-1.6,0-3.1,0-4.6c0-1.8-0.8-2.6-2.6-2.6
	c-3,0-6,0-9.1,0C117.7,58.4,118.2,56.1,118.8,53.9z M61.7,34.7c3.4-7,8.5-12.6,14.8-17.4c0.8,0.6,1.6,1.2,2.3,1.8
	c5.6,4.7,10.1,10.2,13.1,17c0.4,0.9,0.4,1.6-0.5,2.1c-0.4,0.2-0.7,0.5-0.9,0.9c-0.7,1-0.8,1.9,0.1,2.8c0.8,0.8,1.8,0.9,2.7,0.3
	c0.4-0.2,0.7-0.5,1-0.8c5.3-4.8,13.2-9.1,19.3-10.4c0.4,1.9,0.9,3.8,1.2,5.8c1.3,8.2,0.6,16.3-2.4,24.1c-0.2,0.5-0.7,1.1-1.2,1.2
	c-5.4,1.2-10.4,3.4-15.3,6.6c-2.7-5.9-6.3-11-10.9-15.6c0.8-1.3,1.6-2.6,2.4-3.9c0.9-1.4,0.8-2.7-0.3-3.4c-1.1-0.8-2.4-0.4-3.3,1.1
	c-0.7,1-1.3,2.1-2.1,3.2c-1.1-0.9-2.2-1.7-3.3-2.6c-1.6-1.2-2.2-1.2-3.8,0c-1.1,0.9-2.2,1.7-3.4,2.7c-2.4-4.1-5.3-7.9-8.7-11.1
	C60.5,37.2,60.5,37.2,61.7,34.7z M39.1,31.8c0.1-0.4,0.3-0.6,0.4-1c12.4,3.7,22,10.8,28.4,22.4c-4.5,4.5-8.3,9.6-10.8,15.2
	c-3.9-1.8-7.8-3.5-11.6-5.2c-0.8-0.3-1.6-0.7-2.4-0.8c-1.9-0.2-2.6-1.4-3.2-3C36.8,50.3,36.7,41.1,39.1,31.8z M16.2,47.5
	c0-0.2,0-0.4,0-0.8c1.5,0.3,2.9,0.6,4.3,1c4.4,1.2,8.6,2.9,12.5,5.3c0.6,0.3,1,1.1,1.2,1.7c0.7,1.9,1.1,3.9,1.6,5.6c-3,0-6,0-9,0
	c-1.9,0-2.7,0.7-2.7,2.7c0,1.5,0,3,0,4.5c-1.4,0.3-2-0.2-2.6-1.4C18.6,60.2,16.8,54,16.2,47.5z M8.7,72.1c4.8-1,11.8-1,15.9,0
	c0.8,5.1,2.2,10.1,4.4,14.9c2.2,4.7,5.1,8.9,8.6,12.8C24.3,94.4,14.6,85.3,8.7,72.1z M61.3,118.6c-6.6,4.3-13.8,6.1-21.6,5.4
	c-0.5,0.1-0.9-0.1-1.5-0.2c2.3-5.9,5.9-10.7,10.8-14.4c0.3-0.3,1.1-0.3,1.5-0.1c3.8,1.3,7.6,2.8,11.5,4.1c0.7,0.3,1,0.6,1.1,1.3
	C63.5,116.5,62.8,117.6,61.3,118.6z M42.8,98.9C32.9,89.5,28.6,78,28.3,64.6c4-0.1,7.8,0.4,11.5,1.3C50.4,68.4,59,74,65.6,82.8
	c1,1.4,2.3,1.7,3.4,0.9c1-0.8,1.2-2.1,0.1-3.4c-2.4-2.8-5-5.5-7.5-8.1c-0.6-0.6-0.8-1-0.5-1.9c3.4-7.6,8.8-13.6,15.4-18.8
	c5,3.8,9.3,8.2,12.6,13.5c1.1,1.8,2,3.7,2.9,5.5c0.2,0.3,0.1,1.1-0.1,1.3C84.6,78,79.6,85.7,76.6,95.2c-0.6-1.5-1-2.7-1.5-3.9
	c-0.2-0.6-0.5-1.2-0.8-1.8c-0.6-1.2-1.6-1.6-2.7-1.1c-1.1,0.5-1.6,1.5-1.2,2.8c0.9,2.9,2.1,5.8,2.8,8.8c0.7,3.4,1,7,1.5,10.8
	C62.3,110.7,51.6,107.1,42.8,98.9z M76.5,132.9c-5.3-5.1-8.6-11-9.2-18.2c6.1,0,12.1,0,18.4,0C85.1,121.9,81.8,127.8,76.5,132.9z
	 M114.8,123.9c-4.3,0.6-8.4,0.4-12.4-0.6c-4.3-1-8.3-3-11.9-5.6c-1.4-1-0.5-2.3-0.5-3.4c0-0.3,0.8-0.8,1.3-1c3.6-1.4,7.3-2.7,10.9-4
	c0.5-0.2,1.2-0.3,1.5-0.1C108.8,113,112.5,117.8,114.8,123.9z M78.7,110.4c-0.7-24.8,19-46.2,45.9-45.7
	c-0.2,12.5-4.1,23.5-12.9,32.6C101.6,107.7,87.3,111,78.7,110.4z M115.3,99.9c7.3-7.9,11.6-17.2,13.1-27.9
	c5.4-0.9,10.6-0.8,15.9,0.1C138.3,85.3,128.6,94.4,115.3,99.9z"/>
</svg>
