<?xml version="1.0" encoding="utf-8"?>
<!-- Generator: Adobe Illustrator 24.2.1, SVG Export Plug-In . SVG Version: 6.00 Build 0)  -->
<svg version="1.1" id="Capa_1" xmlns="http://www.w3.org/2000/svg" xmlns:xlink="http://www.w3.org/1999/xlink" x="0px" y="0px"
	 viewBox="0 0 122 122" style="enable-background:new 0 0 122 122;" xml:space="preserve">
<style type="text/css">
	.st0{fill:none;}
</style>
<rect class="st0" width="122" height="122"/>
<path d="M62.1,5.5c-21.9,0-39.7,17.8-39.7,39.7c0,0,0,0.6,0,1.8c0.1,2.8,0.5,5.6,1.2,8.2c2,8.9,7,23.4,19.7,41.2
	c13.6,18.1,18.7,20.5,18.7,20.5s4.9-2.8,18.2-21C90,81,96.2,73.6,99.7,58.1c1.4-4,2.1-8.4,2.1-12.9C101.8,23.3,84.1,5.5,62.1,5.5z
	 M61.9,69.2c-13.5,0-24.4-10.9-24.4-24.4s10.9-24.4,24.4-24.4s24.4,10.9,24.4,24.4C86.3,58.2,75.3,69.2,61.9,69.2z"/>
</svg>
