<?xml version="1.0" encoding="utf-8"?>
<!-- Generator: Adobe Illustrator 24.2.1, SVG Export Plug-In . SVG Version: 6.00 Build 0)  -->
<svg version="1.1" id="Capa_1" xmlns="http://www.w3.org/2000/svg" xmlns:xlink="http://www.w3.org/1999/xlink" x="0px" y="0px"
	 viewBox="0 0 473.9 473.9" style="enable-background:new 0 0 473.9 473.9;" xml:space="preserve">
<path d="M471.4,252.8c-0.7,2.2-1.3,4.4-2.1,6.5c-4.9,13-16.6,20.5-32,20.5c-32.8,0-65.6,0-98.4,0c-17.7,0-35.4,0-53.1,0
	c-1.8,0-3.6,0-6,0c0,2.4,0,4.3,0,6.2c0,50.3,0,100.7,0,151c0,16.5-8.3,28.5-22.5,32.9c-1,0.3-2.1,0.7-3.1,0.7
	c-11.2,0.1-22.6,1.2-33.7-0.2c-14.3-1.7-24.3-13.8-25.7-28.1c-0.2-2.4-0.3-4.9-0.3-7.3c0-49.6,0-99.1,0-148.7c0-2,0-3.9,0-6.6
	c-2.3,0-4.2,0-6.1,0c-50.3,0-100.7,0-151,0c-16.5,0-28.5-8.2-33-22.4c-0.7-2.3-1.4-4.8-1.4-7.1c-0.2-8.7-0.4-17.4,0-26.1
	C3.8,209,16.1,196.5,31.4,195c2.6-0.3,5.2-0.3,7.8-0.3c49.6,0,99.1,0,148.7,0c2,0,3.9,0,6.6,0c0-2.3,0-4.2,0-6.1
	c0-49,0.3-97.9-0.2-146.9c-0.2-17.5,5.4-32.9,27.2-38.7c10.4,0,20.7,0,31.1,0c21.9,5.7,27.4,21.3,27.2,38.7
	c-0.5,48.9-0.2,97.9-0.2,146.8c0,1.9,0,3.8,0,6.1c2.7,0,4.6,0,6.6,0c49.7,0,99.4,0,149.1,0c2.4,0,4.9,0,7.3,0.3
	c13.4,1.7,22.3,9,26.9,21.6c0.6,1.7,1.1,3.4,1.7,5.2C471.4,232.1,471.4,242.5,471.4,252.8z"/>
</svg>
