<?xml version="1.0" encoding="utf-8"?>
<!-- Generator: Adobe Illustrator 24.2.1, SVG Export Plug-In . SVG Version: 6.00 Build 0)  -->
<svg version="1.1" id="Capa_1" xmlns="http://www.w3.org/2000/svg" xmlns:xlink="http://www.w3.org/1999/xlink" x="0px" y="0px"
	 viewBox="0 0 153 153" style="enable-background:new 0 0 153 153;" xml:space="preserve">
<path d="M151.4,79c-1.1,3-1.7,6.2-3.2,9c-3.9,6.9-9.9,11-18,11.5c-8.8,0.5-15.7-4.9-17.8-13.5c-3.2-13.4,8.3-27.7,22-27.5
	c8.5,0.2,15.4,6.2,16.7,14.7c0.1,0.4,0.2,0.7,0.3,1.1C151.4,75.8,151.4,77.4,151.4,79z M120.7,81.3c-0.2,6,4.1,10,9.8,9.4
	c7-0.7,13.1-8.7,12-15.6c-0.9-6-6-9.1-11.8-7.3C125,69.6,120.8,75.2,120.7,81.3z"/>
<path d="M71.5,133.6c-6.8-0.1-13,1.5-19,3.9c-13.2,5.4-27.8-2.1-31.1-16c-1.3-5.6-0.9-11.1,2.1-16c6.2-10.2,12.3-20.5,19.5-30
	c8.7-11.5,21-15.7,35.2-13.2c10.2,1.8,18.1,7.4,23.7,16c5.5,8.3,10.9,16.7,16.1,25.2c8.6,13.8,1.5,31.4-14.1,35
	c-4.5,1.1-9,0.9-13.3-0.9C84.3,135.3,78,133.5,71.5,133.6z M72,70.5c-9.6,0-18.1,4.1-23,11.3c-6,8.9-11.8,18-17.5,27.1
	c-3.1,5-3,10.3,0.3,15.2c4,6.1,10.8,8,17.7,5.2c5.3-2.2,10.7-3.6,16.3-4.2c9.1-0.9,17.9,0.5,26.4,4c3.3,1.4,6.6,1.9,10.1,0.9
	c9.6-2.7,13.4-13.3,8-21.9c-5.2-8.2-10.4-16.4-15.7-24.5C89.2,75.1,81.3,70.8,72,70.5z"/>
<path d="M38.2,32.3c0.3-8.2,3.7-16.1,12-21.1c8.5-5.1,18.4-3.2,25.3,4.5c8.8,9.7,8.6,26.4-0.3,36c-9.5,10.1-24.6,8.9-32.3-2.7
	C39.8,44.3,38.3,39.2,38.2,32.3z M47,33.3c0,4.1,1.1,7.8,3.4,11.1c4.9,7,14.5,7.1,19.4,0.1c4.7-6.7,4.7-15.5-0.1-22.1
	c-4.4-6.2-12.5-6.9-17.8-1.5C48.5,24.4,47.1,28.6,47,33.3z"/>
<path d="M125.8,41.1c-0.4,8.9-3.7,16.1-11.1,21.1c-10.9,7.3-24,2.8-28.5-9.5C82,41,87.9,26.8,99,22c10.3-4.5,21.4,0.3,25.2,10.8
	c0.5,1.3,0.9,2.6,1.1,3.9C125.6,38.2,125.7,39.7,125.8,41.1z M117.1,40.7c-0.2-1.1-0.5-3-1-4.7c-2-6-8.2-8.5-13.8-5.8
	c-6.9,3.3-10.5,12.7-7.7,19.9c2.5,6.3,8.6,8.7,14.5,5.3C114.4,52.3,116.6,47.4,117.1,40.7z"/>
<path d="M40.2,60.3c-0.2,6.8-2.5,12.8-8.5,16.5c-6.8,4.3-13.6,3.4-20.1-1c-8.3-5.6-12-17.7-8.3-27C8.1,37,21.8,33.7,31.7,42.1
	C37.3,46.8,40,53,40.2,60.3z M31.4,59.5c-0.2-4.5-2.3-8.9-7.1-11.9c-4.8-2.9-10.4-1.1-12.6,4.1c-2.7,6.2,0.2,14.5,6.1,17.8
	c3.9,2.1,7.9,1.7,10.7-1.2C30.5,66.1,31.4,63.4,31.4,59.5z"/>
</svg>
