<?xml version="1.0" encoding="utf-8"?>
<!-- Generator: Adobe Illustrator 24.2.1, SVG Export Plug-In . SVG Version: 6.00 Build 0)  -->
<svg version="1.1" id="Capa_1" xmlns="http://www.w3.org/2000/svg" xmlns:xlink="http://www.w3.org/1999/xlink" x="0px" y="0px"
	 viewBox="0 0 153 153" style="enable-background:new 0 0 153 153;" xml:space="preserve">
<path d="M151,30.4c0-3.1-0.5-6.2-1.9-9c-4-8-10.6-11.9-19.5-12c-12,0-23.9,0-35.9,0c-23.4,0-46.9,0.1-70.3-0.1
	C10.5,9.3,1.2,19.3,1.7,31.1c0.2,6,0,11.9,0,17.9c0,16.1-0.1,32.2,0.1,48.4c0.1,10,8.7,18.7,18.7,19.3c1.4,0.1,1.7,0.5,1.7,1.8
	c-0.1,8.7,0,17.4,0,26.1c0,0.6,0,1.2,0,2.2c0.8-0.5,1.3-0.8,1.7-1.2c13.3-9.3,26.6-18.5,39.9-27.8c1.1-0.7,2.1-1.1,3.4-1.1
	c20.8,0,41.6,0,62.4,0c12.4,0,21.4-8.8,21.4-21C151.1,74,151,52.2,151,30.4z M142.3,95.1c0,6.5-3.3,11-9.1,12.5
	c-1.3,0.3-2.7,0.4-4,0.4c-21.6,0-43.1,0-64.7,0c-1.3,0-2.4,0.4-3.4,1.1c-9.5,6.6-19,13.2-28.4,19.8c-0.5,0.3-0.9,0.6-1.7,1.1
	c0-7.5,0-14.6,0-22c-1.8,0-3.5,0.1-5.2,0c-2.4-0.1-4.8,0-7.1-0.7c-4.8-1.4-7.5-5-8.1-9.9c-0.1-0.7-0.1-1.3-0.1-2c0-21.5,0-43,0-64.5
	c0-5.1,2-9.1,6.7-11.3c1.7-0.8,3.8-1.2,5.7-1.2c35.7-0.1,71.3-0.1,107,0c6.1,0,10.5,3.2,12,8.8c0.3,1.3,0.5,2.7,0.5,4
	C142.3,52.4,142.3,73.8,142.3,95.1z"/>
</svg>
