<?xml version="1.0" encoding="utf-8"?>
<!-- Generator: Adobe Illustrator 24.2.1, SVG Export Plug-In . SVG Version: 6.00 Build 0)  -->
<svg version="1.1" id="Capa_1" xmlns="http://www.w3.org/2000/svg" xmlns:xlink="http://www.w3.org/1999/xlink" x="0px" y="0px"
	 viewBox="0 0 473.9 473.9" style="enable-background:new 0 0 473.9 473.9;" xml:space="preserve">
<path d="M448.9,257.6C396,204.6,343,151.7,290.1,98.8c-7-7-16.4-7-23.3-0.1c-53,52.9-105.9,105.9-158.8,158.8
	c-6.6,6.6-6.7,16.5-0.5,22.8c6.4,6.5,16.1,6.4,23.1-0.3c1.2-1.1,2.3-2.3,4.1-4c0,2.4,0,3.8,0,5.1c0,48.5,0,97.1,0,145.6
	c0,12,6.3,18.4,18.1,18.4c83.7,0,167.4,0,251.1,0c11.9,0,18.2-6.3,18.2-18.3c0-48.7,0-97.3,0-146c0-1.3,0-2.6,0-3.9
	c0.3-0.2,0.6-0.4,0.9-0.5c1.1,1.3,2.2,2.6,3.4,3.8c6.8,6.5,16.4,6.6,22.8,0.2C455.5,274.1,455.4,264.2,448.9,257.6z M390.5,409.6
	c0,1.1-0.1,2.2-0.2,3.5c-74.3,0-148.5,0-223.3,0c0-1.6,0-2.9,0-4.3c0-53.5,0-107-0.1-160.6c0-3,0.9-5.1,3-7.2
	c35.3-35.1,70.4-70.4,105.6-105.6c1-1,1.7-2.2,2.7-3.4c1.4,1.3,2.4,2.1,3.2,2.9c35.6,35.5,71.1,71.1,106.6,106.7
	c1.3,1.3,2.4,3.6,2.4,5.4C390.5,301.3,390.5,355.4,390.5,409.6z"/>
<path d="M466.2,41.5l-30.3-25.2c-5.5-4.6-13.9-0.7-13.9,6.5V32H135v-9.2c0-7.2-8.4-11.1-13.9-6.5L90.8,41.5c-4.1,3.4-4.1,9.6,0,13
	l30.3,25.2c5.5,4.6,13.9,0.7,13.9-6.5V64h287v9.2c0,7.2,8.4,11.1,13.9,6.5l30.3-25.2C470.3,51.2,470.3,44.9,466.2,41.5z"/>
<path d="M63.3,413H54V126h9.2c7.2,0,11.1-8.4,6.5-13.9L44.5,81.8c-3.4-4.1-9.6-4.1-13,0L6.3,112.2c-4.6,5.5-0.7,13.9,6.5,13.9H22
	v287h-9.2c-7.2,0-11.1,8.4-6.5,13.9l25.2,30.3c3.4,4.1,9.6,4.1,13,0l25.2-30.3C74.4,421.4,70.5,413,63.3,413z"/>
</svg>
