<?xml version="1.0" encoding="utf-8"?>
<!-- Generator: Adobe Illustrator 24.2.1, SVG Export Plug-In . SVG Version: 6.00 Build 0)  -->
<svg version="1.1" id="Capa_1" xmlns="http://www.w3.org/2000/svg" xmlns:xlink="http://www.w3.org/1999/xlink" x="0px" y="0px"
	 viewBox="0 0 153 153" style="enable-background:new 0 0 153 153;" xml:space="preserve">
<path d="M30.2,151.6c-0.2-0.1-0.4-0.2-0.6-0.4c-1.3-0.8-1.8-2.1-1.4-3.4c0.4-1.4,1.4-2.1,2.9-2.1c10.7,0,21.4,0,32,0
	c1.5,0,2.5,0.8,2.9,2.2c0.4,1.4-0.2,2.5-1.9,3.7C52.7,151.6,41.4,151.6,30.2,151.6z"/>
<path d="M88.2,151.6c-0.2-0.1-0.3-0.2-0.5-0.3c-1.3-0.8-1.8-1.9-1.5-3.4c0.3-1.4,1.5-2.2,3.1-2.2c4.8,0,9.6,0,14.4,0
	c5.5,0,11.1,0,16.6,0c2.2,0,3.4,0.7,3.7,2.1c0.4,1.5-0.2,2.7-2,3.8C110.8,151.6,99.5,151.6,88.2,151.6z"/>
<path d="M0.7,132.5c0.9-1.6,2.2-2.1,4-2.1c9.8,0.1,19.5,0,29.3,0c0.4,0,0.9,0,1.3,0c1.5,0.2,2.6,1.4,2.6,2.9c0,1.5-1,2.7-2.6,2.9
	c-0.4,0.1-0.9,0-1.3,0c-9.8,0-19.5,0-29.3,0c-1.8,0-3.1-0.5-4-2.1C0.7,133.7,0.7,133.1,0.7,132.5z"/>
<path d="M133,130.4c5,0,9.9,0,14.9,0c2.2,0,3.6,1.1,3.6,3c0,1.8-1.4,2.9-3.7,2.9c-10,0-20,0-30,0c-2,0-3.2-0.9-3.5-2.5
	c-0.3-2,1-3.4,3.2-3.4C122.7,130.4,127.9,130.4,133,130.4z"/>
<path d="M76.1,130.4c5,0,10,0,15,0c2.3,0,3.6,1.1,3.6,3c0,1.8-1.3,2.9-3.5,2.9c-10.1,0-20.1,0-30.2,0c-2.2,0-3.5-1.1-3.5-2.9
	c0-1.8,1.3-3,3.4-3C66,130.4,71.1,130.4,76.1,130.4z"/>
<path d="M125.2,80.7c-1.6,0-2.9-1.3-2.9-2.9c0-1.6,1.4-2.9,2.9-2.9c1.6,0,3,1.4,2.9,3C128.2,79.5,126.9,80.8,125.2,80.7z"/>
<path d="M150.7,115.9c-1.7-2.9-3.4-5.9-5.1-8.8c-3.6-6.3-7.3-12.6-10.9-18.8c-1-1.8-2.6-2.4-4.2-1.6c-1.6,0.8-2,2.6-0.9,4.6
	c4.3,7.4,8.6,14.9,12.9,22.3c0.3,0.4,0.5,0.9,0.8,1.4c-0.3,0.1-0.4,0.1-0.5,0.1c-6.6,0-13.3,0-19.9,0c-0.5,0-1.2-0.6-1.5-1.1
	c-9.8-17-19.6-33.9-29.5-50.9c-0.5-0.8-0.5-1.3,0-2.1c3.2-5.4,6.3-10.9,9.4-16.3c0.2-0.4,0.5-0.7,0.7-1.1c0.3,0.6,0.6,1,0.8,1.4
	c4.3,7.5,8.6,14.9,12.9,22.4c1,1.8,2.7,2.4,4.2,1.5c1.6-0.9,2-2.6,0.9-4.5c-5.4-9.3-10.7-18.6-16.1-27.9c-1.5-2.6-4.1-2.6-5.6,0
	c-0.8,1.4-1.7,2.9-2.5,4.3c-2.9,5-5.8,10-8.8,15.2c-0.4-0.7-0.7-1.1-1-1.6c-7.3-12.6-14.5-25.1-21.8-37.7c-0.2-0.4-0.4-0.8-0.7-1.1
	c-1.3-2-3.8-2-5.1,0c-0.2,0.4-0.5,0.8-0.7,1.1C46.5,38,34.2,59.3,21.9,80.6C21.7,81,21.4,81.4,21,82c-0.4-0.6-0.6-1-0.9-1.4
	c-1.8-3.1-3.6-6.3-5.5-9.4c-1.4-2.3-3.9-2.2-5.3,0c-0.2,0.3-0.4,0.7-0.6,1C6.1,76.8,3.4,81.4,0.7,86c0,0.6,0,1.2,0,1.8
	c1.8,3,4.2,3,5.9,0c1.8-3,3.5-6.1,5.4-9.4c1.3,2.3,2.4,4.5,3.8,6.5c1.6,2.2,1.5,3.9,0,6.2c-5.2,8.6-10.2,17.4-15.2,26.1
	c0,0.6,0,1.2,0,1.8c0.8,1.5,2,2.1,3.7,2.1c47.8,0,95.6,0,143.4,0C151.1,121,152.4,118.8,150.7,115.9z M62,23
	c6.3,10.9,12.4,21.5,18.5,32c-3,3.1-6,6-9,9.1c-3.7-3.8-7.5-7.6-11.3-11.4c-0.5-0.5-1-1-1.5-1.5c-1.5-1.5-2.6-1.6-4.5-0.5
	c-4,2.4-8,4.8-12.2,7.1C48.6,46.3,55.2,34.7,62,23z M8.1,115.1c0.3-0.6,0.5-1.1,0.8-1.5C17.2,99,25.6,84.5,34,70
	c0.3-0.6,0.8-1.2,1.3-1.5c6.3-3.9,12.7-7.7,19-11.5c0.2-0.1,0.3-0.2,0.8-0.4c0.9,1,1.7,2,2.7,3c3.5,3.5,6.9,7,10.4,10.4
	c1.7,1.7,3.2,1.7,5,0c2.8-2.8,5.6-5.6,8.4-8.4c0.3-0.3,0.7-0.7,1.2-1.1c10.5,18.2,21,36.3,31.5,54.6
	C78.7,115.1,43.5,115.1,8.1,115.1z"/>
<path d="M122.4,0.9c-7.9,0-14.3,6.3-14.4,14.3c0,7.9,6.3,14.3,14.2,14.4c7.9,0,14.4-6.3,14.4-14.2C136.7,7.4,130.3,0.9,122.4,0.9z
	 M122.3,23.6c-4.7,0-8.4-3.7-8.4-8.4c0-4.7,3.8-8.5,8.5-8.5c4.6,0,8.4,3.9,8.4,8.5C130.8,19.9,127,23.6,122.3,23.6z"/>
</svg>
