<?xml version="1.0" encoding="utf-8"?>
<!-- Generator: Adobe Illustrator 24.2.1, SVG Export Plug-In . SVG Version: 6.00 Build 0)  -->
<svg version="1.1" id="Capa_1" xmlns="http://www.w3.org/2000/svg" xmlns:xlink="http://www.w3.org/1999/xlink" x="0px" y="0px"
	 viewBox="0 0 153 153" style="enable-background:new 0 0 153 153;" xml:space="preserve">
<path d="M76,147c-2-0.3-4-0.5-6-0.8c-21.9-3.5-38.7-14.8-50.2-33.7C12.3,100.4,8.9,87,10,72.8C12.3,43.6,27.1,23,53.9,11.2
	C65.6,6.1,78,5.3,90.6,6.5c1.3,0.1,2.7,0.3,4.4,0.4c-15.2,8.9-24.8,21.7-28.5,38.6c-2.8,13-0.8,25.5,5.4,37.2
	c12.3,23.1,42,36.7,71.4,25c-1.7,2.9-3.3,6-5.2,8.8c-8.2,12.2-19.2,20.9-32.8,26.1c-5.9,2.3-12.1,3.6-18.4,4.2c-0.5,0-1,0.2-1.5,0.3
	C82.2,147,79.1,147,76,147z"/>
</svg>
