<?xml version="1.0" encoding="utf-8"?>
<!-- Generator: Adobe Illustrator 24.2.1, SVG Export Plug-In . SVG Version: 6.00 Build 0)  -->
<svg version="1.1" id="Capa_1" xmlns="http://www.w3.org/2000/svg" xmlns:xlink="http://www.w3.org/1999/xlink" x="0px" y="0px"
	 viewBox="0 0 153 153" style="enable-background:new 0 0 153 153;" xml:space="preserve">
<path d="M150.7,63.6C146.2,39.8,133.2,22,112,10.3c-9.2-5.1-19.2-7.9-29.8-8.6c-0.4,0-0.8-0.2-1.1-0.2c-2.9,0-5.9,0-8.8,0
	c-2.9,0.4-5.8,0.6-8.7,1.2C39.8,7.2,22,20.2,10.3,41.4c-5,9.2-7.8,19.1-8.6,29.6c0,0.4-0.2,0.8-0.2,1.3c0,2.9,0,5.9,0,8.8
	c0.4,2.9,0.6,5.8,1.2,8.7c4.6,23.8,17.5,41.6,38.7,53.3c9.2,5.1,19.2,7.9,29.8,8.6c0.4,0,0.8,0.2,1.1,0.2c2.9,0,5.9,0,8.8,0
	c2.9-0.4,5.8-0.6,8.7-1.2c23.8-4.6,41.6-17.5,53.3-38.7c5.1-9.2,7.8-19.1,8.6-29.6c0-0.4,0.2-0.8,0.2-1.3c0-2.9,0-5.9,0-8.8
	C151.5,69.4,151.3,66.5,150.7,63.6z M110.6,60.4c-0.4,0.6-0.9,1.1-1.5,1.6C96.5,74.6,84,87.1,71.4,99.7c-3.5,3.5-6.6,3.5-10,0
	C55.6,93.9,49.7,88,43.9,82.2c-1.6-1.6-2.5-3.4-2-5.7c0.9-4.4,6.1-6.2,9.5-3.3c2,1.7,3.8,3.7,5.7,5.5c3,3.1,6.1,6.2,9.6,9.7
	c0.4-0.6,0.6-1.2,1-1.6C78.8,75.7,89.9,64.6,101,53.5c1.3-1.3,2.8-2.3,4.7-2.3c2.4,0,4.2,1.1,5.3,3.1
	C112.1,56.4,111.9,58.5,110.6,60.4z"/>
</svg>
