<?xml version="1.0" encoding="utf-8"?>
<!-- Generator: Adobe Illustrator 24.2.1, SVG Export Plug-In . SVG Version: 6.00 Build 0)  -->
<svg version="1.1" id="Capa_1" xmlns="http://www.w3.org/2000/svg" xmlns:xlink="http://www.w3.org/1999/xlink" x="0px" y="0px"
	 viewBox="0 0 300 300" style="enable-background:new 0 0 300 300;" xml:space="preserve">
<g>
	<path d="M240.2,36.1h-10.5h-20.4V16c0-5.6-4.4-10.4-10-10.5C193.6,5.4,189,10,189,15.7v20.4H66.6V16c0-5.6-4.4-10.4-10-10.5
		C50.9,5.4,46.2,10,46.2,15.7v20.4H25.9H15.4c-5.5,0-9.9,4.4-9.9,9.9v10.5v51v20.4v133.4c0,16.4,13.3,29.7,29.7,29.7H36h193.7l0,0
		c11.3,0,20.4-9.1,20.4-20.4l0,0l0,0c0-5.6-4.6-10.2-10.2-10.2l0,0c-5.6,0-10.2,4.6-10.2,10.2l0,0h-194c-5.5,0-9.9-4.4-9.9-9.9
		V127.8h203.9c0,5.7,4.7,10.3,10.4,10.2c5.6-0.1,10-4.9,10-10.5v-20.1v-51V46C250.1,40.5,245.7,36.1,240.2,36.1z M229.7,107.4H25.9
		v-51h20.4v20.4c0,5.6,4.6,10.2,10.2,10.2s10.2-4.6,10.2-10.2V56.5h122.3v20.4c0,5.6,4.6,10.2,10.2,10.2s10.2-4.6,10.2-10.2V56.5
		h20.4L229.7,107.4L229.7,107.4z"/>
	<path d="M287.5,192.1l-41.8-31.6c-4.4-3.3-10.8-2.5-14.1,2c-1.7,2.2-2.3,4.9-1.9,7.4c0.6,4,3.4,6.2,3.9,6.6
		c5.5,4.1,11.1,8.3,16.6,12.5H138c-5.6,0-10.2,4.6-10.2,10.2s4.6,10.2,10.2,10.2h111.8c-5.4,4.1-10.8,8.1-16.1,12.1
		c-0.5,0.4-3.3,2.6-3.9,6.6c-0.4,2.6,0.3,5.2,1.9,7.4c3.3,4.4,9.6,5.3,14.1,2l41.8-31.3C292.1,202.7,292.2,195.7,287.5,192.1z"/>
</g>
</svg>
