<?xml version="1.0" encoding="utf-8"?>
<!-- Generator: Adobe Illustrator 24.2.1, SVG Export Plug-In . SVG Version: 6.00 Build 0)  -->
<svg version="1.1" id="Capa_1" xmlns="http://www.w3.org/2000/svg" xmlns:xlink="http://www.w3.org/1999/xlink" x="0px" y="0px"
	 viewBox="0 0 122 122" style="enable-background:new 0 0 122 122;" xml:space="preserve">
<path d="M119.1,50.4c-2.4-13.6-8.8-25.1-19.1-34.3C91.4,8.4,81.4,3.7,70,1.7c-2-0.3-4-0.5-6-0.8c-2.4,0-4.8,0-7.2,0
	c-2.8,0.4-5.5,0.7-8.3,1.2C24.7,6.8,5.7,26.3,1.6,50.3c-4.7,27.9,10,54.7,36,65.6c5.8,2.4,11.9,3.9,18.1,4.3c0.3,0,0.6,0.1,0.9,0.2
	c2.5,0,5,0,7.5,0c2.2-0.3,4.4-0.5,6.5-0.9c24.1-4.1,43.6-23.1,48.2-47.2c0.4-2.3,0.7-4.7,1-7c0.1-0.4,0.1-0.7,0.2-1.1
	c0-2.4,0-4.8,0-7.2C119.7,54.8,119.4,52.6,119.1,50.4z M60.2,110.5c-27.5,0-49.6-22.4-49.5-50C10.7,33.1,33,10.9,60.4,10.9
	c27.4,0,49.7,22.3,49.6,49.7C110,88.3,87.7,110.5,60.2,110.5z"/>
<path d="M82.1,52.4c-0.7-9.7-8.1-16.6-17.8-16.6c-5.5,0-10.9,0-16.4,0c-3.6,0-5.6,2-5.6,5.6c0,16,0,32,0,47.9c0,0.4,0,0.8,0,1.2
	c3.4,0,6.6,0,10,0c0-6.6,0-13.1,0-19.8c0.8,0,1.5,0,2.1,0c4.1-0.1,8.2,0.1,12.3-0.2C75.6,69.8,82.7,61.2,82.1,52.4z M64.5,60.7
	c-4,0-8,0-12.1,0c0-5,0-9.9,0-14.9c0.4,0,0.7-0.1,1.1-0.1c3.7,0,7.4,0,11,0c4.4,0,7.7,3.3,7.7,7.5C72.2,57.5,68.9,60.7,64.5,60.7z"
	/>
</svg>
