<?xml version="1.0" encoding="utf-8"?>
<!-- Generator: Adobe Illustrator 24.2.1, SVG Export Plug-In . SVG Version: 6.00 Build 0)  -->
<svg version="1.1" id="Capa_1" xmlns="http://www.w3.org/2000/svg" xmlns:xlink="http://www.w3.org/1999/xlink" x="0px" y="0px"
	 viewBox="0 0 153 153" style="enable-background:new 0 0 153 153;" xml:space="preserve">
<path d="M148.6,14.3c-3.8-7.6-10.2-11.7-18.8-12.2c-2.2-0.1-4.5,0-6.7,0c-32.9,0-65.8,0-98.7,0c-10,0-18.1,5.6-21.2,14.9
	c-0.8,2.3-1.2,4.8-1.2,7.3C2,59.1,2,94,2.1,128.9c0,11.2,7.6,20,18.8,21.9c0.2,0,0.5,0.2,0.7,0.2c36.6,0,73.3,0,109.9,0
	c2.4-0.7,4.9-1.2,7.1-2.3c6.8-3.3,10.7-8.7,12.1-16.1c0.1-0.4,0.2-0.7,0.3-1.1c0-36.7,0-73.3,0-110
	C150.2,19.1,149.8,16.5,148.6,14.3z M87.6,82.2c-5.9,0.2-11.7,0.1-17.6,0.1c-0.5,0-1,0-1.7,0c0,6.1,0,12,0,17.9c0,4.1,0,8.2,0,12.4
	c0,2.8-1.8,4.6-4.5,4.6c-2.8,0-5.5,0-8.3,0c-2.8,0-4.5-1.8-4.6-4.5c0-0.3,0-0.7,0-1c0-25.4,0-50.8,0-76.2c0-4,1.5-5.5,5.5-5.5
	c9.9,0,19.8,0,29.6,0c13,0.1,23.7,8.9,26,21.6C114.9,66.9,103.3,81.6,87.6,82.2z"/>
<path d="M68.3,47.4c6.2,0,12.4-0.2,18.5,0.1c4.6,0.2,8.1,4.1,8.1,8.6c0,4.5-3.5,8.5-8.1,8.6c-6.1,0.2-12.3,0.1-18.5,0.1
	C68.3,59,68.3,53.3,68.3,47.4z"/>
</svg>
