<?xml version="1.0" encoding="utf-8"?>
<!-- Generator: Adobe Illustrator 24.2.1, SVG Export Plug-In . SVG Version: 6.00 Build 0)  -->
<svg version="1.1" id="Capa_1" xmlns="http://www.w3.org/2000/svg" xmlns:xlink="http://www.w3.org/1999/xlink" x="0px" y="0px"
	 viewBox="0 0 300 300" style="enable-background:new 0 0 300 300;" xml:space="preserve">
<path d="M189.7,73.8c18.7,0,34.1-15.4,34-34.1c0-18.6-15.3-33.9-33.9-34c-18.8,0-34.1,15.3-34.2,34C155.6,58.5,171,73.8,189.7,73.8z
	"/>
<path d="M107.4,36.9c0-17.2-14.1-31.2-31.2-31.2C59.1,5.8,45,19.9,45.1,37c0,17.1,14.1,31.2,31.2,31.2
	C93.4,68.1,107.5,54.1,107.4,36.9z"/>
<path d="M161.9,296.2c-4.9-2.3-6.4-6.2-6.3-11.4c0.2-27.5,0.1-55,0.1-82.5c0-1.1,0-2.2,0-3.6c-3.1,0-5.9,0-8.7,0
	c-11-0.2-19.6-8.8-19.6-19.7c-0.1-17.5-0.3-35,0.1-52.5c0.5-19.9,9.2-35.7,25.3-47.5c1.7-1.3,2.8-1.3,4.6,0.1
	c22.4,18.6,55.7,14.7,73.2-8.6c1.2-1.6,2.3-2.3,4.3-2.5c14.6-1.3,25.6-13.2,25.9-27.8c0.1-5.6,0-11.2,0-16.7
	c0.1-9.9,7.5-17.7,16.9-17.7c9.7,0,17.2,7.5,17.1,17.7c-0.1,9.3,0.2,18.8-1.2,28c-4,26.2-27.1,47.5-53.6,50.3
	c-2.3,0.2-4.7,0.4-7.5,0.7c0,1.1,0,2.3,0,3.4c0,59.7,0,119.3,0.1,179c0,5.3-1.4,9.2-6.3,11.4c-7.9,0-15.9,0-23.8,0
	c0.1-0.9,0.3-1.9,0.3-2.8c0-28.1,0-56.3,0-84.4c0-1.2,0-2.5-0.3-3.7c-0.7-3.8-4.2-6.6-8.1-6.7c-3.9-0.1-7.5,2.6-8.3,6.4
	c-0.3,1.3-0.3,2.6-0.3,3.9c0,28.1,0,56.1,0,84.2c0,1,0.2,2,0.3,3.1C177.8,296.2,169.8,296.2,161.9,296.2z"/>
<path d="M39.9,296.2c-4.9-2.3-6.4-6.2-6.3-11.4c0.2-27.5,0.1-55,0.1-82.5c0-1.1,0-2.2,0-3.6c-3,0-5.7,0-8.4,0
	c-11.3-0.2-19.9-8.7-19.9-20c-0.1-17.4-0.5-34.8,0.1-52.2C6.4,101.5,18.8,83.7,41.4,73c1.5-0.7,2.5-0.5,3.7,0.6
	c20.1,16.8,48.5,15.1,66.5-3.9c0.7-0.7,1.8-1.5,2.8-1.5c7.8-0.1,15.7-0.1,24-0.1c-0.6,0.7-1,1.2-1.4,1.6
	c-17.6,15.6-26.6,35.2-26.6,58.8c-0.1,52.1-0.1,104.2,0.1,156.3c0,5.3-1.4,9.2-6.3,11.4c-7.9,0-15.9,0-23.8,0
	c0.1-0.9,0.3-1.9,0.3-2.8c0-28.1,0-56.3,0-84.4c0-1.2,0-2.5-0.3-3.7c-0.7-3.8-4.2-6.6-8.1-6.7c-3.9-0.1-7.5,2.6-8.3,6.4
	c-0.3,1.3-0.3,2.6-0.3,3.9c0,28.1,0,56.1,0,84.2c0,1,0.2,2,0.3,3.1C55.8,296.2,47.9,296.2,39.9,296.2z"/>
</svg>
