<?xml version="1.0" encoding="utf-8"?>
<!-- Generator: Adobe Illustrator 24.2.1, SVG Export Plug-In . SVG Version: 6.00 Build 0)  -->
<svg version="1.1" id="Capa_1" xmlns="http://www.w3.org/2000/svg" xmlns:xlink="http://www.w3.org/1999/xlink" x="0px" y="0px"
	 viewBox="0 0 153 153" style="enable-background:new 0 0 153 153;" xml:space="preserve">
<path d="M91.1,150.6c0-16.3,0-32.5,0-48.8c0-2.4,0-4.8,0-7.2c1.6,0,3.2,0,4.8,0c0,1.5,0,3,0,4.6c1.7,0,3.2,0,4.8,0
	c0-0.4,0.1-0.7,0.1-1.1c0-11.7,0.1-23.5,0-35.2c0-8.4-5.2-15.3-13.4-16.8c-7.3-1.3-14.8-1.3-22.1,0c-8,1.4-13.2,8.2-13.3,16.3
	c-0.1,12,0,24,0,36c0,0.2,0,0.4,0.1,0.7c1.5,0,3.1,0,4.7,0c0-1.5,0-3,0-4.6c1.7,0,3.2,0,5,0c0,18.7,0,37.3,0,56c-1.6,0-3.2,0-4.9,0
	c0-2.3-0.1-4.7-0.1-7c0-12.5,0-25,0-37.5c0-0.6,0-1.1,0-1.9c-3.3,0-6.4,0-9.6,0c-0.1-0.4-0.1-0.6-0.1-0.9c0-13.9-0.2-27.8,0.1-41.6
	c0.2-11.1,8.9-20.2,20-20.9c6.5-0.4,13.2-0.4,19.7,0.2c10,0.9,18.4,10.2,18.6,20.2c0.2,14,0.1,27.9,0.1,41.9c0,0.3-0.1,0.6-0.1,0.9
	c-3.2,0-6.3,0-9.7,0c0,0.7,0,1.2,0,1.8c0,14.3,0,28.6,0,42.9c0,0.6,0,1.1-0.1,1.7C94.3,150.6,92.7,150.6,91.1,150.6z"/>
<path d="M135.1,150.6c0-15.3,0-30.5,0-45.8c0-0.1,0-0.3,0.1-0.5c1.5,0,3.1,0,4.7,0c0,1.5,0,3,0,4.7c1.7,0,3.2,0,4.8,0
	c0-0.4,0.1-0.8,0.1-1.2c0-9.9,0-19.8,0-29.7c0-5.3-2.2-9.4-7.1-11.6c-1.8-0.8-4-1.2-6.1-1.2c-6.4-0.2-12.9-0.1-19.3-0.1
	c-0.5,0-1,0-1.7,0c0-1.7,0-3.2,0-4.7c0.1-0.1,0.2-0.1,0.2-0.1c7.9,0,15.8-0.3,23.7,0.2c8.1,0.5,14.8,7.5,14.9,15.6
	c0.3,12.5,0.1,25.1,0.1,37.7c-3.2,0-6.3,0-9.7,0c0,12.3,0,24.5,0,36.7C138.4,150.6,136.8,150.6,135.1,150.6z"/>
<path d="M3.2,75.4c1-2.5,1.6-5.2,3-7.5c2.9-4.6,7.3-7.3,12.8-7.5c7.7-0.2,15.3-0.1,23.1-0.1c0,1.5,0,3.1,0,4.8c-0.5,0-1,0-1.5,0
	c-6.4,0-12.8,0-19.2,0c-4.4,0-8.1,1.3-10.9,4.9c-1.7,2.2-2.5,4.6-2.5,7.3c0,10.4,0,20.8,0,31.2c0,0.1,0,0.3,0.1,0.5
	c1.5,0,3.1,0,4.7,0c0-1.5,0-3,0-4.7c1.7,0,3.2,0,4.8,0c0,0.2,0.1,0.3,0.1,0.5c0,15.2,0,30.5,0,45.7c-1.6,0-3.2,0-4.9,0
	c0-12.2,0-24.4,0-36.6c-3.4,0-6.5,0-9.7,0C3.2,101.1,3.2,88.3,3.2,75.4z"/>
<path d="M37.3,150.6c0-0.6,0.1-1.2,0.1-1.8c0-14.2,0-28.4,0-42.6c0-0.6,0-1.1,0-1.8c1.7,0,3.2,0,4.9,0c0,1.5,0,3,0,4.7
	c3.3,0,6.5,0,9.7,0c0,1.7,0,3.2,0,4.9c-3.2,0-6.3,0-9.6,0c0,0.5-0.1,0.8-0.1,1.2c0,11.4,0,22.9,0,34.3c0,0.4,0.1,0.8,0.1,1.1
	C40.7,150.6,39,150.6,37.3,150.6z"/>
<path d="M110.5,150.6c0-0.4,0.1-0.8,0.1-1.1c0-11.4,0-22.8,0-34.2c0-0.4,0-0.8-0.1-1.3c-3.2,0-6.4,0-9.6,0c0-1.7,0-3.2,0-4.8
	c3.2,0,6.3,0,9.7,0c0-1.7,0-3.3,0-4.9c1.7,0,3.2,0,4.9,0c0,0.6,0,1.2,0,1.8c0,14.2,0,28.4,0,42.6c0,0.6,0.1,1.2,0.1,1.8
	C114,150.6,112.3,150.6,110.5,150.6z"/>
<path d="M73.9,150.6c0-0.6,0.1-1.2,0.1-1.8c0-14.2,0-28.4,0-42.6c0-0.6,0-1.2,0-1.9c1.7,0,3.2,0,4.9,0c0,0.7,0,1.3,0,1.9
	c0,14.2,0,28.4,0,42.6c0,0.6,0.1,1.2,0.1,1.8C77.3,150.6,75.6,150.6,73.9,150.6z"/>
<path d="M25.3,150.6c0-12.1,0-24.3,0-36.5c1.6,0,3.1,0,4.9,0c0,12.2,0,24.3,0,36.5C28.5,150.6,26.9,150.6,25.3,150.6z"/>
<path d="M122.8,150.6c0-12.1,0-24.3,0-36.5c1.6,0,3.2,0,4.9,0c0,12.2,0,24.3,0,36.5C126.1,150.6,124.5,150.6,122.8,150.6z"/>
<path d="M76.4,2.4c-9.4,0.1-17,7.8-17,17.1c0,9.4,7.7,17.1,17.1,17.1c9.5,0,17.1-7.7,17.1-17.1C93.5,10,85.8,2.3,76.4,2.4z
	 M76.5,31.6c-6.7,0-12.2-5.4-12.3-12.1c-0.1-6.6,5.5-12.2,12.1-12.3c6.6-0.1,12.2,5.5,12.3,12.1C88.8,26,83.3,31.6,76.5,31.6z"/>
<path d="M125.2,28.5c-8,0.2-14.7,6.9-14.5,14.8c0.2,8.1,6.9,14.6,14.8,14.5c8.1-0.1,14.7-7,14.5-15C139.8,35,133,28.4,125.2,28.5z
	 M125.3,53c-5.4-0.1-9.7-4.5-9.7-9.8c0-5.4,4.4-9.7,9.7-9.7c5.3,0,9.7,4.4,9.8,9.7C135.1,48.5,130.6,53,125.3,53z"/>
<path d="M26.4,28.6c-8,0.1-14.6,6.7-14.6,14.7c0,7.9,6.8,14.7,14.7,14.6c8,0,14.6-6.7,14.6-14.7C41,35.2,34.4,28.5,26.4,28.6z
	 M26.5,53c-5.3,0.1-9.9-4.5-9.8-9.8c0.1-5.3,4.5-9.7,9.8-9.7c5.3,0,9.7,4.4,9.7,9.7C36.2,48.5,31.9,52.9,26.5,53z"/>
</svg>
