<?xml version="1.0" encoding="utf-8"?>
<!-- Generator: Adobe Illustrator 24.2.1, SVG Export Plug-In . SVG Version: 6.00 Build 0)  -->
<svg version="1.1" id="Capa_1" xmlns="http://www.w3.org/2000/svg" xmlns:xlink="http://www.w3.org/1999/xlink" x="0px" y="0px"
	 viewBox="0 0 300 300" style="enable-background:new 0 0 300 300;" xml:space="preserve">
<path d="M27.9,245.6c0.1-12.8,10.3-23,23.1-23c12.7,0,23.1,10.5,23,23.2c-0.1,12.7-10.5,23.1-23.2,23
	C38.1,268.8,27.9,258.4,27.9,245.6z"/>
<path d="M212.6,245.5c0.1-12.7,10.4-22.9,23.3-22.9c12.7,0.1,23,10.6,22.9,23.3c-0.1,12.7-10.6,23-23.3,22.9
	C222.7,268.8,212.5,258.3,212.6,245.5z"/>
<path d="M294.5,188.7c-2-19.6-5.3-39-8.4-58.4c-2.5-15.6-12.6-23.8-28.3-23.8c-79.2,0-158.4,0-237.6,0c-10,0-15.4,5.4-15.4,15.4
	c0,38.4,0,76.8,0,115.2c0,0.9,0,1.9,0,2.8c0.5,7.1,6.6,12.5,13.5,12C15.2,228.6,32,214,47.8,212.6c8.7-0.8,16.7,1.5,23.5,7
	c10.2,8.3,13.9,19.3,12.1,32.2c40.1,0,79.9,0,119.7,0c-1.8-14.2,2.5-25.8,14.3-33.7c11.1-7.4,23-8,34.5-1.2
	c13.2,7.7,18,19.8,16.2,35.1c4.6,0,9.2,0.1,13.8,0c7.4-0.2,12.9-5.7,13.1-13.2c0.1-3.2,0-6.4,0-9.5
	C294.9,215.8,295.8,202.1,294.5,188.7z M70.5,172.8c-17.5,0-34.8,0-52.4,0c-0.1-1.2-0.2-2.2-0.2-3.2c0-13.6,0-27.3,0-40.9
	c0-6.4,2.2-8.5,8.5-8.5c13.6,0,27.2,0,40.8,0c1,0,2,0,3.2,0C70.5,138,70.5,155.3,70.5,172.8z M136.5,172.8c-17.5,0-34.8,0-52.3,0
	c0-17.4,0-34.8,0-52.4c17.4,0,34.7,0,52.3,0C136.5,137.9,136.5,155.3,136.5,172.8z M202.5,172.9c-17.6,0-34.9,0-52.4,0
	c0-17.5,0-34.9,0-52.5c17.4,0,34.8,0,52.4,0C202.5,137.8,202.5,155.2,202.5,172.9z M270.7,192.9c-10.8,0-21.5,0.1-32.3-0.1
	c-1.6,0-3.6-0.9-4.7-2c-5.6-5.3-11-10.8-16.3-16.3c-0.8-0.8-1.5-2.1-1.5-3.1c-0.1-16.7,0-33.4,0-50.2c0-0.2,0.1-0.4,0.3-0.8
	c0.7-0.1,1.5-0.2,2.2-0.2c13.5,0,27,0,40.6,0c7.8,0,12.7,4.3,13.9,12c2.6,16.4,5.2,32.8,7.8,49.2c0.6,3.6,0.7,7.3,1.1,11.5
	C277.7,192.9,274.2,192.9,270.7,192.9z"/>
<path d="M175.9,27.4c-0.5,2.4-1.4,4.6-2.7,6.7c-0.8,1.2-1.6,2.4-2.6,3.5c-2.8,2.9-5.6,5.6-8.4,8.4c-0.4,0.4-0.5,0.7-0.5,1.2
	c0,13.7,0,27.4,0,41.1c0,0.3,0,0.7,0,1c-0.1,0.9-0.7,1.6-1.5,1.8c-0.8,0.2-1.8-0.1-2.2-0.8c-0.2-0.3-0.3-0.6-0.5-0.9
	c-3.5-9-7-18-10.6-27.1c-0.1-0.2-0.1-0.3-0.2-0.6c-0.2,0.1-0.3,0.2-0.4,0.3c-5.6,5.6-11.2,11.2-16.7,16.8c-0.2,0.2-0.4,0.6-0.4,1
	c0,4.9,0,9.9,0,14.8c0,0.2,0.1,0.5-0.1,0.7c-0.1,0.2-0.4,0.5-0.6,0.5c-0.2,0-0.5-0.2-0.7-0.4c-0.2-0.2-0.2-0.5-0.3-0.7
	c-1.6-4.1-3.2-8.2-4.8-12.3c-0.4-1-1-1.1-1.8-0.4c-1,0.9-2.3,0.9-3.2,0c-0.9-0.9-0.8-2.2,0.1-3.2c0.7-0.7,0.5-1.4-0.4-1.8
	c-4.2-1.7-8.4-3.3-12.6-5c-0.2-0.1-0.4-0.1-0.6-0.3c-0.2-0.2-0.4-0.5-0.4-0.7c0-0.2,0.4-0.4,0.6-0.6c0.2-0.1,0.5,0,0.8,0
	c5,0,10,0,14.9,0c0.4,0,0.8-0.1,1-0.4c5.5-5.5,11-11,16.6-16.5c0.1-0.1,0.2-0.2,0.3-0.3c-0.3-0.1-0.5-0.2-0.7-0.3
	c-9-3.6-18-7.1-27-10.7c-0.7-0.3-1.4-0.6-1.6-1.4c-0.4-1.2,0.3-2.5,1.6-2.7c0.4-0.1,0.7-0.1,1.1-0.1c13.7,0,27.4,0,41.1,0
	c0.6,0,1-0.2,1.3-0.6c2.8-2.8,5.6-5.7,8.4-8.4c2.7-2.6,5.9-4.2,9.5-5.1c0.3-0.1,0.6-0.1,1-0.1c1.9-0.1,2.5,0.3,3.2,2
	C175.9,26.3,175.9,26.9,175.9,27.4z"/>
</svg>
