<?xml version="1.0" encoding="utf-8"?>
<!-- Generator: Adobe Illustrator 24.2.1, SVG Export Plug-In . SVG Version: 6.00 Build 0)  -->
<svg version="1.1" id="Capa_1" xmlns="http://www.w3.org/2000/svg" xmlns:xlink="http://www.w3.org/1999/xlink" x="0px" y="0px"
	 viewBox="0 0 473.9 473.9" style="enable-background:new 0 0 473.9 473.9;" xml:space="preserve">
<path d="M249.9,470.4c-9.1,0-18.3,0-27.4,0c-1.2-0.3-2.3-0.7-3.5-0.7c-32.8-2.2-63.8-10.8-92.5-26.7
	C60.6,406.7,20.3,351.4,6.2,277.4c-1.7-8.9-2.5-18-3.7-27c0-9.1,0-18.3,0-27.4c0.3-1.3,0.7-2.6,0.8-3.9C5.6,186.5,14,155.5,30,127.1
	C73,50.5,138.7,8.9,226.4,3.4c37.8-2.4,74.5,4.7,108.4,21.6c83.3,41.4,128.6,109,134.7,201.8c2.8,42.5-6.7,83-27.4,120.2
	c-36.4,65.6-91.7,105.7-165.6,119.7C267.7,468.5,258.8,469.2,249.9,470.4z M433.4,236.8c0-108.7-88.1-197-196.9-197.2
	C127.7,39.4,39.1,127.8,39,236.7c0,108.7,88.1,197,196.9,197.2C344.8,434.1,433.4,345.7,433.4,236.8z"/>
<path d="M218,270.3c0-7.3-0.1-14.6,0-21.9c0.2-10.4,6.4-17.8,16.8-18.6c12-1,22.7-4.6,30.1-14.6c8.9-11.9,10.4-24.9,3.9-38.2
	c-6.8-13.8-18.5-20.9-33.9-20.3c-18.7,0.7-32.4,13.8-34.8,32.3c-0.2,1.7-0.3,3.3-0.4,5c-0.9,10.2-9,17.4-19,17
	c-10-0.4-17.6-8.3-17.4-18.6c0.6-25.7,11.4-46.3,32.9-60.3c24.5-15.9,50.6-17,76-2.5c26.1,14.9,38.3,38.4,36.9,68.4
	c-1.4,29.3-21.9,55.1-50.3,64.2c-3.3,1.1-4.5,2.4-4.4,6c0.3,8,0.2,16.1,0.1,24.2c-0.1,11.2-7.9,19.2-18.3,19.1
	c-10.5-0.1-18-8-18.1-19.3C217.9,284.9,218,277.6,218,270.3z"/>
<path d="M236.7,325.4c12.7,0.3,22.7,10.9,22.3,23.4c-0.4,12.4-10.9,22.3-23.3,21.9c-12.7-0.3-22.7-10.9-22.3-23.4
	C213.9,334.9,224.3,325.1,236.7,325.4z"/>
</svg>
