<?xml version="1.0" encoding="utf-8"?>
<!-- Generator: Adobe Illustrator 24.2.1, SVG Export Plug-In . SVG Version: 6.00 Build 0)  -->
<svg version="1.1" id="Capa_1" xmlns="http://www.w3.org/2000/svg" xmlns:xlink="http://www.w3.org/1999/xlink" x="0px" y="0px"
	 viewBox="0 0 153 153" style="enable-background:new 0 0 153 153;" xml:space="preserve">
<path d="M151.5,30.7c-1.7-10-7.1-17.3-16.6-20.9c-9.8-3.8-19-2-27,4.7c-3.7,3.1-3.7,6-0.3,9.3c9.4,9.4,18.8,18.8,28.2,28.2
	c0.3,0.3,0.7,0.7,1.1,1c2.3,2,5.2,1.9,7.3-0.3c2.6-2.6,4.7-5.7,5.9-9.2c0.7-2.1,1.2-4.3,1.8-6.5c0-1.9,0-3.7,0-5.6
	C151.7,31.2,151.6,30.9,151.5,30.7z M139.7,40.9c-7-7-14-14-21-21c4.1-2.5,12.3-2.5,17.8,3C141.3,27.6,142.8,35.6,139.7,40.9z"/>
<path d="M45.5,15.3C31.5,2,8.5,7.5,2.1,25.7c-0.7,1.9-1,3.9-1.5,5.8c0,1.9,0,3.7,0,5.6c0.1,0.3,0.2,0.5,0.3,0.8
	C1.7,43.4,4,48.1,7.7,52.1c2.8,3,5.8,3.1,8.7,0.2c3.5-3.5,7-7,10.5-10.5c6.1-6.1,12.3-12.2,18.4-18.4C48,20.8,48,17.7,45.5,15.3z
	 M12.7,40.8c-3-4.8-1.7-12.6,2.8-17.5c4.6-4.9,12.6-6.4,18.1-3.5C26.6,26.9,19.6,33.9,12.7,40.8z"/>
<path d="M116.4,122.8c24.4-24.7,21.8-60.9,0.5-82.1c-21.6-21.4-54.8-22.5-77.5-3.6C27.1,47.4,20.1,60.8,18.8,76.8
	c-1.4,17.9,4.7,33.2,17.2,46c-0.4,0.4-0.6,0.7-0.9,1.1c-3.7,4.1-7.4,8.2-11.1,12.3c-1.2,1.4-2.1,2.9-1.7,4.8
	c0.4,2.1,1.6,3.5,3.5,4.2c2.2,0.7,4.1,0.1,5.6-1.6c3.9-4.3,7.8-8.6,11.7-12.9c0.3-0.4,0.7-0.8,1-1c21.5,12.8,42.8,12.8,64.2,0
	c0.8,0.9,1.6,1.8,2.4,2.7c3.4,3.8,6.8,7.6,10.3,11.4c1.5,1.6,3.4,2.2,5.5,1.5c2.1-0.7,3.3-2.2,3.6-4.3c0.3-1.8-0.5-3.3-1.7-4.7
	C124.4,131.7,120.4,127.3,116.4,122.8z M76.3,128.6C50.4,128.7,29,107.4,29,81.5c0.1-26.3,21.2-47.2,47.2-47.2
	c26,0,47.1,21.2,47.2,47.1C123.5,107.3,102.3,128.5,76.3,128.6z"/>
<path d="M78.9,79.7c1.7,0,3.2,0,4.7,0c3.3,0,6.7-0.1,10,0.2C96,80,97.8,82,98,84.4c0.2,2.2-1.1,4.5-3.2,5.3
	c-0.8,0.3-1.7,0.4-2.6,0.4c-6,0-11.9,0-17.9,0c-3.8,0-5.9-2.1-5.9-5.8c0-8.2,0-16.3,0-24.5c0-3.9,3.2-6.3,6.7-5.3
	c2.3,0.7,3.7,2.6,3.7,5.3c0,6,0,12.1,0,18.1C78.9,78.4,78.9,79,78.9,79.7z"/>
</svg>
