<?xml version="1.0" encoding="utf-8"?>
<!-- Generator: Adobe Illustrator 24.2.1, SVG Export Plug-In . SVG Version: 6.00 Build 0)  -->
<svg version="1.1" id="Capa_1" xmlns="http://www.w3.org/2000/svg" xmlns:xlink="http://www.w3.org/1999/xlink" x="0px" y="0px"
	 viewBox="0 0 153 153" style="enable-background:new 0 0 153 153;" xml:space="preserve">
<path d="M1.4,115.8c0.5-0.4,0.8-1,1.4-1.3c4.7-1.9,9.4-3.7,14.1-5.5c1.1-0.4,2.2-0.1,2.8,1.1c0.5,1,0.3,1.9-0.6,2.6
	c-0.3,0.3-0.8,0.4-1.2,0.6c-4.2,1.6-8.5,3.3-12.7,4.9c-1.9,0.7-2.5,0.6-3.8-1C1.4,116.8,1.4,116.3,1.4,115.8z"/>
<path d="M135.4,136.2c0.9,0.3,1.3,0.4,1.8,0.6c4.5,2.2,8.9,4.4,13.4,6.7c0.9,0.5,1.7,1.2,1.5,2.3c-0.2,0.7-0.8,1.5-1.4,1.8
	c-0.5,0.3-1.4,0.1-1.9-0.1c-4.6-2.2-9.1-4.5-13.6-6.8c-1-0.5-1.7-1.4-1.3-2.5C134,137.5,134.9,136.9,135.4,136.2z"/>
<path d="M72,124.6c-0.5,0-1.1,0-1.6,0c-1.3-0.1-2-0.9-2.1-2.1c-0.1-1.2,0.6-2.1,1.7-2.2c1.2-0.2,2.6-0.2,3.8,0
	c1.2,0.2,1.9,1,1.8,2.3c-0.1,1.2-0.8,1.9-2,2C73.1,124.7,72.6,124.6,72,124.6z"/>
<path d="M13.2,133.1c0.6,0,1.2-0.1,1.8,0c1.1,0.2,1.7,0.8,1.8,2c0.1,1.1-0.4,2-1.5,2.2c-1.4,0.2-2.8,0.2-4.2,0
	c-1.1-0.1-1.6-1.1-1.6-2.2c0.1-1.1,0.7-1.9,1.9-2C12,133.1,12.6,133.1,13.2,133.1C13.2,133.1,13.2,133.1,13.2,133.1z"/>
<path d="M108.3,135.2c0.5,0,1.1,0,1.6,0c1.2,0.1,1.9,0.8,2,2c0.1,1.2-0.5,2.1-1.7,2.2c-1.3,0.2-2.6,0.2-3.9,0
	c-1.2-0.2-1.8-1.1-1.7-2.4c0.1-1.2,0.9-1.8,2.1-1.9C107.2,135.1,107.8,135.2,108.3,135.2C108.3,135.2,108.3,135.2,108.3,135.2z"/>
<path d="M78.5,135.8c0.6,0,1.2,0,1.8,0c1.2,0.1,1.9,0.9,1.9,2c0.1,1.1-0.5,2-1.6,2.2c-1.3,0.2-2.7,0.2-4.1,0
	c-1.2-0.1-1.7-1.1-1.6-2.3c0.1-1.2,0.8-1.9,2-2C77.4,135.7,78,135.8,78.5,135.8z"/>
<path d="M46.2,136.4c0.5,0,1,0,1.5,0c1.3,0.1,2,0.8,2.1,2c0.1,1.3-0.6,2.1-1.8,2.3c-1.2,0.2-2.5,0.2-3.7,0c-1.2-0.2-1.9-1-1.8-2.3
	c0.1-1.2,0.8-2,2.1-2C45.1,136.3,45.7,136.4,46.2,136.4z"/>
<path d="M149.4,115.8c-2.3,0.1-4.3,1-6.2,2.3c-2.4,1.7-5,1.7-7.4,0c-4.5-3.2-9-3.2-13.5,0c-1.5,1.1-3.2,1.5-4.9,1.1
	c-1.3-0.3-2.5-1.1-3.6-1.8c-3.3-2-6.9-2.5-10-0.6c-2.7,1.7-4.7,1.4-7-0.2c-0.3-0.2-0.6-0.3-0.9-0.5c-14.8-7.8-30.6-12-47.4-12.1
	c-0.3,0-0.6-0.1-1-0.2c3.7-14.8,7.3-29.5,10.9-44.3c0.4,0.1,0.7,0.1,0.9,0.2c5.8,1.4,11.7,2.9,17.5,4.3c1.5,0.4,2.7-0.2,3-1.6
	c0.3-1.2-0.4-2.3-1.9-2.7c-1.2-0.3-2.4-0.6-3.5-0.9c0.2-5.3,0.5-10.4,0.4-15.5c0-5.2-0.7-10.3-2.3-15.4c9.7,5.1,20.9,25.9,19,35.2
	c-1-0.2-2-0.5-3-0.7c-1.6-0.3-2.7,0.3-3,1.5c-0.3,1.3,0.4,2.3,2,2.7c7.1,1.8,14.3,3.5,21.4,5.3c2,0.5,3.3-0.7,3-2.8
	c-0.5-2.7-0.9-5.5-1.8-8.1C103,41.5,89.3,28.5,69.8,21.3c-0.6-0.2-1.2-0.4-1.9-0.7c0.2-0.7,0.3-1.2,0.4-1.7c0.1-0.6,0.3-1.1,0.4-1.7
	c0.3-1.5-0.4-2.6-1.6-2.9c-1.2-0.3-2.3,0.5-2.7,1.9c-0.3,1.1-0.5,2.2-0.8,3.3c-0.3,0-0.5,0-0.7,0c-10.5-2-20.9-1.1-31.1,2.1
	C19.5,25.6,8.9,32.1,1.4,43.1c0,0.5,0,1,0,1.5c0.8,0.5,1.6,1.3,2.5,1.5c12.6,3.2,25.2,6.3,37.8,9.4c4.1,1,8.2,2,12.3,3
	c-1.1,4.4-2.1,8.7-3.2,12.9c-2.6,10.5-5.2,21-7.7,31.5c-0.3,1.1-0.7,1.4-1.8,1.4c-2.1,0.1-4.1,0.3-6.1,0.6c-2.6,0.4-5.2,0.8-7.8,1.3
	c-1.5,0.3-2.1,1.3-1.9,2.6c0.2,1.2,1.2,1.8,2.7,1.6c0.4-0.1,0.9-0.2,1.3-0.2c4-0.6,7.9-1.2,12.2-1.8c-0.7,2.8-1.3,5.3-1.9,7.7
	c-0.2,1-0.6,1.4-1.6,1.8c-1.2,0.5-2.3,1.2-3.3,2.1c-0.6,0.5-1.1,0.8-2,0.7c-4.6-0.4-8.8,3.7-8.6,8.1c0.1,1.3,0.7,2,1.9,2.2
	c1.3,0.1,2-0.5,2.4-1.7c0.1-0.3,0.1-0.6,0.1-0.9c0.3-2,1.6-3.1,3.7-3.2c0.2,1.3,0.7,2.5,2.3,2.5c1.3,0,1.9-0.7,2.2-2.7
	c0.3-1.9,1.9-3.2,3.7-3.2c1.9,0,3.4,1.3,3.7,3.3c0.2,1.3,0.5,2.4,2.1,2.6c1.3,0.1,2-0.5,2.5-2.4c0-0.1,0.1-0.1,0.2-0.2
	c2.3,0.3,3.3,1.3,3.7,3.7c0.2,1.5,1.1,2.3,2.4,2.2c1.3-0.1,2.1-1.2,2-2.6c-0.2-3.7-2.9-7-6.6-7.4c-2.3-0.2-4.1-0.8-5.8-2.3
	c-0.7-0.6-0.9-1.1-0.7-1.9c0.6-2.2,1.2-4.4,1.6-6.7c0.3-1.3,0.8-1.7,2.1-1.7c14.3,0.2,27.9,3,40.8,9.2c11.9,5.8,23.8,11.8,35.6,17.7
	c0.6,0.3,1.2,0.6,1.8,0.7c1.1,0.2,1.9-0.2,2.4-1.3c0.4-1,0.2-1.8-0.6-2.5c-0.4-0.3-0.8-0.5-1.3-0.7c-4.9-2.4-9.8-4.9-14.7-7.3
	c-2.2-1.1-4.4-2.2-6.7-3.4c2.5-1.1,4.6-0.9,6.6,0.5c4.4,3.1,8.9,3.2,13.4,0.1c2.5-1.8,5.1-1.7,7.6,0c4.4,3.1,8.8,3,13.3,0
	c1-0.7,2.3-1.1,3.5-1.3c1.6-0.3,2.5-1,2.5-2.4C152,116.6,151,115.8,149.4,115.8z M87.7,36.3c9.5,8.2,16.6,18,19.6,30.8
	c-2.3-0.6-4.3-1-6.3-1.5c-1.4-0.4-3.3-0.3-4.1-1.2c-0.8-0.8-0.5-2.7-0.7-4c-1.1-8.3-3.9-16-8.4-23.1c-0.1-0.2-0.2-0.4-0.3-0.6
	C87.5,36.4,87.6,36.4,87.7,36.3z M17.6,44.9c-3.3-0.7-6.6-1.6-10.2-2.4C16,32.4,27,27.1,39.5,24.5c-0.4,0.2-0.7,0.5-1.1,0.7
	C30.3,29.8,23.8,36.1,18.8,44C18.6,44.4,17.9,45,17.6,44.9z M40.4,50.6c-5.9-1.4-11.7-2.9-17.4-4.3c2.8-9.2,22.6-22.5,33.2-22.3
	C48.7,31.7,44.3,40.9,40.4,50.6z M44.6,51.6c1.3-3,2.6-5.9,3.9-8.7c2.6-5.3,5.5-10.3,9.6-14.5c0.9-0.9,1.8-1.8,2.8-2.6
	c3.1-2.3,5.2-1.9,6.6,1.7c1.1,2.8,1.9,5.8,2.4,8.7c1.1,7,0.8,14.1,0,21.1c0,0.1-0.1,0.3-0.2,0.5C61.5,55.8,53.2,53.7,44.6,51.6z"/>
</svg>
