<?xml version="1.0" encoding="utf-8"?>
<!-- Generator: Adobe Illustrator 24.2.1, SVG Export Plug-In . SVG Version: 6.00 Build 0)  -->
<svg version="1.1" id="Capa_1" xmlns="http://www.w3.org/2000/svg" xmlns:xlink="http://www.w3.org/1999/xlink" x="0px" y="0px"
	 viewBox="0 0 153 153" style="enable-background:new 0 0 153 153;" xml:space="preserve">
<path d="M1.2,136.6c0.8-1,1.9-1.3,3.2-1.3c5.3,0,10.7,0,16,0c0.5,0,1.1-0.1,1.4,0.1c0.7,0.5,1.4,1.2,1.6,2c0.3,1-0.4,1.9-1.5,2.2
	c-0.5,0.1-1.1,0.1-1.6,0.1c-5.3,0-10.7,0-16,0c-1.3,0-2.4-0.3-3.2-1.4C1.2,137.8,1.2,137.2,1.2,136.6z"/>
<path d="M90.6,139.7c-19.2,0-38.3,0-57.5,0c-0.6,0-1.3,0-1.9-0.1c-1.2-0.2-1.8-1-1.7-2.2c0-1.1,0.7-1.8,1.8-2
	c0.5-0.1,1.1-0.1,1.6-0.1c38.5,0,76.9,0,115.4,0c0.3,0,0.7,0,1,0c1.5,0.1,2.4,0.9,2.4,2.2c0,1.3-0.9,2.1-2.5,2.2c-0.5,0-1,0-1.5,0
	C128.7,139.7,109.7,139.7,90.6,139.7z"/>
<path d="M55.8,104.9c-4.9,0-9.8,0-14.7,0c-1,0-2-0.2-2.5-1.2c-0.8-1.5,0.2-3.2,2.1-3.2c2-0.1,3.9,0,5.9,0c7.8,0,15.7,0,23.5,0
	c0.4,0,0.8,0,1.2,0c1.4,0.1,2.3,1,2.3,2.2c0,1.2-0.9,2.1-2.3,2.1c-1.7,0-3.3,0-5,0C62.7,104.9,59.2,104.9,55.8,104.9z"/>
<path d="M55.8,113.4c-3,0-6.1,0-9.1,0c-1.8,0-2.8-0.9-2.8-2.3c0-1.3,1-2.1,2.8-2.1c6.1,0,12.2,0,18.3,0c1.8,0,2.9,0.9,2.8,2.3
	c0,1.3-1.1,2.1-2.8,2.2C62,113.4,58.9,113.4,55.8,113.4z"/>
<path d="M21.9,40.5c2.1,1.5,4.5,0.6,7.1,0.1c1.9-0.3,3.6,0.6,4.9,2.1c0.8,1,0.8,2.2,0.1,3.1c-0.8,0.8-2.1,0.9-3.1,0.1
	c-1.7-1.3-2.1-1.3-3.7,0.2c-1.3,1.1-2.7,1.1-3.9,0c-1.6-1.5-2-1.5-3.7-0.2c-1,0.7-2.3,0.7-3.1-0.2c-0.8-0.8-0.8-2.1,0.1-3.1
	C17.8,41.2,19.5,40.6,21.9,40.5z"/>
<path d="M58.1,16.5c0.7,0.3,2,1.1,3.3,1.1c1.3,0,2.6-0.9,3.9-1c1.8-0.2,3.4,0.7,4.7,2c0.9,1,0.9,2.3,0.1,3.2c-0.8,0.8-2,0.9-3,0
	c-1.6-1.2-2.2-1.2-3.6,0.2c-1.3,1.2-2.7,1.2-4,0c-1.5-1.4-2-1.4-3.6-0.2c-1.1,0.8-2.2,0.8-3-0.1c-0.8-0.9-0.8-2.2,0.1-3.2
	C54,17.2,55.6,16.6,58.1,16.5z"/>
<path d="M56,117.4c1.3,0,2.6,0,4,0c1.3,0,2.1,0.7,2.2,2c0.1,1.2-0.7,2.3-2.1,2.3c-2.8,0.1-5.6,0.1-8.3,0c-1.3,0-2.1-1-2.1-2.2
	c0-1.2,0.8-2.1,2.1-2.1C53.2,117.4,54.6,117.4,56,117.4C56,117.4,56,117.4,56,117.4z"/>
<path d="M58.2,58.2c0,0.6,0,1.2-0.1,1.8c-0.2,1.1-1,1.7-2.1,1.7c-1.1,0-2-0.5-2.1-1.6c-0.2-1.2-0.2-2.5,0-3.8c0.1-1.1,1-1.7,2.1-1.7
	c1.1,0,1.9,0.6,2.1,1.7C58.1,57,58.1,57.6,58.2,58.2z"/>
<path d="M28.6,76.4c0,1.8-1.6,2.8-3,2.2c-1-0.4-2.1-0.9-2.9-1.7c-0.5-0.6-0.8-1.7-0.6-2.4c0.2-0.6,1.5-1.5,1.9-1.3
	c1.5,0.6,2.9,1.5,4.2,2.4C28.5,75.7,28.5,76.3,28.6,76.4z"/>
<path d="M90,75.2c0,1.8-1.5,2.1-2.6,2.9c-1,0.6-2,1.1-3.1,0.4c-1.1-0.7-1.5-2.3-0.5-3.2c1.1-0.9,2.4-1.7,3.8-2.1
	C88.8,72.7,90,73.9,90,75.2z"/>
<path d="M41.5,64.2c-0.8,0.9-1.3,1.8-2,1.9c-0.7,0.2-1.8-0.1-2.3-0.6c-0.8-0.8-1.4-1.9-1.7-3c-0.2-0.7,0.1-1.9,0.6-2.3
	c0.5-0.4,2-0.6,2.3-0.3C39.6,61.1,40.4,62.6,41.5,64.2z"/>
<path d="M73.2,66.3c-1.8,0-2.9-1.6-2.3-3.1c0.4-1,0.9-2,1.7-2.7c0.6-0.5,1.7-0.9,2.4-0.7c0.7,0.2,1.5,1.5,1.4,2
	c-0.5,1.5-1.5,2.8-2.3,4.1C73.9,66.2,73.4,66.3,73.2,66.3z"/>
<path d="M148.8,121.2c-0.4,0-0.8,0-1.2,0c-16.5,0-33,0-49.5,0c-0.5,0-1.1,0-1.8,0c2.2-3.4,6.3-5.6,10.2-5.8c1.9-0.1,3.8-0.3,5.7-0.5
	c0.8-0.1,1.4-0.1,2.1,0.5c5.7,5,14.5,2.5,16.8-4.7c0.3-0.9,0.4-1.9,0.7-3.1c2.4,0.1,4.8-0.1,7.1,0.4c3.2,0.7,6.4,1.8,9.5,2.8
	c1.7,0.5,3.2-0.1,3.4-1.7c0.1-1.3-0.6-2-1.7-2.4c-2.9-1.1-5.8-2.1-8.6-3.1c0.5-2.9,1-5.9,1.6-9c2,0,4,0,6,0c0.5,0,1.3,0,1.5-0.3
	c0.5-0.7,1.1-1.5,1.1-2.3c0-1.2-1.1-1.8-2.3-1.8c-2.1,0-4.2,0-6.4,0c-0.2-7.1-1.5-13.8-4.1-20.3c-2.6-6.5-6.2-12.4-10.6-17.9
	c0.5-0.2,0.8-0.3,1-0.3c5.2-1.3,10.3-2.6,15.5-3.9c3-0.8,3.9-3.1,2.2-5.7c-2.7-4-6.4-6.6-11.1-7.5c-1.5-0.3-3-0.4-4.5-0.6
	c1.1-3.5,2.1-6.8,3.1-10.2c0.9-2.9-0.4-4.6-3.4-4.5c-6.3,0.3-11.2,3.1-14.7,8.4c-0.3,0.4-0.6,0.9-0.9,1.4c-0.8-0.6-1.5-1.1-2.3-1.5
	c-1.1-0.6-2.3-0.4-3,0.6c-0.7,1-0.4,2.2,0.5,3c0.8,0.7,1.7,1.3,2.5,2c0.3,0.3,0.5,0.7,0.6,1.1c0.1,1.8,0,3.7,0,5.5
	c-0.1,0.1-0.3,0.2-0.4,0.3c-2.1-1.6-4.3-3.1-6.4-4.7c-1.4-1.1-2.6-2.3-4-3.4c-1.2-0.9-2.5-1.7-3.9-2.5c0.4-0.1,0.7-0.2,1-0.2
	c0.6-0.1,1.3-0.1,1.9-0.2c1.4-0.2,2.3-1.1,2.2-2.4c-0.1-1.2-1.1-2.2-2.4-2c-2.4,0.4-4.9,0.9-7.3,1.5c-1.5,0.4-2.7,1.3-2.6,3.1
	c0,1.7,1.2,2.4,2.6,3c2.2,1,4.3,2.2,6.6,3.4c-0.4,0.3-0.5,0.4-0.6,0.4c-0.4,0.1-0.9,0.2-1.3,0.2c-5.4,1-9.5,3.9-12.2,8.5
	c-1.4,2.3-0.5,4.2,2.1,4.9c0.6,0.2,1.2,0.3,1.9,0.4c2.9,0.7,5.9,1.4,8.9,2.1c-0.2,0.4-0.3,0.6-0.4,0.8c-0.1,0.2-0.2,0.4-0.4,0.6
	c-2.6,5.3-2.7,10.6-0.2,16c1.4,3,3.8,3.4,6.2,1c3.8-3.9,7.5-7.8,11.2-11.6c0.4-0.4,0.6-0.9,0.9-1.4c6.8,10.1,9.2,23.5,7.8,32.5
	c-14.4,0-28.8,0-43.1,0c-2.6-15.2-15-22.5-25.7-22.6c-10.9-0.2-23.7,7.2-26.4,22.7c-0.5,0-1,0-1.6,0c-8,0-16,0-24,0
	c-1.3,0-2.4,0.3-3.1,1.5c0,0.5,0,1,0,1.5c0.7,1.3,1.8,1.5,3.2,1.5c39.3,0,78.7,0,118,0c0.6,0,1.3,0,2.1,0c-0.2,1-0.4,1.9-0.6,2.8
	c-7.8-1.6-15,4.5-13,13.4c-1.2,0.1-2.3,0.2-3.5,0.2c-7,0.2-12.3,3.2-15.8,9.2c-0.5,0.8-1,1.1-1.9,1c-1.6-0.1-3.1,0-4.7,0
	c-1.2,0.1-1.9,0.9-2,2c-0.1,1.1,0.5,2,1.7,2.2c0.4,0.1,0.9,0.1,1.3,0.1c20.9,0,41.7,0,62.6,0c2,0,3-0.8,3.1-2.2
	C151.8,122,150.7,121.2,148.8,121.2z M34.5,90.1c1.1-8.8,9.1-17.7,20.3-18.2c11.3-0.4,21.1,7.5,22.5,18.2
	C63,90.1,48.8,90.1,34.5,90.1z M130.1,24c-1.1,3.7-2.2,7.2-3.3,10.7c-0.1,0.2-0.3,0.5-0.6,0.6c-2.8,1.1-5.2,2.8-7.3,5.1
	C116.5,33.2,122.3,24.6,130.1,24z M92.3,45.9c3.1-5.6,13.8-7.9,19.7-1.5c-3,0.7-5.8,1.9-8.1,3.8c-0.2,0.2-0.6,0.2-0.8,0.1
	C99.5,47.5,95.9,46.7,92.3,45.9z M103.9,65.8c-0.3,0.3-0.6,0.6-1,1c-3.6-8.7,2.9-18.3,12.4-18.3c2.8,0,4.4-1,5.8-3.4
	c4.3-7.5,14.7-8.9,20.8-2.8c0.4,0.4,0.7,0.8,1.2,1.4c-2.8,0.7-5.5,1.4-8.1,2c-4.6,1.1-9.1,2.2-13.7,3.5c-1,0.3-2.1,0.9-2.8,1.6
	C113.6,55.8,108.8,60.8,103.9,65.8z M121.8,56c-0.5-0.8-1.3-1.6,0-2.3c1-0.6,1.8-0.7,2.8,0.4c7.2,8.8,12.2,18.7,13.7,30
	c0.3,2.1,0.4,4.3,0.5,6.4c0.1,0,0.2,0,0.3,0.1c-0.6,3.9-1.2,7.7-1.8,11.6c-0.1,0.8-0.5,1.2-1.4,1c-0.3-0.1-0.6,0-0.9,0
	c-1.4,0-2.9,0.5-4,0c-1-0.5-1.7-2-2.3-3.1c-0.2-0.4-0.3-1-0.2-1.4c1.3-5.5,1.9-11.1,1.5-16.8C129.5,72.6,126.7,64,121.8,56z
	 M121.3,101.5c3.4,0,6.1,2.6,6.1,6c0,3.3-2.7,6.1-6,6.1c-3.3,0-6.1-2.8-6-6.1C115.3,104.2,118,101.6,121.3,101.5z"/>
</svg>
