<?xml version="1.0" encoding="utf-8"?>
<!-- Generator: Adobe Illustrator 24.2.1, SVG Export Plug-In . SVG Version: 6.00 Build 0)  -->
<svg version="1.1" id="Capa_1" xmlns="http://www.w3.org/2000/svg" xmlns:xlink="http://www.w3.org/1999/xlink" x="0px" y="0px"
	 viewBox="0 0 153 153" style="enable-background:new 0 0 153 153;" xml:space="preserve">
<path d="M143.4,91.1c-2.5-2.3-5-4.5-7.4-6.9c-0.4-0.4-0.7-1.2-0.8-1.8c-0.1-3.9-0.1-7.9,0-11.8c0-0.6,0.3-1.3,0.7-1.7
	c2.3-2.2,4.7-4.4,7.1-6.6c4.6-4.2,5.5-9.3,2.3-14.7c-3.1-5.5-6.3-10.9-9.5-16.4c-3-5.1-7.8-7-13.4-5.2c-3.2,1-6.3,2-9.5,3
	c-0.8,0.3-1.4,0.1-2.1-0.3c-3.3-2-6.7-3.9-10.1-5.9c-0.5-0.3-1.1-0.9-1.2-1.5c-0.9-3.6-1.6-7.2-2.5-10.8c-1.2-4.8-5.4-7.9-10.3-8
	c-6.8,0-13.6,0-20.4,0c-5.1,0-9.3,3.4-10.4,8.3c-0.8,3.5-1.5,7-2.4,10.4c-0.1,0.6-0.7,1.2-1.2,1.5c-3.3,2-6.7,3.9-10.1,5.9
	c-0.7,0.4-1.3,0.6-2.1,0.3c-3.3-1.1-6.6-2.1-9.9-3.1c-5.3-1.6-10.1,0.3-12.8,5.1c-3.3,5.7-6.6,11.3-9.8,17c-2.8,4.9-2,10,2.1,13.9
	c2.5,2.3,5.1,4.6,7.5,7c0.4,0.4,0.7,1.2,0.7,1.8c0.1,3.9,0.1,7.8,0,11.7c0,0.6-0.3,1.4-0.7,1.8c-2.5,2.4-5,4.6-7.5,7
	c-4.1,3.8-4.9,9-2.1,13.8c3.3,5.8,6.6,11.5,10,17.3c2.7,4.6,7.5,6.5,12.7,4.9c3.3-1,6.5-2,9.8-3.1c1-0.3,1.6-0.2,2.5,0.4
	c3.2,2,6.5,3.9,9.9,5.7c0.8,0.4,1.2,0.9,1.4,1.8c0.7,3.4,1.5,6.9,2.3,10.3c0.7,2.9,2.2,5.1,4.7,6.6c1.2,0.7,2.6,1.1,3.9,1.7
	c8,0,16,0,24,0c0.1-0.1,0.2-0.2,0.3-0.2c4.7-1.2,7.4-4.2,8.4-8.9c0.7-3.2,1.5-6.4,2.2-9.6c0.2-0.9,0.6-1.3,1.3-1.7
	c3.4-1.9,6.7-3.9,10.1-5.8c0.5-0.3,1.4-0.5,1.9-0.3c3.4,1,6.7,2.1,10.1,3.1c5.2,1.6,10-0.3,12.8-5c3.3-5.7,6.6-11.4,9.9-17.1
	C148.3,100.1,147.5,94.9,143.4,91.1z M137.3,100.8c-3.2,5.4-6.4,10.9-9.5,16.4c-0.6,1.1-1.4,1.4-2.6,1c-4.1-1.3-8.3-2.6-12.4-3.9
	c-2-0.7-3.7-0.4-5.4,1c-3.9,3.2-8.2,5.7-12.9,7.5c-1.9,0.7-3,2.1-3.4,4.1c-0.9,4.2-1.9,8.3-2.8,12.5c-0.3,1.4-0.9,1.9-2.3,1.9
	c-6.3-0.1-12.6,0-18.9,0c-1.4,0-2-0.5-2.3-1.8c-0.9-4.1-1.9-8.3-2.8-12.4c-0.5-2.2-1.6-3.6-3.7-4.4c-4.6-1.7-8.9-4.2-12.7-7.4
	c-1.7-1.4-3.4-1.7-5.5-1c-4.1,1.4-8.2,2.6-12.2,3.9c-1.3,0.4-2,0.1-2.7-1.1c-3.1-5.5-6.3-10.9-9.5-16.4c-0.8-1.3-0.6-2.1,0.5-3.1
	c3.1-2.8,6.1-5.6,9.2-8.4c1.6-1.5,2.3-3.1,2-5.4c-0.7-5-0.7-10.1,0-15.1c0.3-1.8-0.3-3.3-1.6-4.6c-3.2-2.9-6.4-5.9-9.6-8.8
	c-1.1-1-1.3-1.8-0.6-3.1c3.2-5.4,6.3-10.9,9.5-16.4c0.4-0.6,1-1,1.3-1.5c0.8,0.2,1.3,0.4,1.7,0.5c4,1.3,8,2.5,12,3.8
	c2,0.7,3.7,0.4,5.3-0.9c3.9-3.2,8.3-5.8,13.1-7.6c1.9-0.7,3-2.1,3.4-4.1c0.9-4.2,1.9-8.3,2.8-12.5c0.3-1.3,0.9-1.9,2.2-1.9
	c6.4,0,12.7,0,19.1,0c1.4,0,2,0.6,2.2,1.9c0.9,4.2,1.9,8.4,2.8,12.7c0.4,2,1.5,3.3,3.4,4c4.7,1.8,9,4.3,12.9,7.5
	c1.6,1.3,3.3,1.7,5.4,1c4.1-1.4,8.3-2.6,12.4-3.9c1.2-0.4,2-0.1,2.6,1c3.2,5.5,6.3,11,9.5,16.5c0.7,1.2,0.5,2.1-0.5,3
	c-3.2,2.8-6.2,5.8-9.4,8.6c-1.6,1.4-2.1,3.1-1.8,5.2c0.7,4.9,0.7,9.9,0,14.8c-0.3,2.1,0.2,3.7,1.8,5.2c3.1,2.8,6.2,5.7,9.3,8.5
	C137.9,98.6,138.1,99.5,137.3,100.8z"/>
<path d="M76.6,45.6c-17-0.1-30.9,13.8-30.9,30.8c0,17,13.8,30.9,30.8,30.9c16.9,0,30.8-13.9,30.8-30.8
	C107.4,59.6,93.6,45.7,76.6,45.6z M76.5,98.1c-11.9,0-21.6-9.7-21.6-21.6c0-11.9,9.7-21.6,21.6-21.6c11.9,0.1,21.6,9.8,21.5,21.7
	C98,88.4,88.3,98.1,76.5,98.1z"/>
</svg>
