<?xml version="1.0" encoding="utf-8"?>
<!-- Generator: Adobe Illustrator 24.2.1, SVG Export Plug-In . SVG Version: 6.00 Build 0)  -->
<svg version="1.1" id="Capa_1" xmlns="http://www.w3.org/2000/svg" xmlns:xlink="http://www.w3.org/1999/xlink" x="0px" y="0px"
	 viewBox="0 0 473.9 473.9" style="enable-background:new 0 0 473.9 473.9;" xml:space="preserve">
<path d="M453.4,27.9c-9.5-11.2-21.5-16.9-36.2-16.9c-41.1,0-82.2,0-123.3,0c-11.1,0-22.3,0.2-33.4,0c-13.9-0.2-25.5,4.8-35.2,14.4
	c-67.7,67.5-135.3,135-203,202.6c-7.7,7.7-12.3,16.9-14.4,27.4c0,3.9,0,7.7,0,11.6c2.5,14.7,11.7,25,21.8,35.1
	c47.9,47.5,95.6,95.1,143.1,142.9c9.9,9.9,20.2,18.7,34.5,21.1c3.9,0,7.7,0,11.6,0c14.3-2.6,24.5-11.4,34.4-21.3
	c62.9-63,125.9-125.9,189-188.7c9.9-9.9,18.9-20,21.3-34.3c0-57.2,0-114.3,0-171.5C461.6,42.2,458.9,34.4,453.4,27.9z M386.5,204.4
	c-1,1.2-2.1,2.3-3.2,3.4C328.6,262.5,273.9,317.2,219.2,372c-7.5,7.5-16.3,11.4-26.9,10.4c-6.7-0.6-12.8-3.1-17.8-7.7
	c-1.4-1.2-2.7-2.5-4-3.9c-26-26-51.9-52.1-78.1-78c-7.2-7.1-13.5-14.4-14.9-24.8c0-2.3,0-4.5,0-6.8c1.3-5.4,2.7-10.7,6.1-15.3
	c11-14.9,32.6-17.3,46.4-5c4.1,3.7,8,7.8,11.9,11.7c17,17,34,33.9,50.9,50.9c0.8,0.8,1.6,1.5,3.1,3c0.8-1.2,1.4-2.3,2.2-3.2
	c46.9-46.9,93.8-93.9,140.7-140.8c11.3-11.3,27.2-13.5,40.1-5.6C395.3,167.1,398.9,189.9,386.5,204.4z M409.3,84.5
	c-12,0-21.9-9.8-22-21.8c-0.1-12,9.9-22.1,22-22.2c12,0,22.2,10.2,22.1,22.1C431.1,74.6,421.2,84.4,409.3,84.5z"/>
</svg>
