<?xml version="1.0" encoding="utf-8"?>
<!-- Generator: Adobe Illustrator 24.2.1, SVG Export Plug-In . SVG Version: 6.00 Build 0)  -->
<svg version="1.1" id="Capa_1" xmlns="http://www.w3.org/2000/svg" xmlns:xlink="http://www.w3.org/1999/xlink" x="0px" y="0px"
	 viewBox="0 0 153 153" style="enable-background:new 0 0 153 153;" xml:space="preserve">
<path d="M56.9,145.2c14.1,0.4,27.5-8.5,32.7-21.9c1-2.7,2.6-3.6,4.5-2.9c1.8,0.7,2.3,2.5,1.3,5.1c-6.5,16.7-23.1,26.9-40.5,25.7
	c-19.4-1.4-33.7-15.9-36.9-32.7c-4.2-22.1,10-43.1,32-47.3c2.5-0.5,4.2,0.4,4.5,2.4c0.3,1.8-0.8,3.2-2.9,3.6
	c-5.8,1.1-11.1,3.3-15.6,7.2c-10.7,9.2-14.8,21-11.4,34.7c3.3,13.5,12.4,21.9,25.9,25.2C52.7,144.8,54.8,144.9,56.9,145.2z"/>
<path d="M84.6,5.8c-2.7-2.1-5.8-3.1-9-3.8c-1.6,0-3.1,0-4.7,0c-0.3,0.1-0.6,0.2-0.9,0.3C60.3,4,53.6,13.1,54.8,22.9
	c1.1,8.6,7.7,15.1,16.5,16.3c7.9,1,16.1-3.8,19.2-11.5C93.8,19.9,91.4,10.9,84.6,5.8z M73.3,33.1c-6.8,0-12.4-5.6-12.4-12.4
	c0-6.9,5.7-12.6,12.5-12.5c6.9,0.1,12.4,5.7,12.4,12.5C85.7,27.5,80.1,33.1,73.3,33.1z"/>
<path d="M135.5,137c-1.4-9.7-2.9-19.4-4.4-29.1c-1.5-9.2-6.7-15.2-15.6-18c-2-0.6-4.3-0.8-6.5-0.8c-6.5-0.1-13,0-19.5,0
	c-2.3,0-3.6-1.1-3.7-3.1c-0.1-3.6,0-7.2,0-11.2c1.3,1.3,2.3,2.3,3.2,3.3c2.2,2.2,4.7,4.1,7.8,4.3c6.2,0.4,12.5,0.2,18.8,0.3
	c0.1,0,0.2,0,0.3-0.1c4.6-1.1,7.7-5.4,7.2-9.9c-0.5-4.9-4.3-8.4-9.3-8.5c-3.1-0.1-6.1-0.1-9.2,0c-1.4,0-2.4-0.4-3.4-1.4
	c-4.1-4.2-8.3-8.2-12.4-12.4c-3.3-3.3-7.2-4.9-11.8-4.9c-2.1,0-4.3,0-6.4,0c-5.8,0.1-9.7,3.9-9.7,9.7c0,12.3-0.1,24.6,0,36.9
	C61,104.6,70.6,114,83.1,114c5.9,0,11.9,0,17.8,0c3.4,0,4.1,0.6,4.8,3.9c1.7,8,3.4,16.1,5.2,24c1.6,6.6,8.1,10.5,14.8,9.1
	C132.1,149.7,136.5,143.5,135.5,137z M125.1,144.8c-3.7,1.3-7.5-0.9-8.4-5c-1.8-8.1-3.5-16.1-5.2-24.2c-1-4.9-4.5-7.8-9.5-7.8
	c-6.3,0-12.5,0-18.8,0c-8.3-0.1-14.5-5.3-15.9-13.4c-0.2-1-0.2-1.9-0.2-2.9c0-5.8,0-11.6,0-17.4c0-6.2,0-12.3,0-18.5
	c0-2.8,1-3.8,3.9-3.9c2,0,4.1,0,6.1,0c2.9-0.1,5.3,1,7.3,3c4.1,4.2,8.3,8.3,12.5,12.5c2.1,2.2,4.7,3.2,7.7,3.2c2.9,0,5.7,0,8.6,0
	c2.3,0,3.6,1.2,3.6,3.1c0,1.9-1.4,3.1-3.6,3.1c-4.2,0-8.5,0-12.7,0c-2.8,0-5.1-1-7.1-2.9c-2.7-2.7-5.4-5.4-8.1-8.2
	c-1.1-1.1-2.3-1.8-3.9-1.1c-1.5,0.6-1.9,1.9-1.9,3.5c0,5.9,0,11.8,0,17.6c0,5.9,4,9.7,9.9,9.7c6.2,0,12.4,0.2,18.5,0
	c9.3-0.4,16.1,5.8,17.2,14.5c1.2,9.1,2.7,18.1,4.1,27.2C129.8,140.8,128.2,143.7,125.1,144.8z"/>
</svg>
