<?xml version="1.0" encoding="utf-8"?>
<!-- Generator: Adobe Illustrator 24.2.1, SVG Export Plug-In . SVG Version: 6.00 Build 0)  -->
<svg version="1.1" id="Capa_1" xmlns="http://www.w3.org/2000/svg" xmlns:xlink="http://www.w3.org/1999/xlink" x="0px" y="0px"
	 viewBox="0 0 153 153" style="enable-background:new 0 0 153 153;" xml:space="preserve">
<path d="M141.8,57.6c-0.4,0-0.7-0.1-1.2-0.1c0-3.5,0-6.9,0-10.3c-0.1-7.3-4.9-12.3-12-12.3c-14.1-0.1-28.3,0-42.4,0
	c-3.5,0-6.4,1.3-8.7,3.9c-0.3,0.3-0.4,0.8-0.6,1.2c-3.3-3.5-5.8-5-8.9-5c-9.2-0.1-18.4-0.1-27.6,0c-1.4,0-2.3,0.9-2.3,2.1
	c0,1.2,0.9,2.1,2.3,2.2c0.4,0,0.9,0,1.3,0c8.1,0,16.3,0,24.4,0c5.5,0,8.4,2.9,8.4,8.4c0,6.3,0,12.7,0,19c0,0.5-0.1,0.9-0.1,1.7
	c-4.2-4-9.2-4-14.2-3.9c-10,0.1-20.1,0-30.1,0c-0.5,0-1,0-1.5,0c-1.3-5.1-3.7-6.9-8.9-6.9c-0.9,0-1.7,0-2.7,0c0-3.8-0.1-7.3,0-10.9
	c0.1-4.5,3.2-7.4,7.7-7.5c2.2,0,4.5,0,6.7,0c1.4,0,2.2-1,2.2-2.2c0-1.2-0.9-2.1-2.3-2.1c-2.6,0-5.1-0.1-7.7,0
	c-5,0.3-9.2,3.5-10.5,8.4c-0.5,2-0.5,4.2-0.6,6.3c-0.1,2.6,0,5.2,0,8c-1,0-1.9,0-2.8,0c-4.5,0.2-7.6,3.2-7.6,7.7
	c0,7.6-0.1,15.1,0,22.7c0.1,7,4.9,13.1,11.8,14.7c1.4,0.3,2.9,0.4,4.5,0.7c-0.7,2-1.5,4-2.2,6c-1.5,4.6,1.3,8.6,6.1,8.7
	c0.8,0,1.6,0,2.3,0c2.8,0.2,4.8-1,6.4-3.2c2.7-3.6,5.4-7.2,8.2-10.8c0.4-0.5,1.2-0.9,1.8-0.9c23.6,0,47.2,0,70.8-0.1
	c0.9,0,1.4,0.3,1.9,1c2.7,3.7,5.5,7.3,8.2,10.9c2.4,3.1,9,4.2,12.3,2c0,0,0.1-0.1,0.1-0.1c2.6-1.8,3.4-4.7,2.2-8
	c-0.7-1.9-1.4-3.8-2.1-5.8c0.6,0,0.9-0.1,1.2-0.1c4.9-0.2,8.8-2.2,11.9-6c1.7-2.2,2.6-4.7,3.3-7.3c0-8.7,0-17.4,0-26.2
	C149.5,59.1,146.4,57.3,141.8,57.6z M78.7,47.2c0-4.1,2.2-7,5.8-7.8c0.7-0.2,1.5-0.2,2.3-0.2c13.8,0,27.5,0,41.3,0c5,0,8.1,3,8.1,8
	c0,3.2,0,6.5,0,9.7c0,0.1,0,0.3-0.1,0.7c-5.4-0.4-10.1,0.3-11.4,6.9c-0.5,0-1,0-1.5,0c-11.1,0-22.2,0-33.3,0
	c-3.9,0-7.5,0.8-10.5,3.4c-0.1,0.1-0.3,0.2-0.6,0.3c0-0.4-0.1-0.8-0.1-1.1C78.7,60.4,78.7,53.8,78.7,47.2z M28.4,68.9
	c2.5,0,4.9,0,7.4,0c9.4,0,18.9,0,28.3,0c5,0,8.7,2.7,9.9,7.4c0.4,1.7,0.3,3.5,0.5,5.4c-15.5,0-30.7,0-46.1,0
	C28.4,77.4,28.4,73.2,28.4,68.9z M27.2,112.8c-0.4,0.5-1.1,0.8-1.7,0.9c-1.1,0.1-2.2,0.1-3.3,0c-1.5-0.1-2.3-1.2-1.8-2.6
	c0.8-2.4,1.7-4.8,2.7-7.2c0.1-0.3,0.6-0.6,0.9-0.6c3.4,0,6.8,0,10.6,0C31.9,106.6,29.6,109.7,27.2,112.8z M130.6,113.7
	c-0.1,0-0.2,0-0.3,0c-2.7,0.4-4.6-0.5-6.1-2.9c-1.6-2.6-3.6-4.9-5.7-7.6c3.8,0,7.2,0,10.6,0c0.3,0,0.8,0.4,1,0.8
	c0.9,2.2,1.7,4.5,2.5,6.8C133.2,112.5,132.4,113.6,130.6,113.7z M134.7,98.8c-8.9,0-17.7,0-26.6,0c-29.9,0-59.8,0-89.7,0
	c-4.9,0-8.7-1.8-10.8-6.3c-0.7-1.6-1.1-3.4-1.1-5.2c-0.1-7.2-0.1-14.3,0-21.5c0-2.7,1.1-3.8,3.8-3.8c3.2,0,6.5,0,9.7,0
	c2.8,0,3.9,1.1,3.9,3.9c0,5.7,0,11.4,0,17.1c0,2.4,0.7,3.1,3.1,3.1c26.1,0,52.2,0,78.3,0c0.4,0,0.8,0,1.2-0.1c1.1-0.2,1.7-0.9,1.8-2
	c0.1-1.1-0.5-1.9-1.5-2.2c-0.5-0.1-1.1-0.2-1.7-0.2c-8.2,0-16.4,0-24.6,0c-0.5,0-1,0-1.7,0c-0.4-4.3,0.2-8,3.6-10.7
	c1.7-1.3,3.6-2.1,5.8-2.1c12,0,24,0,36,0c0.1,0,0.3,0.1,0.5,0.1c0,4.2,0,8.4,0,12.7c-2.3,0-4.5,0-6.7,0c-0.9,0-1.8,0-2.8,0
	c-1.6,0.1-2.5,0.9-2.4,2.3c0,1.3,0.9,2.1,2.5,2.1c3.7,0,7.5,0,11.2,0c1.9,0,2.7-0.8,2.7-2.8c0-5.8,0-11.5,0-17.3c0-2.9,1.1-4,4-4
	c3.2,0,6.4,0,9.6,0c2.7,0,3.8,1.2,3.8,3.8c0,7.1,0,14.1,0,21.2C146.6,94.1,141.9,98.8,134.7,98.8z"/>
</svg>
