<?xml version="1.0" encoding="utf-8"?>
<!-- Generator: Adobe Illustrator 24.2.1, SVG Export Plug-In . SVG Version: 6.00 Build 0)  -->
<svg version="1.1" id="Capa_1" xmlns="http://www.w3.org/2000/svg" xmlns:xlink="http://www.w3.org/1999/xlink" x="0px" y="0px"
	 viewBox="0 0 473.9 473.9" style="enable-background:new 0 0 473.9 473.9;" xml:space="preserve">
<path d="M302.1,243.6c0,53.8-0.1,107.7,0.1,161.5c0,14.2-5.1,25.4-17.8,32c-12.7,6.6-24.9,4.4-36.5-3.8
	c-42.2-29.7-84.5-59.3-126.8-88.7c-2.4-1.7-5.8-2.8-8.8-2.8c-17.9-0.3-35.8-0.1-53.7-0.1c-29.7-0.1-50.8-21.2-50.9-50.9
	c-0.1-31.5-0.1-63,0-94.6c0.1-29.7,21.2-50.8,50.9-50.8c17.7,0,35.4,0.1,53.1-0.2c3.3-0.1,7-1.2,9.7-3.1
	c42.8-29.7,85.4-59.7,128.1-89.5c18.9-13.2,43.9-5.1,50.7,16.4c1.3,4,1.7,8.4,1.7,12.5C302.2,135.5,302.1,189.5,302.1,243.6z
	 M269.2,79.2c-1,0.5-1.4,0.6-1.6,0.8c-42.1,29.5-84.3,58.9-126.3,88.6c-1.5,1.1-2.6,3.9-2.6,5.8c-0.1,46-0.1,92-0.2,138
	c0,3.3,1.1,5.2,3.7,7c40.9,28.5,81.8,57.2,122.7,85.8c1.3,0.9,2.7,1.7,4.3,2.7C269.2,298.1,269.2,188.9,269.2,79.2z M105.6,178.1
	c-16.3,0-31.9,0-47.6,0c-10.9,0-17.6,6.7-17.6,17.5c0,31.9,0,63.7,0,95.6c0,11.1,6.7,17.7,17.9,17.8c14.5,0,29,0,43.4,0
	c1.3,0,2.6-0.2,3.9-0.4C105.6,265,105.6,221.8,105.6,178.1z"/>
<path d="M369,243.3c-3.5-3.4-6.7-6.5-10-9.8c-11.7-11.7-23.4-23.3-35-35c-7.4-7.4-7.4-16.3-0.4-23.4c7.1-7.1,16-7,23.4,0.3
	c13.8,13.7,27.5,27.4,41.2,41.2c1.2,1.2,2.4,2.3,4.7,4.5c1.9-2.4,3.5-4.9,5.5-6.9c12.8-12.9,25.7-25.8,38.6-38.7
	c7.4-7.4,16.3-7.5,23.4-0.4c7.1,7.1,7.1,16-0.3,23.4c-13.6,13.7-27.2,27.2-40.8,40.8c-1.3,1.3-2.5,2.7-4.3,4.5
	c3.1,3,6.1,5.7,8.9,8.6c12.1,12,24.1,24,36.1,36.1c7.3,7.4,7.4,16.4,0.3,23.4c-7.1,7.1-16,7-23.4-0.3
	c-13.6-13.6-27.2-27.2-40.8-40.8c-1.3-1.3-2.7-2.5-4.4-4.2c-4.2,4.3-8.2,8.4-12.3,12.5c-10.9,11-21.9,22-32.9,32.8
	c-7.1,7-16.1,6.9-23.1,0c-7-7-7.1-15.9,0-23c13.7-13.8,27.4-27.5,41.1-41.2C366.1,246.4,367.3,245.1,369,243.3z"/>
</svg>
