<?xml version="1.0" encoding="utf-8"?>
<!-- Generator: Adobe Illustrator 24.2.1, SVG Export Plug-In . SVG Version: 6.00 Build 0)  -->
<svg version="1.1" id="Capa_1" xmlns="http://www.w3.org/2000/svg" xmlns:xlink="http://www.w3.org/1999/xlink" x="0px" y="0px"
	 viewBox="0 0 153 153" style="enable-background:new 0 0 153 153;" xml:space="preserve">
<path d="M150.9,84.7c0-0.3,0.2-0.5,0.3-0.8c0-3.5,0-7,0-10.5c-0.3-1.1-0.5-2.3-0.8-3.4c-2.5-8.7-10.4-14.7-19.4-14.7
	c-10.5,0-21,0-31.6,0c-0.5,0-1.1,0-2.1,0c0.8-0.5,1.2-0.7,1.7-1c8.4-4.9,14.6-11.5,17.5-21c0.3-1.1,0.6-2.3,0.8-3.4
	c0.3-1.7-0.4-2.9-2-3.6c-3.6-1.5-7.4-2-11.3-1.9c-0.3,0-0.7,0-1,0c-0.1,0-0.2-0.1-0.5-0.2c0-2.7,0.2-5.5-0.1-8.3
	c-0.1-1.8-0.8-3.5-1.3-5.2c-0.6-1.8-1.8-2.4-3.8-2.1c-4.6,0.8-8.6,2.7-12.2,5.6c-0.4,0.3-0.8,0.7-1.2,0.9c-1.5-1.7-2.9-3.4-4.4-4.9
	C77.1,8,75.8,8,73.4,10.3c-1.6,1.5-3,3.3-4.5,5c-3.4-2.9-7.1-5.1-11.5-6.1c-0.7-0.2-1.3-0.3-2-0.4c-1.7-0.3-2.9,0.4-3.6,2
	c-1.6,4.1-2,8.3-1.6,12.6c0,0.3,0.1,0.7,0.1,1c-2.6,0.2-5.1,0.3-7.6,0.7c-1.7,0.3-3.4,0.8-5,1.4c-1.9,0.7-2.4,1.8-2.1,3.8
	c1.3,7.7,5.3,14,11.1,19c2.6,2.2,5.5,4.1,8.3,6.1c-0.4,0-0.9,0-1.4,0c-10.2,0-20.4,0.2-30.5,0C11.3,55,3,63.7,1.8,72.7
	c0,0.2-0.2,0.5-0.2,0.7c0,3.5,0,7,0,10.5c0.2,1,0.4,2,0.7,3c1.3,4.5,3.8,8.2,7.6,11.1c0.2,0.2,0.5,0.3,0.7,0.5
	c0.2,0.2,0.5,0.3,0.8,0.6c-0.2,0.2-0.4,0.4-0.5,0.5c-5,3.4-8,8-9,14c0,0.2-0.2,0.5-0.2,0.7c0,3.5,0,7,0,10.5
	c0.2,0.9,0.4,1.9,0.7,2.8c2.3,8.8,10.4,15.2,19.6,15.2c36.4,0,72.7,0,109.1,0c9.9,0,18.4-7.3,20-17.1c0.1-0.3,0.2-0.6,0.3-1
	c0-3.5,0-7,0-10.5c-0.2-1-0.5-2.1-0.8-3.1c-1.3-4.6-3.9-8.3-7.7-11.1c-0.4-0.3-0.8-0.6-1.3-0.9c0.3-0.3,0.6-0.5,0.9-0.7
	C147.1,95,150,90.5,150.9,84.7z M103.6,30.3c2.4-0.2,4.9,0.3,7.4,0.5C108.3,43,93.7,54.2,79.3,53.1c0-3.2,0-6.3,0-9.4
	c0-0.4,0.3-0.9,0.6-1.2C86.2,35.2,94,30.9,103.6,30.3z M80.1,30.3c3.1-6.7,7.6-11.9,14.5-14.8c0.5-0.2,1-0.3,1.6-0.5
	c1,3.4,0.8,6.7,0.2,10c-0.1,0.3-0.5,0.7-0.8,0.7c-5.7,1.5-10.7,4.3-15.2,8c-0.1,0.1-0.2,0.1-0.3,0.1C79.5,32.6,79.5,31.5,80.1,30.3z
	 M76.3,15.3c1.2,1.6,2.2,3,3.2,4.4c-1.1,1.7-2.1,3.2-3.2,4.8c-1.1-1.6-2.1-3.1-3.2-4.8C74.1,18.3,75.2,16.9,76.3,15.3z M56.4,15.5
	c0-0.2,0.2-0.3,0.3-0.6c6.2,2,10.5,6.1,13.9,11.4c-2,0.6-3,1.9-2.6,4.1c-1.5-0.8-2.7-1.6-4.1-2.1c-2.1-0.9-4.3-1.6-6.4-2.5
	c-0.5-0.2-1.1-0.6-1.2-1C55.8,21.7,55.7,18.6,56.4,15.5z M41.8,31.1c4.5-1.3,8.9-1.1,13.2,0.1c7,1.8,12.9,5.5,17.5,11.1
	c0.5,0.6,0.8,1.5,0.9,2.3c0.1,2.8,0,5.6,0,8.4C61.6,54.6,45,44.8,41.8,31.1z M144.8,113c1,4.3,1,8.8-0.1,13.1
	c-1.5,6.2-7.2,10.6-13.6,10.8c-1.2,0-2.3,0-3.6,0c1.3-2.7,1.8-5.3,1.2-8.2c-1.1-5.2-5.6-9.1-10.9-9.3c-0.6,0-1.3,0-1.9,0
	c-28.3,0-56.6,0-84.9,0c-0.5,0-1.1,0-1.6,0c-1.5-0.1-2.6-1.3-2.7-2.8c-0.1-1.4,1-2.7,2.4-3c0.2,0,0.4,0,0.6-0.1
	c1.8-0.2,2.9-1.5,2.8-3.1c-0.1-1.6-1.5-2.7-3.2-2.7c-4.5,0.1-8.4,4-8.4,8.6c-0.1,4.7,3.6,8.6,8.3,8.9c0.6,0,1.2,0,1.8,0
	c28.6,0,57.2,0,85.7,0c3.5,0,6,2,6.4,5.1c0.4,3.3-2.1,6.3-5.4,6.6c-0.3,0-0.7,0-1,0c-31.4,0-62.8,0-94.2,0
	c-7.2,0-13.1-4.4-14.6-11.1c-1-4.3-1-8.8,0.1-13.2c1.5-6.2,7.2-10.5,13.5-10.7c2.4-0.1,4.8,0,7.2,0c33.8,0,67.6,0,101.4,0
	C137.4,101.9,143.3,106.2,144.8,113z M130.9,96.1c-1.1,0-2.1,0-3.4,0c1.6-3.1,2-6.2,1-9.4c-1.5-4.7-5.9-8.1-10.8-8.1
	c-9.3-0.1-18.5,0-27.8,0c-1.9,0-3.2,1.2-3.2,2.9c0,1.7,1.3,3,3.3,3c9.1,0,18.2,0,27.3,0c2.9,0,5.3,1.9,5.8,4.7
	c0.5,2.5-0.8,5.3-3.3,6.3c-1,0.4-2.2,0.6-3.3,0.6c-25.3,0-50.6,0-76,0c-6,0-12,0-18,0c-8.8,0-15.1-6.3-15.1-15.1
	c0-2.9-0.1-5.9,0.5-8.7c1.4-6.6,7.2-11.1,14-11.2c6.9-0.1,13.8,0,20.7,0c29.2,0,58.3,0,87.5,0c7.3,0,13.4,4.3,14.6,11.1
	c0.7,4.1,0.7,8.6,0,12.7C143.6,91.5,137.6,96,130.9,96.1z"/>
<path d="M46.4,84.4c-5.5,0-11.1,0-16.6,0c-4.3,0-7.9-3.3-8.5-7.6c-0.6-4.1,1.9-8.1,5.9-9.4c0.9-0.3,1.9-0.4,2.9-0.4
	c1.6,0,2.8,1.3,2.8,2.8c0.1,1.4-1,2.7-2.5,3c-0.3,0.1-0.6,0-0.9,0.1c-1.5,0.3-2.5,1.5-2.5,3c0.1,1.5,1.2,2.6,2.7,2.8
	c0.5,0.1,1,0,1.5,0c10.6,0,21.1,0,31.7,0c0.8,0,1.8,0.2,2.5,0.6c1.1,0.7,1.4,1.8,1,3.1c-0.5,1.4-1.5,2.1-3,2.1c-4.7,0-9.4,0-14.2,0
	C48.2,84.4,47.3,84.4,46.4,84.4C46.4,84.4,46.4,84.4,46.4,84.4z"/>
<path d="M76.6,78.6c1.6,0,2.9,1.2,3,2.8c0.1,1.6-1.3,3-2.9,3c-1.6,0-3-1.3-3-2.9C73.8,79.9,75.1,78.6,76.6,78.6z"/>
</svg>
