<?xml version="1.0" encoding="utf-8"?>
<!-- Generator: Adobe Illustrator 24.2.1, SVG Export Plug-In . SVG Version: 6.00 Build 0)  -->
<svg version="1.1" id="Capa_1" xmlns="http://www.w3.org/2000/svg" xmlns:xlink="http://www.w3.org/1999/xlink" x="0px" y="0px"
	 viewBox="0 0 122 122" style="enable-background:new 0 0 122 122;" xml:space="preserve">
<style type="text/css">
	.st0{fill:#FFFFFF;}
</style>
<path class="st0" d="M26.2,56.8c13.6-5.1,22.8-14.3,27.9-27.9c2.4,6.7,5.9,12.3,10.8,17.2c4.8,4.8,10.5,8.3,16.9,10.6
	c-2.7,1.3-5.2,2.5-7.8,3.8c-1.5,0.8-1.9,2.1-1.2,3.3c0.7,1.2,2.1,1.6,3.5,0.8c6.2-3.6,12.9-5.4,20.1-5.5c1.4,0,2.4-1,2.5-2.3
	c0-1.3-1-2.3-2.5-2.4c-1.1-0.1-2.3-0.1-3.4-0.2c-15.1-1.7-26-9.5-32.8-23.1c-2.5-5.1-3.6-10.6-3.7-16.2c0-1.7-0.9-2.8-2.3-2.8
	c-1.5,0-2.4,1.1-2.4,2.9c0,1-0.1,2-0.2,2.9C50,34.8,38.3,48.8,21.9,53.1c-3.3,0.8-6.7,1-10.1,1.4c-1.4,0.2-2.5,1-2.5,2.3
	c0,1.3,1,2.3,2.5,2.4c0.3,0,0.5,0,0.8,0c3.9,0.1,7.7,0.7,11.4,2c16.5,5.5,27.2,20.2,27.6,37.5c0,1.8,1,2.9,2.4,2.8
	c1.4,0,2.2-1.1,2.3-2.8c0.1-1.6,0.1-3.2,0.4-4.8c0.7-5.3,2.4-10.3,5.1-14.9c0.8-1.4,0.4-2.8-0.8-3.4c-1.2-0.6-2.5-0.2-3.3,1.1
	c-0.9,1.7-1.7,3.4-2.6,5.1c-0.4,0.9-0.7,1.8-1.2,2.9C48.9,71.1,39.7,61.9,26.2,56.8z"/>
<path class="st0" d="M68.9,69.2c0-1.3-1.1-2.3-2.3-2.3c-1.3,0-2.4,1.1-2.4,2.4c0,1.3,1.1,2.3,2.3,2.3C67.8,71.6,68.9,70.5,68.9,69.2
	z"/>
<path d="M26.2,56.8C39.7,61.9,48.9,71.1,54,84.7c0.4-1.1,0.8-2,1.2-2.9c0.8-1.7,1.7-3.5,2.6-5.1c0.7-1.4,2.1-1.8,3.3-1.1
	c1.2,0.7,1.6,2.1,0.8,3.4c-2.7,4.6-4.4,9.6-5.1,14.9c-0.2,1.6-0.3,3.2-0.4,4.8c-0.1,1.7-0.9,2.8-2.3,2.8c-1.5,0-2.4-1.1-2.4-2.8
	c-0.4-17.3-11.2-32-27.6-37.5c-3.7-1.2-7.5-1.9-11.4-2c-0.3,0-0.5,0-0.8,0c-1.5-0.1-2.5-1.1-2.5-2.4c0-1.3,1-2.1,2.5-2.3
	c3.4-0.4,6.8-0.5,10.1-1.4C38.3,48.8,50,34.8,51.5,17.9c0.1-1,0.1-2,0.2-2.9c0.1-1.8,0.9-2.9,2.4-2.9c1.4,0,2.3,1.1,2.3,2.8
	c0.1,5.7,1.2,11.1,3.7,16.2c6.7,13.6,17.6,21.3,32.8,23.1c1.1,0.1,2.3,0.1,3.4,0.2c1.5,0.1,2.5,1,2.5,2.4c0,1.3-1,2.3-2.5,2.3
	c-7.2,0.1-13.9,1.9-20.1,5.5c-1.4,0.8-2.8,0.5-3.5-0.8c-0.7-1.2-0.3-2.6,1.2-3.3c2.5-1.3,5.1-2.5,7.8-3.8
	c-6.4-2.3-12.1-5.8-16.9-10.6c-4.8-4.8-8.4-10.5-10.8-17.2C48.9,42.5,39.7,51.7,26.2,56.8z"/>
<path d="M68.9,69.2c0,1.3-1.1,2.4-2.4,2.4c-1.3,0-2.3-1.1-2.3-2.3c0-1.3,1.1-2.4,2.4-2.4C67.8,66.9,68.8,68,68.9,69.2z"/>
<path d="M118.3,89.7c-9.8-0.2-17.9-8.4-18.1-18.3c0-1.8-0.9-2.9-2.4-2.9c-1.4,0-2.3,1.1-2.3,2.8c-0.1,3.9-1.3,7.5-3.6,10.6
	c-3.7,4.9-8.6,7.5-14.8,7.7c-1.9,0.1-3,1.2-2.8,2.7c0.2,1.3,1.2,2,2.8,2c7.7,0.2,14.5,4.9,17.1,12.1c0.8,2.1,0.9,4.5,1.3,6.8
	c0.2,1.3,1.1,2.3,2.3,2.3c1.3,0,2.3-0.9,2.4-2.3c0-0.3,0-0.5,0-0.8c0.3-9.6,8.4-17.8,18.1-18c1.4,0,2.4-0.5,3.1-1.7
	c0-0.5,0-0.9,0-1.4C120.8,90.2,119.7,89.7,118.3,89.7z M97.9,103c-2.5-4.8-6-8.4-10.9-10.9c4.8-2.5,8.4-6,10.9-10.9
	c2.5,4.8,6,8.4,10.9,10.9C103.9,94.6,100.4,98.1,97.9,103z"/>
<path d="M33.4,20.3c-0.5-0.8-1.3-1.1-2.3-1.1c-3-0.1-5.7-1.2-7.8-3.3c-2.3-2.3-3.5-5-3.6-8.3c0-1.1-0.5-2-1.6-2.4
	c-0.9-0.3-1.8-0.2-2.4,0.5C15.2,6.4,15,7.3,14.9,8c-0.3,6-5.2,10.9-11.2,11.1c-1.4,0.1-2.3,0.5-3,1.7c0,0.5,0,0.9,0,1.4
	c0.6,1,1.4,1.6,2.7,1.7c6.3,0.2,11.1,5.1,11.4,11.4c0.1,1.7,1,2.7,2.3,2.7c1.4,0,2.3-1,2.4-2.7c0.1-2.3,0.8-4.5,2.2-6.4
	c2.3-3.2,5.5-4.8,9.4-5C33.3,23.8,34.4,21.9,33.4,20.3z M17.3,26.7c-1.7-1.7-3.5-3.5-5.2-5.2c1.7-1.7,3.5-3.5,5.2-5.2
	c1.7,1.7,3.5,3.5,5.2,5.2C20.8,23.2,19,25,17.3,26.7z"/>
</svg>
