<?xml version="1.0" encoding="utf-8"?>
<!-- Generator: Adobe Illustrator 24.2.1, SVG Export Plug-In . SVG Version: 6.00 Build 0)  -->
<svg version="1.1" id="Capa_1" xmlns="http://www.w3.org/2000/svg" xmlns:xlink="http://www.w3.org/1999/xlink" x="0px" y="0px"
	 viewBox="0 0 153 153" style="enable-background:new 0 0 153 153;" xml:space="preserve">
<path d="M140.2,27.2c-43,0.1-86,0.1-129,0.1C4.6,27.2,1,30.8,1,37.4C1,64.7,1,92,1,119.3c0,6.6,3.6,10.2,10.3,10.2
	c25,0,49.9,0,74.9,0c18.4,0,36.8,0,55.2,0c1.7,0,3.5-0.4,5.1-1.1c2.8-1.2,4.1-3.7,4.9-6.6c0-29,0-58,0-87
	C150.2,29.7,146.4,27.1,140.2,27.2z M141,123.5c-43.3,0-86.7,0-130,0c-3.1,0-4.2-1-4.2-4.1c0-16.2,0-32.3,0-48.5c0-0.5,0-1,0.1-1.6
	c46.2,0,92.1,0,138.2,0c0,0.6,0.1,1.1,0.1,1.6c0,16.1,0,32.2,0,48.3C145.3,122.5,144.3,123.5,141,123.5z M145.3,50
	c0,0.4-0.1,0.9-0.1,1.3c-46.1,0-92.1,0-138.2,0c0-0.5-0.1-0.9-0.1-1.3c0-4.3,0-8.5,0-12.8c0-2.8,1.1-3.9,3.9-3.9
	c43.5,0,87,0,130.5,0c2.8,0,3.9,1.1,3.9,3.9C145.3,41.5,145.3,45.8,145.3,50z"/>
<path d="M47,87.4c8.8,0,17.5,0,26.3,0c2.1,0,3.2,0.7,3.6,2.3c0.4,1.7-0.6,3.3-2.3,3.6c-0.6,0.1-1.2,0.1-1.8,0.1
	c-17.2,0-34.4,0-51.7,0c-0.6,0-1.2,0-1.8-0.1c-1.4-0.2-2.4-1.5-2.5-2.9c0-1.5,1.1-2.7,2.5-2.9c0.6-0.1,1.2-0.1,1.8-0.1
	C29.8,87.4,38.4,87.4,47,87.4z"/>
<path d="M34.9,99.4c4.9,0,9.8,0,14.7,0c2.4,0,3.9,1.9,3.1,4c-0.5,1.4-1.6,2-3,2c-2.1,0-4.1,0-6.2,0c-7.5,0-15.1,0-22.6,0
	c-0.5,0-1.1,0-1.6-0.1c-1.5-0.3-2.5-1.6-2.5-3c0-1.5,1.1-2.7,2.7-2.8c2.3-0.1,4.7-0.1,7-0.1C29.4,99.4,32.1,99.4,34.9,99.4z"/>
</svg>
