<?xml version="1.0" encoding="utf-8"?>
<!-- Generator: Adobe Illustrator 24.2.1, SVG Export Plug-In . SVG Version: 6.00 Build 0)  -->
<svg version="1.1" id="Capa_1" xmlns="http://www.w3.org/2000/svg" xmlns:xlink="http://www.w3.org/1999/xlink" x="0px" y="0px"
	 viewBox="0 0 200 200" style="enable-background:new 0 0 200 200;" xml:space="preserve">
<path d="M198,138.5c-0.2,0.6-0.5,1.2-0.7,1.7c-1.8,5.7-6.9,9.6-12.9,9.7c-0.4,0-0.8,0-1.1,0c-55.6,0-111.3,0-166.9,0
	c-7.7,0-13.4-4.5-14.4-11.8c-0.3-2.3,0.1-4.8,0.6-7.2C7.7,107.8,13,84.7,18.2,61.5c1.6-7,6.8-11.2,14-11.2c7,0,13.9,0,20.9,0
	c2.8,0,4.6,1.4,4.6,3.7c0.1,2.4-1.7,3.9-4.6,3.9c-6.8,0-13.7,0-20.5,0c-3.9,0-6.1,1.7-7,5.5c-5.3,23.7-10.7,47.4-16,71.1
	c-0.9,4.1,1.8,7.6,6,7.7c0.3,0,0.6,0,1,0c55.5,0,111,0,166.5,0c2.6,0,4.9-0.6,6.2-3c0.7-1.3,0.9-2.8,1.4-4.6
	c-1.2-0.1-1.9-0.1-2.5-0.1c-7.5,0-14.9,0-22.4,0c-2.5,0-4.1-1.6-4.1-3.8c0-2.2,1.7-3.8,4.1-3.8c0.4,0,0.9,0,1.3,0
	c6.4,0,12.8,0,19.2,0c0.6,0,1.3,0,2.2,0c-1-4.3-1.9-8.5-2.8-12.7c-3.8-16.7-7.5-33.5-11.3-50.2c-1-4.4-2.9-6.1-7.4-6.1
	c-26.4,0-52.9,0-79.3,0c-0.6,0-1.3,0-1.9,0c-2.2-0.2-3.7-1.8-3.7-3.9c0-2,1.6-3.6,3.6-3.7c0.5,0,1,0,1.5,0c26.6,0,53.1,0,79.7,0
	c8.1,0,13.1,3.9,14.9,11.8c5.4,23.6,10.6,47.3,16,70.9c0.1,0.3,0.2,0.6,0.4,0.8C198,135.4,198,136.9,198,138.5z"/>
<path d="M123.3,100.1c-3.2-4.5-6.5-8.9-9.5-13.3c-0.7-1-1.1-2.4-1-3.5c0.1-1.6,1.3-2.6,2.8-3c1.7-0.4,3,0.3,4,1.6
	c2.4,3.2,4.7,6.5,7.1,9.8c0.4,0.6,0.8,1.1,1.4,1.9c2.4-3.4,4.8-6.6,7.1-9.8c0.4-0.6,0.9-1.3,1.4-1.9c1.4-1.8,3.5-2.1,5.3-0.9
	c1.8,1.2,2.2,3.5,0.9,5.4c-2.2,3.3-4.6,6.4-6.9,9.6c-1,1.4-2.6,2.8-2.7,4.3c0,1.3,1.7,2.7,2.6,4.1c2.2,3.1,4.4,6.1,6.6,9.2
	c1.6,2.2,1.4,4.5-0.5,5.9c-1.9,1.4-4.1,0.8-5.7-1.5c-2.6-3.6-5.2-7.1-7.8-10.7c-0.1-0.1-0.2-0.2-0.4-0.3c-2.4,3.4-4.9,6.7-7.3,10.1
	c-0.4,0.5-0.7,1.1-1.1,1.5c-1.4,1.8-3.5,2.1-5.3,0.9c-1.8-1.3-2.2-3.4-0.9-5.4c2.4-3.5,4.9-6.8,7.4-10.3
	C121.5,102.6,122.3,101.4,123.3,100.1z"/>
<path d="M54.8,87.9c0,6,0,11.8,0,17.5c0,3,0,6,0,9c0,3-1.4,4.7-3.9,4.6c-2.4,0-3.8-1.7-3.8-4.7c0-8,0-16.1,0-24.1c0-0.7,0-1.4,0-2.3
	c-2.3,0-4.5,0-6.6,0c-2.8,0-4.6-1.5-4.6-3.8c0-2.3,1.8-3.9,4.5-3.9c7.1,0,14.2,0,21.3,0c2.6,0,4.4,1.6,4.4,3.8
	c0,2.2-1.7,3.8-4.3,3.8C59.5,87.9,57.2,87.9,54.8,87.9z"/>
<path d="M162.4,99.5c0,5,0,10,0,14.9c0,2.9-1.4,4.5-3.8,4.5c-2.4,0-3.9-1.7-3.9-4.5c0-10,0-19.9,0-29.9c0-2.7,1.6-4.5,3.9-4.5
	c2.3,0,3.7,1.7,3.7,4.4C162.4,89.6,162.4,94.6,162.4,99.5z"/>
<path d="M66.8,54.1c0-2.1,1.7-3.8,3.8-3.8c2.1,0,3.8,1.7,3.8,3.7c0,2.1-1.8,3.9-3.9,3.9C68.5,57.9,66.8,56.2,66.8,54.1z"/>
<path d="M147.3,130.7c0-2.1,1.7-3.8,3.8-3.7c2.1,0,3.8,1.8,3.8,3.8c0,2.1-1.8,3.9-4,3.8C148.9,134.5,147.3,132.8,147.3,130.7z"/>
<path d="M103.3,114.3c-4.2-10.4-8.4-20.8-12.5-31.2c-0.7-1.8-1.9-2.9-3.8-2.9c-1.9,0-3,1.2-3.7,2.9c-4.2,10.4-8.4,20.8-12.5,31.2
	c-0.2,0.6-0.3,1.2-0.4,1.5c0,2.2,1.1,3.7,2.9,4.1c1.7,0.4,3.5-0.4,4.3-2.1c0.9-1.8,1.6-3.8,2.3-5.7c0.4-1,0.8-1.4,1.9-1.4
	c3.5,0.1,7,0.1,10.5,0c1.1,0,1.6,0.4,1.9,1.4c0.6,1.7,1.3,3.3,2,5c0.3,0.7,0.7,1.4,1.2,1.9c1.2,1.2,3.1,1.3,4.6,0.4
	C103.6,118.3,104.1,116.5,103.3,114.3z M83.5,103.1c1.1-2.9,2.2-5.6,3.5-8.7c1.2,3.1,2.3,5.8,3.5,8.7
	C88,103.1,85.9,103.1,83.5,103.1z"/>
</svg>
