<?xml version="1.0" encoding="utf-8"?>
<!-- Generator: Adobe Illustrator 24.2.1, SVG Export Plug-In . SVG Version: 6.00 Build 0)  -->
<svg version="1.1" id="Capa_1" xmlns="http://www.w3.org/2000/svg" xmlns:xlink="http://www.w3.org/1999/xlink" x="0px" y="0px"
	 viewBox="0 0 122 122" style="enable-background:new 0 0 122 122;" xml:space="preserve">
<path d="M62.1,105.3c-9.9-0.1-17.7-2.3-24.9-6.8c-0.6-0.4-1.2-1.1-1.5-1.8c-0.4-0.9,0.1-1.8,0.9-2.3c0.9-0.6,1.8-0.5,2.7,0
	c2.7,1.4,5.3,2.9,8.2,3.9c15.7,5.7,33.2,0.8,43.9-11.9c0.3-0.4,0.6-0.7,0.9-1c0.9-0.9,2.1-0.9,3.1-0.2c1,0.8,1.2,2,0.5,3.1
	c-0.1,0.2-0.3,0.4-0.5,0.6C86.3,99.6,74.7,105,62.1,105.3z"/>
<path d="M60.7,16.3c12.4,0.2,23.1,4.6,31.9,13.4c0.4,0.4,0.8,1,1,1.5c0.4,1-0.1,2.1-1,2.6c-1,0.5-2,0.4-2.8-0.3
	c-1.2-1.1-2.4-2.3-3.7-3.4c-8.5-6.9-18.2-9.8-29.1-8.9c-4.8,0.4-9.4,1.7-13.7,3.8c-0.2,0.1-0.3,0.2-0.5,0.3c-1.4,0.6-2.7,0.2-3.3-1
	c-0.6-1.2-0.1-2.5,1.2-3.1c2.8-1.2,5.7-2.4,8.6-3.3C53,16.7,56.8,16.3,60.7,16.3z"/>
<path d="M32.3,3.2c-0.2-1.1-1.1-2-2.2-2c-1.2,0-2.2,0.8-2.4,2c-0.1,0.4,0,0.8,0,1.2c0,7.7,0,15.4,0,23c0,0.4,0,0.8,0,1.2
	c-1.5,0-2.8,0-4.2,0c0-0.5,0-0.9,0-1.3c0-7.6,0-15.3,0-22.9c0-0.4,0-0.8,0-1.2c-0.2-1.1-1.1-2-2.3-2c-1.2,0-2.2,0.8-2.3,2
	c-0.1,0.4,0,0.8,0,1.2c0,7.6,0,15.3,0,22.9c0,0.4,0,0.8,0,1.3c-1.4,0-2.8,0-4.2,0c0-0.5,0-0.9,0-1.3c0-7.1,0-14.3,0-21.4
	c0-0.8,0-1.6,0-2.3c-0.1-1.3-1-2.3-2.3-2.3c-1.3,0-2.3,1-2.4,2.4c0,0.3,0,0.6,0,0.9c0,7.6,0,15.2,0,22.8c0,0.4,0,0.8,0,1.3
	c-1.5,0-2.8,0-4.2,0c0-2,0-3.9,0-5.9c0-6.3,0-12.6,0-19C5.7,2.4,5,1.6,4,1.3C2.9,1,2,1.4,1.3,2.4C1.2,2.6,1.1,2.7,1,2.8
	c0,10.3,0,20.6,0,31c0.1,0.4,0.2,0.7,0.3,1.1c1,4.3,3.5,7.6,7.4,9.7c0.7,0.4,0.9,0.8,0.9,1.6c0,21.9,0,43.8,0,65.7
	c0,5,1.2,6.8,5.8,8.5c0.8,0,1.6,0,2.3,0c0.5-0.2,1-0.3,1.5-0.5c3-1.4,4.3-3.7,4.3-7c0-22.2,0-44.5,0-66.7c0-0.6-0.1-1.1,0.7-1.5
	c5.3-2.8,8-7.3,8-13.3c0-9,0-18,0-27C32.3,3.9,32.3,3.6,32.3,3.2z M27.3,34.4c-0.9,3.1-2.9,5.3-5.9,6.4c-2.1,0.8-2.4,1.2-2.4,3.4
	c0,22.7,0,45.4,0,68.1c0,2.2-0.8,3.3-2.4,3.3c-1.5,0-2.3-1.1-2.3-3.3c0-22.7,0-45.4,0-68.1c0-2.3-0.2-2.6-2.4-3.5
	c-3.3-1.4-5.3-3.8-6.1-7.5c7.3,0,14.4,0,21.6,0C27.4,33.7,27.4,34.1,27.3,34.4z"/>
<path d="M116.1,2.1C105.1,10.1,99.1,21,98.6,34.6c-0.3,10.5-0.1,21.1-0.1,31.6c0,3.2,1.2,5.9,3.3,8.2c1.2,1.3,2.4,2.5,3.7,3.7
	c0.7,0.6,0.9,1.2,0.9,2.1c0,10.9,0,21.8,0,32.7c0,2.2,0.6,4.1,2.3,5.5c1,0.8,2.4,1.3,3.5,1.9c0.8,0,1.6,0,2.3,0
	c3.1-0.8,5-2.8,5.8-5.8c0-37.3,0-74.5,0-111.8C119.2,0.9,118.1,0.6,116.1,2.1z M115.8,9.8c0,34.2,0,68.4,0,102.6
	c0,2.2-0.8,3.3-2.4,3.3c-1.5,0-2.3-1.1-2.3-3.3c0-11.2,0-22.3,0-33.5c0-1.2-0.3-2.2-1.2-3c-1.5-1.4-2.9-2.8-4.3-4.3
	c-1.6-1.6-2.4-3.5-2.4-5.8c0-10,0-19.9,0-29.9c0.1-10.1,3.7-18.8,10.8-26.1c0.3-0.3,0.6-0.6,0.9-0.9c0.2-0.2,0.4-0.3,0.8-0.7
	C115.8,9,115.8,9.4,115.8,9.8z"/>
<path d="M60.8,27.7c-18.3-0.1-33.2,14.8-33.2,33c0,18.2,14.8,33,33,33.1c18.3,0.1,33.2-14.8,33.2-33C93.9,42.6,79.1,27.8,60.8,27.7z
	 M60.8,89.2c-15.7,0-28.5-12.8-28.5-28.4c0-15.7,12.8-28.4,28.5-28.4c15.6,0,28.4,12.7,28.4,28.4C89.2,76.4,76.4,89.2,60.8,89.2z"/>
<path d="M39.3,60C40,51.4,44.1,45,52,41.3c1.5-0.7,2.8-0.3,3.4,1c0.6,1.3,0.1,2.5-1.4,3.2c-6.4,3.1-9.7,8.2-10,15.3
	c-0.1,1.4-1,2.4-2.3,2.4c-1.3,0-2.3-1.1-2.3-2.5C39.3,60.4,39.3,60.2,39.3,60z"/>
<path d="M58.3,41.7c0-1.3,1-2.4,2.4-2.3c1.3,0,2.4,1.1,2.4,2.4c0,1.3-1,2.2-2.3,2.3C59.4,44,58.4,43,58.3,41.7z"/>
</svg>
