<?xml version="1.0" encoding="utf-8"?>
<!-- Generator: Adobe Illustrator 24.2.1, SVG Export Plug-In . SVG Version: 6.00 Build 0)  -->
<svg version="1.1" id="Capa_1" xmlns="http://www.w3.org/2000/svg" xmlns:xlink="http://www.w3.org/1999/xlink" x="0px" y="0px"
	 viewBox="0 0 122 122" style="enable-background:new 0 0 122 122;" xml:space="preserve">
<path d="M120.8,51.1c-0.6-2.8-3.1-4.4-6-3.9c-8.5,1.7-17.1,2.9-25.8,3.4c-0.8,0-1.2-0.2-1.7-0.7c-1.6-1.8-3.6-3.1-6-3.3
	c-2.4-0.2-4.8-0.2-7.3-0.1c-2.6,0.2-4.7,1.4-6.4,3.3c-0.6,0.6-1.1,0.8-1.9,0.7c-5.7-0.7-11.5-1.2-17.2-2c-9.6-1.4-18.9-4.1-28.3-6.6
	c-0.8-0.2-1-0.5-1-1.3c0-4.6,0-9.2,0-13.8c0-0.8,0.1-1.6,0.3-2.3c1-3.4,4.6-5.6,8.1-4.9c3.5,0.7,6.1,3.8,5.8,7.3c-0.9,0-1.8,0-2.7,0
	C27.3,27,24.7,29,24,32.1c-0.2,1.1-0.2,2.2-0.2,3.3c0,1.8,0.5,2.4,2.4,2.4c5.6,0,11.1,0,16.7,0c3.4,0,3.6-0.2,3.6-3.6
	c0-4.3-2.8-7.1-7.1-7.2c-0.7,0-1.5,0-2.3,0c-0.1-0.5-0.1-0.9-0.2-1.2c-0.3-2.8-1.5-5.2-3.6-7c-3.3-2.8-7.2-3.5-11.2-1.7
	c-4,1.7-6.3,4.9-6.4,9.3c-0.1,4.3,0,8.7-0.1,13.1c0,0.4,0,0.8,0,1.4c-2.8-0.8-5.5-1.5-8.2-2.2c-0.9-0.2-1.8-0.3-2.6-0.2
	c-2.2,0.3-3.4,1.8-4.1,3.8c0,0.7,0,1.4,0,2.1c0.8,2.4,2.5,3.7,5,4c0.5,0.1,1,0.2,1.5,0.4c0.3,0.2,0.7,0.6,0.8,0.9
	c1.1,7.7,2.3,15.3,3.3,23c0.5,3.6,1.1,7.1,3.1,10.1c0.7,1.1,1,2.1,1.1,3.4c0.2,2.3,0.5,4.6,0.8,6.9c-0.5,0.1-0.9,0.2-1.3,0.3
	c-2.6,0.8-4.4,2.4-5,5.1c-0.4,1.7,0.3,2.7,2.1,2.7c3.4,0,6.9,0,10.3,0c1.2,0,1.9-0.5,2.3-1.5c0.9-2.1,1.9-4.1,2.9-6.2
	c0.3-0.6,0.6-0.8,1.3-0.7c5,0.1,10.1,0.2,15.1,0.3c0.2,0,0.5,0,0.6-0.1c0.4-0.5,1.1-1.1,1-1.6c0-0.6-0.7-1.2-1.2-1.6
	c-0.3-0.2-0.8-0.1-1.3-0.1c-3.5,0-7,0-10.6,0c-1.1,0-2.2-0.1-3.3-0.2c-0.1-0.2-0.1-0.3-0.1-0.4c0-0.2,0-0.3,0.1-0.5
	c0.5-3.1,0-6-1.3-8.8c-1.4-2.9-4.5-4-7.4-2.5c-1.3,0.7-2.4,1.8-3.8,2.8c-0.4-1.5-1.1-3.1-1.3-4.7c-0.9-5.8-1.7-11.6-2.6-17.4
	c-0.4-2.6-0.7-5.2-1.1-8c17.5,5,34.9,9.7,53,10.6c0,0.7,0,1.2,0,1.6c0.1,1.3,0.7,2,1.8,2c1,0,1.7-0.7,1.7-2c0-1.6,0-3.1,0-4.7
	c0.1-3.9,2.6-6.9,6.5-7.3c1.9-0.2,3.8-0.2,5.6,0c3.9,0.4,6.4,3.4,6.5,7.2c0,6.2,0,12.5,0,18.7c0,1-0.3,1.3-1.3,1.3
	c-5.3,0-10.6,0-16,0c-1,0-1.4-0.4-1.3-1.4c0.1-2,0-4.1,0-6.1c0-1.4-0.7-2.2-1.7-2.2c-1.1,0-1.8,0.8-1.8,2.2c0,2.1,0,4.2,0,6.4
	c0,3,1.7,4.7,4.7,4.7c5.4,0,10.9,0,16.3,0c3,0,4.6-1.7,4.6-4.7c0-4.7,0-9.5,0-14.2c0-0.4,0-0.8,0-1.2c5.9-0.7,11.7-1.3,17.5-1.9
	c-0.8,6.1-1.5,12-2.3,18c-0.4,0-0.6,0-0.7,0c-3-0.6-5.2,0.5-6.5,3.3c-0.9,2-1.4,4.1-1.3,6.3c0.1,1-0.4,1.4-1.1,1.7
	c-2.5,1.1-5.1,1.6-7.9,1.6c-12,0-24,0-36,0c-1.9,0-2.6,0.5-2.7,1.7c0,1.3,0.8,1.8,2.7,1.8c12,0,24,0,36,0c1.5,0,3-0.1,4.4-0.4
	c1.8-0.4,3.5-1,5.3-1.5c1.3,2.8,2.7,5.7,4,8.6c0.4,1,1.1,1.4,2.2,1.4c3.5,0,7,0,10.4,0c1.8,0,2.5-0.9,2.1-2.7
	c-0.5-2.2-1.8-3.7-3.8-4.6c-0.8-0.3-1.6-0.5-2.5-0.8c0.2-1.8,0.4-3.7,0.7-5.5c0.3-2.1,0.6-4.3-0.7-6.1c-1.5-2.1-1.3-4-0.9-6.3
	c0.9-5.4,1.4-11,2.1-16.4c0.1-0.6,0.2-0.9,0.9-1c1.6-0.2,3.2-0.6,4.7-0.9C119.6,56.4,121.4,53.8,120.8,51.1z M35.9,30.5
	c1.3,0,2.6-0.1,3.9,0c2.1,0.1,3.3,1.5,3.1,3.6c-5.1,0-10.2,0-15.3,0c-0.3-2,0.9-3.5,3.1-3.6C32.3,30.5,34.1,30.5,35.9,30.5z
	 M17.4,96.6c1.9-0.2,2.4-0.8,2.2-2.8c-0.3-2.7-0.7-5.4-1-8.2c-0.2-2.2,0.9-4.3,2.9-5.3c1.3-0.7,2.3-0.4,2.9,0.9
	c1.4,3.1,1.5,6.2,0.2,9.3c-0.9,2.2-1.9,4.3-3,6.4c-0.1,0.3-0.5,0.6-0.7,0.6c-2.2,0-4.4,0-6.6,0c0-0.1,0-0.3-0.1-0.4
	C15.3,97,16.3,96.8,17.4,96.6z M65.1,57c-2.9-0.3-5.7-0.5-8.5-0.8c-14.2-1.5-28-5.4-41.7-9.1c-2.7-0.8-5.5-1.5-8.2-2.2
	c-0.2-0.1-0.4-0.1-0.6-0.2c-0.9-0.3-1.5-0.9-1.1-1.8c0.3-0.9,1-1.2,2-0.9c5.2,1.4,10.3,2.8,15.5,4.2c8.2,2.3,16.5,4.6,25,5.8
	c5.4,0.8,10.8,1.4,16.2,2c0.7,0.1,1.4,0.1,2.1,0.2C65.4,55.1,65.3,56,65.1,57z M109.1,96.7c1,0.1,1.9,0.4,2.8,0.6
	c0,0.1,0,0.3-0.1,0.4c-2.2,0-4.4,0-6.6,0c-0.2,0-0.5-0.2-0.5-0.3c-1.3-3.1-2.8-6.2-3.8-9.4c-0.7-2.1-0.1-4.4,0.9-6.5
	c0.7-1.4,1.7-1.8,3.1-1c2,1.2,3,2.9,2.8,5.3c-0.2,2.6-0.6,5.2-0.9,7.8C106.4,95.9,106.8,96.4,109.1,96.7z M115.9,53.5
	c-8.3,1.7-16.7,2.9-25.2,3.5c-0.2,0-0.3,0-0.5,0c-0.1-0.9-0.3-1.8-0.4-2.6c4.6-0.5,9.1-0.9,13.6-1.6c4-0.6,7.9-1.3,11.9-2
	c1.1-0.2,1.9,0.2,2,1.1C117.4,52.8,116.9,53.3,115.9,53.5z"/>
</svg>
