<?xml version="1.0" encoding="utf-8"?>
<!-- Generator: Adobe Illustrator 24.2.1, SVG Export Plug-In . SVG Version: 6.00 Build 0)  -->
<svg version="1.1" id="Capa_1" xmlns="http://www.w3.org/2000/svg" xmlns:xlink="http://www.w3.org/1999/xlink" x="0px" y="0px"
	 viewBox="0 0 512 512" style="enable-background:new 0 0 512 512;" xml:space="preserve">
<path d="M459,19.7c0-5.3-1.4-9.4-5.9-12.3c-25.9,0-51.8,0-77.7,0c-4.7,2.7-6.1,6.9-6,12.2c0.3,13.2,0.1,26.4,0.1,40
	c-19.7,0-39,0-58.9,0c0-6.5,0-12.9,0-19.3c0-7.1-0.2-14.2,0.1-21.3c0.2-5.2-1.5-9.1-6.2-11.5c-27.2,0-54.4,0-81.6,0
	c-5.2,2.3-6.5,6.6-6.5,11.8c0.1,11.6,0,23.2,0,34.9c0,1.7,0,3.5,0,5.5c-19.6,0-38.8,0-58.7,0c0-2.9,0-5.9,0-8.9
	c0-10.3-0.2-20.7,0.1-31c0.1-5.3-1.4-9.4-5.9-12.3c-25.9,0-51.8,0-77.7,0c-3.7,2.5-5.8,5.7-5.8,10.4c0.1,30.6-0.3,61.2,0.1,91.7
	c0.3,25.3,19,43.3,44.4,43.6c1.9,0,3.8,0,6,0c0,2.5,0.1,4.4,0,6.3c-1,22.1-1.9,44.3-2.9,66.4c-1.4,32.5-2.9,65-4.3,97.5
	c-1.8,41.5-3.6,83.1-5.5,124.6c-0.5,10.4,1.6,20.3,6.3,29.5c8.4,16.6,21.5,26.9,40.5,27c73.6,0.3,147.2,0.1,220.9,0.1
	c9.3,0,18-2.7,25.3-8.5c16.2-12.7,22.3-30,21.5-50c-1-25.1-2.3-50.1-3.4-75.1c-3.1-71.4-6.2-142.9-9.3-214.3c0-1.1,0.2-2.1,0.2-2.8
	c6.3-0.7,12.4-0.7,18.1-2.2c20.3-5.5,32.4-21.8,32.5-43.4C459,78.6,458.9,49.2,459,19.7z M330.5,481c0,1.9,0,3.8,0,6.1
	c-44.6,0-88.7,0-133.5,0c0-1.9,0-3.3,0-4.7c0-38.8-0.1-77.6,0-116.5c0.1-32.9,20.3-59.1,51.4-66.8c39.2-9.7,79.2,19.4,81.6,59.6
	c0.7,12.6,0.4,25.2,0.5,37.8C330.6,424.7,330.5,452.9,330.5,481z M400.1,468.2c-5.8,12.4-14.8,19.7-29.1,19.3
	c-7.6-0.2-15.2,0-23.5,0c0-2.7,0-4.6,0-6.5c-0.1-40.5,0.3-80.9-0.3-121.4c-0.6-38.6-32.3-73.2-70.7-78.4c-45-6-84.4,20.9-94.5,65.1
	c-1.6,7-1.9,14.4-1.9,21.7c-0.2,37.7-0.1,75.4-0.1,113.1c0,1.9,0,3.8,0,5.5c-11.4,0-22.5,1.4-33.2-0.4c-12.4-2-22.7-17.2-22.7-31.6
	c-0.1-15.2,0.7-30.4,1.3-45.6c1.7-40.7,3.6-81.5,5.4-122.2c2-44.3,3.9-88.6,5.9-133.2c84.6,0,169.1,0,254,0c0.4,7,0.8,14,1.1,20.9
	c2.7,62.7,5.4,125.4,8.1,188.2c1.1,25.2,2.3,50.4,3.5,75.6C403.9,448.3,404.7,458.5,400.1,468.2z M441.7,107.7
	c0,17.8-10.5,28.4-28.3,28.4c-99.7,0.1-199.3,0.1-299,0c-17.9,0-28.4-10.6-28.4-28.3c0-26.2,0.1-52.4,0.2-78.6
	c0-1.3,0.1-2.5,0.2-4.1c18.1,0,35.9,0,54.5,0c0,1.8,0,3.5,0,5.2c0,12-0.1,23.9,0,35.9c0,7.7,3.3,11,10.9,11
	c23.8,0.1,47.6,0.1,71.4,0c7.9,0,10.9-3.1,10.9-10.9c0.1-13.6,0-27.1,0-41.2c19.9,0,39.5,0,59.8,0c0,1.7,0,3.4,0,5.2
	c0,12.1-0.1,24.3,0,36.4c0.1,7.2,3.1,10.4,10.4,10.5c24.1,0.1,48.2,0.1,72.3,0c7.2,0,10.5-3.5,10.5-10.9c0.1-13.6,0-27.1,0-41.3
	c18.4,0,36.1,0,54.7,0c0,1.5,0,3.1,0,4.6C441.7,55.6,441.8,81.6,441.7,107.7z"/>
</svg>
