<?xml version="1.0" encoding="utf-8"?>
<!-- Generator: Adobe Illustrator 24.2.1, SVG Export Plug-In . SVG Version: 6.00 Build 0)  -->
<svg version="1.1" id="Capa_1" xmlns="http://www.w3.org/2000/svg" xmlns:xlink="http://www.w3.org/1999/xlink" x="0px" y="0px"
	 viewBox="0 0 122 122" style="enable-background:new 0 0 122 122;" xml:space="preserve">
<path d="M121.3,33.7c0-6.5-4.5-11-11.1-11c-0.9,0-1.9,0-3,0c0-0.4,0-0.8,0-1.2c0-2.8,0-5.7,0-8.5c0-5.9-3.3-9.9-9-11.2
	c-0.1,0-0.2-0.1-0.3-0.2c-24.3,0-48.7,0-73,0c-1.6,0.6-3.3,1.1-4.7,2c-3.1,2-4.6,5-4.7,8.7c-0.1,3.4,0,6.8,0,10.4
	c-0.9,0-1.8,0-2.7,0c-6,0-9.7,2.9-11.2,8.7c0,0.1-0.1,0.3-0.2,0.4c0,6.3,0,12.6,0,19c4.6,0,9.3,0,14,0c0,18.1,0,36.1,0,54.2
	c1.6,0,3.1,0,4.7,0c0,1.9-0.1,3.7,0,5.5c0.1,1.5,0.3,3.1,0.8,4.4c1.7,4.1,5,6.3,9.5,6.5c2.3,0.1,4.5,0.1,6.8-0.2
	c4.9-0.7,8.5-4.9,8.7-9.9c0.1-2.1,0-4.1,0-6.2c10.3,0,20.5,0,30.8,0c0,1.6,0.1,3.2,0,4.7c-0.5,7,5,12.1,11.6,11.6
	c1.8-0.1,3.7,0,5.5-0.2c5-0.8,8.6-5,8.7-10.1c0-2,0-4,0-6.1c1.6,0,3.1,0,4.7,0c0-18.1,0-36.1,0-54.2c4.7,0,9.3,0,14,0
	c0-0.5,0.1-0.9,0.1-1.3C121.3,44.3,121.4,39,121.3,33.7z M15.2,43.7c-2.3,0-4.6,0-7,0c0-1.2,0-2.3,0-3.5c0-2.3,0-4.6,0-6.9
	c0-2.1,1.5-3.6,3.6-3.6c1.1,0,2.2,0,3.4,0C15.2,34.4,15.2,39,15.2,43.7z M38.6,111.5c-0.1,1.6-1.6,2.8-3.3,2.9c-1.6,0-3.3,0-4.9,0
	c-1.7-0.1-3.2-1.3-3.4-3c-0.1-2.1,0-4.2,0-6.3c3.9,0,7.8,0,11.7,0C38.6,107.3,38.8,109.4,38.6,111.5z M70.9,97.9
	c-6.3,0-12.5,0-18.9,0c0-2.4,0-4.6,0-6.9c6.3,0,12.6,0,18.9,0C70.9,93.3,70.9,95.6,70.9,97.9z M95.1,111.7c-0.1,1.6-1.6,2.7-3.3,2.7
	c-1.6,0-3.3,0.1-4.9,0c-1.8-0.1-3.3-1.4-3.4-3.2c-0.1-2,0-4,0-6.1c3.9,0,7.7,0,11.6,0C95.2,107.3,95.3,109.5,95.1,111.7z
	 M100.2,83.9c-4.6,0-9.3,0-14,0c0,2.4,0,4.6,0,7c4.6,0,9.2,0,13.9,0c0,2.4,0,4.7,0,7c-7.4,0-14.7,0-22.2,0c0-4.6,0-9.2,0-13.9
	c-11.1,0-22,0-33.1,0c0,4.6,0,9.2,0,13.8c-7.4,0-14.8,0-22.2,0c0-2.2,0-4.5,0-6.9c4.6,0,9.2,0,14,0c0-2.4,0-4.6,0-7
	c-4.6,0-9.2,0-14,0c0-4.5,0-9,0-13.5c25.8,3.8,51.6,3.8,77.5,0C100.2,74.9,100.2,79.4,100.2,83.9z M100.2,63.4
	c-25.9,3.9-51.7,3.9-77.6,0c0-13.6,0-27,0-40.6c25.8,0,51.7,0,77.6,0C100.2,36.3,100.2,49.8,100.2,63.4z M100.3,15.6
	c-25.9,0-51.7,0-77.6,0c0-1.4-0.2-2.8,0-4.1c0.3-1.7,1.8-2.8,3.5-2.8c0.3,0,0.6,0,0.9,0c22.8,0,45.6,0,68.4,0c3.3,0,4.6,1.3,4.6,4.6
	C100.3,14,100.3,14.8,100.3,15.6z M114.8,43.8c-2.4,0-4.6,0-6.9,0c0-4.7,0-9.3,0-14c1.3,0,2.7-0.1,4,0c1.6,0.2,2.9,1.6,2.9,3.2
	C114.8,36.6,114.8,40.1,114.8,43.8z"/>
</svg>
