<?xml version="1.0" encoding="utf-8"?>
<!-- Generator: Adobe Illustrator 24.2.1, SVG Export Plug-In . SVG Version: 6.00 Build 0)  -->
<svg version="1.1" id="Capa_1" xmlns="http://www.w3.org/2000/svg" xmlns:xlink="http://www.w3.org/1999/xlink" x="0px" y="0px"
	 viewBox="0 0 122 122" style="enable-background:new 0 0 122 122;" xml:space="preserve">
<style type="text/css">
	.st0{fill:#1E1E1E;}
</style>
<path id="XMLID_1988_" class="st0" d="M116.6,18.1H4.8c-1.9,0-3.5,1.6-3.5,3.5v64.2c0,1.9,1.6,3.5,3.5,3.5h43.6v6.4H39
	c-1.9,0-3.5,1.6-3.5,3.5c0,1.9,1.6,3.5,3.5,3.5h43.4c1.9,0,3.5-1.6,3.5-3.5c0-1.9-1.6-3.5-3.5-3.5H73v-6.4h43.6
	c1.9,0,3.5-1.6,3.5-3.5V21.6C120.1,19.6,118.5,18.1,116.6,18.1z M66,95.7H55.4v-6.4H66L66,95.7L66,95.7z M113.1,82.3H8.3V25h104.8
	L113.1,82.3C113.1,82.3,113.1,82.3,113.1,82.3z"/>
</svg>
