<?xml version="1.0" encoding="utf-8"?>
<!-- Generator: Adobe Illustrator 24.2.1, SVG Export Plug-In . SVG Version: 6.00 Build 0)  -->
<svg version="1.1" id="Capa_1" xmlns="http://www.w3.org/2000/svg" xmlns:xlink="http://www.w3.org/1999/xlink" x="0px" y="0px"
	 viewBox="0 0 300 300" style="enable-background:new 0 0 300 300;" xml:space="preserve">
<path d="M291.1,260.8c-5.5-38.3-23.7-69.4-54.2-93.3c-5.8-4.5-12.2-8.3-18.3-12.5c32.3-40.8,22.4-96.1-11.8-125.7
	C173.4,0.5,124-0.6,89.5,27.3C72.4,41.2,61.5,59,57.3,80.5c-5.4,28.2,1.5,53.6,19.4,76.2c-0.8,0.6-1.5,1-2.1,1.5
	C32.3,184.9,9.4,223.2,5.7,273c-0.3,3.9-0.4,8,0.2,11.9c1,6.2,7.2,10.7,13.3,10.3c6.9-0.5,11.9-5.6,12.3-12.8
	c0.3-4.7,0.2-9.4,0.8-14c5.1-41.7,26.6-72.1,63.5-91.9c1.7-0.9,3-0.9,4.7,0.2c14,8.4,29.3,12.7,45.6,12.8c17.8,0.1,34.2-4.6,49.3-14
	c1.3-0.8,2.4-1.4,4.1-0.5c31.1,15.3,51.9,39.3,62.2,72.4c3.3,10.6,4.4,21.5,5,32.5c0.4,7.5,6.6,12.8,13.6,12.4
	c7.3-0.5,12.6-6.2,12.3-13.7C292.3,272.5,292,266.6,291.1,260.8z M149.3,163.3c-36,0.1-65.2-28.9-65.3-64.8
	c-0.1-36.1,29-65.3,65.1-65.4c35.9-0.1,65.2,29,65.3,64.8C214.5,134,185.4,163.2,149.3,163.3z"/>
</svg>
