<?xml version="1.0" encoding="utf-8"?>
<!-- Generator: Adobe Illustrator 24.2.1, SVG Export Plug-In . SVG Version: 6.00 Build 0)  -->
<svg version="1.1" id="Capa_1" xmlns="http://www.w3.org/2000/svg" xmlns:xlink="http://www.w3.org/1999/xlink" x="0px" y="0px"
	 viewBox="0 0 153 153" style="enable-background:new 0 0 153 153;" xml:space="preserve">
<path d="M140.7,6.6c-2.6-2-5.5-2.7-8.7-2.7c-30.4,0-60.9,0-91.3,0c-4.9,0-9.7,0-14.6,0C19.7,4,14.9,7.7,13.4,13.7
	C13,15,13,16.3,13,17.6c0,39.8,0,79.6,0,119.4c0,5.6,2.2,9.9,7.3,12.4c1.3,0.6,2.7,0.9,4,1.3c36.7,0,73.5,0,110.2,0
	c2.4-0.6,4.7-1.3,6.7-3c2.6-2.3,4.1-5.1,4.5-8.5c0.1-0.8,0.1-1.5,0.1-2.3c0-39.7,0-79.5,0-119.2C145.7,13.2,144.3,9.4,140.7,6.6z
	 M132.1,142.3c-35.2,0-70.3,0-105.5,0c-3.6,0-5.2-1.6-5.2-5.1c0-31.2,0-62.4,0-93.6c0-0.5,0-0.9,0.1-1.5c38.6,0,77.1,0,115.7,0
	c0,0.5,0.1,1,0.1,1.5c0,31.2,0,62.3,0,93.5C137.3,140.8,135.7,142.3,132.1,142.3z M137.3,32.6c0,0.8-0.3,1-1,1c-0.3,0-0.7,0-1,0
	c-37.3,0-74.5,0-111.8,0c-0.6,0-1.2,0-2.1,0c0-3.7,0-7.2,0-10.6c0-2.1,0-4.1,0-6.2c0.1-2.6,1.7-4.3,4.3-4.4c0.3,0,0.7,0,1,0
	c35.1,0,70.1,0,105.2,0c0.3,0,0.7,0,1,0c2.6,0.1,4.3,1.6,4.3,4.2C137.3,22,137.2,27.3,137.3,32.6z"/>
<path d="M100.2,27.2c-1.5,0-3,0.1-4.4,0c-2.3-0.1-4-1.9-4-4.2c0-2.3,1.7-4.1,4-4.2c3-0.1,5.9-0.1,8.9,0c2.3,0.1,4,2,4,4.2
	c0,2.2-1.7,4-3.9,4.1C103.3,27.2,101.7,27.2,100.2,27.2C100.2,27.2,100.2,27.2,100.2,27.2z"/>
<path d="M122.8,27.2c-1.5,0-3,0.1-4.4,0c-2.3-0.1-4-1.9-4-4.2c0-2.3,1.7-4.1,4-4.2c3-0.1,5.9-0.1,8.9,0c2.3,0.1,4,2,4,4.2
	c0,2.2-1.7,4-3.9,4.1C125.9,27.2,124.3,27.2,122.8,27.2C122.8,27.2,122.8,27.2,122.8,27.2z"/>
<path d="M79.4,51.2C57,51.1,38.5,69.6,38.4,92c-0.1,22.5,18.2,40.9,40.9,41.1c22.5,0.2,41-18.3,41-41
	C120.3,69.7,101.9,51.3,79.4,51.2z M55.1,70.8c5.8-6.5,13.1-10.3,21.8-11c18.6-1.4,31.9,12.3,34.2,25.5c-2.6,1.4-5,2.6-7.5,3.9
	c-4,2.1-8.1,2.2-12-0.2c-4.2-2.6-8.7-4.2-13.8-3.8c-3.3,0.2-6.3,1.2-9,2.9c-2.8,1.8-5.7,3.1-9,2.5c-1.7-0.3-3.4-0.9-5-1.6
	c-2.4-1.1-4.6-2.4-7.2-3.7C48.8,80,51.3,75.1,55.1,70.8z M83.3,124.4c-18.2,2.3-35.3-11.7-36.2-30c2,1.1,3.8,2.2,5.7,3.1
	c6.3,2.7,12.4,2.4,18.4-0.9c2.1-1.2,4-2.5,6.5-2.8c3-0.3,5.8,0.2,8.3,1.8c3.5,2.3,7.2,3.7,11.4,3.7c3.9,0,7.5-0.8,10.8-2.8
	c1.1-0.7,2.2-1.3,3.4-1.9C111.8,105.4,102.1,122,83.3,124.4z"/>
</svg>
