<?xml version="1.0" encoding="utf-8"?>
<!-- Generator: Adobe Illustrator 24.2.1, SVG Export Plug-In . SVG Version: 6.00 Build 0)  -->
<svg version="1.1" id="Capa_1" xmlns="http://www.w3.org/2000/svg" xmlns:xlink="http://www.w3.org/1999/xlink" x="0px" y="0px"
	 viewBox="0 0 200 200" style="enable-background:new 0 0 200 200;" xml:space="preserve">
<path d="M183.4,30.6c-7.4-1.4-14.3,0.1-21.1,3.2c-16.3,7.7-32.7,15.3-49,23.1c-1.3,0.6-2.3,0.6-3.6,0.1
	c-13.1-5.2-26.3-10.4-39.5-15.5c-6.4-2.5-12.7-5.1-19.3-7c-8.4-2.4-14.5,1.2-16.7,9c-1,3.7-0.5,5.1,2.6,7.3c7.3,5,14.6,10.1,22,15.1
	c4.6,3.2,9.3,6.4,14.1,9.7c-0.4,0.3-0.7,0.5-1.1,0.6c-6.4,3-12.8,6.1-19.3,9.1c-0.8,0.4-1.9,0.4-2.7,0.2
	c-11.1-2.8-22.2-5.6-33.4-8.5c-3.1-0.8-4.2-0.3-5.7,2.5C7.9,84.7,4.9,90,2,95.2c0,0.6,0,1.3,0,1.9c1.1,0.9,2.1,2.2,3.5,2.7
	c7.8,3.4,15.7,6.5,23.5,9.8c0.6,0.2,1.1,0.5,1.8,0.8c-0.3,0.3-0.4,0.3-0.5,0.4c-1.4,0.6-2.8,1.3-4.1,1.9c-2.8,1.3-3.4,2.9-2.1,5.7
	c2.2,4.7,4.4,9.4,6.6,14.1c1.7,3.7,3,4.2,6.7,2.4c18-8.4,35.9-16.8,53.9-25.2c0.7-0.3,1.5-0.7,2.3-1c0.1,0.4,0.2,0.6,0.1,0.7
	c-1,10.6-2,21.2-3,31.8c-0.7,7.1-1.5,14.3-2,21.4c-0.1,1.2,0.4,3,1.3,3.7c5.3,4.3,13,5,17.8-1.5c2-2.7,3.6-6,4.7-9.2
	c7.3-21.3,14.5-42.7,21.7-64.1c0.5-1.6,1.3-2.6,2.9-3.4c14.8-6.8,29.6-13.7,44.3-20.7c5.5-2.6,9.9-6.6,13-11.9
	C200.6,44.9,195.4,33,183.4,30.6z M42.6,46c-0.9-0.6-0.9-1.2-0.6-2.1c1-2.4,3.2-3.7,6.2-3.1c2.1,0.4,4.2,0.9,6.2,1.6
	c15.9,6.1,31.8,12.3,47.6,18.5c0.4,0.2,0.8,0.4,1.6,0.7c-7.5,3.5-14.7,6.9-21.9,10.2c-0.4,0.2-1.2,0-1.7-0.3
	C67.6,63.1,55.2,54.6,42.6,46z M189,50.9c-2.5,5.3-6.8,8.8-12,11.2c-12.7,6-25.5,12-38.2,17.9c-0.2,0.1-0.4,0.1-0.8,0.3
	c0.7-2.2,1.4-4.1,2-6c0.8-2.6,0.1-4.5-2-5.2c-2-0.7-3.7,0.4-4.6,3c-9.1,27.1-18.2,54.3-27.4,81.4c-1,2.8-2.6,5.4-4.3,7.9
	c-0.5,0.8-2,1.3-3.1,1.4c-2.5,0.2-3.1-0.5-2.9-3c1.6-17.1,3.3-34.2,4.9-51.4c0.5-5.6,1.1-11.1,1.6-16.7c0-0.4,0.1-0.9,0.1-1.3
	c0-2.1-1.3-3.7-3.2-3.8c-1.7-0.1-3.3,1.2-3.6,3.3c-0.4,3-0.6,6.1-0.9,9.1c-0.1,1.1-0.5,1.8-1.5,2.3c-18.8,8.7-37.6,17.5-56.4,26.2
	c-0.2,0.1-0.4,0.1-0.8,0.3c-1.6-3.3-3.1-6.7-4.8-10.1c2.9-1.3,5.6-2.6,8.3-3.9c1.7-0.8,3.4-1.6,3.3-3.9c-0.1-2.1-1.7-2.9-3.4-3.6
	c-9-3.7-17.9-7.4-26.9-11.1c-0.6-0.3-1.3-0.6-2.2-1c1.5-2.7,3.2-5.3,4.5-8.1c0.9-2.1,2-2.3,4.1-1.8c10.3,2.7,20.7,5.2,31,7.8
	c1.7,0.4,3.2,0.2,4.8-0.5c36.9-17.3,73.8-34.5,110.8-51.8c5.6-2.6,11.2-3.9,17.3-2.5C189.1,39.1,191.9,45,189,50.9z"/>
</svg>
