<?xml version="1.0" encoding="utf-8"?>
<!-- Generator: Adobe Illustrator 24.2.1, SVG Export Plug-In . SVG Version: 6.00 Build 0)  -->
<svg version="1.1" id="Capa_1" xmlns="http://www.w3.org/2000/svg" xmlns:xlink="http://www.w3.org/1999/xlink" x="0px" y="0px"
	 viewBox="0 0 153 153" style="enable-background:new 0 0 153 153;" xml:space="preserve">
<g>
	<path d="M150,83.2c0-5.4-2.8-9.1-8.1-10.5c-0.1,0-0.3-0.1-0.6-0.2c0-0.4,0-1,0-1.5c0-5,0-10.1,0-15.1c0-9-5.8-15.4-14.7-16.5
		c-0.1,0-0.3-0.1-0.5-0.1c0-3.2,0-6.5,0-9.8c0-6.7-4.2-10.9-10.9-10.9c-8.5,0-17.1,0-25.6,0c-1,0-1.5-0.3-1.8-1.3
		c-0.7-2.1-1.6-4.2-2.2-6.4c-1.3-4.7-4-8-9-9c-1,0-1.9,0-2.9,0C56.5,8.2,39.3,14.4,22.1,20.7c-6.3,2.3-8.8,7.7-6.5,13.9
		c0.6,1.5,1.1,3.1,1.7,4.7c-1,0.2-1.9,0.3-2.7,0.5c-6.4,1.8-10.4,6-11.8,12.6c-0.1,0.3-0.2,0.5-0.3,0.8c0,27.5,0,54.9,0,82.4
		c0.7,2,1.2,4.2,2.3,6c2.9,4.9,7.3,7.4,13,7.8c0.2,0,0.5,0,0.7,0c35.6,0,71.2,0,106.8,0c7.6,0,13.8-4.9,15.6-12.3
		c0.3-1.4,0.4-2.8,0.4-4.3c0.1-5.6,0-11.2,0-16.8c0-0.1,0-0.2,0.1-0.4c0.2-0.1,0.5-0.2,0.7-0.2c4.7-1.2,7.8-5.1,7.8-10
		C150,98,150,90.6,150,83.2z M115,27.3c1,0,1.8,0.3,1.8,1.4c0.1,3.5,0,7.1,0,10.7c-14,0-27.8,0-41.8,0c0-1.1,0-2.1,0-3.1
		c0-2.4,0-4.7,0-7c0-1.3,0.6-1.9,1.9-1.9C89.7,27.3,102.3,27.3,115,27.3z M24.5,28.8C39.9,23.2,55.2,17.6,70.6,12
		c1.1-0.4,2.2-0.9,3.4-1.2c0.6-0.1,1.6,0.2,1.8,0.5c1,2.3,1.8,4.7,2.7,7.1c-1.5,0.1-2.8,0.1-4,0.4c-4.6,1-7.9,4.9-7.9,9.7
		c0,3.5,0,7.1,0,10.8c-0.7,0-1.2,0-1.6,0c-12.4,0-24.9,0-37.3,0c-1.2,0-1.8-0.4-2.1-1.5c-0.7-2.1-1.5-4.1-2.2-6.2
		C22.5,29.9,22.7,29.4,24.5,28.8z M132,133.4c0,4.6-3.1,7.7-7.7,7.7c-35.4,0-70.8,0-106.2,0c-4.7,0-7.7-3-7.7-7.8
		c0-25.8,0-51.6,0-77.3c0-4.6,3-7.7,7.7-7.7c35.4,0,70.9,0,106.3,0c4.6,0,7.6,3,7.6,7.6c0,5.6,0,11.1,0,16.9c-5.2,0-10.2-0.1-15.3,0
		c-2.1,0-4.3,0.2-6.4,0.8c-10,2.7-16.5,12.1-15.8,22.4c0.8,10.2,8.7,18.5,18.9,19.8c1.8,0.2,3.7,0.2,5.6,0.2c4.2,0,8.4,0,12.8,0
		c0,0.4,0.1,0.9,0.1,1.3C132,122.6,132,128,132,133.4z M138.6,107.1c-7.4,0-14.8,0-22.2,0c-7.4,0-13.1-5.8-13.1-13
		c0-7.2,5.8-12.8,13.1-12.9c3.6,0,7.2,0,10.8,0c3.8,0,7.6,0,11.4,0c1.8,0,2.2,0.4,2.2,2.1c0,7.2,0,14.5,0,21.7
		C140.8,106.6,140.3,107.1,138.6,107.1z"/>
	<path d="M116.8,98.4c-2.3,0-4.3-2-4.3-4.3c0-2.4,2-4.3,4.4-4.3c2.3,0.1,4.2,2,4.2,4.4C121.1,96.5,119.1,98.4,116.8,98.4z"/>
</g>
</svg>
