<?xml version="1.0" encoding="utf-8"?>
<!-- Generator: Adobe Illustrator 24.2.1, SVG Export Plug-In . SVG Version: 6.00 Build 0)  -->
<svg version="1.1" id="Capa_1" xmlns="http://www.w3.org/2000/svg" xmlns:xlink="http://www.w3.org/1999/xlink" x="0px" y="0px"
	 viewBox="0 0 153 153" style="enable-background:new 0 0 153 153;" xml:space="preserve">
<path d="M151.2,87.3c-1.8-8.1-7.3-12.6-15.6-12.6c-0.9,0-1.8,0-2.8,0c0-0.6-0.1-1-0.1-1.5c0-4.4,0-8.9,0-13.3c0-0.8,0.4-1.7,0.9-2.3
	c4.9-5.9,7.9-12.7,8.1-20.5c0.2-8.3,0.1-16.5,0.1-24.8c0-0.2-0.1-0.4-0.1-0.6c-2.9,0-5.7,0-8.5,0c-0.1,0.1-0.2,0.2-0.2,0.3
	c-1.1,5.9-4,8.4-10.1,8.4c-22.3,0-44.7,0-67,0c-2,0-4.1,0.1-6.1,0.3c-16.4,2-29.5,16.4-29.9,32.9c-0.1,6.4,0,12.8-0.1,19.2
	c0,0.6,0,1.1,0,1.8c-1.6,0-3,0-4.4,0c-7.3,0.2-13,5.5-14.2,13c-1,6.5,3.1,13.4,9.5,15.9c3,1.2,6.1,1,9.3,1c1.1,0,1.6,0.3,1.9,1.4
	c6.5,20.1,20.1,32.4,40.8,36.9c6,1.3,12.1,0.9,18.1,0.9c6.8,0,13.4-1.3,19.7-4.1c15.1-6.6,25.1-17.8,30-33.6c0.3-1,0.7-1.6,1.9-1.5
	c1.3,0.1,2.5,0,3.8,0c7.3-0.1,13.1-4.7,14.7-11.6c0.1-0.5,0.3-1,0.4-1.5c0-1.3,0-2.5,0-3.8C151.3,87.5,151.2,87.4,151.2,87.3z
	 M19.8,95.9c-1.6-0.1-3.3,0-4.8-0.2c-3.1-0.5-5.2-3.3-5-6.4c0.2-3,2.6-5.5,5.6-5.7c1.3-0.1,2.7,0,4.2,0
	C19.8,87.6,19.8,91.6,19.8,95.9z M123.8,92.9c-0.4,21.4-17.7,39.9-39,41.8c-7.5,0.7-15.1,0.8-22.6-0.9C45.6,130,32,115.6,29.3,98.9
	c-0.4-2.7-0.6-5.4-0.7-8.2c-0.1-6.5,0-13.1,0-19.7c0-0.5,0-1,0-1.6c4.1,0,7.9-0.1,11.7,0c9,0.3,15.1-2.8,20-8.7
	c0.3,0.4,0.6,0.7,0.9,1.1c4.3,4.8,9.7,7.5,16.2,7.6c10.1,0.1,20.2,0.1,30.4,0c5.2,0,10.2-1.2,14.8-3.5c0.3-0.1,0.6-0.2,1-0.4
	c0,0.4,0.1,0.8,0.1,1.1C123.8,75.4,124,84.1,123.8,92.9z M132.1,42.1c-3.1,10.9-12.8,18.5-24.1,18.6c-9.9,0.1-19.8,0-29.6,0
	c-7.5,0-12.9-5-13.5-12.4c0-0.2-0.1-0.4-0.1-0.6c-2.9,0-5.7,0-8.6,0c-0.2,1-0.2,1.9-0.5,2.9c-1.3,5.5-5.7,9.7-11.4,10.1
	c-5.1,0.4-10.2,0.1-15.4,0.1c-2.6-19.7,11.6-31.3,25.1-31.4c22-0.1,44,0,66,0c4.4,0,8.8,0.2,13.1-2.4
	C132.9,32.2,133.5,37.2,132.1,42.1z M137.6,95.6c-1.6,0.2-3.3,0.2-4.9,0.3c0-4.2,0-8.2,0-12.5c1.9,0.1,3.6,0,5.3,0.3
	c2.8,0.6,4.7,3.3,4.6,6.2C142.4,92.7,140.4,95.2,137.6,95.6z"/>
<path d="M58.1,105.3c2.9,0,5.7,0,8.7,0c0.3,3,1.4,5.6,3.9,7.5c1.8,1.3,3.9,2,6.2,1.8c4.8-0.3,8.2-3.9,8.8-9.3c2.8,0,5.7,0,8.7,0
	c-0.2,6.2-2.7,11.2-7.7,14.7c-6.1,4.2-12.5,4.6-19.1,1.2C61.8,118.3,57.9,111.7,58.1,105.3z"/>
<path d="M61.4,90.8c-2.9,0-5.7,0-8.6,0c0-2.9,0-5.7,0-8.7c2.9,0,5.7,0,8.6,0C61.4,85,61.4,87.9,61.4,90.8z"/>
<path d="M99.7,82.1c0,2.9,0,5.7,0,8.6c-2.9,0-5.7,0-8.6,0c0-2.8,0-5.7,0-8.6C93.9,82.1,96.7,82.1,99.7,82.1z"/>
</svg>
