<?xml version="1.0" encoding="utf-8"?>
<!-- Generator: Adobe Illustrator 24.2.1, SVG Export Plug-In . SVG Version: 6.00 Build 0)  -->
<svg version="1.1" id="Capa_1" xmlns="http://www.w3.org/2000/svg" xmlns:xlink="http://www.w3.org/1999/xlink" x="0px" y="0px"
	 viewBox="0 0 122 122" style="enable-background:new 0 0 122 122;" xml:space="preserve">
<path d="M65,47.7c-9.8,0-19.5,0-29.3,0c-2,0-3.2-0.9-3.4-2.5c-0.2-1.4,0.6-2.8,2-3.1c0.6-0.2,1.2-0.2,1.9-0.2c19.2,0,38.3,0,57.5,0
	c0.6,0,1.2,0,1.7,0.2c1.4,0.4,2.3,1.6,2.1,3.1c-0.1,1.4-1.2,2.4-2.6,2.6c-0.4,0-0.9,0-1.3,0C84.1,47.7,74.5,47.7,65,47.7z"/>
<path d="M65.4,20.3c0-2,1.7-3.3,3.8-2.8c1.1,0.3,2.2,0.7,3.2,1.1c4.2,1.8,7.9,4.3,11,7.6c1.4,1.5,1.5,3.2,0.2,4.5
	c-1.3,1.2-3,1.1-4.4-0.4c-3.2-3.4-7-5.8-11.5-7.1C66.2,22.6,65.4,21.6,65.4,20.3z"/>
<path d="M86.5,31.7c1.7,0,2.9,1.2,2.9,2.8c0,1.6-1.3,3-2.9,3c-1.5,0-2.9-1.4-2.9-2.9C83.6,33,84.9,31.7,86.5,31.7z"/>
<path d="M114.7,51.6c-1.6,0-3.3,0-4.7,0C106.6,25.1,92,9.5,65.8,4.5C66,3,65.1,1.9,63.6,1.3c-2.1,0-4.2,0-6.3,0
	C55.9,2,55,3.1,55.2,4.5C29,9.6,14.4,25.2,11,51.6c-1.6,0-3.4,0-5.2,0c-1.6,0-2.8,1.1-2.9,2.6c-0.1,1.5,0.9,2.8,2.4,3.1
	c0.5,0.1,0.9,0.1,1.4,0.1c8,0,15.9,0,23.9,0c0.4,0,1,0.1,1.2,0.4c0.8,0.9,1.5,2,2.3,3C43.4,72,52.6,83.1,62,94.1
	c3.5,4.1,7.3,8,11.6,11.2c0.3,0.2,0.5,0.7,0.6,1.1c0.6,2.7,1.4,5.3,3,7.6c1.3,1.8,2.9,3.3,5.1,3.9c4.1,1.1,8.3,2,12.4,2.9
	c1.6,0.4,3.1-0.6,3.5-2.2c0.4-1.6-0.6-3.2-2.5-3.6c-2.6-0.6-5.3-1.2-8.1-1.9c3.8-5.7,5.7-11.8,5.3-18.7c1.9,0.9,3.6,1.6,5.2,2.4
	c3.9,1.8,7.7,3.6,11.6,5.3c1.1,0.5,2.2,0.5,3.2-0.3c0.9-0.7,1.3-1.7,1.1-2.8c-0.2-1.2-1.1-1.9-2.2-2.4c-5.9-2.7-11.8-5.5-17.7-8.2
	c-0.9-0.4-1.8-0.9-2.7-1.3c1.1-4.2-0.2-7.7-2.5-10.9c-1-1.4-2.1-2.8-3.2-4.2c-0.6-0.7-0.8-1.4-0.5-2.3c1.2-2.9,2.4-5.8,3.7-8.7
	c0.5-1.1,1-2.3,1.5-3.4c-0.1-0.1-0.2-0.2-0.3-0.2c0.5,0,0.9,0,1.4,0c7.8,0,15.5,0,23.3,0c2.1,0,3.4-1.2,3.4-2.9
	C118.1,52.7,116.8,51.6,114.7,51.6z M86,83c0.2,1,0,2.3-0.4,3.3c-1.2,2.9-1,4.6,1.2,6.8c0.2,0.2,0.4,0.6,0.5,0.9
	c0.5,3.7-0.5,9.3-2.4,12.4c-0.9-0.7-1.7-1.4-2.6-2c-7.2-5-13.1-11.2-18.7-17.8c-7.9-9.3-15.8-18.8-23.6-28.2
	c-0.2-0.2-0.4-0.5-0.6-0.8c1.9-0.5,3.1,0.1,4.4,1.4c5,4.9,10.2,9.7,15.4,14.4c0.7,0.6,1,1.3,1.1,2.2c0.1,2.1,1.3,3.3,3.1,3.2
	c1.7-0.1,2.9-1.5,2.7-3.5c-0.3-3.5-1.5-6.7-2.7-9.9c-0.9-2.3-1.9-4.5-2.8-6.7c-0.2-0.4-0.3-0.8-0.5-1.2c0.2,0,0.2-0.1,0.3-0.1
	c1.5-0.2,2.4,0.1,3.1,1.7c1.1,2.6,2.6,5,3.9,7.6c0.9,1.8,2.2,3.3,3.7,4.6c1.7,1.5,3.3,3.2,4.9,4.8c1.2,1.3,1.7,2.9,1.6,4.7
	c-0.1,2.6-0.3,5.1-0.5,7.7c-0.2,2,0.6,3.4,2.3,3.7c1.7,0.3,3-0.7,3.4-2.7c0.7-3.5,0.9-7,0.5-10.6c0-0.2,0-0.4,0-0.9
	C84.4,79.7,85.7,81.2,86,83z M49.7,57.5c1.4,0,2.7,0,3.7,0c0.5,1.5,1,3,1.6,4.8C53.2,60.6,51.5,59.1,49.7,57.5z M71.2,57.5
	c2.1,0,4.1,0,6.2,0c-1.1,1.9-2.1,3.6-3.2,5.6C73.1,61.2,72.2,59.4,71.2,57.5z M82.1,64.1c-0.8,2.2-1.3,4.5-1.9,6.8
	c-0.8-0.7-1.8-1.6-2.7-2.5c-0.2-0.2-0.1-0.7,0.1-1c1.2-2.2,2.4-4.3,3.6-6.4c0.5-1,0.8-2.1,1.3-3.4c0.7,0,1.7,0,2.8,0
	C84.2,59.7,83,61.8,82.1,64.1z M17.2,51.5c0.1-1.3,0.2-2.5,0.4-3.8c2.6,0,5,0,7.5,0c1.5,0,2.5-0.7,2.9-1.9c0.7-2-0.7-3.9-2.9-3.9
	c-2-0.1-4.1,0-6.1,0C23.2,25,40.7,8.7,63.7,10.4c24.4,1.8,39.6,22.4,40,41C74.9,51.5,46.1,51.5,17.2,51.5z"/>
</svg>
