<?xml version="1.0" encoding="utf-8"?>
<!-- Generator: Adobe Illustrator 24.2.1, SVG Export Plug-In . SVG Version: 6.00 Build 0)  -->
<svg version="1.1" id="Capa_1" xmlns="http://www.w3.org/2000/svg" xmlns:xlink="http://www.w3.org/1999/xlink" x="0px" y="0px"
	 viewBox="0 0 153 153" style="enable-background:new 0 0 153 153;" xml:space="preserve">
<path d="M134.1,84.4c-4.9-9.2-9.9-18.3-14.9-27.4c-0.7-1.3-1.9-2.5-3.2-3.2c-8.5-5-17.1-9.8-25.7-14.7c-0.6-0.3-1.1-0.7-1.7-1.1
	c10.6-8.6,9.8-21.8,2.9-29.3c-7.4-7.9-19.7-8.6-27.7-1.4c-3.9,3.5-6.1,7.8-6.5,13c-0.6,7.3,2.3,13.1,7.9,17.6
	c-6.7,7.7-13.4,15.2-20,22.8c-0.9,1.1-1.9,1.4-3.2,1.3c-4.9-0.5-9.8-0.9-14.7-1.4c-3.3-0.3-4.5,0.4-5.4,3.5
	c-1.2,3.9-2.4,7.9-3.6,11.8c-1.1,3.6,0.2,5.6,4,5.9c8.7,0.8,17.4,1.4,26.1,2.4c3.3,0.4,5.5-0.5,7.7-2.9c2.3-2.6,5-4.8,7.6-7.1
	c0,3.4,0.1,7,0,10.6c0,0.7-0.5,1.5-1,2c-4.7,5-9.4,9.8-14,14.8c-0.8,0.8-1.5,1.9-1.8,3c-3.6,12.5-7.1,25-10.7,37.6
	c-0.8,2.9,0.2,4.7,3.2,5.5c3.7,1,7.4,1.9,11.1,2.8c3.2,0.8,4.6,0.1,5.8-2.9c4.1-10.3,8.3-20.6,12.3-30.9c1.2-3.3,3.6-5.4,6-7.9
	c2.8,6.3,5.4,12.4,8.2,18.5c0.5,1.2,1.4,2.4,2.4,3.2c7.8,6.4,15.7,12.6,23.5,18.9c2.3,1.8,4,1.8,6.1-0.2c2.9-2.7,5.7-5.4,8.6-8.1
	c2.8-2.6,2.8-4.6,0-7.2c-6.5-5.9-13-11.9-19.5-17.9c-0.7-0.7-1.4-1.6-1.7-2.6c-1.3-3.8-2.2-7.7-3.8-11.4c-4.1-10-5.8-20.4-4.9-31.2
	c0.1-0.9,0-1.8,0-3.1c2.9,1.8,5.4,3.2,7.8,4.8c1,0.7,1.9,1.6,2.5,2.6c3.7,6.6,7.4,13.2,11,19.8c1.6,2.8,3.3,3.3,6.2,1.9
	c3.7-1.9,7.3-3.8,11-5.6C135.3,89.4,135.8,87.6,134.1,84.4z M64.3,22c0-6.8,5.4-12.2,12.2-12.2c6.8,0,12.3,5.5,12.2,12.2
	c0,6.7-5.6,12.2-12.3,12.2C69.7,34.2,64.3,28.7,64.3,22z M100.2,124.2c4.5,3.6,8.6,7.8,12.9,11.7c0.5,0.5,1,0.9,1.5,1.5
	c-1.6,1.5-3.1,2.9-4.7,4.4c-0.7-0.6-1.5-1.1-2.2-1.7c-6.2-5-12.4-9.9-18.5-14.9c-0.6-0.5-1.2-1.3-1.6-2c-2.5-5.4-4.9-10.9-7.3-16.4
	c-0.4-1-0.4-1.7,0.3-2.5c2.1-2.8,4.1-5.6,6.4-8.8c1.8,5.6,3.8,10.7,5.1,16C93.5,116.7,96,120.8,100.2,124.2z M120.4,88.8
	c-0.4-0.6-0.7-1.1-1-1.7c-3.2-5.8-6.4-11.6-9.7-17.3c-0.6-1-1.5-2-2.5-2.7c-4.8-3.1-9.7-6.1-14.6-9.1c-3.4-2.1-6.3-0.5-6.3,3.5
	c0,7.4-0.1,14.7,0,22.1c0,1.5-0.5,2.5-1.5,3.6c-6.7,6.9-13.3,13.8-19.8,20.7c-0.9,0.9-1.6,2.1-2.1,3.3c-3.9,9.8-7.8,19.6-11.7,29.3
	c-0.2,0.6-0.5,1.2-0.9,2c-1.9-0.5-3.8-0.9-5.8-1.5c1.1-3.9,2.2-7.7,3.3-11.5c2-7.1,4-14.2,6-21.2c0.3-1,0.9-2.1,1.6-2.8
	c4.7-5,9.4-10,14.2-14.9c1.3-1.3,1.8-2.7,1.8-4.5c-0.1-6.9,0-13.9,0-20.8c0-2-0.4-3.7-2.5-4.6c-2-0.8-3.4,0.2-4.8,1.6
	c-4.2,4.4-8.5,8.8-12.8,13.2c-0.8,0.8-1.6,1.2-2.8,1.1c-7.2-0.7-14.4-1.4-21.9-2c0.6-1.9,1.1-3.8,1.7-5.6c0.1-0.4,1.1-0.7,1.6-0.7
	c4.8,0.3,9.6,0.7,14.4,1.2c2,0.2,3.5-0.4,4.8-1.9c6.2-7.2,12.5-14.2,18.8-21.4c0.8-1,1.7-1.4,3-1.4c4.4,0.1,8.8,0,13.1,0.1
	c1,0,2,0.2,2.8,0.7c8.3,4.7,16.5,9.4,24.7,14.1c0.6,0.3,1.1,0.8,1.5,1.4c4.4,8,8.7,16,13,24c0.1,0.1,0,0.2,0.1,0.6
	C124.4,86.7,122.4,87.7,120.4,88.8z"/>
</svg>
