<?xml version="1.0" encoding="utf-8"?>
<!-- Generator: Adobe Illustrator 24.2.1, SVG Export Plug-In . SVG Version: 6.00 Build 0)  -->
<svg version="1.1" id="Capa_1" xmlns="http://www.w3.org/2000/svg" xmlns:xlink="http://www.w3.org/1999/xlink" x="0px" y="0px"
	 viewBox="0 0 122 122" style="enable-background:new 0 0 122 122;" xml:space="preserve">
<path d="M72.2,78c-0.7-5.1-4.3-8.7-9.5-9.5c-5.1-0.8-10.1,2-12,6.7c-2,4.9-0.4,10.5,3.7,13.4c1,0.7,2.4,1.1,2.8,2.1
	c0.5,1,0.1,2.4,0.1,3.7c0,0.1,0,0.2,0,0.4c0,1.1,0,2.2,0,3.4c0,2.5,1.4,4,3.7,4c2.3,0,3.7-1.5,3.7-4c0-2.4,0-4.7,0-7.1
	c0-0.6,0.2-0.9,0.8-1.2C70.4,87.6,72.9,83,72.2,78z M61,83.3c-2.2,0-3.7-1.5-3.7-3.8c0-2.2,1.6-3.7,3.8-3.7c2.2,0,3.7,1.6,3.7,3.8
	C64.8,81.9,63.3,83.3,61,83.3z"/>
<path d="M106.1,61.2c-0.1-5.5-3.2-9.8-8.2-11.1c-0.9-0.2-1.9-0.3-3-0.5c0-0.5,0-0.9,0-1.4c0-4.3,0-8.5,0-12.8
	c0-3.7-0.4-7.3-1.6-10.9C87.7,7,69.4-2.8,51.7,2.4c-13.7,4-23.4,16.1-24,30.3c-0.2,5.1-0.1,10.3-0.1,15.4c0,0.5,0,1,0,1.4
	c-1.2,0.2-2.2,0.3-3.2,0.6c-5,1.4-8,5.6-8,11.2c0,10.7,0,21.5,0,32.2c0,5.3,0,10.5,0,15.8c0.1,6.8,4.8,11.5,11.5,11.5
	c22.2,0,44.5,0,66.7,0c1.8,0,3.7-0.4,5.3-1.1c4.5-2.1,6.3-5.9,6.3-10.6c0-11.4,0-22.9,0-34.3C106.1,70.2,106.2,65.7,106.1,61.2z
	 M34.9,34.6C35.2,21.4,44,11.1,57,8.8C71.1,6.4,85,16.6,87,30.7c0.2,1.1,0.3,2.3,0.3,3.5c0,5.1,0,10.3,0,15.5c-17.5,0-34.8,0-52.2,0
	c0-0.4-0.1-0.7-0.1-1C34.9,44,34.9,39.3,34.9,34.6z M93.9,113.3c-21.9,0-43.8,0-65.7,0c-3.3,0-4.6-1.2-4.6-4.6c0-15.7,0-31.3,0-47
	c0-3.4,1.2-4.6,4.6-4.6c10.9,0,21.9,0,32.8,0c11,0,21.9,0,32.9,0c3.3,0,4.5,1.2,4.5,4.5c0,15.7,0,31.4,0,47.1
	C98.5,112.1,97.3,113.3,93.9,113.3z"/>
</svg>
