<?xml version="1.0" encoding="utf-8"?>
<!-- Generator: Adobe Illustrator 24.2.1, SVG Export Plug-In . SVG Version: 6.00 Build 0)  -->
<svg version="1.1" id="Capa_1" xmlns="http://www.w3.org/2000/svg" xmlns:xlink="http://www.w3.org/1999/xlink" x="0px" y="0px"
	 viewBox="0 0 122 122" style="enable-background:new 0 0 122 122;" xml:space="preserve">
<path d="M63,1.4c1.6,0.3,3.1,0.6,4.7,0.9c10.6,2.5,19.6,12.6,21,23.4c0.9,7.1-0.1,13.8-4.1,19.8c-5.3,8-12.7,12.6-22.5,13.3
	C49.3,59.7,38.8,52.1,34,41.9c-4.5-9.6-2.7-22.4,4.4-30.4c4.3-4.9,9.5-8.3,16-9.6c1.1-0.2,2.2-0.4,3.3-0.6C59.4,1.4,61.2,1.4,63,1.4
	z"/>
<path d="M61,120.7c-9.5,0-19,0-28.4,0c-4.8,0-9.3-1-13.3-3.8c-4.6-3.3-7.3-7.7-7.7-13.2c-0.8-9.9,0.3-19.6,4-28.8
	c2.2-5.5,5.6-10.3,11-13.2c3.4-1.8,7-2.7,10.9-2.6c1.2,0,2.4,0.6,3.5,1.2c1.8,1,3.5,2.2,5.2,3.3c9.9,6.1,19.9,6.1,29.8,0
	c1.2-0.7,2.4-1.4,3.5-2.3c3-2.5,6.5-2.5,10-1.7c7,1.5,11.9,5.6,15.3,11.7c3.3,6.1,4.8,12.7,5.5,19.5c0.3,3.5,0.5,7.1,0.5,10.7
	c-0.1,10.3-7.5,18.1-17.7,19.1c-1.5,0.1-2.9,0.2-4.4,0.2C79.4,120.7,70.2,120.7,61,120.7z"/>
</svg>
