<?xml version="1.0" encoding="utf-8"?>
<!-- Generator: Adobe Illustrator 24.2.1, SVG Export Plug-In . SVG Version: 6.00 Build 0)  -->
<svg version="1.1" id="Capa_1" xmlns="http://www.w3.org/2000/svg" xmlns:xlink="http://www.w3.org/1999/xlink" x="0px" y="0px"
	 viewBox="0 0 473.9 473.9" style="enable-background:new 0 0 473.9 473.9;" xml:space="preserve">
<path d="M466.9,16.9c0,147.4,0,294.8,0,442.1c-2.2,4.5-5.5,7.8-9.9,9.9c-147.1,0-294.2,0-441.3,0c-7.8-3.6-10-9.8-10-18.2
	c0.2-100,0.1-199.9,0.1-299.9c0-10.6,5.2-15.8,15.7-15.8c29.1,0,58.2,0,87.3,0c1.6,0,3.2,0,5,0c0-7.5,0-14.4,0-21.3
	c0.1-9.3,5.6-14.7,14.9-14.8c7.4,0,14.7,0,22.1,0c2.6,0,5.3,0,8,0c0-13.6-0.3-26.6,0.2-39.5c0.1-3.7,1.8-8.1,4.3-10.7
	c2.3-2.4,6.6-3.7,10.1-3.8c13-0.4,26-0.2,39.4-0.2c0-6.9,0.4-13.3-0.1-19.7c-0.6-8.4,2.2-14.6,10-18.2c2.4,0,4.8,0,7.2,0
	c2.2,1.6,5.2,2.9,6.6,5.1c1.8,2.9,3,6.6,3.2,10c0.5,7.6,0.1,15.2,0.1,22.9c13.6,0,26.5,0,39.4,0c9,0,14.5,5.6,14.6,14.7
	c0,3.2,0,6.3,0,9.5c0,9.9,0,19.7,0,30c9.8,0,19,0,28.3,0c11.8,0,16.7,4.9,16.7,16.6c0,52.8,0,105.5,0,158.3c0,1.8,0,3.5,0,5.3
	c9.9,0,19.2,0,28.8,0c0-2.1,0-3.9,0-5.7c0-52.5,0.1-104.9-0.1-157.4c0-5.7,1.7-10.4,5.2-14.8c22.5-28.5,44.8-57.2,67.3-85.8
	c2.6-3.3,6.3-5.7,9.5-8.5c2.4,0,4.8,0,7.2,0C461.4,9.1,464.7,12.5,466.9,16.9z M311.7,126.4c-57.1,0-113.9,0-170.7,0
	c0,105.2,0,210.1,0,315.2c9,0,17.7,0,26.8,0c0-1.9,0-3.5,0-5.2c0-17.1,0-34.3,0-51.4c0-9.9,5.4-15.3,15.3-15.3c28.8,0,57.6,0,86.5,0
	c9.9,0,15.3,5.4,15.3,15.3c0,17.3,0,34.6,0,51.9c0,1.6,0,3.2,0,4.8c9.3,0,17.9,0,26.8,0C311.7,336.6,311.7,231.7,311.7,126.4z
	 M33.1,162.4c0,93.3,0,186.3,0,279.3c9,0,17.6,0,26.7,0c0-7.4,0-14.6,0-21.7c0-5.6,2.4-9.9,7.3-12.5c8.9-4.7,19.3,1.5,19.6,11.8
	c0.2,7.5,0,14.9,0,22.4c9.3,0,18.1,0,26.8,0c0-93.2,0-186.1,0-279.2C86.7,162.4,60.1,162.4,33.1,162.4z M439.5,441.7
	c0-45.2,0-90,0-134.8c-33.7,0-67,0-100.3,0c0,45.1,0,89.8,0,134.8C372.7,441.7,405.9,441.7,439.5,441.7z M439.6,60
	c-14.5,18.6-28.4,36.2-42,53.9c-1.6,2.1-2.7,5.1-2.7,7.6c-0.2,51-0.1,101.9-0.1,152.9c0,1.6,0,3.2,0,4.8c15.3,0,30.1,0,44.8,0
	C439.6,206.3,439.6,133.7,439.6,60z M257.7,397.1c-21.1,0-41.8,0-62.5,0c0,15.1,0,29.9,0,44.6c21,0,41.6,0,62.5,0
	C257.7,426.8,257.7,412.1,257.7,397.1z M186.1,98.7c27.1,0,53.8,0,80.5,0c0-9.1,0-17.8,0-26.5c-27,0-53.6,0-80.5,0
	C186.1,81.1,186.1,89.7,186.1,98.7z"/>
<path d="M226.4,180.2c-14.5,0-29.1,0-43.6,0c-8.8,0-14.9-5.5-14.9-13.4c-0.1-8,6.1-13.7,15.1-13.7c28.9,0,57.8,0,86.8,0
	c9.1,0,15.2,5.6,15.2,13.6c0,8-6.2,13.4-15.3,13.5C255.2,180.3,240.8,180.2,226.4,180.2z"/>
<path d="M226.4,234.4c-14.5,0-29.1,0-43.6,0c-8.8,0-14.8-5.5-14.9-13.4c-0.1-8,6.1-13.7,15.1-13.7c28.9,0,57.8,0,86.8,0
	c9.1,0,15.2,5.6,15.2,13.6c-0.1,8-6.2,13.4-15.3,13.4C255.2,234.4,240.8,234.4,226.4,234.4z"/>
<path d="M226.3,288.5c-14.4,0-28.8,0-43.2,0c-9.1,0-15.3-5.5-15.3-13.5c0-8,6.1-13.6,15.2-13.6c28.9,0,57.8,0,86.8,0
	c9,0,15.2,5.7,15.1,13.7c-0.1,7.9-6.2,13.3-15,13.4C255.4,288.6,240.9,288.5,226.3,288.5z"/>
<path d="M226.9,315.6c14.2,0,28.5,0,42.7,0c9.1,0,15.3,5.4,15.3,13.5c0,8-6.1,13.6-15.2,13.6c-28.9,0-57.8,0-86.8,0
	c-9,0-15.2-5.7-15.1-13.7c0.1-7.8,6.2-13.3,15-13.4C197.5,315.6,212.2,315.6,226.9,315.6z"/>
<path d="M86.8,212.1c0,2.8,0.1,5.7,0,8.5c-0.2,7.9-6.1,13.8-13.6,13.7c-7.3-0.1-13.2-5.9-13.3-13.6c-0.1-6-0.1-12,0-18
	c0.2-7.7,6.1-13.5,13.4-13.5c7.3,0,13.3,5.7,13.6,13.4C86.9,205.8,86.8,208.9,86.8,212.1z"/>
<path d="M86.8,284.3c0,2.8,0.1,5.7,0,8.5c-0.2,7.9-6.1,13.8-13.6,13.7c-7.3-0.1-13.2-5.9-13.3-13.6c-0.1-6-0.1-12,0-18
	c0.2-7.7,6.1-13.5,13.4-13.5c7.3,0,13.3,5.7,13.6,13.4C86.9,278,86.8,281.1,86.8,284.3z"/>
<path d="M86.8,356.2c0,3.1,0.1,6.3,0,9.4c-0.3,7.4-6.2,13.1-13.3,13.1c-7.3,0.1-13.4-5.7-13.6-13.3c-0.2-6.1-0.2-12.3,0-18.4
	c0.2-7.6,6.2-13.4,13.5-13.4c7.3,0,13.1,5.8,13.4,13.5C86.9,350.2,86.8,353.2,86.8,356.2z"/>
<path d="M389.1,333.7c3,0,6-0.1,9,0c7.7,0.2,13.5,6,13.6,13.4c0.1,7.4-5.7,13.4-13.3,13.6c-6.1,0.2-12.3,0.2-18.4,0
	c-7.6-0.2-13.4-6.2-13.3-13.6c0-7.3,5.9-13.2,13.5-13.4C383.1,333.6,386.1,333.7,389.1,333.7z"/>
<path d="M388.8,414.8c-3,0-6,0.1-9,0c-7.5-0.3-13.3-6.4-13.2-13.7c0.1-7.1,5.8-13,13.2-13.3c6.3-0.2,12.6-0.2,18.8,0
	c7.3,0.3,13,6.3,13,13.5c0,7.2-5.6,13.1-13,13.5C395.4,415,392.1,414.8,388.8,414.8z"/>
</svg>
