<svg viewBox="0 0 24 24">
  <path d="m 14.44 15 c 0.225 -0.239 0.225 -0.611 0 -0.85 a 0.58 0.58 0 0 0 -0.83 0 c -0.367 0.33 -0.847 0.506 -1.34 0.49 c -0.493 0.016 -0.973 -0.16 -1.34 -0.49 a 0.58 0.58 0 0 0 -0.83 0 c -0.23 0.237 -0.23 0.613 0 0.85 c 0.58 0.57 1.367 0.88 2.18 0.86 c 0.806 0.015 1.585 -0.295 2.16 -0.86 z m 7.17 -6.49 c -0.073 -0.005 -0.147 -0.005 -0.22 0 L 21.25 8.19 C 19.245 3.091 13.487 0.583 8.388 2.588 C 5.716 3.638 3.631 5.795 2.67 8.5 H 2.39 a 2.16 2.16 0 0 0 -2.16 2.17 v 2.82 a 2.16 2.16 0 0 0 4.32 0 v -2.82 C 4.538 10.153 4.343 9.657 4 9.27 A 8.41 8.41 0 0 1 19.85 8.82 l 0.17 0.39 c -0.388 0.386 -0.601 0.913 -0.59 1.46 v 2.82 c 0.002 0.466 0.157 0.92 0.44 1.29 c -0.898 2.406 -2.847 4.27 -5.29 5.06 a 2.63 2.63 0 0 0 -4.715 2.332 A 2.63 2.63 0 0 0 14.83 21.35 c 2.86 -0.875 5.18 -2.985 6.32 -5.75 c 0.145 0.032 0.292 0.049 0.44 0.05 c 1.193 0 2.16 -0.967 2.16 -2.16 v -2.82 c 0 -1.185 -0.955 -2.149 -2.14 -2.16 z m -18.56 5 a 0.66 0.66 0 0 1 -1.32 0 v -2.84 a 0.66 0.66 0 0 1 1.32 0 z m 9.2 8.65 a 1.13 1.13 0 0 1 0 -2.26 c 0.613 0 1.114 0.488 1.13 1.1 c 0 0.626 -0.504 1.135 -1.13 1.14 z m 10 -8.65 a 0.66 0.66 0 0 1 -1.32 0 v -2.84 a 0.67 0.67 0 0 1 0.66 -0.66 c 0.365 0 0.66 0.295 0.66 0.66 z M 7.33 8.88 C 7.12 9.09 7.002 9.374 7 9.67 c 0.002 0.224 0.068 0.443 0.19 0.63 c 0.124 0.186 0.302 0.329 0.51 0.41 c 0.205 0.088 0.431 0.112 0.65 0.07 c 0.215 -0.049 0.412 -0.156 0.57 -0.31 C 9.08 10.313 9.188 10.11 9.23 9.89 C 9.27 9.672 9.25 9.447 9.17 9.24 A 1.13 1.13 0 0 0 7.33 8.88 z m 7.88 0 c -0.381 0.379 -0.44 0.974 -0.14 1.42 c 0.254 0.374 0.705 0.562 1.15 0.48 c 0.219 -0.046 0.42 -0.153 0.58 -0.31 c 0.153 -0.16 0.258 -0.362 0.3 -0.58 C 17.14 9.668 17.106 9.44 17 9.24 C 16.916 9.036 16.773 8.862 16.59 8.74 C 16.414 8.626 16.21 8.56 16 8.55 c -0.297 0 -0.581 0.119 -0.79 0.33 z">
  </path>
</svg>