<?xml version="1.0" encoding="utf-8"?>
<!-- Generator: Adobe Illustrator 24.2.1, SVG Export Plug-In . SVG Version: 6.00 Build 0)  -->
<svg version="1.1" id="Capa_1" xmlns="http://www.w3.org/2000/svg" xmlns:xlink="http://www.w3.org/1999/xlink" x="0px" y="0px"
	 viewBox="0 0 153 153" style="enable-background:new 0 0 153 153;" xml:space="preserve">
<style type="text/css">
	.st0{fill:#FFFFFF;}
</style>
<path d="M150.1,64c-4.2-22.5-16.2-39.8-35.7-51.6C101.7,4.7,87.8,1.2,72.9,1.9c-21.3,1-39.1,9.6-53.2,25.5
	c-10.7,12-16.9,26.1-18.3,42c-2.2,23.7,5.3,44.3,22.2,61.1c11.3,11.2,24.9,18,40.6,20.6c2.5,0.4,5,0.6,7.5,1c2.9,0,5.9,0,8.8,0
	c2.8-0.4,5.7-0.7,8.5-1.2c17.1-3,31.4-11,43-23.9c10.9-12.1,17.1-26.4,18.9-42.5c0.1-1.1,0.2-2.1,0.4-3.2c0-2.9,0-5.9,0-8.8
	C150.8,69.7,150.6,66.9,150.1,64z M75,141.3c-35.5,0.1-64.4-28.8-64.4-64.4c0-35.5,28.8-64.3,64.3-64.3
	c35.5-0.1,64.4,28.8,64.4,64.4C139.3,112.5,110.6,141.3,75,141.3z"/>
<path class="st0" d="M70.7,79.3c0,0.9,0,1.6,0,2.4c0,9.1,0,18.2,0,27.3c0,3.4,2,5.8,5.1,5.8c4.7,0.1,9.4,0.1,14.1,0
	c2.7-0.1,4.9-2.3,5-5c0.1-2.8-1.8-5.3-4.5-5.5c-2.3-0.2-4.7-0.1-7-0.2c-0.6,0-1.1,0-1.9,0c0-0.8,0-1.4,0-1.9c0-9.2,0-18.5,0-27.7
	c0-3.7-2.1-5.9-5.8-5.9c-4.2,0-8.3,0-12.5,0c-3.5,0-5.9,2.3-5.9,5.4c0,3.2,2.4,5.4,5.9,5.4C65.6,79.3,68.1,79.3,70.7,79.3z"/>
<path class="st0" d="M76.1,54.1c4.2,0,7.6-3.4,7.6-7.5c0-4.1-3.4-7.5-7.6-7.5c-4.2,0-7.6,3.4-7.6,7.5C68.5,50.7,71.9,54.1,76.1,54.1
	z"/>
<path d="M70.7,79.3c-2.7,0-5.1,0-7.6,0c-3.5,0-5.9-2.2-5.9-5.4c0-3.1,2.4-5.4,5.9-5.4c4.2,0,8.3,0,12.5,0c3.7,0,5.8,2.2,5.8,5.9
	c0,9.2,0,18.5,0,27.7c0,0.6,0,1.2,0,1.9c0.7,0,1.3,0,1.9,0c2.3,0,4.7-0.1,7,0.2c2.8,0.3,4.7,2.7,4.5,5.5c-0.1,2.7-2.3,5-5,5
	c-4.7,0.1-9.4,0.1-14.1,0c-3.1-0.1-5.1-2.4-5.1-5.8c0-9.1,0-18.2,0-27.3C70.7,81,70.7,80.2,70.7,79.3z"/>
<path d="M76.1,54.1c-4.2,0-7.6-3.4-7.6-7.5c0-4.1,3.4-7.5,7.6-7.5c4.2,0,7.6,3.4,7.6,7.5C83.7,50.7,80.3,54.1,76.1,54.1z"/>
</svg>
