<?xml version="1.0" encoding="utf-8"?>
<!-- Generator: Adobe Illustrator 24.2.1, SVG Export Plug-In . SVG Version: 6.00 Build 0)  -->
<svg version="1.1" id="Capa_1" xmlns="http://www.w3.org/2000/svg" xmlns:xlink="http://www.w3.org/1999/xlink" x="0px" y="0px"
	 viewBox="0 0 153 153" style="enable-background:new 0 0 153 153;" xml:space="preserve">
<g>
	<path d="M80.9,140.2c-1.4,0.1-2.8,0.1-4.3,0.1c-14.6,0-28.1-5-38.9-13.3l6.9-23.7c1.5-0.1,3.3-0.3,4.9-0.7
		c8.2-2.3,11.1-10.2,8.9-24.3c-3.2-19.8-16.5-20.4-17.2-20.5H15.6c8-26.1,32.3-45.1,61-45.1c17.2,0,32.9,6.8,44.4,17.9h-11.3
		c-9.6,0-14.7,5.3-16.2,8.4l-0.2,0.4l-0.1,0.4c-1.4,5.1-5.9,21.9-6.1,22.4c-0.6,2.4,0.9,4.8,3.3,5.4c0.4,0.1,0.7,0.1,1.1,0.1
		c2,0,3.8-1.4,4.3-3.4c0.2-0.6,3.5-13,5.8-21.6c0.6-0.9,2.8-3.2,8-3.2h19c6.1,8.6,10.1,18.8,11.3,29.9c0.3,2.5,2.5,4.3,4.9,4
		c2.5-0.3,4.2-2.5,4-4.9c-4-36.9-35.1-64.8-72.3-64.8c-34.9,0-64.1,24.7-71.2,57.5c0,0.1-0.1,0.2-0.1,0.3c-1,4.8-1.6,9.8-1.6,15
		c0,22,9.8,41.8,25.4,55.1c0.2,0.3,0.5,0.5,0.8,0.7c12.6,10.6,28.9,16.9,46.6,16.9c1.6,0,3.3-0.1,4.9-0.2c2.5-0.2,4.3-2.3,4.2-4.8
		C85.5,141.9,83.4,140.1,80.9,140.2z M41,66.9C41,66.9,41,66.9,41,66.9L41,66.9L41,66.9z M12.8,76.6c0-3.3,0.3-6.5,0.7-9.7h27.5
		c0.7,0.1,6.6,1.2,8.5,12.9c1.4,8.6,0.6,13.4-2.4,14.3c-1.5,0.4-4.3,0.5-5.7,0.5l-3.5-0.1l-7.6,26C19.5,108.9,12.8,93.5,12.8,76.6z"
		/>
	<path d="M145.1,86.6c-5-6.3-10.9-9.6-17.5-9.8c-0.2,0-0.3,0-0.5,0c-8,0-15,4.8-18.9,8.2c-4-3.4-11.1-8.3-19.4-8.1
		c-6.6,0.2-12.5,3.5-17.6,9.9c-5.2,6.9-6.1,14.7-2.6,22c2.3,4.7,5.7,7.7,6.6,8.5l29.8,29.3c0.1,0.1,0.2,0.2,0.4,0.3
		c0.1,0.1,0.2,0.2,0.3,0.2c0.1,0.1,0.3,0.2,0.5,0.2c0.1,0.1,0.2,0.1,0.3,0.2c0.2,0.1,0.4,0.1,0.5,0.2c0.1,0,0.2,0.1,0.3,0.1
		c0.3,0.1,0.6,0.1,0.9,0.1c0.3,0,0.6,0,0.9-0.1c0.1,0,0.2-0.1,0.2-0.1c0.2-0.1,0.4-0.1,0.6-0.2c0.1,0,0.2-0.1,0.3-0.1
		c0.2-0.1,0.3-0.2,0.5-0.3c0.1-0.1,0.2-0.2,0.3-0.2c0.1-0.1,0.3-0.2,0.4-0.3l29.8-29.3c1-0.8,4.3-3.8,6.6-8.5
		C151.3,101.4,150.4,93.6,145.1,86.6z M135.3,110.4L108.2,137l-26.7-26.3l-0.3-0.3c-1.7-1.4-9.9-8.8-2.8-18.2
		c3.3-4.2,6.8-6.3,10.6-6.4c8.2-0.2,15.7,8.3,15.8,8.4c0.1,0.1,0.2,0.2,0.3,0.3c0,0,0.1,0.1,0.1,0.1c0,0,0.1,0,0.1,0.1
		c0.2,0.1,0.3,0.3,0.5,0.4c0.1,0,0.2,0.1,0.2,0.1c0.2,0.1,0.4,0.2,0.6,0.2c0.1,0,0.2,0.1,0.3,0.1c0.2,0.1,0.4,0.1,0.6,0.1
		c0.1,0,0.2,0,0.3,0c0.2,0,0.4,0,0.6,0c0.1,0,0.2,0,0.3,0c0.2,0,0.4-0.1,0.6-0.1c0.1,0,0.2,0,0.3-0.1c0.2-0.1,0.3-0.1,0.5-0.2
		c0.1,0,0.2-0.1,0.3-0.1c0.1-0.1,0.3-0.2,0.4-0.3c0.1-0.1,0.2-0.2,0.3-0.2c0,0,0.1-0.1,0.1-0.1c0.1-0.1,0.1-0.2,0.2-0.2
		c0.1-0.1,0.1-0.1,0.2-0.2c0.1-0.1,7.4-8.4,15.5-8.4c0.1,0,0.2,0,0.3,0c3.9,0.1,7.4,2.2,10.6,6.3C145.2,101.6,137,109,135.3,110.4z"
		/>
</g>
</svg>
