<?xml version="1.0" encoding="utf-8"?>
<!-- Generator: Adobe Illustrator 24.2.1, SVG Export Plug-In . SVG Version: 6.00 Build 0)  -->
<svg version="1.1" id="Capa_1" xmlns="http://www.w3.org/2000/svg" xmlns:xlink="http://www.w3.org/1999/xlink" x="0px" y="0px"
	 viewBox="0 0 122 122" style="enable-background:new 0 0 122 122;" xml:space="preserve">
<style type="text/css">
	.st0{fill:#1E1E1E;}
</style>
<g>
	<g>
		<g>
			<path class="st0" d="M86.3,99.8h-0.1c-1.3,0-2.3,1-2.3,2.3c0,1.3,1,2.3,2.3,2.3h0.1c1.3,0,2.3-1,2.3-2.3
				C88.6,100.9,87.6,99.8,86.3,99.8z"/>
		</g>
	</g>
	<g>
		<g>
			<path class="st0" d="M108.6,99.8H93c-1.3,0-2.3,1-2.3,2.3c0,1.3,1,2.3,2.3,2.3h15.5c1.3,0,2.3-1,2.3-2.3
				C110.9,100.9,109.9,99.8,108.6,99.8z"/>
		</g>
	</g>
	<g>
		<g>
			<path class="st0" d="M113.2,1.9H8.4c-3.8,0-7,3.1-7,7v97.9c0,3.8,3.1,7,7,7v1.2c0,3.2,2.6,5.8,5.8,5.8h7c3.2,0,5.8-2.6,5.8-5.8
				v-1.2h67.7v1.2c0,3.2,2.6,5.8,5.8,5.8h7c3.2,0,5.8-2.6,5.8-5.8v-1.2c3.8,0,7-3.1,7-7V8.9C120.2,5,117.1,1.9,113.2,1.9z M6,15.8
				h27.8v2.3c0,1.3-1,2.3-2.3,2.3H6V15.8z M22.3,114.9c0,0.6-0.5,1.2-1.2,1.2h-7c-0.6,0-1.2-0.5-1.2-1.2v-1.2h9.3V114.9z
				 M108.6,114.9c0,0.6-0.5,1.2-1.2,1.2h-7c-0.6,0-1.2-0.5-1.2-1.2v-1.2h9.3V114.9z M115.5,106.8c0,1.3-1,2.3-2.3,2.3h-2.3H97H24.6
				H10.7H8.3c-1.3,0-2.3-1-2.3-2.3V25.1h25.5c3.8,0,7-3.1,7-7v-2.3h77L115.5,106.8L115.5,106.8z M115.5,11.2H6V8.9
				c0-1.3,1-2.3,2.3-2.3h104.9c1.3,0,2.3,1,2.3,2.3V11.2z"/>
		</g>
	</g>
	<g>
		<g>
			<path class="st0" d="M78,67.2l-5.7-4.7l5.7-4.7c1-0.8,1.1-2.3,0.3-3.3c-0.8-1-2.3-1.1-3.3-0.3l-7.2,6h-4.7v-4.7l6-7.2
				c0.8-1,0.7-2.4-0.3-3.3c-1-0.8-2.4-0.7-3.3,0.3L60.8,51l-4.7-5.7c-0.8-1-2.3-1.1-3.3-0.3c-1,0.8-1.1,2.3-0.3,3.3l6,7.2v4.7h-4.7
				l-7.2-6c-1-0.8-2.4-0.7-3.3,0.3c-0.8,1-0.7,2.4,0.3,3.3l5.7,4.7l-5.7,4.7c-1,0.8-1.1,2.3-0.3,3.3c0.5,0.6,1.1,0.8,1.8,0.8
				c0.5,0,1-0.2,1.5-0.5l7.2-6h4.7v4.7l-6,7.2c-0.8,1-0.7,2.4,0.3,3.3c0.4,0.4,1,0.5,1.5,0.5c0.7,0,1.3-0.3,1.8-0.8l4.7-5.7l4.7,5.7
				c0.8,1,2.3,1.1,3.3,0.3c1-0.8,1.1-2.3,0.3-3.3l-6-7.2v-4.7h4.7l7.2,6c0.4,0.4,1,0.5,1.5,0.5c0.7,0,1.3-0.3,1.8-0.8
				C79.1,69.5,79,68,78,67.2z"/>
		</g>
	</g>
	<g>
		<g>
			<path class="st0" d="M60.8,38.9c-1.3,0-2.3,1-2.3,2.3v0.1c0,1.3,1,2.3,2.3,2.3c1.3,0,2.3-1,2.3-2.3v-0.1
				C63.1,39.9,62.1,38.9,60.8,38.9z"/>
		</g>
	</g>
	<g>
		<g>
			<path class="st0" d="M39.6,60.2h-0.1c-1.3,0-2.3,1-2.3,2.3c0,1.3,1,2.3,2.3,2.3h0.1c1.3,0,2.3-1,2.3-2.3
				C42,61.2,40.9,60.2,39.6,60.2z"/>
		</g>
	</g>
	<g>
		<g>
			<path class="st0" d="M60.8,81.3c-1.3,0-2.3,1-2.3,2.3v0.1c0,1.3,1,2.3,2.3,2.3c1.3,0,2.3-1,2.3-2.3v-0.1
				C63.1,82.3,62.1,81.3,60.8,81.3z"/>
		</g>
	</g>
	<g>
		<g>
			<path class="st0" d="M82.1,60.2h-0.1c-1.3,0-2.3,1-2.3,2.3c0,1.3,1,2.3,2.3,2.3h0.1c1.3,0,2.3-1,2.3-2.3
				C84.4,61.2,83.3,60.2,82.1,60.2z"/>
		</g>
	</g>
</g>
</svg>
