<?xml version="1.0" encoding="utf-8"?>
<!-- Generator: Adobe Illustrator 24.2.1, SVG Export Plug-In . SVG Version: 6.00 Build 0)  -->
<svg version="1.1" id="Capa_1" xmlns="http://www.w3.org/2000/svg" xmlns:xlink="http://www.w3.org/1999/xlink" x="0px" y="0px"
	 viewBox="0 0 200 200" style="enable-background:new 0 0 200 200;" xml:space="preserve">
<path d="M4.6,197c-0.1-0.1-0.2-0.3-0.3-0.4c-1.3-0.9-1.6-2.2-1.1-3.5c0.5-1.4,1.7-1.8,3.1-1.8c7.6,0,15.2,0,22.8,0
	c17.2,0,34.4,0,51.6,0c0.7,0,1.5,0,2.4,0c0.8-10.6,1.6-21,2.4-31.2c-5.3-1.9-10.4-3.8-15.6-5.7c-1,1.7-2.1,3.5-3.1,5.4
	c-0.2,0.5,0,1.4,0.4,1.9c2.5,3.9,2.4,7.9,0,11.8c-2.2,3.5-6.3,5.2-10.5,4.5c-5.3-0.9-9.3-6.6-8.5-11.9c0.9-5.4,6.2-9.5,11.5-8.7
	c1.3,0.2,2,0,2.5-1.2c0.8-1.6,1.8-3.2,2.8-4.9c-8.1-5.2-14.7-11.8-20-19.9c-2,1.1-3.9,2.1-5.6,3.3c-0.5,0.3-0.7,1.2-0.7,1.9
	c0.3,6.1-3.8,10.8-9.8,11.3c-5.7,0.4-10.5-3.8-11-9.7c-0.3-4.3,1.7-7.6,5.4-9.7c3.7-2.2,7.6-2,11,0.6c1.3,1,2.1,0.9,3.3,0.1
	c1.4-0.9,2.9-1.7,4.5-2.7c-4.4-8.6-6.9-17.5-7.4-27.1c-2.5,0-5,0-7.4,0c-3,5.9-7.2,8.2-12.6,6.8c-4.9-1.2-8-5.3-7.9-10.2
	c0.2-5.1,3.5-9,8.3-9.9c5.6-1,9.8,1.5,12.3,7.5c2.3,0,4.7,0,7.3,0c0.5-9.6,2.8-18.6,7.2-27.2c-2.2-1.3-4.2-2.5-6.4-3.7
	c-2.2,1.7-4.7,2.9-7.6,2.7c-5.2-0.3-9.6-4.6-10-9.9c-0.4-5.2,3.6-10,8.8-10.9c5-0.8,10.4,2.6,11.6,7.6c0.3,1.3,0.4,2.8,0.2,4.1
	C38.6,57.4,39,58,40,58.5c1.6,0.8,3.2,1.8,4.9,2.8c5.2-8.1,11.8-14.7,19.8-20c-1.1-2-2.1-3.9-3.3-5.7c-0.4-0.5-1.5-0.7-2.2-0.7
	c-6.7,0.2-12-5.8-10.7-12.3c0.8-4.2,4-7.5,8.1-8.3c4.2-0.8,8.5,0.9,10.8,4.3c2.5,3.7,2.5,8.4-0.2,11.9c-1,1.3-0.9,2.1-0.1,3.3
	c0.9,1.4,1.7,2.9,2.5,4.2c4.6-1.7,8.9-3.5,13.4-4.8c4.5-1.2,9.1-1.8,13.9-2.7c0-2,0.1-4.2-0.1-6.3c0-0.5-0.9-1.1-1.5-1.4
	c-4.1-2-6.1-5.9-5.7-10.6C90.1,8.1,93,4.5,97,3.4c5.5-1.5,10.9,1.2,12.7,6.5c1.9,5.5-0.6,11-5.9,13.3c-0.3,0.1-0.7,0.3-1.1,0.5
	c0,2.4,0,4.8,0,7.3c9.7,0.5,18.8,2.9,27.6,7.5c1.2-2.2,2.4-4.2,3.7-6.3c-2.6-3-3.8-6.3-2.7-10.2c1.3-4.8,6.1-8.3,10.8-7.8
	c5.2,0.5,9.2,4.4,9.7,9.4c0.5,5-2.8,9.8-7.5,11.1c-0.9,0.2-1.9,0.5-2.8,0.3c-2.1-0.5-2.9,0.6-3.7,2.2c-0.7,1.4-1.5,2.6-2.2,3.9
	c3.6,3.1,7.4,6,10.7,9.3c3.3,3.3,6.1,7.1,9.3,10.9c1.6-0.9,3.6-1.9,5.4-3.2c0.4-0.3,0.4-1.4,0.3-2.2c-0.5-7,5.5-12.4,12.4-11.1
	c4,0.8,7.3,4,8.2,8c0.9,4.2-0.8,8.3-4.4,10.7c-3.5,2.4-8,2.6-11.4,0.2c-1.3-0.9-2.1-0.9-3.3-0.1c-1.5,1-3,1.8-4.7,2.8
	c4.3,8.6,6.7,17.6,7.2,27.3c2.3,0,4.5,0.1,6.7-0.1c0.4,0,0.9-0.7,1.1-1.2c2.1-5,7-7.4,12.2-6.2c4.7,1.2,7.9,5.2,7.9,10.1
	c0,5-3.2,8.9-8.2,10c-4.7,1.1-9.5-1.1-11.5-5.5c-0.6-1.3-1.2-1.6-2.5-1.6c-1.8,0.1-3.6,0-5.6,0c-0.6,9.6-2.9,18.7-7.4,27.3
	c1.9,1.1,3.7,2.3,5.6,3.2c0.4,0.2,1.3-0.1,1.7-0.5c3.2-2.4,6.7-3,10.4-1.3c3.7,1.6,5.9,4.4,6.4,8.5c0.7,5.8-3.9,11.2-9.7,11.5
	c-6.1,0.3-11.2-4.5-10.9-10.5c0.1-1.8-0.3-2.8-2-3.5c-1.5-0.7-2.8-1.6-4.3-2.4c-0.9,1.3-1.8,2.6-2.7,3.8c-1.3,1.7-2.8,2-4.2,1
	c-1.4-1.1-1.6-2.6-0.3-4.3c6-7.8,10-16.6,11.2-26.3c2.3-18.1-2.5-34.2-14.1-48.2C128.2,37.6,104.2,32,81,39.7
	c-23.7,7.9-36.4,25.3-39.5,49.6c-2.3,17.5,2.3,33.3,14.1,46.7c7.9,9,18,14.6,29.5,17.7c0.2,0.1,0.5,0.1,0.9,0.1
	c0.2-2.1,0.4-4.2,0.5-6.2c0-0.4-0.8-0.9-1.4-1.1c-16.9-5.4-28.2-16.5-34.4-32.9c-2.9-7.6-3.7-15.6-2.7-23.7c0.2-1.9,1.4-3.1,3-3.1
	c1.8,0.1,2.7,1.3,2.7,3.4c0,1-0.1,2-0.2,3.2c11.8,0,23.5,0,35.7,0c-10.5-6.1-20.7-12-31-17.9c-0.4,0.8-0.7,1.5-1,2.2
	c-1,2.1-2.3,2.8-4,2.1c-1.7-0.7-2.2-2.2-1.2-4.3C59.1,59,71.2,48.2,89.1,45c20.5-3.6,38.4,2.2,51.7,18.3
	c22.3,26.9,11.6,70.8-25.2,82.9c-1.9,0.6-2.6,1.3-2.1,3.2c0.3,1.4,0.2,2.9,0.4,4.7c2.7-0.9,5.1-1.6,7.5-2.5c6-2.3,11.4-5.5,16.3-9.5
	c0.1-0.1,0.3-0.2,0.4-0.4c1.7-1.3,3.4-1.3,4.5,0.1c1.1,1.3,0.8,2.9-0.9,4.3c-1.8,1.5-3.7,2.8-5.6,4.2c-0.4,0.3-0.9,0.7-1.4,1
	c1.1,1.9,2,3.7,3.2,5.5c0.3,0.4,1.1,0.7,1.7,0.6c5.6-0.7,10.6,2.8,11.8,8.3c1.1,5-2.3,10.6-7.5,12.1c-3.9,1.2-8.5-0.3-11-3.7
	c-2.7-3.6-3-8.5-0.5-12c0.9-1.3,0.8-2.2,0-3.3c-1-1.5-1.8-3-2.6-4.4c-5.2,1.9-10.3,3.8-15.6,5.7c0.8,10.2,1.6,20.5,2.4,31.2
	c0.8,0,1.5,0,2.2,0c24.7,0,49.5,0,74.2,0c2.8,0,4.3,1.6,3.5,3.8c-0.3,0.7-0.9,1.3-1.4,1.9C131.7,197,68.1,197,4.6,197z M111,191.2
	c-0.2-2.8-0.4-5.4-0.6-7.9c-1.1-14-2.2-28-3.3-42.1c-1.1-13.7-2.1-27.4-3.1-41.1c-0.2-2.6-1.9-4.3-4.2-4.2c-2.2,0-3.8,1.6-4,4.2
	c-1.1,13.5-2.1,27-3.1,40.6c-1,12.6-1.9,25.2-2.9,37.7c-0.3,4.3-0.6,8.5-1,12.9C96.3,191.2,103.5,191.2,111,191.2z M102.6,85.6
	c0.1,0,0.2,0.1,0.3,0.1c6-10.4,12-20.8,18-31.3c-6-2.9-11.9-4.7-18.4-4.9C102.6,61.7,102.6,73.6,102.6,85.6z M78.8,54.3
	c5.9,10.3,11.8,20.4,17.8,31c0-12.3,0-24,0-35.9C90.4,49.8,84.6,51.5,78.8,54.3z M91.3,88.2c0.1-0.1,0.2-0.2,0.3-0.3
	c-5.9-10.2-11.7-20.4-17.7-30.7c-5.3,3.6-9.6,7.9-13.1,13.3C71.1,76.5,81.2,82.3,91.3,88.2z M53.4,99.3c0.5,6.4,2,12.3,5,17.9
	c10.3-6,20.4-11.8,30.9-17.9C77,99.3,65.3,99.3,53.4,99.3z M110.6,99.3c10.6,6.1,20.7,12,30.9,17.9c2.9-5.7,4.5-11.6,4.9-17.9
	C134.6,99.3,122.9,99.3,110.6,99.3z M108.2,87.9c0.1,0.1,0.2,0.2,0.3,0.3c10.1-5.8,20.2-11.7,30.4-17.6c-3.5-5.4-7.8-9.7-13.1-13.3
	C119.9,67.6,114.1,77.7,108.2,87.9z M111.2,93.2c0,0.1,0.1,0.2,0.1,0.3c11.7,0,23.3,0,35,0c0.1-5.2-2.3-14.2-4.8-17.9
	C131.5,81.4,121.4,87.3,111.2,93.2z M125.5,135.3c5.4-3.6,9.7-7.9,13.2-13.2c-9.5-5.5-18.9-10.9-28.3-16.4c-0.2,0.1-0.4,0.3-0.6,0.4
	c0.6,1.6,0.9,3.4,1.7,4.9C116.1,119.1,120.7,127.1,125.5,135.3z M74.3,135.3c0.2-0.3,0.4-0.5,0.5-0.7c4.7-8.1,9.4-16.3,14-24.5
	c0.7-1.2,0.7-2.7,1-4c-0.2-0.1-0.3-0.1-0.5-0.2c-9.4,5.4-18.7,10.9-28.2,16.3C64.7,127.5,69,131.7,74.3,135.3z M88.3,123.2
	c-0.1,0-0.3-0.1-0.4-0.1c-2.9,5-5.7,10-8.7,15.2c2.7,1,5.1,1.9,7.7,2.9C87.4,135,87.9,129.1,88.3,123.2z M111.9,123.1
	c-0.1,0-0.3,0.1-0.4,0.1c0.5,5.9,0.9,11.8,1.4,18c2.7-1.1,5.1-2,7.7-3C117.6,133,114.7,128.1,111.9,123.1z M63.4,167.8
	c0-2.5-2.3-4.8-4.9-4.8c-2.5,0-4.6,2.2-4.6,4.8c0,2.6,2.1,4.7,4.8,4.7C61.3,172.5,63.4,170.3,63.4,167.8z M145.9,24.4
	c0-2.5-2.2-4.7-4.8-4.7c-2.5,0-4.8,2.3-4.7,4.9c0.1,2.5,2.3,4.6,4.9,4.5C143.8,29.2,145.9,27.1,145.9,24.4z M145.9,167.9
	c0-2.6-2.1-4.9-4.6-4.9c-2.6-0.1-4.9,2.2-4.9,4.8c0,2.6,2.1,4.7,4.7,4.7C143.7,172.5,145.9,170.5,145.9,167.9z M33.2,137.6
	c0-2.6-2.1-4.8-4.6-4.9c-2.6-0.1-4.8,2.1-4.9,4.6c-0.1,2.7,2.1,5,4.7,5C31.1,142.2,33.2,140.2,33.2,137.6z M100,18.2
	c2.7,0,4.6-2,4.6-4.7c0-2.7-2.1-4.8-4.8-4.7c-2.6,0-4.6,2.1-4.6,4.7C95.2,16.2,97.3,18.2,100,18.2z M58.6,29.3
	c2.6,0,4.8-2.1,4.8-4.6c0-2.6-2.2-4.9-4.7-4.9c-2.5,0-4.7,2.1-4.8,4.6C53.9,27,56.1,29.2,58.6,29.3z M22.2,96.1
	c0-2.6-2.2-4.7-4.8-4.7c-2.5,0-4.7,2.2-4.7,4.7c0.1,2.6,2.1,4.7,4.7,4.7C20.1,100.9,22.2,98.8,22.2,96.1z M187,96.1
	c0-2.7-2.1-4.7-4.7-4.7c-2.7,0-4.7,2.2-4.6,4.9c0.1,2.7,2.1,4.6,4.8,4.6C185.1,100.8,187.1,98.8,187,96.1z M176.1,137.4
	c0-2.5-2.2-4.6-4.8-4.7c-2.6,0-4.7,2.3-4.7,4.9c0.1,2.5,2.3,4.6,4.9,4.6C174,142.2,176.1,140,176.1,137.4z M176,54.9
	c0-2.6-2.1-4.8-4.6-4.9c-2.6,0-4.9,2.2-4.8,4.8c0.1,2.6,2.1,4.7,4.7,4.7C174,59.5,176,57.5,176,54.9z M33.2,54.8
	c0-2.6-2.3-4.8-4.9-4.8c-2.5,0-4.5,2.2-4.5,4.9c0,2.6,2.1,4.7,4.7,4.7C31.1,59.5,33.2,57.4,33.2,54.8z"/>
</svg>
