<?xml version="1.0" encoding="utf-8"?>
<!-- Generator: Adobe Illustrator 24.2.1, SVG Export Plug-In . SVG Version: 6.00 Build 0)  -->
<svg version="1.1" id="Capa_1" xmlns="http://www.w3.org/2000/svg" xmlns:xlink="http://www.w3.org/1999/xlink" x="0px" y="0px"
	 viewBox="0 0 122 122" style="enable-background:new 0 0 122 122;" xml:space="preserve">
<style type="text/css">
	.st0{fill:#FFFFFF;}
</style>
<path class="st0" d="M42.1,21.2c-0.2-1.2-0.3-2.3-0.5-3.5c-0.9-4.2-3.4-7.5-6.3-10.5c-1.6-1.7-3.7-1.8-5.2-0.5
	c-1.6,1.4-1.6,3.5,0,5.3c1,1.2,2.1,2.4,3,3.7c2.2,3.2,2.6,6.7,0.5,10.1c-1.4,2.1-3.1,4-4.7,5.9c-2.6,3.1-4.1,6.5-4.1,10.6
	c0,4.9,1.8,9.1,4.8,12.9c1.3,1.6,3.4,2,5,0.8c1.6-1.2,1.9-3.3,0.6-5.1c-0.6-0.9-1.3-1.8-1.8-2.8c-2.4-4.4-1.9-8.4,1.4-12.2
	c1.1-1.3,2.3-2.5,3.3-3.8C40.5,28.9,42,25.4,42.1,21.2z"/>
<path class="st0" d="M29.7,21.2c-0.2-1.1-0.3-2.2-0.5-3.3c-0.9-4.2-3.4-7.5-6.3-10.5c-1.7-1.7-3.7-1.9-5.3-0.5
	c-1.6,1.4-1.5,3.5,0,5.3c1.1,1.2,2.2,2.5,3.1,3.8c2.1,3.2,2.5,6.6,0.4,9.9c-1.4,2.2-3.1,4.1-4.8,6c-2.6,3.1-4.1,6.5-4.1,10.6
	c0,5,1.9,9.3,5.1,13.1c1.2,1.4,3.3,1.6,4.8,0.5c1.5-1.1,1.8-3.2,0.8-4.8c-0.7-1-1.4-2-2-3c-2.4-4.4-1.9-8.5,1.4-12.3
	c1.1-1.3,2.3-2.5,3.3-3.8C28.1,28.9,29.6,25.3,29.7,21.2z"/>
<path d="M42.1,21.2c-0.1,4.1-1.7,7.7-4.1,10.9c-1,1.3-2.2,2.5-3.3,3.8c-3.3,3.8-3.7,7.8-1.4,12.2c0.5,1,1.2,1.9,1.8,2.8
	c1.2,1.8,1,3.9-0.6,5.1c-1.6,1.2-3.7,0.9-5-0.8c-3-3.8-4.9-8-4.8-12.9c0-4,1.5-7.5,4.1-10.6c1.6-1.9,3.4-3.8,4.7-5.9
	c2.2-3.4,1.8-6.8-0.5-10.1c-0.9-1.3-2-2.5-3-3.7c-1.5-1.8-1.6-3.9,0-5.3c1.5-1.4,3.6-1.2,5.2,0.5c2.9,3,5.4,6.3,6.3,10.5
	C41.9,18.9,42,20.1,42.1,21.2z"/>
<path d="M29.7,21.2c-0.1,4.1-1.7,7.7-4.1,10.9c-1,1.3-2.2,2.5-3.3,3.8c-3.3,3.8-3.8,7.9-1.4,12.3c0.6,1.1,1.3,2,2,3
	c1.1,1.6,0.7,3.7-0.8,4.8c-1.5,1.1-3.5,1-4.8-0.5c-3.2-3.8-5.1-8.1-5.1-13.1c0-4,1.5-7.5,4.1-10.6c1.6-2,3.4-3.9,4.8-6
	c2.1-3.3,1.7-6.7-0.4-9.9c-0.9-1.4-2-2.6-3.1-3.8c-1.6-1.8-1.6-3.9,0-5.3c1.5-1.4,3.6-1.2,5.3,0.5c2.9,3,5.3,6.3,6.3,10.5
	C29.5,19,29.6,20.1,29.7,21.2z"/>
<path d="M120.7,65.2c0-2.3-1.4-3.7-3.7-3.8c-0.4,0-0.8,0-1.2,0c-15.3,0-30.6,0-45.9,0c-0.4,0-0.9,0-1.3,0c-0.1-0.2-0.2-0.3-0.3-0.5
	c0.4-0.2,0.8-0.4,1.1-0.7c8.1-8.1,16.2-16.2,24.3-24.3c0.4-0.4,0.7-0.7,1-1.1c1.5-2,0.6-4.8-1.7-5.5c-1.7-0.5-2.9,0.2-4.1,1.3
	C79,40.6,69.1,50.6,59.2,60.5c-0.6,0.6-1.3,0.9-2.2,0.9c-17.2,0-34.4,0-51.6,0c-2.2,0-3.7,0.7-4.5,2.7c0,5.5,0,11.1,0,16.6
	c0.8,2.1,2.4,2.8,4.6,2.8c9.7-0.1,19.4,0,29.2,0c0.4,0,0.9,0,1.3,0c0.1,0.1,0.1,0.3,0.2,0.4c-0.4,0.3-0.8,0.5-1.1,0.9
	c-8.1,8.1-16.1,16.1-24.2,24.2c-0.4,0.4-0.8,0.8-1.1,1.2c-0.8,1.2-0.9,2.4-0.2,3.6c0.7,1.2,1.7,1.9,3.1,1.9c1.3,0,2.2-0.7,3-1.6
	c9.9-9.9,19.8-19.8,29.6-29.7c0.7-0.7,1.4-1,2.4-1c22.7,0,45.4,0,68.2,0c0.4,0,0.9,0,1.3,0c2.3-0.1,3.7-1.5,3.7-3.9
	C120.8,74.8,120.8,70,120.7,65.2z M46,74.5c-1.2,1.4-2.6,1.9-4.5,1.8c-10.5-0.1-20.9,0-31.4,0c-0.5,0-0.9,0-1.4,0c0-2.7,0-5.2,0-7.8
	c14.3,0,28.6,0,43.2,0C49.8,70.6,47.8,72.5,46,74.5z M80.5,76.2c-8.2,0-16.2,0-24.6,0c0.6-0.7,1.1-1.1,1.6-1.6
	c1.8-1.8,3.7-3.7,5.6-5.5c0.3-0.3,0.8-0.6,1.3-0.6c5.2,0,10.4,0,15.6,0c0.2,0,0.4,0,0.6,0.1C80.5,71.1,80.5,73.6,80.5,76.2z
	 M113.6,76.2c-9.5,0-18.9,0-28.3,0c0-2.6,0-5.1,0-7.7c9.4,0,18.8,0,28.3,0C113.6,71.1,113.6,73.6,113.6,76.2z"/>
</svg>
