<?xml version="1.0" encoding="utf-8"?>
<!-- Generator: Adobe Illustrator 24.2.1, SVG Export Plug-In . SVG Version: 6.00 Build 0)  -->
<svg version="1.1" id="Capa_1" xmlns="http://www.w3.org/2000/svg" xmlns:xlink="http://www.w3.org/1999/xlink" x="0px" y="0px"
	 viewBox="0 0 473.9 473.9" style="enable-background:new 0 0 473.9 473.9;" xml:space="preserve">
<path d="M470.2,279.7c-1.2,4.3-2.1,8.8-3.6,13c-8.3,24.5-30.8,41.4-56.7,42.6c-7,0.3-13.9,0.2-20.9,0.1c-9.5-0.1-15.2-5.8-15.2-15.4
	c0-36.5,0.2-73-0.1-109.4c-0.1-16.3,0.4-32.8-1.9-48.9C363.5,104.1,317.4,58.2,260,48.8c-70.6-11.5-137.2,31.4-154.9,100.5
	c-3,11.6-4.2,23.9-4.3,35.9c-0.5,44.3-0.2,88.7-0.2,133c0,11.1-3.5,15.9-14.4,17.2c-35.4,4.1-65.2-8.9-77.9-41
	c-1.9-4.7-2.8-9.8-4.2-14.7c0-17.9,0-35.7,0-53.6c0.3-0.9,0.7-1.7,0.8-2.6c4.8-27.2,24.2-47.2,51.2-52.4c5.1-1,10.4-1.1,15.6-1.6
	c5.1-79,71.8-146.3,154.5-151.3c37.9-2.3,72.9,6.7,104.1,28.4c43,29.8,66.6,71.3,72.2,123.4c1.9,0,3.6,0,5.2,0
	c28.5,0.8,52.6,19.6,60.1,46.9c0.8,3,1.5,6.1,2.2,9.2C470.2,243.9,470.2,261.8,470.2,279.7z"/>
<path d="M237.4,456.1c-6.1,0-12.1,0.1-18.2,0c-16.3-0.3-28.9-12.9-29-28.8c-0.1-15.6,12.3-28.7,28.3-29.2c12.6-0.4,25.2-0.4,37.7,0
	c15.9,0.5,28.4,13.8,28.1,29.3c-0.3,15.8-12.7,28.3-28.7,28.7C249.5,456.2,243.4,456.1,237.4,456.1z"/>
<path d="M149.1,196.5c0-4.6-0.1-9.3,0-13.9c0.3-12.4,12.9-22.1,28.8-22.2c15.6-0.1,28.7,9.4,29.2,21.6c0.4,9.6,0.4,19.2,0,28.8
	c-0.5,12.2-13.8,21.7-29.3,21.5c-15.8-0.2-28.3-9.7-28.7-21.9C149,205.8,149.1,201.1,149.1,196.5z"/>
<path d="M259.5,196.5c0-4.6-0.1-9.3,0-13.9c0.3-12.4,12.9-22.1,28.8-22.2c15.6-0.1,28.7,9.4,29.2,21.6c0.4,9.6,0.4,19.2,0,28.8
	c-0.5,12.2-13.8,21.7-29.3,21.5c-15.8-0.2-28.3-9.7-28.7-21.9C259.4,205.8,259.5,201.1,259.5,196.5z"/>
<path d="M175.3,419.2c0,5.5,0,10.5,0,15.5c-52.6,6.7-101.2-32.6-108-81.9c5.2,0,10.5,0,15.7,0C96.5,398.8,127.5,420.5,175.3,419.2z"
	/>
<path d="M295.6,278.3c3.3,4.5,6.2,8.5,9.2,12.5c-38.4,36.6-100.9,33.7-135.6-2.1c4.2-3.1,8.4-6.2,12.6-9.3
	C219.9,308.6,257.8,307.7,295.6,278.3z"/>
</svg>
