<?xml version="1.0" encoding="utf-8"?>
<!-- Generator: Adobe Illustrator 24.2.1, SVG Export Plug-In . SVG Version: 6.00 Build 0)  -->
<svg version="1.1" id="Capa_1" xmlns="http://www.w3.org/2000/svg" xmlns:xlink="http://www.w3.org/1999/xlink" x="0px" y="0px"
	 viewBox="0 0 153 153" style="enable-background:new 0 0 153 153;" xml:space="preserve">
<path d="M144,33.9c-5.1-5.1-10.1-10.1-15.2-15.2c-2.6-2.6-6.3-2.7-8.7-0.2c-2.3,2.4-2.2,6,0.3,8.6c1.1,1.1,2.4,2.2,3.4,3.1
	c-2.7,2.8-5.2,5.3-7.8,7.9c-4.8-4-10.3-7.3-16.2-9.7c-6-2.5-12.2-4-18.7-4.6c0-1.9,0-3.6,0-5.4c0-1.8,0-3.6,0-5.5c2,0,3.7,0.1,5.5,0
	c4.5-0.2,7.3-5.1,4.8-8.9c-0.8-1.2-2.5-2-3.7-2.9c-8.3,0-16.7,0-25,0c-2.1,0.9-3.7,2.1-4.3,4.4c-0.9,3.7,1.7,7.2,5.6,7.3
	c1.8,0.1,3.6,0,5.4,0c0,3.8,0,7.3,0,10.8c-31,2.9-54.6,27.5-57.8,56.6c-3.1,28.6,12.3,55.1,38.5,66.5c25.3,11,55.5,4.1,73.6-16.9
	c9-10.4,14.3-22.6,15.5-36.3c1.5-17.5-3.4-33.1-14.3-46.7c2.6-2.6,5.1-5.1,7.7-7.7c1,1,2.1,2.2,3.2,3.3c2.6,2.6,6.2,2.7,8.7,0.3
	C146.7,40.2,146.6,36.5,144,33.9z M127.1,87.7c-0.2,29-23.9,52.5-52.8,52.3c-28.9-0.2-52.3-23.8-52.1-52.6
	C22.4,58.3,46,35,74.9,35.2C103.7,35.3,127.2,59,127.1,87.7z"/>
<path d="M80,81.7c3.1,0,6,0,9,0c3.2,0,6.4,0,9.6,0c3.5,0,6.2,2.6,6.1,5.9c-0.1,3.3-2.7,5.8-6.1,5.8c-8.1,0-16.2,0-24.3,0
	c-3.6,0-6-2.4-6-6c0-11.4,0-22.9,0-34.3c0-3.5,2.5-6.1,5.8-6.1c3.3,0,5.9,2.6,5.9,6c0.1,3.5,0,7.1,0,10.6C80,69.6,80,75.5,80,81.7z"
	/>
</svg>
