<?xml version="1.0" encoding="utf-8"?>
<!-- Generator: Adobe Illustrator 24.2.1, SVG Export Plug-In . SVG Version: 6.00 Build 0)  -->
<svg version="1.1" id="Capa_1" xmlns="http://www.w3.org/2000/svg" xmlns:xlink="http://www.w3.org/1999/xlink" x="0px" y="0px"
	 viewBox="0 0 122 122" style="enable-background:new 0 0 122 122;" xml:space="preserve">
<style type="text/css">
	.st0{fill:#1E1E1E;}
</style>
<g>
	<g>
		<g>
			<circle class="st0" cx="60.3" cy="104.6" r="7.7"/>
		</g>
	</g>
	<g>
		<g>
			<path class="st0" d="M119.3,39.4C103.9,22.8,83,13.8,60.6,13.8S17.3,22.9,1.9,39.4c-1.8,1.9-1.7,4.9,0.2,6.6
				C4,47.8,7,47.6,8.7,45.8c13.6-14.6,32-22.6,51.8-22.6s38.2,8,51.8,22.6c0.9,1,2.2,1.5,3.4,1.5c1.1,0,2.3-0.4,3.2-1.3
				C120.9,44.2,121,41.3,119.3,39.4z"/>
		</g>
	</g>
	<g>
		<g>
			<path class="st0" d="M102.1,58.7C90.7,47.2,76,40.9,60.6,40.9c-15.4,0-30.1,6.3-41.5,17.8c-1.8,1.8-1.8,4.8,0,6.6
				c1.8,1.8,4.8,1.8,6.6,0c9.6-9.7,22-15,34.8-15s25.2,5.3,34.9,15c0.9,0.9,2.1,1.4,3.3,1.4c1.2,0,2.4-0.5,3.3-1.4
				C103.9,63.5,103.9,60.5,102.1,58.7z"/>
		</g>
	</g>
	<g>
		<g>
			<path class="st0" d="M83.3,78.1c-6.1-6-14.8-9.8-22.8-9.8l0,0h-0.3l0,0c-8,0-16.7,3.8-22.8,9.8c-1.8,1.8-1.9,4.8,0,6.6
				c0.9,0.9,2.1,1.4,3.3,1.4c1.2,0,2.4-0.5,3.3-1.4c4.3-4.3,10.7-7.1,16.2-7.1l0,0h0.3l0,0c5.5,0,11.9,2.8,16.2,7.1
				c1.8,1.8,4.8,1.8,6.6,0C85.2,82.9,85.2,79.9,83.3,78.1z"/>
		</g>
	</g>
</g>
</svg>
