<?xml version="1.0" standalone="no"?>
<!DOCTYPE svg PUBLIC "-//W3C//DTD SVG 20010904//EN"
 "http://www.w3.org/TR/2001/REC-SVG-20010904/DTD/svg10.dtd">
<svg version="1.0" xmlns="http://www.w3.org/2000/svg"
 width="1280.000000pt" height="1100.000000pt" viewBox="0 0 1280.000000 1100.000000"
 preserveAspectRatio="xMidYMid meet">
<metadata>
Created by potrace 1.15, written by Peter Selinger 2001-2017
</metadata>
<g transform="translate(0.000000,1100.000000) scale(0.100000,-0.100000)"
fill="#2196f3" stroke="none">
<path d="M10701 10804 c-111 -108 -201 -201 -201 -206 0 -5 19 -36 42 -68 l41
-59 -38 -43 c-22 -24 -253 -275 -515 -558 -262 -283 -764 -825 -1115 -1205
-351 -379 -641 -691 -645 -693 -3 -1 -28 14 -54 34 -26 20 -49 34 -50 32 -4
-5 -546 -592 -2451 -2653 -945 -1023 -1838 -1989 -1984 -2147 l-266 -288 -247
0 -248 0 0 -530 0 -530 885 0 885 0 0 -90 0 -90 -1325 0 c-877 0 -1325 3
-1325 10 0 6 -28 10 -65 10 l-65 0 0 646 c1 731 5 687 -80 731 -78 39 -163 45
-579 40 -430 -5 -481 -11 -606 -72 -38 -18 -82 -46 -96 -62 -64 -68 -382 -683
-523 -1011 l-66 -154 0 -379 0 -379 25 0 c23 0 25 -4 25 -40 0 -38 -2 -40 -30
-40 l-30 0 0 -215 0 -215 257 2 257 3 13 43 c7 24 27 75 44 113 l32 69 120 0
c119 0 119 0 113 -22 -4 -13 -9 -63 -12 -113 -19 -293 166 -556 451 -645 90
-28 241 -30 335 -5 218 57 398 237 455 455 19 72 23 234 6 287 -7 25 -6 35 4
41 10 5 15 32 17 86 l3 78 83 1 82 2 0 -297 0 -298 45 0 45 0 2 297 3 296 33
1 c31 1 32 0 32 -41 l0 -43 120 0 120 0 0 -274 0 -275 33 -3 32 -3 3 -72 3
-73 -145 0 c-150 0 -185 -7 -224 -42 -18 -18 -22 -32 -22 -85 l0 -63 443 2
442 3 -1 58 c-2 106 -43 127 -249 127 l-146 0 3 73 3 72 33 3 c26 3 32 8 32
27 0 23 60 58 757 441 161 89 162 89 165 127 l3 37 638 3 637 2 0 -297 0 -298
45 0 45 0 1 273 c1 149 4 283 8 297 l6 25 128 0 c70 0 127 -3 127 -6 0 -4 -11
-31 -25 -60 -57 -126 -73 -287 -41 -423 29 -124 111 -252 216 -340 55 -46 186
-110 260 -127 85 -20 232 -15 315 11 223 69 390 250 441 476 29 133 7 301 -57
426 -10 20 -19 39 -19 40 0 2 64 2 142 1 l143 -2 3 -295 2 -296 45 0 45 0 2
296 3 296 103 1 102 2 2 -25 c0 -14 2 -31 2 -38 1 -7 208 -127 461 -267 403
-223 460 -258 463 -280 3 -20 9 -25 33 -25 l29 0 0 -75 0 -75 -145 0 c-125 0
-151 -3 -184 -20 -44 -22 -61 -58 -61 -126 l0 -44 445 0 445 0 0 58 c0 112
-37 132 -245 132 l-145 0 0 75 0 75 35 0 35 0 0 318 0 317 77 0 78 0 0 125 0
125 -352 3 -353 2 0 40 0 40 403 0 404 0 7 190 c3 105 4 195 1 200 -4 6 -422
10 -1106 10 l-1099 0 0 90 0 90 194 0 193 0 22 52 c12 29 78 191 147 360 l126
306 -198 424 c-108 232 -207 446 -219 473 -12 28 -41 89 -64 137 l-42 88 -187
0 -187 1 -29 65 c-16 36 -46 84 -66 107 l-37 42 102 245 c86 207 104 245 121
243 38 -5 65 8 93 47 24 33 28 46 22 73 -13 54 -41 99 -128 203 l-42 51 227
244 c125 135 490 528 812 874 932 1003 1504 1619 1523 1642 18 20 17 21 -33
58 -29 22 -49 43 -46 50 5 14 2269 2500 2286 2510 6 4 86 -17 178 -45 92 -28
175 -53 185 -56 16 -5 17 -34 17 -434 l0 -429 -63 -3 -63 -3 33 -140 c18 -77
52 -220 75 -317 l42 -178 43 0 43 0 0 -129 0 -129 38 -7 c57 -10 82 -39 82
-96 0 -71 -39 -99 -115 -85 -36 7 -100 63 -138 119 -12 18 -27 27 -44 27 -22
0 -24 -3 -19 -27 15 -60 69 -159 107 -195 l40 -38 -544 -768 -543 -767 -127
-3 -127 -3 0 -334 0 -335 1370 0 1370 0 0 335 0 335 -88 0 -89 0 -507 771
-508 772 37 30 c46 38 65 81 65 149 0 74 -43 148 -103 177 -24 12 -49 21 -55
21 -8 0 -12 27 -12 90 l0 90 63 0 64 0 36 163 c20 89 51 223 67 297 17 74 33
143 36 153 5 15 -2 17 -50 17 l-56 0 0 553 c0 419 -3 557 -13 574 -9 17 -569
491 -769 651 -14 11 -42 -13 -217 -184z m989 -1033 c0 -303 -3 -552 -7 -554
-5 -2 -81 -1 -170 1 l-163 4 0 425 0 425 23 -6 c72 -21 64 -26 187 118 63 74
118 135 123 135 4 1 7 -246 7 -548z m-185 -1766 c22 1 52 3 67 5 26 5 47 -25
531 -760 l504 -765 -1135 -3 c-625 -1 -1137 0 -1139 2 -2 2 240 348 538 769
520 734 544 766 568 759 14 -4 44 -7 66 -7z m-5397 -3520 c1 -1 -49 -123 -112
-270 -101 -239 -117 -269 -142 -280 -40 -17 -83 -69 -118 -143 l-30 -62 -250
-2 -251 -3 -3 -387 -2 -388 -365 -2 c-201 -2 -365 -1 -365 2 0 3 75 87 168
186 92 99 427 460 745 802 l578 622 72 -36 c40 -20 73 -37 75 -39z m1960
-3636 c3 -119 2 -122 -17 -108 -35 25 -270 224 -270 229 -1 3 63 4 141 3 l143
-2 3 -122z m-4983 32 c-14 -12 -147 -124 -167 -140 -17 -13 -18 -8 -18 68 l0
81 97 0 c56 0 93 -4 88 -9z"/>
</g>
</svg>
